<svg width="20" height="20" viewBox="0 0 20 20" fill="none" xmlns="http://www.w3.org/2000/svg">
<path d="M1.33333 19H11.3333C11.687 19 12.0261 18.8595 12.2761 18.6095C12.5262 18.3594 12.6667 18.0203 12.6667 17.6667V14.6667C12.6667 14.5783 12.6315 14.4935 12.569 14.431C12.5065 14.3685 12.4217 14.3333 12.3333 14.3333C12.2449 14.3333 12.1601 14.3685 12.0976 14.431C12.0351 14.4935 12 14.5783 12 14.6667V17.6667C12 17.8435 11.9298 18.013 11.8047 18.1381C11.6797 18.2631 11.5101 18.3333 11.3333 18.3333H1.33333C1.15652 18.3333 0.986953 18.2631 0.861929 18.1381C0.736905 18.013 0.666667 17.8435 0.666667 17.6667V12H1.33333C1.42174 12 1.50652 11.9649 1.56904 11.9024C1.63155 11.8399 1.66667 11.7551 1.66667 11.6667C1.66667 11.5783 1.63155 11.4935 1.56904 11.431C1.50652 11.3685 1.42174 11.3333 1.33333 11.3333H0.666667V2.33333C0.666667 2.15652 0.736905 1.98695 0.861929 1.86193C0.986953 1.7369 1.15652 1.66667 1.33333 1.66667H8V4.33333C8 4.68696 8.14048 5.02609 8.39052 5.27614C8.64057 5.52619 8.97971 5.66667 9.33333 5.66667H12V8.66667C12 8.75507 12.0351 8.83986 12.0976 8.90237C12.1601 8.96488 12.2449 9 12.3333 9C12.4217 9 12.5065 8.96488 12.569 8.90237C12.6315 8.83986 12.6667 8.75507 12.6667 8.66667V5.33333C12.6614 5.24594 12.6275 5.16273 12.57 5.09667L8.57 1.09667C8.50526 1.0371 8.42126 1.00279 8.33333 1H1.33333C0.979711 1 0.640573 1.14048 0.390524 1.39052C0.140476 1.64057 0 1.97971 0 2.33333L0 17.6667C0 18.0203 0.140476 18.3594 0.390524 18.6095C0.640573 18.8595 0.979711 19 1.33333 19ZM9.33333 5C9.15652 5 8.98695 4.92976 8.86193 4.80474C8.73691 4.67971 8.66667 4.51014 8.66667 4.33333V2.13667L11.53 5H9.33333ZM18.6667 8.33333C18.6667 7.41333 17.77 6.66667 16.6667 6.66667C15.5633 6.66667 14.6667 7.41333 14.6667 8.33333C14.6667 9.25333 15.5633 10 16.6667 10C17.77 10 18.6667 9.25333 18.6667 8.33333ZM15.3333 8.33333C15.3333 7.78333 15.93 7.33333 16.6667 7.33333C17.4033 7.33333 18 7.78333 18 8.33333C18 8.88333 17.4033 9.33333 16.6667 9.33333C15.93 9.33333 15.3333 8.88333 15.3333 8.33333ZM16.6667 16.6667C17.77 16.6667 18.6667 15.92 18.6667 15C18.6667 14.08 17.77 13.3333 16.6667 13.3333C15.5633 13.3333 14.6667 14.08 14.6667 15C14.6667 15.92 15.5633 16.6667 16.6667 16.6667ZM16.6667 14C17.4033 14 18 14.45 18 15C18 15.55 17.4033 16 16.6667 16C15.93 16 15.3333 15.55 15.3333 15C15.3333 14.45 15.93 14 16.6667 14Z" fill="white"/>
<path d="M19.9998 8.33398C19.9998 6.66732 18.5032 5.33398 16.6665 5.33398C14.4865 5.33398 12.8965 7.19398 13.4398 9.08065L12.4065 9.93398L8.61651 6.79732C8.41429 6.62962 8.18102 6.5034 7.93001 6.42587C7.67901 6.34834 7.41519 6.32103 7.15362 6.34548C6.89206 6.36994 6.63787 6.44568 6.40559 6.56839C6.1733 6.6911 5.96747 6.85837 5.79984 7.06065C5.61317 7.28732 5.49317 7.39398 5.50984 7.56065C5.51389 7.60449 5.52657 7.64708 5.54717 7.68599C5.56777 7.72489 5.59586 7.75933 5.62984 7.78732L10.3132 11.6673L5.64651 15.5473C5.61253 15.5753 5.58443 15.6097 5.56384 15.6486C5.54324 15.6876 5.53055 15.7302 5.52651 15.774C5.52651 15.9373 5.58984 15.9973 5.81651 16.274C5.98413 16.4763 6.18997 16.6435 6.42225 16.7662C6.65454 16.889 6.90872 16.9647 7.17029 16.9892C7.43185 17.0136 7.69567 16.9863 7.94668 16.9088C8.19769 16.8312 8.43096 16.705 8.63317 16.5373L12.4065 13.4007L13.4398 14.254C12.8932 16.1473 14.4932 18.0007 16.6665 18.0007C18.5032 18.0007 19.9998 16.6673 19.9998 15.0007C19.9998 12.824 17.4798 11.334 15.2432 12.2873L14.4965 11.6673L15.2432 11.0473C17.4798 12.0007 19.9998 10.5073 19.9998 8.33398ZM8.18984 16.024C7.9175 16.2493 7.56684 16.3573 7.21494 16.3241C6.86303 16.291 6.53868 16.1195 6.31317 15.8473L10.8365 12.1007L11.8832 12.9673L8.18984 16.024ZM15.3332 12.9773C17.1232 12.0873 19.3332 13.2207 19.3332 15.0007C19.3332 16.2873 18.1365 17.334 16.6665 17.334C14.8498 17.334 13.5598 15.7707 14.1365 14.264C14.1618 14.199 14.1661 14.1277 14.1488 14.0601C14.1315 13.9925 14.0933 13.9321 14.0398 13.8873L6.31317 7.48732C6.53868 7.21514 6.86303 7.04363 7.21494 7.0105C7.56684 6.97738 7.9175 7.08534 8.18984 7.31065L14.9798 12.934C15.0286 12.9739 15.0877 12.9991 15.1502 13.0068C15.2128 13.0144 15.2762 13.0042 15.3332 12.9773ZM14.9798 10.4007L13.9798 11.234L12.9332 10.3673L14.0465 9.44732C14.1 9.40255 14.1381 9.34212 14.1555 9.27454C14.1728 9.20697 14.1685 9.13565 14.1432 9.07065C13.5598 7.55732 14.8565 6.00065 16.6665 6.00065C18.1365 6.00065 19.3332 7.04732 19.3332 8.33398C19.3332 10.1107 17.1365 11.2507 15.3332 10.3573C15.2762 10.3304 15.2128 10.3202 15.1502 10.3279C15.0877 10.3355 15.0286 10.3608 14.9798 10.4007Z" fill="white"/>
<path d="M12.3333 12.0007C12.5174 12.0007 12.6667 11.8514 12.6667 11.6673C12.6667 11.4832 12.5174 11.334 12.3333 11.334C12.1492 11.334 12 11.4832 12 11.6673C12 11.8514 12.1492 12.0007 12.3333 12.0007Z" fill="white"/>
<path d="M2.66683 11.334C2.57842 11.334 2.49364 11.3691 2.43113 11.4316C2.36862 11.4941 2.3335 11.5789 2.3335 11.6673C2.3335 11.7557 2.36862 11.8405 2.43113 11.903C2.49364 11.9655 2.57842 12.0007 2.66683 12.0007H3.66683C3.75524 12.0007 3.84002 11.9655 3.90253 11.903C3.96504 11.8405 4.00016 11.7557 4.00016 11.6673C4.00016 11.5789 3.96504 11.4941 3.90253 11.4316C3.84002 11.3691 3.75524 11.334 3.66683 11.334H2.66683ZM5.00016 12.0007H6.00016C6.08857 12.0007 6.17335 11.9655 6.23587 11.903C6.29838 11.8405 6.3335 11.7557 6.3335 11.6673C6.3335 11.5789 6.29838 11.4941 6.23587 11.4316C6.17335 11.3691 6.08857 11.334 6.00016 11.334H5.00016C4.91176 11.334 4.82697 11.3691 4.76446 11.4316C4.70195 11.4941 4.66683 11.5789 4.66683 11.6673C4.66683 11.7557 4.70195 11.8405 4.76446 11.903C4.82697 11.9655 4.91176 12.0007 5.00016 12.0007ZM8.3335 12.0007C8.4219 12.0007 8.50669 11.9655 8.5692 11.903C8.63171 11.8405 8.66683 11.7557 8.66683 11.6673C8.66683 11.5789 8.63171 11.4941 8.5692 11.4316C8.50669 11.3691 8.4219 11.334 8.3335 11.334H7.3335C7.24509 11.334 7.16031 11.3691 7.09779 11.4316C7.03528 11.4941 7.00016 11.5789 7.00016 11.6673C7.00016 11.7557 7.03528 11.8405 7.09779 11.903C7.16031 11.9655 7.24509 12.0007 7.3335 12.0007H8.3335Z" fill="white"/>
</svg>
