<svg width="145" height="58" fill="none" xmlns="http://www.w3.org/2000/svg"><mask id="bass808-icon-mask" style="mask-type:alpha" maskUnits="userSpaceOnUse" x="0" y="0" width="145" height="58"><path d="M14.899 36.174v7.263h14.355v-7.263H14.899ZM7.677.082h28.754c2.009 0 3.707.713 5.095 2.139 1.418 1.426 2.127 3.119 2.127 5.08v14.48c0 1.961-.709 3.654-2.127 5.08-1.388 1.396-3.086 2.094-5.095 2.094 1.98 0 3.678.713 5.095 2.14 1.418 1.425 2.127 3.133 2.127 5.123V50.7c0 1.96-.724 3.653-2.171 5.08-1.418 1.425-3.101 2.138-5.05 2.138H7.676c-1.95 0-3.633-.713-5.05-2.139C1.208 54.353.5 52.66.5 50.7V36.22c0-1.99.694-3.699 2.082-5.125C4 29.668 5.698 28.955 7.677 28.955c-2.008 0-3.707-.698-5.095-2.094C1.194 25.435.5 23.742.5 21.781V7.302c0-1.961.694-3.654 2.082-5.08C3.97.795 5.67.08 7.677.08ZM14.9 14.519v7.173h14.355V14.52H14.899ZM86.855 57.918H58.1c-1.95 0-3.633-.713-5.051-2.139-1.418-1.426-2.127-3.119-2.127-5.08V7.3c0-1.96.694-3.653 2.083-5.08C54.394.796 56.092.083 58.1.083h28.754c1.95 0 3.633.713 5.05 2.139 1.418 1.426 2.127 3.119 2.127 5.08V50.7c0 1.96-.709 3.653-2.126 5.08-1.418 1.425-3.102 2.138-5.051 2.138Zm-7.178-14.481V14.563H65.322v28.874h14.355ZM115.746 36.174v7.263h14.355v-7.263h-14.355ZM108.524.082h28.754c2.009 0 3.707.713 5.095 2.139 1.418 1.426 2.127 3.119 2.127 5.08v14.48c0 1.961-.709 3.654-2.127 5.08-1.388 1.396-3.086 2.094-5.095 2.094 1.979 0 3.678.713 5.095 2.14 1.418 1.425 2.127 3.133 2.127 5.123V50.7c0 1.96-.724 3.653-2.171 5.08-1.418 1.425-3.101 2.138-5.051 2.138h-28.754c-1.949 0-3.633-.713-5.051-2.139-1.417-1.426-2.126-3.119-2.126-5.08V36.22c0-1.99.694-3.699 2.082-5.125 1.418-1.426 3.116-2.139 5.095-2.139-2.008 0-3.707-.698-5.095-2.094-1.388-1.426-2.082-3.119-2.082-5.08V7.302c0-1.961.694-3.654 2.082-5.08 1.388-1.426 3.087-2.14 5.095-2.14Zm7.222 14.437v7.173h14.355V14.52h-14.355Z" fill="#DE2C2C"></path></mask><g mask="url(#bass808-icon-mask)" fill="#F7AD49"><path d="M-75.041 58.791H159.78v-2.906H-75.041v2.906ZM-75.041 54.287H159.78v-2.76H-75.041v2.76ZM-75.041 49.783H159.78v-2.615H-75.041v2.615ZM-75.041 45.279H159.78v-2.47H-75.041v2.47ZM-75.041 40.92H159.78v-2.325H-75.041v2.325ZM-75.041 36.416H159.78v-2.18H-75.041v2.18ZM-75.041 31.912H159.78v-2.034H-75.041v2.034ZM-75.041 27.408H159.78v-1.889H-75.041v1.889ZM-75.041 22.904H159.78V21.16H-75.041v1.744ZM-75.041 18.545H159.78v-1.598H-75.041v1.598ZM-75.041 14.04H159.78v-1.452H-75.041v1.453ZM-75.041 9.537H159.78V8.229H-75.041v1.308ZM-75.041 5.033H159.78V3.87H-75.041v1.163ZM-75.041.674H159.78V-.343H-75.041V.674Z"></path></g></svg>