<svg width="120" height="136" viewBox="0 0 120 136" fill="none" xmlns="http://www.w3.org/2000/svg">
<path d="M0 0H120V134C120 135.105 119.105 136 118 136H2C0.895429 136 0 135.105 0 134V0Z" fill="#1F1F1F"/>
<circle cx="90" cy="45" r="15" fill="#141414"/>
<circle cx="90" cy="45" r="14" stroke="white" stroke-opacity="0.3" stroke-width="2"/>
<line x1="91" y1="28" x2="91" y2="38" stroke="white" stroke-opacity="0.3" stroke-width="2"/>
<path d="M82.8807 66.7273H83.9318L86.4034 72.7642H86.4886L88.9602 66.7273H90.0114V74H89.1875V68.4744H89.1165L86.8438 74H86.0483L83.7756 68.4744H83.7045V74H82.8807V66.7273ZM91.6635 74V68.5455H92.5016V74H91.6635ZM92.0897 67.6364C91.9263 67.6364 91.7855 67.5807 91.6671 67.4695C91.5511 67.3582 91.4931 67.2244 91.4931 67.0682C91.4931 66.9119 91.5511 66.7782 91.6671 66.6669C91.7855 66.5556 91.9263 66.5 92.0897 66.5C92.253 66.5 92.3927 66.5556 92.5087 66.6669C92.6271 66.7782 92.6863 66.9119 92.6863 67.0682C92.6863 67.2244 92.6271 67.3582 92.5087 67.4695C92.3927 67.5807 92.253 67.6364 92.0897 67.6364ZM94.6616 68.5455L95.9684 70.7756L97.2752 68.5455H98.2411L96.4798 71.2727L98.2411 74H97.2752L95.9684 71.8835L94.6616 74H93.6957L95.4286 71.2727L93.6957 68.5455H94.6616Z" fill="white"/>
<circle cx="30" cy="45" r="15" fill="#141414"/>
<circle cx="30" cy="45" r="14" stroke="white" stroke-opacity="0.3" stroke-width="2"/>
<line x1="31" y1="28" x2="31" y2="38" stroke="white" stroke-opacity="0.3" stroke-width="2"/>
<path d="M19.8807 74V66.7273H22.3381C22.9063 66.7273 23.3726 66.8243 23.7372 67.0185C24.1018 67.2102 24.3717 67.4742 24.5469 67.8104C24.7221 68.1465 24.8097 68.5289 24.8097 68.9574C24.8097 69.3859 24.7221 69.7659 24.5469 70.0973C24.3717 70.4287 24.103 70.6892 23.7408 70.8786C23.3786 71.0656 22.9157 71.1591 22.3523 71.1591H20.3636V70.3636H22.3239C22.7121 70.3636 23.0246 70.3068 23.2614 70.1932C23.5005 70.0795 23.6733 69.9186 23.7798 69.7102C23.8887 69.4995 23.9432 69.2486 23.9432 68.9574C23.9432 68.6662 23.8887 68.4117 23.7798 68.1939C23.6709 67.9761 23.4969 67.808 23.2578 67.6896C23.0187 67.5689 22.7027 67.5085 22.3097 67.5085H20.7614V74H19.8807ZM23.304 70.733L25.0938 74H24.071L22.3097 70.733H23.304ZM27.7686 74.1278C27.423 74.1278 27.1093 74.0627 26.8276 73.9325C26.5459 73.8 26.3221 73.6094 26.1564 73.3608C25.9907 73.1098 25.9078 72.8068 25.9078 72.4517C25.9078 72.1392 25.9694 71.8859 26.0925 71.6918C26.2156 71.4953 26.3801 71.3414 26.5861 71.2301C26.7921 71.1188 27.0194 71.036 27.2679 70.9815C27.5189 70.9247 27.771 70.8797 28.0243 70.8466C28.3558 70.804 28.6245 70.772 28.8304 70.7507C29.0388 70.727 29.1903 70.688 29.285 70.6335C29.382 70.5791 29.4306 70.4844 29.4306 70.3494V70.321C29.4306 69.9706 29.3347 69.6984 29.1429 69.5043C28.9535 69.3101 28.6659 69.2131 28.28 69.2131C27.8799 69.2131 27.5662 69.3007 27.339 69.4759C27.1117 69.651 26.9519 69.8381 26.8596 70.0369L26.0641 69.7528C26.2061 69.4214 26.3955 69.1634 26.6323 68.9787C26.8714 68.7917 27.1318 68.6615 27.4135 68.5881C27.6976 68.5123 27.977 68.4744 28.2516 68.4744C28.4268 68.4744 28.628 68.4957 28.8553 68.5384C29.0849 68.5786 29.3063 68.6626 29.5194 68.7905C29.7348 68.9183 29.9135 69.1113 30.0556 69.3693C30.1976 69.6274 30.2686 69.973 30.2686 70.4062V74H29.4306V73.2614H29.388C29.3311 73.3797 29.2364 73.5064 29.1039 73.6413C28.9713 73.7763 28.7949 73.8911 28.5748 73.9858C28.3546 74.0805 28.0859 74.1278 27.7686 74.1278ZM27.8965 73.375C28.2279 73.375 28.5073 73.3099 28.7346 73.1797C28.9642 73.0495 29.137 72.8814 29.253 72.6754C29.3714 72.4695 29.4306 72.2528 29.4306 72.0256V71.2585C29.3951 71.3011 29.3169 71.3402 29.1962 71.3757C29.0778 71.4089 28.9405 71.4384 28.7843 71.4645C28.6304 71.4882 28.4801 71.5095 28.3333 71.5284C28.1889 71.545 28.0717 71.5592 27.9817 71.571C27.7639 71.5994 27.5603 71.6456 27.3709 71.7095C27.1839 71.7711 27.0324 71.8646 26.9164 71.9901C26.8027 72.1132 26.7459 72.2812 26.7459 72.4943C26.7459 72.7855 26.8536 73.0057 27.0691 73.1548C27.2869 73.3016 27.5627 73.375 27.8965 73.375ZM34.1705 68.5455V69.2557H31.3438V68.5455H34.1705ZM32.1676 67.2386H33.0057V72.4375C33.0057 72.6742 33.04 72.8518 33.1087 72.9702C33.1797 73.0862 33.2696 73.1643 33.3786 73.2045C33.4898 73.2424 33.607 73.2614 33.7301 73.2614C33.8224 73.2614 33.8982 73.2566 33.9574 73.2472C34.0166 73.2353 34.0639 73.2259 34.0994 73.2188L34.2699 73.9716C34.2131 73.9929 34.1338 74.0142 34.032 74.0355C33.9302 74.0592 33.8011 74.071 33.6449 74.071C33.4081 74.071 33.1761 74.0201 32.9489 73.9183C32.724 73.8165 32.5369 73.6615 32.3878 73.4531C32.241 73.2448 32.1676 72.982 32.1676 72.6648V67.2386ZM37.6594 74.1136C37.1339 74.1136 36.6805 73.9976 36.2994 73.7656C35.9206 73.5312 35.6282 73.2045 35.4222 72.7855C35.2186 72.3641 35.1168 71.8741 35.1168 71.3153C35.1168 70.7566 35.2186 70.2642 35.4222 69.8381C35.6282 69.4096 35.9147 69.0758 36.2816 68.8366C36.6509 68.5952 37.0818 68.4744 37.5742 68.4744C37.8583 68.4744 38.1388 68.5218 38.4158 68.6165C38.6928 68.7112 38.945 68.8651 39.1722 69.0781C39.3995 69.2888 39.5806 69.5682 39.7156 69.9162C39.8505 70.2642 39.918 70.6927 39.918 71.2017V71.5568H35.7134V70.8324H39.0657C39.0657 70.5246 39.0041 70.25 38.881 70.0085C38.7603 69.767 38.5875 69.5765 38.3626 69.4368C38.14 69.2971 37.8772 69.2273 37.5742 69.2273C37.2404 69.2273 36.9516 69.3101 36.7077 69.4759C36.4663 69.6392 36.2804 69.8523 36.1502 70.1151C36.02 70.3778 35.9549 70.6596 35.9549 70.9602V71.4432C35.9549 71.8551 36.0259 72.2043 36.168 72.4908C36.3124 72.7749 36.5124 72.9915 36.7681 73.1406C37.0238 73.2874 37.3209 73.3608 37.6594 73.3608C37.8796 73.3608 38.0785 73.33 38.256 73.2685C38.436 73.2045 38.591 73.1098 38.7212 72.9844C38.8514 72.8565 38.9521 72.6979 39.0231 72.5085L39.8327 72.7358C39.7475 73.0104 39.6043 73.2519 39.4031 73.4602C39.2018 73.6662 38.9532 73.8272 38.6573 73.9432C38.3614 74.0568 38.0288 74.1136 37.6594 74.1136Z" fill="white"/>
</svg>
