<svg width="120" height="136" viewBox="0 0 120 136" fill="none" xmlns="http://www.w3.org/2000/svg">
<path d="M0 0H120V134C120 135.105 119.105 136 118 136H2C0.895429 136 0 135.105 0 134V0Z" fill="#1F1F1F"/>
<circle cx="95" cy="45" r="15" fill="#141414"/>
<circle cx="95" cy="45" r="14" stroke="white" stroke-opacity="0.3" stroke-width="2"/>
<line x1="96" y1="30" x2="96" y2="40" stroke="white" stroke-opacity="0.3" stroke-width="2"/>
<path d="M84.125 74H81.8807V66.7273H84.2244C84.9299 66.7273 85.5336 66.8729 86.0355 67.1641C86.5374 67.4529 86.9221 67.8684 87.1896 68.4105C87.4571 68.9503 87.5909 69.5966 87.5909 70.3494C87.5909 71.107 87.456 71.7592 87.1861 72.3061C86.9162 72.8506 86.5232 73.2696 86.0071 73.5632C85.491 73.8544 84.8636 74 84.125 74ZM82.7614 73.2188H84.0682C84.6695 73.2188 85.1679 73.1027 85.5632 72.8707C85.9586 72.6387 86.2533 72.3085 86.4474 71.88C86.6416 71.4515 86.7386 70.9413 86.7386 70.3494C86.7386 69.7623 86.6428 69.2569 86.451 68.8331C86.2592 68.407 85.9728 68.0803 85.5916 67.853C85.2105 67.6233 84.7358 67.5085 84.1676 67.5085H82.7614V73.2188ZM91.2415 74.1136C90.7159 74.1136 90.2625 73.9976 89.8814 73.7656C89.5026 73.5312 89.2102 73.2045 89.0043 72.7855C88.8007 72.3641 88.6989 71.8741 88.6989 71.3153C88.6989 70.7566 88.8007 70.2642 89.0043 69.8381C89.2102 69.4096 89.4967 69.0758 89.8636 68.8366C90.233 68.5952 90.6638 68.4744 91.1562 68.4744C91.4403 68.4744 91.7209 68.5218 91.9979 68.6165C92.2749 68.7112 92.527 68.8651 92.7543 69.0781C92.9815 69.2888 93.1626 69.5682 93.2976 69.9162C93.4325 70.2642 93.5 70.6927 93.5 71.2017V71.5568H89.2955V70.8324H92.6477C92.6477 70.5246 92.5862 70.25 92.4631 70.0085C92.3423 69.767 92.1695 69.5765 91.9446 69.4368C91.7221 69.2971 91.4593 69.2273 91.1562 69.2273C90.8224 69.2273 90.5336 69.3101 90.2898 69.4759C90.0483 69.6392 89.8625 69.8523 89.7322 70.1151C89.602 70.3778 89.5369 70.6596 89.5369 70.9602V71.4432C89.5369 71.8551 89.608 72.2043 89.75 72.4908C89.8944 72.7749 90.0945 72.9915 90.3501 73.1406C90.6058 73.2874 90.9029 73.3608 91.2415 73.3608C91.4616 73.3608 91.6605 73.33 91.8381 73.2685C92.018 73.2045 92.1731 73.1098 92.3033 72.9844C92.4335 72.8565 92.5341 72.6979 92.6051 72.5085L93.4148 72.7358C93.3295 73.0104 93.1863 73.2519 92.9851 73.4602C92.7839 73.6662 92.5353 73.8272 92.2393 73.9432C91.9434 74.0568 91.6108 74.1136 91.2415 74.1136ZM94.7749 76.0455V68.5455H95.5845V69.4119H95.6839C95.7455 69.3172 95.8307 69.1965 95.9396 69.0497C96.0509 68.9006 96.2095 68.768 96.4155 68.652C96.6238 68.5336 96.9055 68.4744 97.2607 68.4744C97.7199 68.4744 98.1248 68.5893 98.4751 68.8189C98.8255 69.0485 99.099 69.3741 99.2955 69.7955C99.492 70.2169 99.5902 70.714 99.5902 71.2869C99.5902 71.8646 99.492 72.3653 99.2955 72.7891C99.099 73.2105 98.8267 73.5372 98.4787 73.7692C98.1307 73.9988 97.7294 74.1136 97.2749 74.1136C96.9245 74.1136 96.6439 74.0556 96.4332 73.9396C96.2225 73.8213 96.0604 73.6875 95.9467 73.5384C95.8331 73.3868 95.7455 73.2614 95.6839 73.1619H95.6129V76.0455H94.7749ZM95.5987 71.2727C95.5987 71.6847 95.6591 72.0481 95.7798 72.3629C95.9006 72.6754 96.0769 72.9205 96.3089 73.098C96.541 73.2732 96.825 73.3608 97.1612 73.3608C97.5116 73.3608 97.804 73.2685 98.0384 73.0838C98.2751 72.8968 98.4527 72.6458 98.571 72.331C98.6918 72.0137 98.7521 71.661 98.7521 71.2727C98.7521 70.8892 98.6929 70.5436 98.5746 70.2358C98.4586 69.9257 98.2822 69.6806 98.0455 69.5007C97.8111 69.3184 97.5163 69.2273 97.1612 69.2273C96.8203 69.2273 96.5339 69.3137 96.3018 69.4865C96.0698 69.657 95.8946 69.8961 95.7763 70.2038C95.6579 70.5092 95.5987 70.8655 95.5987 71.2727ZM103.241 68.5455V69.2557H100.414V68.5455H103.241ZM101.238 67.2386H102.076V72.4375C102.076 72.6742 102.11 72.8518 102.179 72.9702C102.25 73.0862 102.34 73.1643 102.449 73.2045C102.56 73.2424 102.677 73.2614 102.8 73.2614C102.893 73.2614 102.969 73.2566 103.028 73.2472C103.087 73.2353 103.134 73.2259 103.17 73.2188L103.34 73.9716C103.283 73.9929 103.204 74.0142 103.102 74.0355C103 74.0592 102.871 74.071 102.715 74.071C102.478 74.071 102.246 74.0201 102.019 73.9183C101.794 73.8165 101.607 73.6615 101.458 73.4531C101.311 73.2448 101.238 72.982 101.238 72.6648V67.2386ZM105.457 70.7188V74H104.619V66.7273H105.457V69.3977H105.528C105.656 69.116 105.847 68.8923 106.103 68.7266C106.361 68.5585 106.704 68.4744 107.133 68.4744C107.504 68.4744 107.83 68.549 108.109 68.6982C108.389 68.8449 108.605 69.071 108.759 69.3764C108.915 69.6795 108.994 70.0653 108.994 70.5341V74H108.156V70.5909C108.156 70.1577 108.043 69.8227 107.818 69.5859C107.596 69.3468 107.287 69.2273 106.891 69.2273C106.617 69.2273 106.371 69.2853 106.153 69.4013C105.937 69.5173 105.767 69.6866 105.641 69.9091C105.518 70.1316 105.457 70.4015 105.457 70.7188Z" fill="white"/>
<circle cx="25" cy="91" r="15" fill="#141414"/>
<circle cx="25" cy="91" r="14" stroke="white" stroke-opacity="0.3" stroke-width="2"/>
<line x1="26" y1="76" x2="26" y2="86" stroke="white" stroke-opacity="0.3" stroke-width="2"/>
<path d="M14.8807 120V112.727H17.3381C17.9063 112.727 18.3726 112.824 18.7372 113.018C19.1018 113.21 19.3717 113.474 19.5469 113.81C19.7221 114.147 19.8097 114.529 19.8097 114.957C19.8097 115.386 19.7221 115.766 19.5469 116.097C19.3717 116.429 19.103 116.689 18.7408 116.879C18.3786 117.066 17.9157 117.159 17.3523 117.159H15.3636V116.364H17.3239C17.7121 116.364 18.0246 116.307 18.2614 116.193C18.5005 116.08 18.6733 115.919 18.7798 115.71C18.8887 115.5 18.9432 115.249 18.9432 114.957C18.9432 114.666 18.8887 114.412 18.7798 114.194C18.6709 113.976 18.4969 113.808 18.2578 113.69C18.0187 113.569 17.7027 113.509 17.3097 113.509H15.7614V120H14.8807ZM18.304 116.733L20.0938 120H19.071L17.3097 116.733H18.304ZM22.7686 120.128C22.423 120.128 22.1093 120.063 21.8276 119.933C21.5459 119.8 21.3221 119.609 21.1564 119.361C20.9907 119.11 20.9078 118.807 20.9078 118.452C20.9078 118.139 20.9694 117.886 21.0925 117.692C21.2156 117.495 21.3801 117.341 21.5861 117.23C21.7921 117.119 22.0194 117.036 22.2679 116.982C22.5189 116.925 22.771 116.88 23.0243 116.847C23.3558 116.804 23.6245 116.772 23.8304 116.751C24.0388 116.727 24.1903 116.688 24.285 116.634C24.382 116.579 24.4306 116.484 24.4306 116.349V116.321C24.4306 115.971 24.3347 115.698 24.1429 115.504C23.9535 115.31 23.6659 115.213 23.28 115.213C22.8799 115.213 22.5662 115.301 22.339 115.476C22.1117 115.651 21.9519 115.838 21.8596 116.037L21.0641 115.753C21.2061 115.421 21.3955 115.163 21.6323 114.979C21.8714 114.792 22.1318 114.661 22.4135 114.588C22.6976 114.512 22.977 114.474 23.2516 114.474C23.4268 114.474 23.628 114.496 23.8553 114.538C24.0849 114.579 24.3063 114.663 24.5194 114.79C24.7348 114.918 24.9135 115.111 25.0556 115.369C25.1976 115.627 25.2686 115.973 25.2686 116.406V120H24.4306V119.261H24.388C24.3311 119.38 24.2364 119.506 24.1039 119.641C23.9713 119.776 23.7949 119.891 23.5748 119.986C23.3546 120.08 23.0859 120.128 22.7686 120.128ZM22.8965 119.375C23.2279 119.375 23.5073 119.31 23.7346 119.18C23.9642 119.049 24.137 118.881 24.253 118.675C24.3714 118.469 24.4306 118.253 24.4306 118.026V117.259C24.3951 117.301 24.3169 117.34 24.1962 117.376C24.0778 117.409 23.9405 117.438 23.7843 117.464C23.6304 117.488 23.4801 117.509 23.3333 117.528C23.1889 117.545 23.0717 117.559 22.9817 117.571C22.7639 117.599 22.5603 117.646 22.3709 117.71C22.1839 117.771 22.0324 117.865 21.9164 117.99C21.8027 118.113 21.7459 118.281 21.7459 118.494C21.7459 118.786 21.8536 119.006 22.0691 119.155C22.2869 119.302 22.5627 119.375 22.8965 119.375ZM29.1705 114.545V115.256H26.3438V114.545H29.1705ZM27.1676 113.239H28.0057V118.438C28.0057 118.674 28.04 118.852 28.1087 118.97C28.1797 119.086 28.2696 119.164 28.3786 119.205C28.4898 119.242 28.607 119.261 28.7301 119.261C28.8224 119.261 28.8982 119.257 28.9574 119.247C29.0166 119.235 29.0639 119.226 29.0994 119.219L29.2699 119.972C29.2131 119.993 29.1338 120.014 29.032 120.036C28.9302 120.059 28.8011 120.071 28.6449 120.071C28.4081 120.071 28.1761 120.02 27.9489 119.918C27.724 119.817 27.5369 119.661 27.3878 119.453C27.241 119.245 27.1676 118.982 27.1676 118.665V113.239ZM32.6594 120.114C32.1339 120.114 31.6805 119.998 31.2994 119.766C30.9206 119.531 30.6282 119.205 30.4222 118.786C30.2186 118.364 30.1168 117.874 30.1168 117.315C30.1168 116.757 30.2186 116.264 30.4222 115.838C30.6282 115.41 30.9147 115.076 31.2816 114.837C31.6509 114.595 32.0818 114.474 32.5742 114.474C32.8583 114.474 33.1388 114.522 33.4158 114.616C33.6928 114.711 33.945 114.865 34.1722 115.078C34.3995 115.289 34.5806 115.568 34.7156 115.916C34.8505 116.264 34.918 116.693 34.918 117.202V117.557H30.7134V116.832H34.0657C34.0657 116.525 34.0041 116.25 33.881 116.009C33.7603 115.767 33.5875 115.576 33.3626 115.437C33.14 115.297 32.8772 115.227 32.5742 115.227C32.2404 115.227 31.9516 115.31 31.7077 115.476C31.4663 115.639 31.2804 115.852 31.1502 116.115C31.02 116.378 30.9549 116.66 30.9549 116.96V117.443C30.9549 117.855 31.0259 118.204 31.168 118.491C31.3124 118.775 31.5124 118.991 31.7681 119.141C32.0238 119.287 32.3209 119.361 32.6594 119.361C32.8796 119.361 33.0785 119.33 33.256 119.268C33.436 119.205 33.591 119.11 33.7212 118.984C33.8514 118.857 33.9521 118.698 34.0231 118.509L34.8327 118.736C34.7475 119.01 34.6043 119.252 34.4031 119.46C34.2018 119.666 33.9532 119.827 33.6573 119.943C33.3614 120.057 33.0288 120.114 32.6594 120.114Z" fill="white"/>
</svg>
