<svg width="20" height="10" viewBox="0 0 20 10" fill="none" xmlns="http://www.w3.org/2000/svg">
<path d="M19.4437 0.306641H19.4428C19.3647 0.306661 19.2878 0.324607 19.2178 0.359094C19.1478 0.393581 19.0867 0.443688 19.0391 0.505547C18.4205 1.30965 17.7244 1.89184 16.9904 2.40289C16.0395 3.06484 14.9384 3.45008 13.7904 3.53055V2.20035H13.8052C14.1741 2.20035 14.4732 1.90129 14.4732 1.53238C14.4732 1.16348 14.1741 0.864414 13.8052 0.864414H12.4396C12.1186 0.864414 11.8507 1.09094 11.7865 1.39277C11.7223 1.0909 11.4544 0.864414 11.1334 0.864414H9.76773C9.44676 0.864414 9.17887 1.09094 9.11461 1.39277C9.05039 1.0909 8.7825 0.864414 8.46148 0.864414H7.09586C6.72695 0.864414 6.42789 1.16348 6.42789 1.53238C6.42789 1.90129 6.72695 2.20035 7.09586 2.20035H7.1107V3.54691H1.33594C1.33594 3.17801 1.03688 2.87895 0.667969 2.87895C0.299062 2.87895 0 3.17801 0 3.54691V5.66891C0 6.03781 0.299062 6.33687 0.667969 6.33687C1.03688 6.33687 1.33594 6.03781 1.33594 5.66891H3.55168V7.10402C3.55168 8.53164 4.71312 9.69305 6.1407 9.69305H9.41668C10.8443 9.69305 12.0057 8.53164 12.0057 7.10402V5.66891H13.3373C14.6425 5.66891 15.9192 6.06723 16.9903 6.81301C17.7193 7.32059 18.411 7.89828 19.0264 8.69391C19.0782 8.76087 19.1447 8.81509 19.2207 8.85243C19.2967 8.88976 19.3802 8.90921 19.4649 8.9093H19.466C19.7609 8.9093 19.9999 8.67023 19.9999 8.37535V0.862852C20 0.555703 19.7509 0.306641 19.4437 0.306641ZM8.44668 2.20035H8.46152C8.7825 2.20035 9.05039 1.97383 9.11465 1.67199C9.17887 1.97387 9.44676 2.20035 9.76777 2.20035H9.78262V3.54691H8.44668V2.20035ZM10.6698 7.10406C10.6698 7.79504 10.1077 8.35719 9.41668 8.35719H6.1407C5.44977 8.35719 4.88762 7.79508 4.88762 7.10406V5.67195H10.6698V7.10406ZM12.4545 3.54695H11.1185V2.20039H11.1334C11.4544 2.20039 11.7223 1.97391 11.7865 1.67203C11.8507 1.97391 12.1186 2.20039 12.4396 2.20039H12.4545V3.54695Z" fill="white"/>
</svg>
