<svg width="120" height="136" viewBox="0 0 120 136" fill="none" xmlns="http://www.w3.org/2000/svg">
<path d="M0 0H120V134C120 135.105 119.105 136 118 136H2C0.895429 136 0 135.105 0 134V0Z" fill="#1F1F1F"/>
<rect x="10" y="92" width="100" height="2" rx="1" fill="white" fill-opacity="0.1"/>
<path d="M10 93C10 92.4477 10.4477 92 11 92H43C43.5523 92 44 92.4477 44 93C44 93.5523 43.5523 94 43 94H11C10.4477 94 10 93.5523 10 93Z" fill="white"/>
<circle cx="44" cy="92" r="3" fill="white"/>
<path d="M16.733 81H15.8523C15.8002 80.7467 15.709 80.5241 15.5788 80.3324C15.451 80.1406 15.2947 79.9796 15.1101 79.8494C14.9278 79.7169 14.7254 79.6174 14.5028 79.5511C14.2803 79.4848 14.0483 79.4517 13.8068 79.4517C13.3665 79.4517 12.9676 79.563 12.6101 79.7855C12.255 80.008 11.9721 80.3359 11.7614 80.7692C11.553 81.2024 11.4489 81.7339 11.4489 82.3636C11.4489 82.9934 11.553 83.5249 11.7614 83.9581C11.9721 84.3913 12.255 84.7192 12.6101 84.9418C12.9676 85.1643 13.3665 85.2756 13.8068 85.2756C14.0483 85.2756 14.2803 85.2424 14.5028 85.1761C14.7254 85.1098 14.9278 85.0116 15.1101 84.8814C15.2947 84.7488 15.451 84.5866 15.5788 84.3949C15.709 84.2008 15.8002 83.9782 15.8523 83.7273H16.733C16.6667 84.099 16.5459 84.4316 16.3707 84.7251C16.1955 85.0187 15.9777 85.2685 15.7173 85.4744C15.4569 85.678 15.1645 85.8331 14.8402 85.9396C14.5182 86.0462 14.1738 86.0994 13.8068 86.0994C13.1866 86.0994 12.6349 85.9479 12.152 85.6449C11.669 85.3419 11.2891 84.911 11.0121 84.3523C10.7351 83.7936 10.5966 83.1307 10.5966 82.3636C10.5966 81.5966 10.7351 80.9337 11.0121 80.375C11.2891 79.8163 11.669 79.3854 12.152 79.0824C12.6349 78.7794 13.1866 78.6278 13.8068 78.6278C14.1738 78.6278 14.5182 78.6811 14.8402 78.7876C15.1645 78.8942 15.4569 79.0504 15.7173 79.2564C15.9777 79.46 16.1955 79.7086 16.3707 80.0021C16.5459 80.2933 16.6667 80.6259 16.733 81ZM18.0424 86V80.5455H18.8521V81.3693H18.9089C19.0083 81.0994 19.1883 80.8804 19.4487 80.7124C19.7091 80.5443 20.0027 80.4602 20.3294 80.4602C20.3909 80.4602 20.4679 80.4614 20.5602 80.4638C20.6525 80.4661 20.7224 80.4697 20.7697 80.4744V81.3267C20.7413 81.3196 20.6762 81.3089 20.5744 81.2947C20.475 81.2782 20.3696 81.2699 20.2583 81.2699C19.9932 81.2699 19.7565 81.3255 19.5481 81.4368C19.3422 81.5457 19.1788 81.6972 19.0581 81.8913C18.9397 82.0831 18.8805 82.3021 18.8805 82.5483V86H18.0424ZM25.2006 83.7699V80.5455H26.0387V86H25.2006V85.0767H25.1438C25.016 85.3537 24.8171 85.5893 24.5472 85.7834C24.2773 85.9751 23.9364 86.071 23.5245 86.071C23.1836 86.071 22.8806 85.9964 22.6154 85.8473C22.3503 85.6958 22.1419 85.4685 21.9904 85.1655C21.8389 84.8601 21.7631 84.4754 21.7631 84.0114V80.5455H22.6012V83.9545C22.6012 84.3523 22.7125 84.6695 22.935 84.9062C23.1599 85.143 23.4464 85.2614 23.7944 85.2614C24.0027 85.2614 24.2146 85.2081 24.43 85.1016C24.6478 84.995 24.8301 84.8317 24.9769 84.6115C25.1261 84.3913 25.2006 84.1108 25.2006 83.7699ZM31.4373 81.767L30.6845 81.9801C30.6371 81.8546 30.5673 81.7327 30.475 81.6143C30.385 81.4936 30.2619 81.3942 30.1056 81.3161C29.9494 81.2379 29.7493 81.1989 29.5055 81.1989C29.1717 81.1989 28.8935 81.2758 28.671 81.4297C28.4508 81.5812 28.3407 81.7741 28.3407 82.0085C28.3407 82.2169 28.4165 82.3814 28.568 82.5021C28.7195 82.6229 28.9563 82.7235 29.2782 82.804L30.0879 83.0028C30.5756 83.1212 30.939 83.3023 31.1781 83.5462C31.4172 83.7876 31.5368 84.099 31.5368 84.4801C31.5368 84.7926 31.4468 85.072 31.2669 85.3182C31.0893 85.5644 30.8407 85.7585 30.5211 85.9006C30.2015 86.0426 29.8298 86.1136 29.4061 86.1136C28.8497 86.1136 28.3893 85.9929 28.0247 85.7514C27.6601 85.5099 27.4293 85.1572 27.3322 84.6932L28.1277 84.4943C28.2034 84.7879 28.3467 85.008 28.5574 85.1548C28.7704 85.3016 29.0486 85.375 29.3919 85.375C29.7825 85.375 30.0926 85.2921 30.3223 85.1264C30.5543 84.9583 30.6703 84.7571 30.6703 84.5227C30.6703 84.3333 30.604 84.1747 30.4714 84.0469C30.3388 83.9167 30.1352 83.8196 29.8606 83.7557L28.9515 83.5426C28.452 83.4242 28.085 83.2408 27.8507 82.9922C27.6187 82.7412 27.5027 82.4276 27.5027 82.0511C27.5027 81.7434 27.5891 81.4711 27.7619 81.2344C27.9371 80.9976 28.175 80.8118 28.4757 80.6768C28.7787 80.5419 29.122 80.4744 29.5055 80.4744C30.0453 80.4744 30.469 80.5928 30.7768 80.8295C31.0869 81.0663 31.3071 81.3788 31.4373 81.767ZM33.6364 82.7188V86H32.7983V78.7273H33.6364V81.3977H33.7074C33.8352 81.116 34.027 80.8923 34.2827 80.7266C34.5407 80.5585 34.884 80.4744 35.3125 80.4744C35.6842 80.4744 36.0097 80.549 36.2891 80.6982C36.5684 80.8449 36.785 81.071 36.9389 81.3764C37.0952 81.6795 37.1733 82.0653 37.1733 82.5341V86H36.3352V82.5909C36.3352 82.1577 36.2228 81.8227 35.9979 81.5859C35.7753 81.3468 35.4664 81.2273 35.071 81.2273C34.7964 81.2273 34.5502 81.2853 34.3324 81.4013C34.117 81.5173 33.9465 81.6866 33.821 81.9091C33.6979 82.1316 33.6364 82.4015 33.6364 82.7188Z" fill="white"/>
<rect x="10" y="122" width="100" height="2" rx="1" fill="white" fill-opacity="0.1"/>
<path d="M10 123C10 122.448 10.4477 122 11 122H43C43.5523 122 44 122.448 44 123C44 123.552 43.5523 124 43 124H11C10.4477 124 10 123.552 10 123Z" fill="white"/>
<circle cx="44" cy="122" r="3" fill="white"/>
<path d="M13.125 116H10.8807V108.727H13.2244C13.9299 108.727 14.5336 108.873 15.0355 109.164C15.5374 109.453 15.9221 109.868 16.1896 110.411C16.4571 110.95 16.5909 111.597 16.5909 112.349C16.5909 113.107 16.456 113.759 16.1861 114.306C15.9162 114.851 15.5232 115.27 15.0071 115.563C14.491 115.854 13.8636 116 13.125 116ZM11.7614 115.219H13.0682C13.6695 115.219 14.1679 115.103 14.5632 114.871C14.9586 114.639 15.2533 114.308 15.4474 113.88C15.6416 113.451 15.7386 112.941 15.7386 112.349C15.7386 111.762 15.6428 111.257 15.451 110.833C15.2592 110.407 14.9728 110.08 14.5916 109.853C14.2105 109.623 13.7358 109.509 13.1676 109.509H11.7614V115.219ZM20.1705 116.114C19.678 116.114 19.246 115.996 18.8743 115.762C18.505 115.528 18.2161 115.2 18.0078 114.778C17.8018 114.357 17.6989 113.865 17.6989 113.301C17.6989 112.733 17.8018 112.237 18.0078 111.813C18.2161 111.389 18.505 111.06 18.8743 110.826C19.246 110.592 19.678 110.474 20.1705 110.474C20.6629 110.474 21.0938 110.592 21.4631 110.826C21.8348 111.06 22.1236 111.389 22.3295 111.813C22.5379 112.237 22.642 112.733 22.642 113.301C22.642 113.865 22.5379 114.357 22.3295 114.778C22.1236 115.2 21.8348 115.528 21.4631 115.762C21.0938 115.996 20.6629 116.114 20.1705 116.114ZM20.1705 115.361C20.5445 115.361 20.8523 115.265 21.0938 115.073C21.3352 114.881 21.514 114.629 21.63 114.317C21.746 114.004 21.804 113.666 21.804 113.301C21.804 112.937 21.746 112.597 21.63 112.282C21.514 111.967 21.3352 111.713 21.0938 111.518C20.8523 111.324 20.5445 111.227 20.1705 111.227C19.7964 111.227 19.4886 111.324 19.2472 111.518C19.0057 111.713 18.8269 111.967 18.7109 112.282C18.5949 112.597 18.5369 112.937 18.5369 113.301C18.5369 113.666 18.5949 114.004 18.7109 114.317C18.8269 114.629 19.0057 114.881 19.2472 115.073C19.4886 115.265 19.7964 115.361 20.1705 115.361ZM24.9716 116L23.3097 110.545H24.1903L25.3693 114.722H25.4261L26.5909 110.545H27.4858L28.6364 114.707H28.6932L29.8722 110.545H30.7528L29.0909 116H28.267L27.0739 111.81H26.9886L25.7955 116H24.9716ZM32.6989 112.719V116H31.8608V110.545H32.6705V111.398H32.7415C32.8693 111.121 33.0634 110.898 33.3239 110.73C33.5843 110.56 33.9205 110.474 34.3324 110.474C34.7017 110.474 35.0249 110.55 35.3018 110.702C35.5788 110.851 35.7943 111.078 35.9482 111.384C36.102 111.687 36.179 112.07 36.179 112.534V116H35.3409V112.591C35.3409 112.162 35.2296 111.829 35.0071 111.589C34.7846 111.348 34.4792 111.227 34.0909 111.227C33.8234 111.227 33.5843 111.285 33.3736 111.401C33.1652 111.517 33.0007 111.687 32.88 111.909C32.7592 112.132 32.6989 112.402 32.6989 112.719ZM41.574 111.767L40.8212 111.98C40.7739 111.855 40.704 111.733 40.6117 111.614C40.5217 111.494 40.3986 111.394 40.2424 111.316C40.0861 111.238 39.8861 111.199 39.6422 111.199C39.3084 111.199 39.0302 111.276 38.8077 111.43C38.5875 111.581 38.4775 111.774 38.4775 112.009C38.4775 112.217 38.5532 112.381 38.7047 112.502C38.8562 112.623 39.093 112.723 39.415 112.804L40.2246 113.003C40.7123 113.121 41.0757 113.302 41.3148 113.546C41.5539 113.788 41.6735 114.099 41.6735 114.48C41.6735 114.793 41.5835 115.072 41.4036 115.318C41.226 115.564 40.9775 115.759 40.6578 115.901C40.3382 116.043 39.9666 116.114 39.5428 116.114C38.9864 116.114 38.526 115.993 38.1614 115.751C37.7968 115.51 37.566 115.157 37.4689 114.693L38.2644 114.494C38.3401 114.788 38.4834 115.008 38.6941 115.155C38.9071 115.302 39.1853 115.375 39.5286 115.375C39.9192 115.375 40.2293 115.292 40.459 115.126C40.691 114.958 40.807 114.757 40.807 114.523C40.807 114.333 40.7407 114.175 40.6081 114.047C40.4756 113.917 40.272 113.82 39.9973 113.756L39.0882 113.543C38.5887 113.424 38.2218 113.241 37.9874 112.992C37.7554 112.741 37.6394 112.428 37.6394 112.051C37.6394 111.743 37.7258 111.471 37.8986 111.234C38.0738 110.998 38.3117 110.812 38.6124 110.677C38.9154 110.542 39.2587 110.474 39.6422 110.474C40.182 110.474 40.6058 110.593 40.9135 110.83C41.2237 111.066 41.4438 111.379 41.574 111.767ZM44.5401 116.128C44.1945 116.128 43.8808 116.063 43.5991 115.933C43.3174 115.8 43.0936 115.609 42.9279 115.361C42.7622 115.11 42.6793 114.807 42.6793 114.452C42.6793 114.139 42.7409 113.886 42.864 113.692C42.9871 113.495 43.1516 113.341 43.3576 113.23C43.5636 113.119 43.7908 113.036 44.0394 112.982C44.2904 112.925 44.5425 112.88 44.7958 112.847C45.1272 112.804 45.396 112.772 45.6019 112.751C45.8103 112.727 45.9618 112.688 46.0565 112.634C46.1535 112.579 46.2021 112.484 46.2021 112.349V112.321C46.2021 111.971 46.1062 111.698 45.9144 111.504C45.725 111.31 45.4374 111.213 45.0515 111.213C44.6514 111.213 44.3377 111.301 44.1104 111.476C43.8832 111.651 43.7234 111.838 43.631 112.037L42.8356 111.753C42.9776 111.421 43.167 111.163 43.4038 110.979C43.6429 110.792 43.9033 110.661 44.185 110.588C44.4691 110.512 44.7485 110.474 45.0231 110.474C45.1983 110.474 45.3995 110.496 45.6268 110.538C45.8564 110.579 46.0778 110.663 46.2908 110.79C46.5063 110.918 46.685 111.111 46.8271 111.369C46.9691 111.627 47.0401 111.973 47.0401 112.406V116H46.2021V115.261H46.1594C46.1026 115.38 46.0079 115.506 45.8754 115.641C45.7428 115.776 45.5664 115.891 45.3462 115.986C45.1261 116.08 44.8574 116.128 44.5401 116.128ZM44.668 115.375C44.9994 115.375 45.2788 115.31 45.506 115.18C45.7357 115.049 45.9085 114.881 46.0245 114.675C46.1429 114.469 46.2021 114.253 46.2021 114.026V113.259C46.1665 113.301 46.0884 113.34 45.9677 113.376C45.8493 113.409 45.712 113.438 45.5558 113.464C45.4019 113.488 45.2515 113.509 45.1048 113.528C44.9603 113.545 44.8432 113.559 44.7532 113.571C44.5354 113.599 44.3318 113.646 44.1424 113.71C43.9554 113.771 43.8039 113.865 43.6879 113.99C43.5742 114.113 43.5174 114.281 43.5174 114.494C43.5174 114.786 43.6251 115.006 43.8406 115.155C44.0584 115.302 44.3342 115.375 44.668 115.375ZM48.5698 116V110.545H49.3794V111.398H49.4505C49.5641 111.107 49.7476 110.88 50.0009 110.719C50.2542 110.556 50.5584 110.474 50.9135 110.474C51.2734 110.474 51.5729 110.556 51.812 110.719C52.0534 110.88 52.2417 111.107 52.3766 111.398H52.4334C52.5731 111.116 52.7826 110.892 53.062 110.727C53.3413 110.558 53.6763 110.474 54.0669 110.474C54.5546 110.474 54.9535 110.627 55.2637 110.933C55.5738 111.236 55.7289 111.708 55.7289 112.349V116H54.8908V112.349C54.8908 111.947 54.7807 111.659 54.5605 111.487C54.3404 111.314 54.0811 111.227 53.7828 111.227C53.3993 111.227 53.1022 111.343 52.8915 111.575C52.6808 111.805 52.5755 112.096 52.5755 112.449V116H51.7232V112.264C51.7232 111.954 51.6226 111.704 51.4213 111.515C51.2201 111.323 50.9609 111.227 50.6436 111.227C50.4258 111.227 50.2222 111.285 50.0328 111.401C49.8458 111.517 49.6943 111.678 49.5783 111.884C49.4647 112.088 49.4078 112.323 49.4078 112.591V116H48.5698ZM57.2612 118.045V110.545H58.0708V111.412H58.1703C58.2318 111.317 58.3171 111.196 58.426 111.05C58.5372 110.901 58.6958 110.768 58.9018 110.652C59.1101 110.534 59.3919 110.474 59.747 110.474C60.2063 110.474 60.6111 110.589 60.9615 110.819C61.3118 111.049 61.5853 111.374 61.7818 111.795C61.9783 112.217 62.0765 112.714 62.0765 113.287C62.0765 113.865 61.9783 114.365 61.7818 114.789C61.5853 115.21 61.313 115.537 60.965 115.769C60.617 115.999 60.2157 116.114 59.7612 116.114C59.4108 116.114 59.1303 116.056 58.9196 115.94C58.7089 115.821 58.5467 115.687 58.4331 115.538C58.3194 115.387 58.2318 115.261 58.1703 115.162H58.0993V118.045H57.2612ZM58.085 113.273C58.085 113.685 58.1454 114.048 58.2662 114.363C58.3869 114.675 58.5633 114.92 58.7953 115.098C59.0273 115.273 59.3114 115.361 59.6475 115.361C59.9979 115.361 60.2903 115.268 60.5247 115.084C60.7614 114.897 60.939 114.646 61.0574 114.331C61.1781 114.014 61.2385 113.661 61.2385 113.273C61.2385 112.889 61.1793 112.544 61.0609 112.236C60.9449 111.926 60.7685 111.681 60.5318 111.501C60.2974 111.318 60.0027 111.227 59.6475 111.227C59.3066 111.227 59.0202 111.314 58.7882 111.487C58.5562 111.657 58.381 111.896 58.2626 112.204C58.1442 112.509 58.085 112.866 58.085 113.273ZM64.193 108.727V116H63.3549V108.727H64.193ZM65.728 116V110.545H66.5661V116H65.728ZM66.1541 109.636C65.9908 109.636 65.8499 109.581 65.7315 109.469C65.6155 109.358 65.5575 109.224 65.5575 109.068C65.5575 108.912 65.6155 108.778 65.7315 108.667C65.8499 108.556 65.9908 108.5 66.1541 108.5C66.3175 108.5 66.4571 108.556 66.5732 108.667C66.6915 108.778 66.7507 108.912 66.7507 109.068C66.7507 109.224 66.6915 109.358 66.5732 109.469C66.4571 109.581 66.3175 109.636 66.1541 109.636ZM68.9391 112.719V116H68.101V110.545H68.9107V111.398H68.9817C69.1096 111.121 69.3037 110.898 69.5641 110.73C69.8245 110.56 70.1607 110.474 70.5726 110.474C70.9419 110.474 71.2651 110.55 71.5421 110.702C71.8191 110.851 72.0345 111.078 72.1884 111.384C72.3423 111.687 72.4192 112.07 72.4192 112.534V116H71.5811V112.591C71.5811 112.162 71.4699 111.829 71.2473 111.589C71.0248 111.348 70.7194 111.227 70.3311 111.227C70.0636 111.227 69.8245 111.285 69.6138 111.401C69.4055 111.517 69.2409 111.687 69.1202 111.909C68.9995 112.132 68.9391 112.402 68.9391 112.719ZM76.1523 118.159C75.7475 118.159 75.3995 118.107 75.1083 118.003C74.8171 117.901 74.5745 117.766 74.3803 117.598C74.1886 117.432 74.0359 117.255 73.9222 117.065L74.5898 116.597C74.6656 116.696 74.7615 116.81 74.8775 116.938C74.9935 117.068 75.1521 117.18 75.3533 117.275C75.5569 117.372 75.8233 117.42 76.1523 117.42C76.5927 117.42 76.9561 117.314 77.2425 117.101C77.529 116.888 77.6722 116.554 77.6722 116.099V114.991H77.6012C77.5397 115.091 77.4521 115.214 77.3384 115.361C77.2272 115.505 77.0662 115.634 76.8555 115.748C76.6471 115.859 76.3654 115.915 76.0103 115.915C75.57 115.915 75.1746 115.811 74.8242 115.602C74.4762 115.394 74.2004 115.091 73.9968 114.693C73.7956 114.295 73.695 113.812 73.695 113.244C73.695 112.686 73.7932 112.199 73.9897 111.785C74.1862 111.368 74.4596 111.046 74.81 110.819C75.1604 110.589 75.5652 110.474 76.0245 110.474C76.3796 110.474 76.6613 110.534 76.8697 110.652C77.0804 110.768 77.2414 110.901 77.3526 111.05C77.4663 111.196 77.5539 111.317 77.6154 111.412H77.7006V110.545H78.5103V116.156C78.5103 116.625 78.4038 117.006 78.1907 117.3C77.98 117.596 77.6959 117.812 77.3384 117.95C76.9833 118.089 76.5879 118.159 76.1523 118.159ZM76.1239 115.162C76.4601 115.162 76.7442 115.085 76.9762 114.931C77.2082 114.777 77.3846 114.556 77.5053 114.267C77.6261 113.978 77.6864 113.633 77.6864 113.23C77.6864 112.837 77.6272 112.49 77.5089 112.19C77.3905 111.889 77.2153 111.653 76.9833 111.483C76.7513 111.312 76.4648 111.227 76.1239 111.227C75.7688 111.227 75.4729 111.317 75.2362 111.497C75.0018 111.677 74.8254 111.919 74.707 112.222C74.591 112.525 74.533 112.861 74.533 113.23C74.533 113.609 74.5922 113.944 74.7106 114.235C74.8313 114.524 75.0089 114.751 75.2433 114.917C75.48 115.08 75.7736 115.162 76.1239 115.162Z" fill="white"/>
<path d="M63 40.391C63 37.8271 58.8833 35.2883 57.6389 32.9196C56.3945 30.5508 54.5706 28.3985 52.2712 26.5856C49.9719 24.7726 47.2421 23.3345 44.2379 22.3533C41.2336 21.3722 38.0137 20.8672 34.7619 20.8672C31.5101 20.8672 28.2902 21.3722 25.2859 22.3533C22.2817 23.3345 20.8708 25.7135 18.5714 27.5264C16.2721 29.3394 13.6254 30.5508 12.381 32.9196C11.1366 35.2883 10 37.8271 10 40.391L34.7619 40.391H63Z" fill="white" fill-opacity="0.04"/>
<path d="M110.5 31.7734C110.5 34.317 110.17 34.9235 109 37.2734C107.83 39.6234 103.892 43.5597 101.731 45.3583C99.5699 47.1568 97.0043 48.5835 94.1808 49.5569C91.3572 50.5303 88.3309 51.0313 85.2747 51.0312C82.2185 51.0312 79.1922 50.5303 76.3686 49.5569C73.545 48.5835 70.9795 47.1568 68.8184 45.3583C66.6573 43.5597 64.1696 42.1234 63 39.7734C61.8304 37.4235 57.5 34.317 57.5 31.7734L85.2747 31.6625L110.5 31.7734Z" fill="white" fill-opacity="0.04"/>
<path d="M10 36.0448C18.7273 23.6195 41.2 6.51654 61.2727 37.5066C70 47.9825 91.9636 62.3565 110 36.0448" stroke="white" stroke-width="1.43394" stroke-linecap="round"/>
<line x1="45.7383" y1="21.8203" x2="45.7383" y2="56.106" stroke="white" stroke-opacity="0.1"/>
</svg>
