<svg width="13" height="14" viewBox="0 0 13 14" fill="none" xmlns="http://www.w3.org/2000/svg">
<path d="M11.5 13.5H1.5C1.10218 13.5 0.720644 13.342 0.43934 13.0607C0.158035 12.7794 0 12.3978 0 12V2C0 1.60218 0.158035 1.22064 0.43934 0.93934C0.720644 0.658035 1.10218 0.5 1.5 0.5H11.5C11.8978 0.5 12.2794 0.658035 12.5607 0.93934C12.842 1.22064 13 1.60218 13 2V12C13 12.3978 12.842 12.7794 12.5607 13.0607C12.2794 13.342 11.8978 13.5 11.5 13.5ZM1.5 1.5C1.36739 1.5 1.24021 1.55268 1.14645 1.64645C1.05268 1.74021 1 1.86739 1 2V12C1 12.1326 1.05268 12.2598 1.14645 12.3536C1.24021 12.4473 1.36739 12.5 1.5 12.5H11.5C11.6326 12.5 11.7598 12.4473 11.8536 12.3536C11.9473 12.2598 12 12.1326 12 12V2C12 1.86739 11.9473 1.74021 11.8536 1.64645C11.7598 1.55268 11.6326 1.5 11.5 1.5H1.5Z" fill="white" fill-opacity="0.6"/>
<path d="M4.6392 10V4.18182H8.28693V4.9375H5.51705V6.71023H8.09659V7.46307H5.51705V9.24432H8.32102V10H4.6392Z" fill="white" fill-opacity="0.6"/>
</svg>
