<svg width="120" height="136" viewBox="0 0 120 136" fill="none" xmlns="http://www.w3.org/2000/svg">
<path d="M0 0H120V134C120 135.105 119.105 136 118 136H2C0.895429 136 0 135.105 0 134V0Z" fill="#1F1F1F"/>
<circle cx="85" cy="95" r="15" fill="#141414"/>
<circle cx="85" cy="95" r="14" stroke="white" stroke-opacity="0.3" stroke-width="2"/>
<line x1="86" y1="80" x2="86" y2="90" stroke="white" stroke-opacity="0.3" stroke-width="2"/>
<path d="M74.125 124H71.8807V116.727H74.2244C74.9299 116.727 75.5336 116.873 76.0355 117.164C76.5374 117.453 76.9221 117.868 77.1896 118.411C77.4571 118.95 77.5909 119.597 77.5909 120.349C77.5909 121.107 77.456 121.759 77.1861 122.306C76.9162 122.851 76.5232 123.27 76.0071 123.563C75.491 123.854 74.8636 124 74.125 124ZM72.7614 123.219H74.0682C74.6695 123.219 75.1679 123.103 75.5632 122.871C75.9586 122.639 76.2533 122.308 76.4474 121.88C76.6416 121.451 76.7386 120.941 76.7386 120.349C76.7386 119.762 76.6428 119.257 76.451 118.833C76.2592 118.407 75.9728 118.08 75.5916 117.853C75.2105 117.623 74.7358 117.509 74.1676 117.509H72.7614V123.219ZM81.2415 124.114C80.7159 124.114 80.2625 123.998 79.8814 123.766C79.5026 123.531 79.2102 123.205 79.0043 122.786C78.8007 122.364 78.6989 121.874 78.6989 121.315C78.6989 120.757 78.8007 120.264 79.0043 119.838C79.2102 119.41 79.4967 119.076 79.8636 118.837C80.233 118.595 80.6638 118.474 81.1562 118.474C81.4403 118.474 81.7209 118.522 81.9979 118.616C82.2749 118.711 82.527 118.865 82.7543 119.078C82.9815 119.289 83.1626 119.568 83.2976 119.916C83.4325 120.264 83.5 120.693 83.5 121.202V121.557H79.2955V120.832H82.6477C82.6477 120.525 82.5862 120.25 82.4631 120.009C82.3423 119.767 82.1695 119.576 81.9446 119.437C81.7221 119.297 81.4593 119.227 81.1562 119.227C80.8224 119.227 80.5336 119.31 80.2898 119.476C80.0483 119.639 79.8625 119.852 79.7322 120.115C79.602 120.378 79.5369 120.66 79.5369 120.96V121.443C79.5369 121.855 79.608 122.204 79.75 122.491C79.8944 122.775 80.0945 122.991 80.3501 123.141C80.6058 123.287 80.9029 123.361 81.2415 123.361C81.4616 123.361 81.6605 123.33 81.8381 123.268C82.018 123.205 82.1731 123.11 82.3033 122.984C82.4335 122.857 82.5341 122.698 82.6051 122.509L83.4148 122.736C83.3295 123.01 83.1863 123.252 82.9851 123.46C82.7839 123.666 82.5353 123.827 82.2393 123.943C81.9434 124.057 81.6108 124.114 81.2415 124.114ZM84.7749 126.045V118.545H85.5845V119.412H85.6839C85.7455 119.317 85.8307 119.196 85.9396 119.05C86.0509 118.901 86.2095 118.768 86.4155 118.652C86.6238 118.534 86.9055 118.474 87.2607 118.474C87.7199 118.474 88.1248 118.589 88.4751 118.819C88.8255 119.049 89.099 119.374 89.2955 119.795C89.492 120.217 89.5902 120.714 89.5902 121.287C89.5902 121.865 89.492 122.365 89.2955 122.789C89.099 123.21 88.8267 123.537 88.4787 123.769C88.1307 123.999 87.7294 124.114 87.2749 124.114C86.9245 124.114 86.6439 124.056 86.4332 123.94C86.2225 123.821 86.0604 123.687 85.9467 123.538C85.8331 123.387 85.7455 123.261 85.6839 123.162H85.6129V126.045H84.7749ZM85.5987 121.273C85.5987 121.685 85.6591 122.048 85.7798 122.363C85.9006 122.675 86.0769 122.92 86.3089 123.098C86.541 123.273 86.825 123.361 87.1612 123.361C87.5116 123.361 87.804 123.268 88.0384 123.084C88.2751 122.897 88.4527 122.646 88.571 122.331C88.6918 122.014 88.7521 121.661 88.7521 121.273C88.7521 120.889 88.6929 120.544 88.5746 120.236C88.4586 119.926 88.2822 119.681 88.0455 119.501C87.8111 119.318 87.5163 119.227 87.1612 119.227C86.8203 119.227 86.5339 119.314 86.3018 119.487C86.0698 119.657 85.8946 119.896 85.7763 120.204C85.6579 120.509 85.5987 120.866 85.5987 121.273ZM93.2408 118.545V119.256H90.4141V118.545H93.2408ZM91.2379 117.239H92.076V122.438C92.076 122.674 92.1103 122.852 92.179 122.97C92.25 123.086 92.34 123.164 92.4489 123.205C92.5601 123.242 92.6773 123.261 92.8004 123.261C92.8928 123.261 92.9685 123.257 93.0277 123.247C93.0869 123.235 93.1342 123.226 93.1697 123.219L93.3402 123.972C93.2834 123.993 93.2041 124.014 93.1023 124.036C93.0005 124.059 92.8714 124.071 92.7152 124.071C92.4785 124.071 92.2464 124.02 92.0192 123.918C91.7943 123.817 91.6072 123.661 91.4581 123.453C91.3113 123.245 91.2379 122.982 91.2379 122.665V117.239ZM95.4567 120.719V124H94.6186V116.727H95.4567V119.398H95.5277C95.6555 119.116 95.8473 118.892 96.103 118.727C96.361 118.558 96.7043 118.474 97.1328 118.474C97.5045 118.474 97.83 118.549 98.1094 118.698C98.3887 118.845 98.6054 119.071 98.7592 119.376C98.9155 119.679 98.9936 120.065 98.9936 120.534V124H98.1555V120.591C98.1555 120.158 98.0431 119.823 97.8182 119.586C97.5956 119.347 97.2867 119.227 96.8913 119.227C96.6167 119.227 96.3705 119.285 96.1527 119.401C95.9373 119.517 95.7668 119.687 95.6413 119.909C95.5182 120.132 95.4567 120.402 95.4567 120.719Z" fill="white"/>
<circle cx="30" cy="65" r="15" fill="#141414"/>
<circle cx="30" cy="65" r="14" stroke="white" stroke-opacity="0.3" stroke-width="2"/>
<line x1="31" y1="50" x2="31" y2="60" stroke="white" stroke-opacity="0.3" stroke-width="2"/>
<path d="M19.8807 94V86.7273H22.3381C22.9063 86.7273 23.3726 86.8243 23.7372 87.0185C24.1018 87.2102 24.3717 87.4742 24.5469 87.8104C24.7221 88.1465 24.8097 88.5289 24.8097 88.9574C24.8097 89.3859 24.7221 89.7659 24.5469 90.0973C24.3717 90.4287 24.103 90.6892 23.7408 90.8786C23.3786 91.0656 22.9157 91.1591 22.3523 91.1591H20.3636V90.3636H22.3239C22.7121 90.3636 23.0246 90.3068 23.2614 90.1932C23.5005 90.0795 23.6733 89.9186 23.7798 89.7102C23.8887 89.4995 23.9432 89.2486 23.9432 88.9574C23.9432 88.6662 23.8887 88.4117 23.7798 88.1939C23.6709 87.9761 23.4969 87.808 23.2578 87.6896C23.0187 87.5689 22.7027 87.5085 22.3097 87.5085H20.7614V94H19.8807ZM23.304 90.733L25.0938 94H24.071L22.3097 90.733H23.304ZM27.7686 94.1278C27.423 94.1278 27.1093 94.0627 26.8276 93.9325C26.5459 93.8 26.3221 93.6094 26.1564 93.3608C25.9907 93.1098 25.9078 92.8068 25.9078 92.4517C25.9078 92.1392 25.9694 91.8859 26.0925 91.6918C26.2156 91.4953 26.3801 91.3414 26.5861 91.2301C26.7921 91.1188 27.0194 91.036 27.2679 90.9815C27.5189 90.9247 27.771 90.8797 28.0243 90.8466C28.3558 90.804 28.6245 90.772 28.8304 90.7507C29.0388 90.727 29.1903 90.688 29.285 90.6335C29.382 90.5791 29.4306 90.4844 29.4306 90.3494V90.321C29.4306 89.9706 29.3347 89.6984 29.1429 89.5043C28.9535 89.3101 28.6659 89.2131 28.28 89.2131C27.8799 89.2131 27.5662 89.3007 27.339 89.4759C27.1117 89.651 26.9519 89.8381 26.8596 90.0369L26.0641 89.7528C26.2061 89.4214 26.3955 89.1634 26.6323 88.9787C26.8714 88.7917 27.1318 88.6615 27.4135 88.5881C27.6976 88.5123 27.977 88.4744 28.2516 88.4744C28.4268 88.4744 28.628 88.4957 28.8553 88.5384C29.0849 88.5786 29.3063 88.6626 29.5194 88.7905C29.7348 88.9183 29.9135 89.1113 30.0556 89.3693C30.1976 89.6274 30.2686 89.973 30.2686 90.4062V94H29.4306V93.2614H29.388C29.3311 93.3797 29.2364 93.5064 29.1039 93.6413C28.9713 93.7763 28.7949 93.8911 28.5748 93.9858C28.3546 94.0805 28.0859 94.1278 27.7686 94.1278ZM27.8965 93.375C28.2279 93.375 28.5073 93.3099 28.7346 93.1797C28.9642 93.0495 29.137 92.8814 29.253 92.6754C29.3714 92.4695 29.4306 92.2528 29.4306 92.0256V91.2585C29.3951 91.3011 29.3169 91.3402 29.1962 91.3757C29.0778 91.4089 28.9405 91.4384 28.7843 91.4645C28.6304 91.4882 28.4801 91.5095 28.3333 91.5284C28.1889 91.545 28.0717 91.5592 27.9817 91.571C27.7639 91.5994 27.5603 91.6456 27.3709 91.7095C27.1839 91.7711 27.0324 91.8646 26.9164 91.9901C26.8027 92.1132 26.7459 92.2812 26.7459 92.4943C26.7459 92.7855 26.8536 93.0057 27.0691 93.1548C27.2869 93.3016 27.5627 93.375 27.8965 93.375ZM34.1705 88.5455V89.2557H31.3438V88.5455H34.1705ZM32.1676 87.2386H33.0057V92.4375C33.0057 92.6742 33.04 92.8518 33.1087 92.9702C33.1797 93.0862 33.2696 93.1643 33.3786 93.2045C33.4898 93.2424 33.607 93.2614 33.7301 93.2614C33.8224 93.2614 33.8982 93.2566 33.9574 93.2472C34.0166 93.2353 34.0639 93.2259 34.0994 93.2188L34.2699 93.9716C34.2131 93.9929 34.1338 94.0142 34.032 94.0355C33.9302 94.0592 33.8011 94.071 33.6449 94.071C33.4081 94.071 33.1761 94.0201 32.9489 93.9183C32.724 93.8165 32.5369 93.6615 32.3878 93.4531C32.241 93.2448 32.1676 92.982 32.1676 92.6648V87.2386ZM37.6594 94.1136C37.1339 94.1136 36.6805 93.9976 36.2994 93.7656C35.9206 93.5312 35.6282 93.2045 35.4222 92.7855C35.2186 92.3641 35.1168 91.8741 35.1168 91.3153C35.1168 90.7566 35.2186 90.2642 35.4222 89.8381C35.6282 89.4096 35.9147 89.0758 36.2816 88.8366C36.6509 88.5952 37.0818 88.4744 37.5742 88.4744C37.8583 88.4744 38.1388 88.5218 38.4158 88.6165C38.6928 88.7112 38.945 88.8651 39.1722 89.0781C39.3995 89.2888 39.5806 89.5682 39.7156 89.9162C39.8505 90.2642 39.918 90.6927 39.918 91.2017V91.5568H35.7134V90.8324H39.0657C39.0657 90.5246 39.0041 90.25 38.881 90.0085C38.7603 89.767 38.5875 89.5765 38.3626 89.4368C38.14 89.2971 37.8772 89.2273 37.5742 89.2273C37.2404 89.2273 36.9516 89.3101 36.7077 89.4759C36.4663 89.6392 36.2804 89.8523 36.1502 90.1151C36.02 90.3778 35.9549 90.6596 35.9549 90.9602V91.4432C35.9549 91.8551 36.0259 92.2043 36.168 92.4908C36.3124 92.7749 36.5124 92.9915 36.7681 93.1406C37.0238 93.2874 37.3209 93.3608 37.6594 93.3608C37.8796 93.3608 38.0785 93.33 38.256 93.2685C38.436 93.2045 38.591 93.1098 38.7212 92.9844C38.8514 92.8565 38.9521 92.6979 39.0231 92.5085L39.8327 92.7358C39.7475 93.0104 39.6043 93.2519 39.4031 93.4602C39.2018 93.6662 38.9532 93.8272 38.6573 93.9432C38.3614 94.0568 38.0288 94.1136 37.6594 94.1136Z" fill="white"/>
</svg>
