<svg width="120" height="136" viewBox="0 0 120 136" fill="none" xmlns="http://www.w3.org/2000/svg">
<path d="M0 0H120V134C120 135.105 119.105 136 118 136H2C0.895429 136 0 135.105 0 134V0Z" fill="#1F1F1F"/>
<circle cx="90" cy="52" r="20" fill="#141414"/>
<circle cx="90" cy="52" r="19" stroke="white" stroke-opacity="0.3" stroke-width="2"/>
<line x1="91" y1="32" x2="91" y2="42" stroke="white" stroke-opacity="0.3" stroke-width="2"/>
<circle cx="29" cy="93" r="15" fill="#141414"/>
<circle cx="29" cy="93" r="14" stroke="white" stroke-opacity="0.3" stroke-width="2"/>
<line x1="30" y1="78" x2="30" y2="88" stroke="white" stroke-opacity="0.3" stroke-width="2"/>
<path d="M24.125 66H21.8807V58.7273H24.2244C24.9299 58.7273 25.5336 58.8729 26.0355 59.1641C26.5374 59.4529 26.9221 59.8684 27.1896 60.4105C27.4571 60.9503 27.5909 61.5966 27.5909 62.3494C27.5909 63.107 27.456 63.7592 27.1861 64.3061C26.9162 64.8506 26.5232 65.2696 26.0071 65.5632C25.491 65.8544 24.8636 66 24.125 66ZM22.7614 65.2188H24.0682C24.6695 65.2188 25.1679 65.1027 25.5632 64.8707C25.9586 64.6387 26.2533 64.3085 26.4474 63.88C26.6416 63.4515 26.7386 62.9413 26.7386 62.3494C26.7386 61.7623 26.6428 61.2569 26.451 60.8331C26.2592 60.407 25.9728 60.0803 25.5916 59.853C25.2105 59.6233 24.7358 59.5085 24.1676 59.5085H22.7614V65.2188ZM28.9545 66V60.5455H29.7926V66H28.9545ZM29.3807 59.6364C29.2173 59.6364 29.0765 59.5807 28.9581 59.4695C28.8421 59.3582 28.7841 59.2244 28.7841 59.0682C28.7841 58.9119 28.8421 58.7782 28.9581 58.6669C29.0765 58.5556 29.2173 58.5 29.3807 58.5C29.544 58.5 29.6837 58.5556 29.7997 58.6669C29.9181 58.7782 29.9773 58.9119 29.9773 59.0682C29.9773 59.2244 29.9181 59.3582 29.7997 59.4695C29.6837 59.5807 29.544 59.6364 29.3807 59.6364ZM35.1912 61.767L34.4384 61.9801C34.391 61.8546 34.3212 61.7327 34.2289 61.6143C34.1389 61.4936 34.0158 61.3942 33.8596 61.3161C33.7033 61.2379 33.5033 61.1989 33.2594 61.1989C32.9256 61.1989 32.6474 61.2758 32.4249 61.4297C32.2047 61.5812 32.0946 61.7741 32.0946 62.0085C32.0946 62.2169 32.1704 62.3814 32.3219 62.5021C32.4734 62.6229 32.7102 62.7235 33.0321 62.804L33.8418 63.0028C34.3295 63.1212 34.6929 63.3023 34.932 63.5462C35.1711 63.7876 35.2907 64.099 35.2907 64.4801C35.2907 64.7926 35.2007 65.072 35.0208 65.3182C34.8432 65.5644 34.5946 65.7585 34.275 65.9006C33.9554 66.0426 33.5837 66.1136 33.16 66.1136C32.6036 66.1136 32.1432 65.9929 31.7786 65.7514C31.414 65.5099 31.1832 65.1572 31.0861 64.6932L31.8816 64.4943C31.9573 64.7879 32.1006 65.008 32.3113 65.1548C32.5243 65.3016 32.8025 65.375 33.1458 65.375C33.5364 65.375 33.8465 65.2921 34.0762 65.1264C34.3082 64.9583 34.4242 64.7571 34.4242 64.5227C34.4242 64.3333 34.3579 64.1747 34.2253 64.0469C34.0927 63.9167 33.8891 63.8196 33.6145 63.7557L32.7054 63.5426C32.2059 63.4242 31.839 63.2408 31.6046 62.9922C31.3726 62.7412 31.2566 62.4276 31.2566 62.0511C31.2566 61.7434 31.343 61.4711 31.5158 61.2344C31.691 60.9976 31.9289 60.8118 32.2296 60.6768C32.5326 60.5419 32.8759 60.4744 33.2594 60.4744C33.7992 60.4744 34.223 60.5928 34.5307 60.8295C34.8408 61.0663 35.061 61.3788 35.1912 61.767ZM38.9244 60.5455V61.2557H36.0977V60.5455H38.9244ZM36.9215 59.2386H37.7596V64.4375C37.7596 64.6742 37.7939 64.8518 37.8626 64.9702C37.9336 65.0862 38.0236 65.1643 38.1325 65.2045C38.2437 65.2424 38.3609 65.2614 38.484 65.2614C38.5763 65.2614 38.6521 65.2566 38.7113 65.2472C38.7705 65.2353 38.8178 65.2259 38.8533 65.2188L39.0238 65.9716C38.967 65.9929 38.8877 66.0142 38.7859 66.0355C38.6841 66.0592 38.555 66.071 38.3988 66.071C38.1621 66.071 37.93 66.0201 37.7028 65.9183C37.4779 65.8165 37.2908 65.6615 37.1417 65.4531C36.9949 65.2448 36.9215 64.982 36.9215 64.6648V59.2386Z" fill="white"/>
<path d="M78.483 79.5085V78.7273H83.9375V79.5085H81.6506V86H80.7699V79.5085H78.483ZM86.608 86.1136C86.1155 86.1136 85.6835 85.9964 85.3118 85.7621C84.9425 85.5277 84.6536 85.1998 84.4453 84.7784C84.2393 84.357 84.1364 83.8646 84.1364 83.3011C84.1364 82.733 84.2393 82.237 84.4453 81.8132C84.6536 81.3894 84.9425 81.0604 85.3118 80.826C85.6835 80.5916 86.1155 80.4744 86.608 80.4744C87.1004 80.4744 87.5313 80.5916 87.9006 80.826C88.2723 81.0604 88.5611 81.3894 88.767 81.8132C88.9754 82.237 89.0795 82.733 89.0795 83.3011C89.0795 83.8646 88.9754 84.357 88.767 84.7784C88.5611 85.1998 88.2723 85.5277 87.9006 85.7621C87.5313 85.9964 87.1004 86.1136 86.608 86.1136ZM86.608 85.3608C86.982 85.3608 87.2898 85.2649 87.5312 85.0732C87.7727 84.8814 87.9515 84.6293 88.0675 84.3168C88.1835 84.0043 88.2415 83.6657 88.2415 83.3011C88.2415 82.9366 88.1835 82.5968 88.0675 82.282C87.9515 81.9671 87.7727 81.7126 87.5312 81.5185C87.2898 81.3243 86.982 81.2273 86.608 81.2273C86.2339 81.2273 85.9261 81.3243 85.6847 81.5185C85.4432 81.7126 85.2644 81.9671 85.1484 82.282C85.0324 82.5968 84.9744 82.9366 84.9744 83.3011C84.9744 83.6657 85.0324 84.0043 85.1484 84.3168C85.2644 84.6293 85.4432 84.8814 85.6847 85.0732C85.9261 85.2649 86.2339 85.3608 86.608 85.3608ZM91.1969 82.7188V86H90.3588V80.5455H91.1685V81.3977H91.2395C91.3674 81.1207 91.5615 80.8982 91.8219 80.7301C92.0823 80.5597 92.4185 80.4744 92.8304 80.4744C93.1998 80.4744 93.5229 80.5502 93.7999 80.7017C94.0769 80.8509 94.2923 81.0781 94.4462 81.3835C94.6001 81.6866 94.677 82.0701 94.677 82.5341V86H93.839V82.5909C93.839 82.1624 93.7277 81.8286 93.5051 81.5895C93.2826 81.348 92.9772 81.2273 92.589 81.2273C92.3214 81.2273 92.0823 81.2853 91.8716 81.4013C91.6633 81.5173 91.4988 81.6866 91.378 81.9091C91.2573 82.1316 91.1969 82.4015 91.1969 82.7188ZM98.4954 86.1136C97.9698 86.1136 97.5165 85.9976 97.1353 85.7656C96.7565 85.5312 96.4641 85.2045 96.2582 84.7855C96.0546 84.3641 95.9528 83.8741 95.9528 83.3153C95.9528 82.7566 96.0546 82.2642 96.2582 81.8381C96.4641 81.4096 96.7506 81.0758 97.1175 80.8366C97.4869 80.5952 97.9177 80.4744 98.4102 80.4744C98.6942 80.4744 98.9748 80.5218 99.2518 80.6165C99.5288 80.7112 99.7809 80.8651 100.008 81.0781C100.235 81.2888 100.417 81.5682 100.551 81.9162C100.686 82.2642 100.754 82.6927 100.754 83.2017V83.5568H96.5494V82.8324H99.9016C99.9016 82.5246 99.8401 82.25 99.717 82.0085C99.5962 81.767 99.4234 81.5765 99.1985 81.4368C98.976 81.2971 98.7132 81.2273 98.4102 81.2273C98.0763 81.2273 97.7875 81.3101 97.5437 81.4759C97.3022 81.6392 97.1164 81.8523 96.9862 82.1151C96.8559 82.3778 96.7908 82.6596 96.7908 82.9602V83.4432C96.7908 83.8551 96.8619 84.2043 97.0039 84.4908C97.1483 84.7749 97.3484 84.9915 97.604 85.1406C97.8597 85.2874 98.1568 85.3608 98.4954 85.3608C98.7156 85.3608 98.9144 85.33 99.092 85.2685C99.2719 85.2045 99.427 85.1098 99.5572 84.9844C99.6874 84.8565 99.788 84.6979 99.859 84.5085L100.669 84.7358C100.583 85.0104 100.44 85.2519 100.239 85.4602C100.038 85.6662 99.7892 85.8272 99.4933 85.9432C99.1973 86.0568 98.8647 86.1136 98.4954 86.1136Z" fill="white"/>
<path d="M10.8807 122V114.727H11.7614V121.219H15.142V122H10.8807ZM18.608 122.114C18.1155 122.114 17.6835 121.996 17.3118 121.762C16.9425 121.528 16.6536 121.2 16.4453 120.778C16.2393 120.357 16.1364 119.865 16.1364 119.301C16.1364 118.733 16.2393 118.237 16.4453 117.813C16.6536 117.389 16.9425 117.06 17.3118 116.826C17.6835 116.592 18.1155 116.474 18.608 116.474C19.1004 116.474 19.5313 116.592 19.9006 116.826C20.2723 117.06 20.5611 117.389 20.767 117.813C20.9754 118.237 21.0795 118.733 21.0795 119.301C21.0795 119.865 20.9754 120.357 20.767 120.778C20.5611 121.2 20.2723 121.528 19.9006 121.762C19.5313 121.996 19.1004 122.114 18.608 122.114ZM18.608 121.361C18.982 121.361 19.2898 121.265 19.5312 121.073C19.7727 120.881 19.9515 120.629 20.0675 120.317C20.1835 120.004 20.2415 119.666 20.2415 119.301C20.2415 118.937 20.1835 118.597 20.0675 118.282C19.9515 117.967 19.7727 117.713 19.5312 117.518C19.2898 117.324 18.982 117.227 18.608 117.227C18.2339 117.227 17.9261 117.324 17.6847 117.518C17.4432 117.713 17.2644 117.967 17.1484 118.282C17.0324 118.597 16.9744 118.937 16.9744 119.301C16.9744 119.666 17.0324 120.004 17.1484 120.317C17.2644 120.629 17.4432 120.881 17.6847 121.073C17.9261 121.265 18.2339 121.361 18.608 121.361ZM23.4091 122L21.7472 116.545H22.6278L23.8068 120.722H23.8636L25.0284 116.545H25.9233L27.0739 120.707H27.1307L28.3097 116.545H29.1903L27.5284 122H26.7045L25.5114 117.81H25.4261L24.233 122H23.4091ZM35.3267 122.114C34.8153 122.114 34.375 121.993 34.0057 121.751C33.6364 121.51 33.3523 121.177 33.1534 120.754C32.9545 120.33 32.8551 119.846 32.8551 119.301C32.8551 118.747 32.9569 118.258 33.1605 117.835C33.3665 117.408 33.6529 117.076 34.0199 116.837C34.3892 116.595 34.8201 116.474 35.3125 116.474C35.696 116.474 36.0417 116.545 36.3494 116.688C36.6572 116.83 36.9093 117.028 37.1058 117.284C37.3023 117.54 37.4242 117.838 37.4716 118.179H36.6335C36.5696 117.93 36.4276 117.71 36.2074 117.518C35.9896 117.324 35.696 117.227 35.3267 117.227C35 117.227 34.7135 117.312 34.4673 117.483C34.2235 117.651 34.0329 117.889 33.8956 118.197C33.7607 118.502 33.6932 118.861 33.6932 119.273C33.6932 119.694 33.7595 120.061 33.892 120.374C34.027 120.686 34.2164 120.929 34.4602 121.102C34.7064 121.274 34.9953 121.361 35.3267 121.361C35.5445 121.361 35.7422 121.323 35.9197 121.247C36.0973 121.171 36.2476 121.062 36.3707 120.92C36.4938 120.778 36.5814 120.608 36.6335 120.409H37.4716C37.4242 120.731 37.3071 121.021 37.12 121.279C36.9354 121.535 36.6903 121.738 36.3849 121.89C36.0819 122.039 35.7292 122.114 35.3267 122.114ZM42.1342 119.77V116.545H42.9723V122H42.1342V121.077H42.0774C41.9496 121.354 41.7507 121.589 41.4808 121.783C41.2109 121.975 40.87 122.071 40.4581 122.071C40.1172 122.071 39.8142 121.996 39.549 121.847C39.2839 121.696 39.0755 121.469 38.924 121.165C38.7725 120.86 38.6967 120.475 38.6967 120.011V116.545H39.5348V119.955C39.5348 120.352 39.6461 120.67 39.8686 120.906C40.0935 121.143 40.38 121.261 40.728 121.261C40.9363 121.261 41.1482 121.208 41.3636 121.102C41.5814 120.995 41.7637 120.832 41.9105 120.612C42.0597 120.391 42.1342 120.111 42.1342 119.77ZM46.8794 116.545V117.256H44.0527V116.545H46.8794ZM44.8766 115.239H45.7147V120.438C45.7147 120.674 45.749 120.852 45.8176 120.97C45.8887 121.086 45.9786 121.164 46.0875 121.205C46.1988 121.242 46.316 121.261 46.4391 121.261C46.5314 121.261 46.6072 121.257 46.6664 121.247C46.7256 121.235 46.7729 121.226 46.8084 121.219L46.9789 121.972C46.9221 121.993 46.8427 122.014 46.7409 122.036C46.6391 122.059 46.5101 122.071 46.3539 122.071C46.1171 122.071 45.8851 122.02 45.6578 121.918C45.4329 121.817 45.2459 121.661 45.0968 121.453C44.95 121.245 44.8766 120.982 44.8766 120.665V115.239Z" fill="white"/>
<circle cx="30" cy="32" r="20" fill="#141414"/>
<circle cx="30" cy="32" r="19" stroke="white" stroke-opacity="0.3" stroke-width="2"/>
<line x1="31" y1="12" x2="31" y2="22" stroke="white" stroke-opacity="0.3" stroke-width="2"/>
</svg>
