<svg width="17" height="16" viewBox="0 0 17 16" fill="none" xmlns="http://www.w3.org/2000/svg">
<path d="M15.5508 14.825H8.05078C8.10078 14.775 8.15078 14.75 8.20078 14.7L15.7758 7.125C16.3258 6.575 16.3258 5.65 15.7758 5.1L11.4258 0.725C10.8758 0.175 9.95078 0.175 9.40078 0.725L1.80078 8.3C1.15078 8.95 0.800781 9.8 0.800781 10.725C0.800781 11.65 1.15078 12.5 1.80078 13.15L3.35078 14.7C4.02578 15.375 4.90078 15.7 5.77578 15.7H15.5508C15.8008 15.7 16.0008 15.5 16.0008 15.25C16.0008 15 15.8008 14.825 15.5508 14.825ZM10.0008 1.35C10.1008 1.25 10.2508 1.175 10.4008 1.175C10.5508 1.175 10.7008 1.225 10.8008 1.35L15.1758 5.725C15.4008 5.95 15.4008 6.3 15.1758 6.525L9.42578 12.275L4.25078 7.075L10.0008 1.35ZM2.42578 12.525C1.95078 12.05 1.67578 11.4 1.67578 10.725C1.67578 10.05 1.95078 9.4 2.42578 8.925L3.65078 7.7L8.80078 12.85L7.57578 14.075C6.57578 15.075 4.95078 15.075 3.97578 14.075L2.42578 12.525Z" fill="white" fill-opacity="0.6"/>
</svg>
