<svg width="120" height="136" viewBox="0 0 120 136" fill="none" xmlns="http://www.w3.org/2000/svg">
<path d="M0 0H120V134C120 135.105 119.105 136 118 136H2C0.895429 136 0 135.105 0 134V0Z" fill="#1F1F1F"/>
<circle cx="90" cy="52" r="20" fill="#141414"/>
<circle cx="90" cy="52" r="19" stroke="white" stroke-opacity="0.3" stroke-width="2"/>
<line x1="91" y1="32" x2="91" y2="42" stroke="white" stroke-opacity="0.3" stroke-width="2"/>
<circle cx="29" cy="93" r="15" fill="#141414"/>
<circle cx="29" cy="93" r="14" stroke="white" stroke-opacity="0.3" stroke-width="2"/>
<line x1="30" y1="78" x2="30" y2="88" stroke="white" stroke-opacity="0.3" stroke-width="2"/>
<path d="M21.8807 58.7273H22.9318L25.4034 64.7642H25.4886L27.9602 58.7273H29.0114V66H28.1875V60.4744H28.1165L25.8438 66H25.0483L22.7756 60.4744H22.7045V66H21.8807V58.7273ZM30.6635 66V60.5455H31.5016V66H30.6635ZM31.0897 59.6364C30.9263 59.6364 30.7855 59.5807 30.6671 59.4695C30.5511 59.3582 30.4931 59.2244 30.4931 59.0682C30.4931 58.9119 30.5511 58.7782 30.6671 58.6669C30.7855 58.5556 30.9263 58.5 31.0897 58.5C31.253 58.5 31.3927 58.5556 31.5087 58.6669C31.6271 58.7782 31.6863 58.9119 31.6863 59.0682C31.6863 59.2244 31.6271 59.3582 31.5087 59.4695C31.3927 59.5807 31.253 59.6364 31.0897 59.6364ZM33.6616 60.5455L34.9684 62.7756L36.2752 60.5455H37.2411L35.4798 63.2727L37.2411 66H36.2752L34.9684 63.8835L33.6616 66H32.6957L34.4286 63.2727L32.6957 60.5455H33.6616Z" fill="white"/>
<path d="M73.179 86H72.2557L74.9261 78.7273H75.8352L78.5057 86H77.5824L75.4091 79.8778H75.3523L73.179 86ZM73.5199 83.1591H77.2415V83.9403H73.5199V83.1591ZM79.5249 86V80.5455H80.3345V81.3977H80.4055C80.5192 81.1065 80.7027 80.8804 80.956 80.7195C81.2093 80.5561 81.5135 80.4744 81.8686 80.4744C82.2285 80.4744 82.5279 80.5561 82.767 80.7195C83.0085 80.8804 83.1967 81.1065 83.3317 81.3977H83.3885C83.5282 81.116 83.7377 80.8923 84.017 80.7266C84.2964 80.5585 84.6314 80.4744 85.022 80.4744C85.5097 80.4744 85.9086 80.6271 86.2188 80.9325C86.5289 81.2356 86.6839 81.7079 86.6839 82.3494V86H85.8459V82.3494C85.8459 81.947 85.7358 81.6593 85.5156 81.4865C85.2955 81.3137 85.0362 81.2273 84.7379 81.2273C84.3544 81.2273 84.0573 81.3433 83.8466 81.5753C83.6359 81.8049 83.5305 82.0961 83.5305 82.4489V86H82.6783V82.2642C82.6783 81.9541 82.5777 81.7043 82.3764 81.5149C82.1752 81.3232 81.916 81.2273 81.5987 81.2273C81.3809 81.2273 81.1773 81.2853 80.9879 81.4013C80.8009 81.5173 80.6494 81.6783 80.5334 81.8842C80.4197 82.0878 80.3629 82.3234 80.3629 82.5909V86H79.5249ZM90.4322 86.1136C89.9397 86.1136 89.5077 85.9964 89.136 85.7621C88.7667 85.5277 88.4779 85.1998 88.2695 84.7784C88.0636 84.357 87.9606 83.8646 87.9606 83.3011C87.9606 82.733 88.0636 82.237 88.2695 81.8132C88.4779 81.3894 88.7667 81.0604 89.136 80.826C89.5077 80.5916 89.9397 80.4744 90.4322 80.4744C90.9246 80.4744 91.3555 80.5916 91.7248 80.826C92.0965 81.0604 92.3853 81.3894 92.5913 81.8132C92.7996 82.237 92.9038 82.733 92.9038 83.3011C92.9038 83.8646 92.7996 84.357 92.5913 84.7784C92.3853 85.1998 92.0965 85.5277 91.7248 85.7621C91.3555 85.9964 90.9246 86.1136 90.4322 86.1136ZM90.4322 85.3608C90.8062 85.3608 91.114 85.2649 91.3555 85.0732C91.5969 84.8814 91.7757 84.6293 91.8917 84.3168C92.0077 84.0043 92.0657 83.6657 92.0657 83.3011C92.0657 82.9366 92.0077 82.5968 91.8917 82.282C91.7757 81.9671 91.5969 81.7126 91.3555 81.5185C91.114 81.3243 90.8062 81.2273 90.4322 81.2273C90.0581 81.2273 89.7504 81.3243 89.5089 81.5185C89.2674 81.7126 89.0887 81.9671 88.9727 82.282C88.8567 82.5968 88.7987 82.9366 88.7987 83.3011C88.7987 83.6657 88.8567 84.0043 88.9727 84.3168C89.0887 84.6293 89.2674 84.8814 89.5089 85.0732C89.7504 85.2649 90.0581 85.3608 90.4322 85.3608ZM97.6206 83.7699V80.5455H98.4586V86H97.6206V85.0767H97.5637C97.4359 85.3537 97.237 85.5893 96.9672 85.7834C96.6973 85.9751 96.3564 86.071 95.9444 86.071C95.6035 86.071 95.3005 85.9964 95.0353 85.8473C94.7702 85.6958 94.5618 85.4685 94.4103 85.1655C94.2588 84.8601 94.1831 84.4754 94.1831 84.0114V80.5455H95.0211V83.9545C95.0211 84.3523 95.1324 84.6695 95.3549 84.9062C95.5798 85.143 95.8663 85.2614 96.2143 85.2614C96.4226 85.2614 96.6345 85.2081 96.85 85.1016C97.0678 84.995 97.2501 84.8317 97.3968 84.6115C97.546 84.3913 97.6206 84.1108 97.6206 83.7699ZM100.832 82.7188V86H99.9936V80.5455H100.803V81.3977H100.874C101.002 81.1207 101.196 80.8982 101.457 80.7301C101.717 80.5597 102.053 80.4744 102.465 80.4744C102.835 80.4744 103.158 80.5502 103.435 80.7017C103.712 80.8509 103.927 81.0781 104.081 81.3835C104.235 81.6866 104.312 82.0701 104.312 82.5341V86H103.474V82.5909C103.474 82.1624 103.362 81.8286 103.14 81.5895C102.917 81.348 102.612 81.2273 102.224 81.2273C101.956 81.2273 101.717 81.2853 101.506 81.4013C101.298 81.5173 101.134 81.6866 101.013 81.9091C100.892 82.1316 100.832 82.4015 100.832 82.7188ZM108.215 80.5455V81.2557H105.389V80.5455H108.215ZM106.213 79.2386H107.051V84.4375C107.051 84.6742 107.085 84.8518 107.154 84.9702C107.225 85.0862 107.315 85.1643 107.423 85.2045C107.535 85.2424 107.652 85.2614 107.775 85.2614C107.867 85.2614 107.943 85.2566 108.002 85.2472C108.061 85.2353 108.109 85.2259 108.144 85.2188L108.315 85.9716C108.258 85.9929 108.179 86.0142 108.077 86.0355C107.975 86.0592 107.846 86.071 107.69 86.071C107.453 86.071 107.221 86.0201 106.994 85.9183C106.769 85.8165 106.582 85.6615 106.433 85.4531C106.286 85.2448 106.213 84.982 106.213 84.6648V79.2386Z" fill="white"/>
<path d="M10.8807 114.727H11.9318L14.4034 120.764H14.4886L16.9602 114.727H18.0114V122H17.1875V116.474H17.1165L14.8438 122H14.0483L11.7756 116.474H11.7045V122H10.8807V114.727ZM21.2686 122.128C20.923 122.128 20.6093 122.063 20.3276 121.933C20.0459 121.8 19.8221 121.609 19.6564 121.361C19.4907 121.11 19.4078 120.807 19.4078 120.452C19.4078 120.139 19.4694 119.886 19.5925 119.692C19.7156 119.495 19.8801 119.341 20.0861 119.23C20.2921 119.119 20.5194 119.036 20.7679 118.982C21.0189 118.925 21.271 118.88 21.5243 118.847C21.8558 118.804 22.1245 118.772 22.3304 118.751C22.5388 118.727 22.6903 118.688 22.785 118.634C22.882 118.579 22.9306 118.484 22.9306 118.349V118.321C22.9306 117.971 22.8347 117.698 22.6429 117.504C22.4535 117.31 22.1659 117.213 21.78 117.213C21.3799 117.213 21.0662 117.301 20.839 117.476C20.6117 117.651 20.4519 117.838 20.3596 118.037L19.5641 117.753C19.7061 117.421 19.8955 117.163 20.1323 116.979C20.3714 116.792 20.6318 116.661 20.9135 116.588C21.1976 116.512 21.477 116.474 21.7516 116.474C21.9268 116.474 22.128 116.496 22.3553 116.538C22.5849 116.579 22.8063 116.663 23.0194 116.79C23.2348 116.918 23.4135 117.111 23.5556 117.369C23.6976 117.627 23.7686 117.973 23.7686 118.406V122H22.9306V121.261H22.888C22.8311 121.38 22.7364 121.506 22.6039 121.641C22.4713 121.776 22.2949 121.891 22.0748 121.986C21.8546 122.08 21.5859 122.128 21.2686 122.128ZM21.3965 121.375C21.7279 121.375 22.0073 121.31 22.2346 121.18C22.4642 121.049 22.637 120.881 22.753 120.675C22.8714 120.469 22.9306 120.253 22.9306 120.026V119.259C22.8951 119.301 22.8169 119.34 22.6962 119.376C22.5778 119.409 22.4405 119.438 22.2843 119.464C22.1304 119.488 21.9801 119.509 21.8333 119.528C21.6889 119.545 21.5717 119.559 21.4817 119.571C21.2639 119.599 21.0603 119.646 20.8709 119.71C20.6839 119.771 20.5324 119.865 20.4164 119.99C20.3027 120.113 20.2459 120.281 20.2459 120.494C20.2459 120.786 20.3536 121.006 20.5691 121.155C20.7869 121.302 21.0627 121.375 21.3965 121.375ZM26.0795 120.011L26.0653 118.974H26.2358L28.6222 116.545H29.6591L27.1165 119.116H27.0455L26.0795 120.011ZM25.2983 122V114.727H26.1364V122H25.2983ZM28.7642 122L26.6335 119.301L27.2301 118.719L29.8295 122H28.7642ZM32.8001 122.114C32.2745 122.114 31.8211 121.998 31.44 121.766C31.0612 121.531 30.7688 121.205 30.5629 120.786C30.3593 120.364 30.2575 119.874 30.2575 119.315C30.2575 118.757 30.3593 118.264 30.5629 117.838C30.7688 117.41 31.0553 117.076 31.4222 116.837C31.7915 116.595 32.2224 116.474 32.7148 116.474C32.9989 116.474 33.2795 116.522 33.5565 116.616C33.8335 116.711 34.0856 116.865 34.3129 117.078C34.5401 117.289 34.7212 117.568 34.8562 117.916C34.9911 118.264 35.0586 118.693 35.0586 119.202V119.557H30.854V118.832H34.2063C34.2063 118.525 34.1448 118.25 34.0217 118.009C33.9009 117.767 33.7281 117.576 33.5032 117.437C33.2807 117.297 33.0179 117.227 32.7148 117.227C32.381 117.227 32.0922 117.31 31.8484 117.476C31.6069 117.639 31.421 117.852 31.2908 118.115C31.1606 118.378 31.0955 118.66 31.0955 118.96V119.443C31.0955 119.855 31.1665 120.204 31.3086 120.491C31.453 120.775 31.6531 120.991 31.9087 121.141C32.1644 121.287 32.4615 121.361 32.8001 121.361C33.0202 121.361 33.2191 121.33 33.3967 121.268C33.5766 121.205 33.7317 121.11 33.8619 120.984C33.9921 120.857 34.0927 120.698 34.1637 120.509L34.9734 120.736C34.8881 121.01 34.7449 121.252 34.5437 121.46C34.3424 121.666 34.0939 121.827 33.7979 121.943C33.502 122.057 33.1694 122.114 32.8001 122.114ZM39.771 119.77V116.545H40.609V122H39.771V121.077H39.7141C39.5863 121.354 39.3874 121.589 39.1175 121.783C38.8477 121.975 38.5067 122.071 38.0948 122.071C37.7539 122.071 37.4509 121.996 37.1857 121.847C36.9206 121.696 36.7122 121.469 36.5607 121.165C36.4092 120.86 36.3335 120.475 36.3335 120.011V116.545H37.1715V119.955C37.1715 120.352 37.2828 120.67 37.5053 120.906C37.7302 121.143 38.0167 121.261 38.3647 121.261C38.573 121.261 38.7849 121.208 39.0004 121.102C39.2182 120.995 39.4004 120.832 39.5472 120.612C39.6964 120.391 39.771 120.111 39.771 119.77ZM42.144 124.045V116.545H42.9537V117.412H43.0531C43.1146 117.317 43.1999 117.196 43.3088 117.05C43.42 116.901 43.5787 116.768 43.7846 116.652C43.993 116.534 44.2747 116.474 44.6298 116.474C45.0891 116.474 45.4939 116.589 45.8443 116.819C46.1947 117.049 46.4681 117.374 46.6646 117.795C46.8611 118.217 46.9593 118.714 46.9593 119.287C46.9593 119.865 46.8611 120.365 46.6646 120.789C46.4681 121.21 46.1958 121.537 45.8478 121.769C45.4998 121.999 45.0985 122.114 44.644 122.114C44.2936 122.114 44.0131 122.056 43.8024 121.94C43.5917 121.821 43.4295 121.687 43.3159 121.538C43.2022 121.387 43.1146 121.261 43.0531 121.162H42.9821V124.045H42.144ZM42.9679 119.273C42.9679 119.685 43.0282 120.048 43.149 120.363C43.2697 120.675 43.4461 120.92 43.6781 121.098C43.9101 121.273 44.1942 121.361 44.5304 121.361C44.8807 121.361 45.1731 121.268 45.4075 121.084C45.6442 120.897 45.8218 120.646 45.9402 120.331C46.0609 120.014 46.1213 119.661 46.1213 119.273C46.1213 118.889 46.0621 118.544 45.9437 118.236C45.8277 117.926 45.6513 117.681 45.4146 117.501C45.1802 117.318 44.8855 117.227 44.5304 117.227C44.1895 117.227 43.903 117.314 43.671 117.487C43.439 117.657 43.2638 117.896 43.1454 118.204C43.027 118.509 42.9679 118.866 42.9679 119.273Z" fill="white"/>
<circle cx="30" cy="32" r="20" fill="#141414"/>
<circle cx="30" cy="32" r="19" stroke="white" stroke-opacity="0.3" stroke-width="2"/>
<line x1="31" y1="12" x2="31" y2="22" stroke="white" stroke-opacity="0.3" stroke-width="2"/>
</svg>
