<svg width="16" height="16" viewBox="0 0 16 16" fill="none" xmlns="http://www.w3.org/2000/svg">
<path fill-rule="evenodd" clip-rule="evenodd" d="M0.422946 14.0618C0.219669 14.2651 0.105469 14.5408 0.105469 14.8283C0.105469 15.1158 0.219669 15.3915 0.422946 15.5948C0.626223 15.798 0.901927 15.9122 1.1894 15.9122C1.47688 15.9122 1.75259 15.798 1.95586 15.5948L8.00628 9.54218L14.0578 15.5937C14.2621 15.791 14.5358 15.9002 14.8198 15.8977C15.1038 15.8953 15.3756 15.7813 15.5764 15.5805C15.7773 15.3796 15.8912 15.1079 15.8937 14.8239C15.8961 14.5398 15.787 14.2662 15.5896 14.0618L9.53811 8.01034L15.5896 1.95884C15.7927 1.75557 15.9068 1.47992 15.9067 1.19254C15.9066 0.905169 15.7923 0.629603 15.5891 0.426469C15.3858 0.223335 15.1101 0.109273 14.8228 0.109375C14.5354 0.109477 14.2598 0.223734 14.0567 0.427011L8.00628 6.47851L1.95478 0.427011C1.75046 0.229673 1.47681 0.120479 1.19276 0.122948C0.908715 0.125416 0.637001 0.239349 0.436142 0.440207C0.235284 0.641066 0.121351 0.91278 0.118883 1.19683C0.116414 1.48087 0.225608 1.75453 0.422946 1.95884L6.47445 8.01034L0.422946 14.0618Z" fill="white" fill-opacity="0.6"/>
</svg>
