<svg width="14" height="18" viewBox="0 0 14 18" fill="none" xmlns="http://www.w3.org/2000/svg">
<path fill-rule="evenodd" clip-rule="evenodd" d="M0.75 5.35156V15.2478C0.75 15.7453 0.9475 16.2222 1.29938 16.5734C1.47336 16.7477 1.68001 16.8859 1.90747 16.9801C2.13494 17.0744 2.37877 17.1229 2.625 17.1228H9.5C9.66576 17.1228 9.82473 17.057 9.94194 16.9398C10.0592 16.8225 10.125 16.6636 10.125 16.4978C10.125 16.3321 10.0592 16.1731 9.94194 16.0559C9.82473 15.9387 9.66576 15.8728 9.5 15.8728H2.625C2.54285 15.8731 2.46147 15.8571 2.38553 15.8257C2.30959 15.7944 2.24059 15.7484 2.18251 15.6903C2.12442 15.6322 2.07839 15.5632 2.04707 15.4873C2.01575 15.4113 1.99975 15.33 2 15.2478V5.35156C2 5.1858 1.93415 5.02683 1.81694 4.90962C1.69973 4.79241 1.54076 4.72656 1.375 4.72656C1.20924 4.72656 1.05027 4.79241 0.933058 4.90962C0.815848 5.02683 0.75 5.1858 0.75 5.35156Z" fill="currentColor"/>
<path fill-rule="evenodd" clip-rule="evenodd" d="M13.8794 5.14375C13.8794 4.64562 13.6813 4.16812 13.3294 3.81625L10.9325 1.42313C10.581 1.07197 10.1044 0.874803 9.6075 0.875H5.125C4.6275 0.875 4.15062 1.0725 3.79937 1.42438C3.62514 1.59836 3.48694 1.80501 3.39267 2.03247C3.2984 2.25994 3.24992 2.50377 3.25 2.75V12.75C3.25 13.2475 3.4475 13.7244 3.79937 14.0756C3.97336 14.2499 4.18001 14.3881 4.40747 14.4823C4.63494 14.5766 4.87877 14.6251 5.125 14.625H12.0006C12.4978 14.625 12.9746 14.4275 13.3262 14.076C13.6778 13.7246 13.8755 13.2478 13.8756 12.7506L13.8794 5.14375ZM12.6294 5.14313L12.6256 12.75C12.6256 12.9158 12.5598 13.0747 12.4426 13.1919C12.3254 13.3092 12.1664 13.375 12.0006 13.375H5.125C5.04285 13.3752 4.96147 13.3593 4.88553 13.3279C4.80959 13.2966 4.74059 13.2506 4.68251 13.1925C4.62442 13.1344 4.57839 13.0654 4.54707 12.9895C4.51575 12.9135 4.49975 12.8321 4.5 12.75V2.75C4.49975 2.66785 4.51575 2.58647 4.54707 2.51053C4.57839 2.43459 4.62442 2.36559 4.68251 2.30751C4.74059 2.24942 4.80959 2.20339 4.88553 2.17207C4.96147 2.14075 5.04285 2.12475 5.125 2.125H9.6075C9.77313 2.125 9.93187 2.19063 10.0494 2.3075L12.4456 4.70063C12.5631 4.81813 12.6294 4.9775 12.6294 5.14313Z" fill="currentColor"/>
</svg>
