<svg width="120" height="136" viewBox="0 0 120 136" fill="none" xmlns="http://www.w3.org/2000/svg">
<path d="M0 0H120V134C120 135.105 119.105 136 118 136H2C0.895429 136 0 135.105 0 134V0Z" fill="#1F1F1F"/>
<circle cx="90" cy="27" r="15" fill="#141414"/>
<circle cx="90" cy="27" r="14" stroke="white" stroke-opacity="0.3" stroke-width="2"/>
<line x1="91" y1="12" x2="91" y2="22" stroke="white" stroke-opacity="0.3" stroke-width="2"/>
<path d="M70.8807 56V48.7273H71.7614V51.9659H75.6392V48.7273H76.5199V56H75.6392V52.7472H71.7614V56H70.8807ZM78.1694 56V50.5455H79.0075V56H78.1694ZM78.5955 49.6364C78.4322 49.6364 78.2913 49.5807 78.1729 49.4695C78.0569 49.3582 77.9989 49.2244 77.9989 49.0682C77.9989 48.9119 78.0569 48.7782 78.1729 48.6669C78.2913 48.5556 78.4322 48.5 78.5955 48.5C78.7589 48.5 78.8986 48.5556 79.0146 48.6669C79.1329 48.7782 79.1921 48.9119 79.1921 49.0682C79.1921 49.2244 79.1329 49.3582 79.0146 49.4695C78.8986 49.5807 78.7589 49.6364 78.5955 49.6364ZM82.7441 58.1591C82.3393 58.1591 81.9913 58.107 81.7001 58.0028C81.4089 57.901 81.1663 57.7661 80.9721 57.598C80.7804 57.4323 80.6277 57.2547 80.514 57.0653L81.1816 56.5966C81.2574 56.696 81.3533 56.8097 81.4693 56.9375C81.5853 57.0677 81.7439 57.1802 81.9451 57.2749C82.1487 57.3719 82.4151 57.4205 82.7441 57.4205C83.1845 57.4205 83.5479 57.3139 83.8343 57.1009C84.1208 56.8878 84.264 56.554 84.264 56.0994V54.9915H84.193C84.1315 55.0909 84.0439 55.214 83.9302 55.3608C83.819 55.5052 83.658 55.6342 83.4473 55.7479C83.2389 55.8591 82.9572 55.9148 82.6021 55.9148C82.1618 55.9148 81.7664 55.8106 81.416 55.6023C81.068 55.3939 80.7922 55.0909 80.5886 54.6932C80.3874 54.2955 80.2868 53.8125 80.2868 53.2443C80.2868 52.6856 80.385 52.1991 80.5815 51.7848C80.778 51.3681 81.0514 51.0462 81.4018 50.8189C81.7522 50.5893 82.157 50.4744 82.6163 50.4744C82.9714 50.4744 83.2531 50.5336 83.4615 50.652C83.6722 50.768 83.8332 50.9006 83.9444 51.0497C84.0581 51.1965 84.1457 51.3172 84.2072 51.4119H84.2924V50.5455H85.1021V56.1562C85.1021 56.625 84.9956 57.0062 84.7825 57.2997C84.5718 57.5956 84.2877 57.8123 83.9302 57.9496C83.5751 58.0893 83.1797 58.1591 82.7441 58.1591ZM82.7157 55.1619C83.0519 55.1619 83.336 55.085 83.568 54.9311C83.8 54.7772 83.9764 54.5559 84.0971 54.267C84.2179 53.9782 84.2782 53.6326 84.2782 53.2301C84.2782 52.8371 84.219 52.4903 84.1007 52.1896C83.9823 51.889 83.8071 51.6534 83.5751 51.483C83.3431 51.3125 83.0566 51.2273 82.7157 51.2273C82.3606 51.2273 82.0647 51.3172 81.8279 51.4972C81.5936 51.6771 81.4172 51.9186 81.2988 52.2216C81.1828 52.5246 81.1248 52.8608 81.1248 53.2301C81.1248 53.6089 81.184 53.9439 81.3024 54.2351C81.4231 54.5239 81.6007 54.7512 81.835 54.9169C82.0718 55.0803 82.3654 55.1619 82.7157 55.1619ZM87.4743 52.7188V56H86.6362V48.7273H87.4743V51.3977H87.5453C87.6731 51.116 87.8649 50.8923 88.1206 50.7266C88.3786 50.5585 88.7219 50.4744 89.1504 50.4744C89.5221 50.4744 89.8476 50.549 90.127 50.6982C90.4063 50.8449 90.6229 51.071 90.7768 51.3764C90.9331 51.6795 91.0112 52.0653 91.0112 52.5341V56H90.1731V52.5909C90.1731 52.1577 90.0607 51.8227 89.8358 51.5859C89.6132 51.3468 89.3043 51.2273 88.9089 51.2273C88.6343 51.2273 88.3881 51.2853 88.1703 51.4013C87.9548 51.5173 87.7844 51.6866 87.6589 51.9091C87.5358 52.1316 87.4743 52.4015 87.4743 52.7188ZM97.5728 56.1136C97.0614 56.1136 96.6211 55.9929 96.2518 55.7514C95.8825 55.5099 95.5984 55.1773 95.3995 54.7536C95.2006 54.3298 95.1012 53.8456 95.1012 53.3011C95.1012 52.7472 95.203 52.2583 95.4066 51.8345C95.6126 51.4084 95.899 51.0758 96.266 50.8366C96.6353 50.5952 97.0662 50.4744 97.5586 50.4744C97.9421 50.4744 98.2878 50.5455 98.5955 50.6875C98.9033 50.8295 99.1554 51.0284 99.3519 51.2841C99.5484 51.5398 99.6703 51.8381 99.7177 52.179H98.8796C98.8157 51.9304 98.6737 51.7102 98.4535 51.5185C98.2357 51.3243 97.9421 51.2273 97.5728 51.2273C97.2461 51.2273 96.9596 51.3125 96.7134 51.483C96.4696 51.651 96.279 51.889 96.1417 52.1967C96.0067 52.5021 95.9393 52.8608 95.9393 53.2727C95.9393 53.6941 96.0056 54.0611 96.1381 54.3736C96.2731 54.6861 96.4625 54.9287 96.7063 55.1016C96.9525 55.2744 97.2414 55.3608 97.5728 55.3608C97.7906 55.3608 97.9883 55.3229 98.1658 55.2472C98.3434 55.1714 98.4937 55.0625 98.6168 54.9205C98.7399 54.7784 98.8275 54.608 98.8796 54.4091H99.7177C99.6703 54.7311 99.5531 55.0211 99.3661 55.2791C99.1815 55.5348 98.9364 55.7384 98.631 55.8899C98.328 56.0391 97.9753 56.1136 97.5728 56.1136ZM104.38 53.7699V50.5455H105.218V56H104.38V55.0767H104.324C104.196 55.3537 103.997 55.5893 103.727 55.7834C103.457 55.9751 103.116 56.071 102.704 56.071C102.363 56.071 102.06 55.9964 101.795 55.8473C101.53 55.6958 101.322 55.4685 101.17 55.1655C101.019 54.8601 100.943 54.4754 100.943 54.0114V50.5455H101.781V53.9545C101.781 54.3523 101.892 54.6695 102.115 54.9062C102.34 55.143 102.626 55.2614 102.974 55.2614C103.182 55.2614 103.394 55.2081 103.61 55.1016C103.828 54.995 104.01 54.8317 104.157 54.6115C104.306 54.3913 104.38 54.1108 104.38 53.7699ZM109.126 50.5455V51.2557H106.299V50.5455H109.126ZM107.123 49.2386H107.961V54.4375C107.961 54.6742 107.995 54.8518 108.064 54.9702C108.135 55.0862 108.225 55.1643 108.334 55.2045C108.445 55.2424 108.562 55.2614 108.685 55.2614C108.778 55.2614 108.853 55.2566 108.912 55.2472C108.972 55.2353 109.019 55.2259 109.055 55.2188L109.225 55.9716C109.168 55.9929 109.089 56.0142 108.987 56.0355C108.885 56.0592 108.756 56.071 108.6 56.071C108.363 56.071 108.131 56.0201 107.904 55.9183C107.679 55.8165 107.492 55.6615 107.343 55.4531C107.196 55.2448 107.123 54.982 107.123 54.6648V49.2386Z" fill="white"/>
<circle cx="29" cy="93" r="15" fill="#141414"/>
<circle cx="29" cy="93" r="14" stroke="white" stroke-opacity="0.3" stroke-width="2"/>
<line x1="30" y1="78" x2="30" y2="88" stroke="white" stroke-opacity="0.3" stroke-width="2"/>
<path d="M23.8523 117C23.7741 116.761 23.6712 116.547 23.5433 116.357C23.4179 116.165 23.2675 116.002 23.0923 115.867C22.9195 115.732 22.723 115.629 22.5028 115.558C22.2827 115.487 22.0412 115.452 21.7784 115.452C21.3475 115.452 20.9557 115.563 20.603 115.786C20.2502 116.008 19.9697 116.336 19.7614 116.769C19.553 117.202 19.4489 117.734 19.4489 118.364C19.4489 118.993 19.5542 119.525 19.7649 119.958C19.9756 120.391 20.2609 120.719 20.6207 120.942C20.9806 121.164 21.3854 121.276 21.8352 121.276C22.2519 121.276 22.6188 121.187 22.9361 121.009C23.2557 120.829 23.5043 120.576 23.6818 120.249C23.8617 119.92 23.9517 119.533 23.9517 119.088L24.2216 119.145H22.0341V118.364H24.804V119.145C24.804 119.744 24.6761 120.265 24.4205 120.707C24.1671 121.15 23.8168 121.493 23.3693 121.737C22.9242 121.979 22.4129 122.099 21.8352 122.099C21.1913 122.099 20.6255 121.948 20.1378 121.645C19.6525 121.342 19.2737 120.911 19.0014 120.352C18.7315 119.794 18.5966 119.131 18.5966 118.364C18.5966 117.788 18.6735 117.271 18.8274 116.812C18.9837 116.35 19.2038 115.957 19.4879 115.633C19.772 115.308 20.1082 115.06 20.4964 114.887C20.8847 114.714 21.312 114.628 21.7784 114.628C22.1619 114.628 22.5194 114.686 22.8509 114.802C23.1847 114.915 23.4818 115.078 23.7422 115.288C24.005 115.497 24.224 115.746 24.3991 116.038C24.5743 116.326 24.6951 116.647 24.7614 117H23.8523ZM27.8038 122.128C27.4582 122.128 27.1445 122.063 26.8627 121.933C26.581 121.8 26.3573 121.609 26.1916 121.361C26.0259 121.11 25.943 120.807 25.943 120.452C25.943 120.139 26.0046 119.886 26.1277 119.692C26.2508 119.495 26.4153 119.341 26.6213 119.23C26.8272 119.119 27.0545 119.036 27.3031 118.982C27.554 118.925 27.8062 118.88 28.0595 118.847C28.3909 118.804 28.6596 118.772 28.8656 118.751C29.0739 118.727 29.2254 118.688 29.3201 118.634C29.4172 118.579 29.4657 118.484 29.4657 118.349V118.321C29.4657 117.971 29.3699 117.698 29.1781 117.504C28.9887 117.31 28.7011 117.213 28.3152 117.213C27.9151 117.213 27.6014 117.301 27.3741 117.476C27.1468 117.651 26.987 117.838 26.8947 118.037L26.0993 117.753C26.2413 117.421 26.4307 117.163 26.6674 116.979C26.9065 116.792 27.167 116.661 27.4487 116.588C27.7328 116.512 28.0121 116.474 28.2868 116.474C28.4619 116.474 28.6632 116.496 28.8904 116.538C29.1201 116.579 29.3414 116.663 29.5545 116.79C29.7699 116.918 29.9487 117.111 30.0907 117.369C30.2328 117.627 30.3038 117.973 30.3038 118.406V122H29.4657V121.261H29.4231C29.3663 121.38 29.2716 121.506 29.139 121.641C29.0065 121.776 28.8301 121.891 28.6099 121.986C28.3897 122.08 28.121 122.128 27.8038 122.128ZM27.9316 121.375C28.2631 121.375 28.5424 121.31 28.7697 121.18C28.9993 121.049 29.1722 120.881 29.2882 120.675C29.4065 120.469 29.4657 120.253 29.4657 120.026V119.259C29.4302 119.301 29.3521 119.34 29.2314 119.376C29.113 119.409 28.9757 119.438 28.8194 119.464C28.6655 119.488 28.5152 119.509 28.3684 119.528C28.224 119.545 28.1068 119.559 28.0169 119.571C27.7991 119.599 27.5955 119.646 27.4061 119.71C27.219 119.771 27.0675 119.865 26.9515 119.99C26.8379 120.113 26.7811 120.281 26.7811 120.494C26.7811 120.786 26.8888 121.006 27.1042 121.155C27.322 121.302 27.5978 121.375 27.9316 121.375ZM31.8335 122V116.545H32.6715V122H31.8335ZM32.2596 115.636C32.0962 115.636 31.9554 115.581 31.837 115.469C31.721 115.358 31.663 115.224 31.663 115.068C31.663 114.912 31.721 114.778 31.837 114.667C31.9554 114.556 32.0962 114.5 32.2596 114.5C32.4229 114.5 32.5626 114.556 32.6786 114.667C32.797 114.778 32.8562 114.912 32.8562 115.068C32.8562 115.224 32.797 115.358 32.6786 115.469C32.5626 115.581 32.4229 115.636 32.2596 115.636ZM35.0446 118.719V122H34.2065V116.545H35.0162V117.398H35.0872C35.215 117.121 35.4092 116.898 35.6696 116.73C35.93 116.56 36.2662 116.474 36.6781 116.474C37.0474 116.474 37.3706 116.55 37.6475 116.702C37.9245 116.851 38.14 117.078 38.2939 117.384C38.4477 117.687 38.5247 118.07 38.5247 118.534V122H37.6866V118.591C37.6866 118.162 37.5753 117.829 37.3528 117.589C37.1303 117.348 36.8249 117.227 36.4366 117.227C36.1691 117.227 35.93 117.285 35.7193 117.401C35.5109 117.517 35.3464 117.687 35.2257 117.909C35.1049 118.132 35.0446 118.402 35.0446 118.719Z" fill="white"/>
<circle cx="29" cy="27" r="15" fill="#141414"/>
<circle cx="29" cy="27" r="14" stroke="white" stroke-opacity="0.3" stroke-width="2"/>
<line x1="30" y1="12" x2="30" y2="22" stroke="white" stroke-opacity="0.3" stroke-width="2"/>
<path d="M10.8807 56V48.7273H11.7614V55.2188H15.142V56H10.8807ZM18.608 56.1136C18.1155 56.1136 17.6835 55.9964 17.3118 55.7621C16.9425 55.5277 16.6536 55.1998 16.4453 54.7784C16.2393 54.357 16.1364 53.8646 16.1364 53.3011C16.1364 52.733 16.2393 52.237 16.4453 51.8132C16.6536 51.3894 16.9425 51.0604 17.3118 50.826C17.6835 50.5916 18.1155 50.4744 18.608 50.4744C19.1004 50.4744 19.5313 50.5916 19.9006 50.826C20.2723 51.0604 20.5611 51.3894 20.767 51.8132C20.9754 52.237 21.0795 52.733 21.0795 53.3011C21.0795 53.8646 20.9754 54.357 20.767 54.7784C20.5611 55.1998 20.2723 55.5277 19.9006 55.7621C19.5313 55.9964 19.1004 56.1136 18.608 56.1136ZM18.608 55.3608C18.982 55.3608 19.2898 55.2649 19.5312 55.0732C19.7727 54.8814 19.9515 54.6293 20.0675 54.3168C20.1835 54.0043 20.2415 53.6657 20.2415 53.3011C20.2415 52.9366 20.1835 52.5968 20.0675 52.282C19.9515 51.9671 19.7727 51.7126 19.5312 51.5185C19.2898 51.3243 18.982 51.2273 18.608 51.2273C18.2339 51.2273 17.9261 51.3243 17.6847 51.5185C17.4432 51.7126 17.2644 51.9671 17.1484 52.282C17.0324 52.5968 16.9744 52.9366 16.9744 53.3011C16.9744 53.6657 17.0324 54.0043 17.1484 54.3168C17.2644 54.6293 17.4432 54.8814 17.6847 55.0732C17.9261 55.2649 18.2339 55.3608 18.608 55.3608ZM23.4091 56L21.7472 50.5455H22.6278L23.8068 54.7216H23.8636L25.0284 50.5455H25.9233L27.0739 54.7074H27.1307L28.3097 50.5455H29.1903L27.5284 56H26.7045L25.5114 51.8097H25.4261L24.233 56H23.4091ZM35.3267 56.1136C34.8153 56.1136 34.375 55.9929 34.0057 55.7514C33.6364 55.5099 33.3523 55.1773 33.1534 54.7536C32.9545 54.3298 32.8551 53.8456 32.8551 53.3011C32.8551 52.7472 32.9569 52.2583 33.1605 51.8345C33.3665 51.4084 33.6529 51.0758 34.0199 50.8366C34.3892 50.5952 34.8201 50.4744 35.3125 50.4744C35.696 50.4744 36.0417 50.5455 36.3494 50.6875C36.6572 50.8295 36.9093 51.0284 37.1058 51.2841C37.3023 51.5398 37.4242 51.8381 37.4716 52.179H36.6335C36.5696 51.9304 36.4276 51.7102 36.2074 51.5185C35.9896 51.3243 35.696 51.2273 35.3267 51.2273C35 51.2273 34.7135 51.3125 34.4673 51.483C34.2235 51.651 34.0329 51.889 33.8956 52.1967C33.7607 52.5021 33.6932 52.8608 33.6932 53.2727C33.6932 53.6941 33.7595 54.0611 33.892 54.3736C34.027 54.6861 34.2164 54.9287 34.4602 55.1016C34.7064 55.2744 34.9953 55.3608 35.3267 55.3608C35.5445 55.3608 35.7422 55.3229 35.9197 55.2472C36.0973 55.1714 36.2476 55.0625 36.3707 54.9205C36.4938 54.7784 36.5814 54.608 36.6335 54.4091H37.4716C37.4242 54.7311 37.3071 55.0211 37.12 55.2791C36.9354 55.5348 36.6903 55.7384 36.3849 55.8899C36.0819 56.0391 35.7292 56.1136 35.3267 56.1136ZM42.1342 53.7699V50.5455H42.9723V56H42.1342V55.0767H42.0774C41.9496 55.3537 41.7507 55.5893 41.4808 55.7834C41.2109 55.9751 40.87 56.071 40.4581 56.071C40.1172 56.071 39.8142 55.9964 39.549 55.8473C39.2839 55.6958 39.0755 55.4685 38.924 55.1655C38.7725 54.8601 38.6967 54.4754 38.6967 54.0114V50.5455H39.5348V53.9545C39.5348 54.3523 39.6461 54.6695 39.8686 54.9062C40.0935 55.143 40.38 55.2614 40.728 55.2614C40.9363 55.2614 41.1482 55.2081 41.3636 55.1016C41.5814 54.995 41.7637 54.8317 41.9105 54.6115C42.0597 54.3913 42.1342 54.1108 42.1342 53.7699ZM46.8794 50.5455V51.2557H44.0527V50.5455H46.8794ZM44.8766 49.2386H45.7147V54.4375C45.7147 54.6742 45.749 54.8518 45.8176 54.9702C45.8887 55.0862 45.9786 55.1643 46.0875 55.2045C46.1988 55.2424 46.316 55.2614 46.4391 55.2614C46.5314 55.2614 46.6072 55.2566 46.6664 55.2472C46.7256 55.2353 46.7729 55.2259 46.8084 55.2188L46.9789 55.9716C46.9221 55.9929 46.8427 56.0142 46.7409 56.0355C46.6391 56.0592 46.5101 56.071 46.3539 56.071C46.1171 56.071 45.8851 56.0201 45.6578 55.9183C45.4329 55.8165 45.2459 55.6615 45.0968 55.4531C44.95 55.2448 44.8766 54.982 44.8766 54.6648V49.2386Z" fill="white"/>
<circle cx="91" cy="93" r="15" fill="#141414"/>
<circle cx="91" cy="93" r="14" stroke="white" stroke-opacity="0.3" stroke-width="2"/>
<line x1="92" y1="78" x2="92" y2="88" stroke="white" stroke-opacity="0.3" stroke-width="2"/>
<path d="M83.8807 114.727H84.9318L87.4034 120.764H87.4886L89.9602 114.727H91.0114V122H90.1875V116.474H90.1165L87.8438 122H87.0483L84.7756 116.474H84.7045V122H83.8807V114.727ZM92.6635 122V116.545H93.5016V122H92.6635ZM93.0897 115.636C92.9263 115.636 92.7855 115.581 92.6671 115.469C92.5511 115.358 92.4931 115.224 92.4931 115.068C92.4931 114.912 92.5511 114.778 92.6671 114.667C92.7855 114.556 92.9263 114.5 93.0897 114.5C93.253 114.5 93.3927 114.556 93.5087 114.667C93.6271 114.778 93.6863 114.912 93.6863 115.068C93.6863 115.224 93.6271 115.358 93.5087 115.469C93.3927 115.581 93.253 115.636 93.0897 115.636ZM95.6616 116.545L96.9684 118.776L98.2752 116.545H99.2411L97.4798 119.273L99.2411 122H98.2752L96.9684 119.884L95.6616 122H94.6957L96.4286 119.273L94.6957 116.545H95.6616Z" fill="white"/>
</svg>
