<svg width="20" height="24" viewBox="0 0 20 24" fill="none" xmlns="http://www.w3.org/2000/svg">
<path d="M17.1919 3.82188H13.6663C13.4544 2.0118 11.9265 0.601562 10.0696 0.601562H9.905C8.04812 0.601562 6.52028 2.0118 6.33236 3.82188H2.80652C1.67828 3.82188 0.761719 4.73868 0.761719 5.86668C0.761719 6.14868 0.972919 6.36036 1.25516 6.36036H18.743C19.025 6.36036 19.2367 6.14868 19.2367 5.86668C19.2367 4.73868 18.3201 3.82188 17.1919 3.82188ZM8.28332 3.82188C8.44796 3.06972 9.12956 2.50548 9.92876 2.50548H10.0934C10.8926 2.50548 11.5507 3.06948 11.7386 3.82188H8.28332ZM16.5902 8.09964H3.40844C3.2749 8.09963 3.14281 8.12735 3.02053 8.18103C2.89826 8.23472 2.78846 8.3132 2.69808 8.41152C2.60771 8.50983 2.53873 8.62584 2.49551 8.75219C2.45229 8.87854 2.43577 9.01249 2.447 9.14556L3.4886 21.6623C3.55892 22.6494 4.3814 23.4016 5.36876 23.4016H14.6299C15.617 23.4016 16.4397 22.6494 16.5103 21.6623L17.5516 9.14556C17.5629 9.01249 17.5463 8.87854 17.5031 8.75219C17.4599 8.62584 17.3909 8.50983 17.3006 8.41152C17.2102 8.3132 17.1004 8.23472 16.9781 8.18103C16.8558 8.12735 16.7237 8.09963 16.5902 8.09964ZM6.80252 20.8396C6.44996 20.8631 6.14444 20.6044 6.12092 20.2518L5.5334 11.3435C5.48636 10.9907 5.7686 10.6852 6.12092 10.6619C6.47372 10.6384 6.77924 10.8968 6.80252 11.2494L7.39028 20.158C7.4138 20.5105 7.15508 20.816 6.80252 20.8396ZM10.6339 20.2048C10.6339 20.5576 10.3519 20.8396 9.99932 20.8396C9.64676 20.8396 9.36476 20.5576 9.36476 20.2048V11.2964C9.36476 10.9436 9.64676 10.6619 9.99932 10.6619C10.3519 10.6619 10.6339 10.9439 10.6339 11.2964V20.2048ZM13.9012 20.2753C13.8777 20.6281 13.5722 20.8866 13.2196 20.8631C12.8668 20.8396 12.6084 20.534 12.6319 20.1815L13.2194 11.2727C13.2432 10.9204 13.5487 10.6619 13.901 10.6852C14.2538 10.7087 14.5123 11.0144 14.489 11.3668L13.9012 20.2753Z" fill="white"/>
</svg>
