<svg width="20" height="20" viewBox="0 0 20 20" fill="none" xmlns="http://www.w3.org/2000/svg">
<path d="M15.9926 3.1836H13.0546C12.878 1.6752 11.6048 0.5 10.0574 0.5H9.92018C8.37278 0.5 7.09958 1.6752 6.94298 3.1836H4.00478C3.06458 3.1836 2.30078 3.9476 2.30078 4.8876C2.30078 5.1226 2.47678 5.299 2.71198 5.299H17.2852C17.5202 5.299 17.6966 5.1226 17.6966 4.8876C17.6966 3.9476 16.9328 3.1836 15.9926 3.1836ZM8.56878 3.1836C8.70598 2.5568 9.27398 2.0866 9.93998 2.0866H10.0772C10.7432 2.0866 11.2916 2.5566 11.4482 3.1836H8.56878ZM15.4912 6.7484H4.50638C4.3951 6.74839 4.28502 6.77149 4.18313 6.81623C4.08123 6.86096 3.98973 6.92636 3.91442 7.00829C3.83911 7.09022 3.78162 7.18689 3.74561 7.29219C3.70959 7.39748 3.69582 7.50911 3.70518 7.62L4.57318 18.0506C4.63178 18.8732 5.31718 19.5 6.13998 19.5H13.8576C14.6802 19.5 15.3658 18.8732 15.4246 18.0506L16.2924 7.62C16.3017 7.50911 16.288 7.39748 16.252 7.29219C16.2159 7.18689 16.1585 7.09022 16.0831 7.00829C16.0078 6.92636 15.9163 6.86096 15.8144 6.81623C15.7125 6.77149 15.6025 6.74839 15.4912 6.7484ZM7.33478 17.365C7.04098 17.3846 6.78638 17.169 6.76678 16.8752L6.27718 9.4516C6.23798 9.1576 6.47318 8.903 6.76678 8.8836C7.06078 8.864 7.31538 9.0794 7.33478 9.3732L7.82458 16.797C7.84418 17.0908 7.62858 17.3454 7.33478 17.365ZM10.5276 16.836C10.5276 17.13 10.2926 17.365 9.99878 17.365C9.70498 17.365 9.46998 17.13 9.46998 16.836V9.4124C9.46998 9.1184 9.70498 8.8836 9.99878 8.8836C10.2926 8.8836 10.5276 9.1186 10.5276 9.4124V16.836ZM13.2504 16.8948C13.2308 17.1888 12.9762 17.4042 12.6824 17.3846C12.3884 17.365 12.173 17.1104 12.1926 16.8166L12.6822 9.3926C12.702 9.099 12.9566 8.8836 13.2502 8.903C13.5442 8.9226 13.7596 9.1774 13.7402 9.471L13.2504 16.8948Z" fill="white"/>
</svg>
