<svg width="16" height="16" viewBox="0 0 16 16" fill="none" xmlns="http://www.w3.org/2000/svg">
<path d="M15.6214 0.176193C15.5434 0.108571 15.4518 0.0584908 15.3528 0.0293395C15.2538 0.000188069 15.1497 -0.00735391 15.0475 0.00722384L4.96084 1.44816C4.60587 1.49888 4.34225 1.80288 4.34225 2.16144V10.6086C3.9155 10.36 3.42009 10.2168 2.89159 10.2168C1.29719 10.2168 0 11.514 0 13.1084C0 14.7028 1.29716 16 2.89156 16C4.48597 16 5.78315 14.7028 5.78315 13.1084V5.66822L14.4289 4.43313V9.16763C14.0021 8.919 13.5067 8.77585 12.9782 8.77585C11.3838 8.77585 10.0866 10.073 10.0866 11.6674C10.0866 13.2618 11.3838 14.559 12.9782 14.559C14.5726 14.559 15.8698 13.2618 15.8698 11.6674V0.720474C15.8698 0.617252 15.8477 0.515233 15.8048 0.421327C15.7619 0.327421 15.6994 0.243822 15.6214 0.176193Z" fill="white" fill-opacity="0.6"/>
</svg>
