<svg width="19" height="18" viewBox="0 0 19 18" fill="none" xmlns="http://www.w3.org/2000/svg">
<path d="M3.1665 5.7487C2.99984 5.58203 2.74984 5.66536 2.6665 5.83203L1.33317 7.91536V16.4154L0.416504 17.332C0.249837 17.4987 0.249837 17.6654 0.416504 17.832C0.583171 17.9987 0.833171 17.9987 0.999837 17.832L1.74984 17.082L2.49984 17.832C2.58317 17.9154 2.6665 17.9154 2.74984 17.9154C2.83317 17.9154 2.9165 17.9154 2.99984 17.832C3.1665 17.6654 3.1665 17.4154 2.99984 17.332L2.08317 16.4154V8.16536L3.33317 6.2487C3.4165 6.08203 3.33317 5.83203 3.1665 5.7487ZM17.9998 17.2487L17.0832 16.332V4.58203C17.0832 4.4987 16.9998 4.41536 16.9998 4.33203L14.9165 2.33203C14.7498 2.16536 14.5832 2.16536 14.4165 2.33203C14.2498 2.4987 14.2498 2.7487 14.4165 2.83203L16.3332 4.83203V16.4154L15.4165 17.332C15.2498 17.4987 15.2498 17.6654 15.4165 17.832C15.5832 17.9987 15.8332 17.9987 15.9165 17.832L16.6665 17.082L17.4165 17.832C17.4998 17.9154 17.5832 17.9154 17.6665 17.9154C17.7498 17.9154 17.9165 17.9154 17.9165 17.832C18.0832 17.6654 18.0832 17.4154 17.9998 17.2487Z" fill="white"/>
<path d="M0.833333 4.83292C1.08333 4.33292 2.33333 4.16626 3.66667 4.83292C4.33333 5.16626 4.91667 5.58292 5.25 5.99959C5.58333 6.49959 5.66667 6.83292 5.5 7.08292L5.33333 7.41626L6 7.74959L6.16667 7.41626C6.41667 6.91626 6.33333 6.24959 5.83333 5.66626C5.41667 5.08292 4.83333 4.58292 4 4.16626C2.33333 3.41626 0.666667 3.49959 0.166667 4.49959L0 4.83292L0.666667 5.16626L0.833333 4.83292ZM12.75 4.58292L13.25 3.99959L13 3.74959C12.8333 3.66626 13.0833 2.83292 14.0833 1.83292C14.5 1.41626 15 1.08292 15.4167 0.832924C15.8333 0.666257 16 0.666257 16 0.749591L16.25 0.999591L16.75 0.499591L16.5 0.249591C16.3333 0.082924 15.9167 -0.167076 15.0833 0.166257C14.5833 0.416257 14 0.832924 13.5 1.33292C12.5 2.33292 11.8333 3.66626 12.4167 4.33292L12.75 4.58292ZM9.58333 5.99959H13.1667V8.41626H13.9167V5.66626C13.9167 5.41626 13.75 5.24959 13.5 5.24959H8.83333V6.41626H9.58333V5.99959Z" fill="white"/>
<path d="M14.5833 17.25L13.1667 15.8333C14 14.9167 14.5 13.6667 14.5 12.3333C14.5 9.41667 12.0833 7 9.16667 7C6.25 7 3.83333 9.41667 3.83333 12.3333C3.83333 13.6667 4.33333 14.9167 5.16667 15.8333L3.75 17.25C3.58333 17.4167 3.58333 17.5833 3.75 17.75C3.83333 17.8333 3.91667 17.8333 4 17.8333C4.08333 17.8333 4.25 17.8333 4.33333 17.75L5.75 16.3333C6.66667 17.0833 7.91667 17.5833 9.16667 17.5833C10.5 17.5833 11.6667 17.0833 12.5833 16.3333L14 17.75C14.0833 17.8333 14.1667 17.8333 14.25 17.8333C14.3333 17.8333 14.5 17.8333 14.5 17.75C14.6667 17.6667 14.6667 17.4167 14.5833 17.25ZM10.25 15.0833C9.41667 15.0833 8.75 14.4167 8.75 13.5833C8.75 12.75 9.41667 12.0833 10.25 12.0833C11.0833 12.0833 11.75 12.75 11.75 13.5833C11.75 14.4167 11.0833 15.0833 10.25 15.0833Z" fill="white"/>
</svg>
