<svg width="18" height="12" viewBox="0 0 18 12" fill="none" xmlns="http://www.w3.org/2000/svg">
<path d="M9.04159 0.53125C14.365 0.53125 17.2762 1.61228 17.2762 2.19437C17.2762 2.6933 14.7809 3.69117 10.2061 3.85748H7.71074C3.13596 3.69117 0.640625 2.6933 0.640625 2.19437C0.806981 1.69543 3.71821 0.53125 9.04159 0.53125ZM11.121 4.60588H11.2874C11.5369 4.60588 11.7033 4.60588 11.9528 4.52273H12.1192C12.2855 4.52273 12.3687 4.52273 12.5351 4.43957V11.3415C11.9528 11.4247 11.3706 11.4247 10.7051 11.5078V4.60588H11.121ZM13.2837 4.35642H13.5332C13.7827 4.35642 13.9491 4.27326 14.1986 4.27326H14.2818C14.4481 4.27326 14.6977 4.1901 14.864 4.1901H15.1136V10.9257C14.6145 11.092 14.0323 11.1752 13.3668 11.2583V4.35642H13.2837ZM3.13596 4.10695H3.30232C3.46867 4.1901 3.63503 4.1901 3.88456 4.1901H3.96774C4.21727 4.1901 4.38363 4.27326 4.63316 4.27326H4.8827V11.092C4.21727 11.0089 3.63503 10.9257 3.13596 10.7594V4.10695C3.05278 4.10695 3.05278 4.10695 3.13596 4.10695ZM5.54812 4.43957C5.71447 4.43957 5.79765 4.43957 5.96401 4.52273H6.13036C6.3799 4.52273 6.54625 4.52273 6.79579 4.60588H7.37803V11.5078C6.71261 11.5078 6.13036 11.4247 5.54812 11.3415V4.43957ZM0.806981 9.8447V3.27539C0.806981 3.27539 0.890159 3.27539 0.890159 3.35855C0.973337 3.35855 0.973337 3.4417 1.05651 3.4417C1.13969 3.4417 1.22287 3.52486 1.38923 3.60801H1.4724C1.63876 3.69117 1.80512 3.77433 1.97147 3.77433H2.05465C2.13783 3.77433 2.221 3.85748 2.30418 3.85748V10.6763C1.30605 10.4268 0.806981 10.0942 0.806981 9.8447ZM8.20981 11.5078V4.60588H10.2061V11.5078H8.20981ZM17.3594 9.8447C17.3594 10.0942 16.8603 10.4268 15.8622 10.6763V3.85748C15.9454 3.85748 16.0285 3.77433 16.1117 3.77433H16.1949C16.3612 3.69117 16.5276 3.69117 16.694 3.60801H16.7771C16.8603 3.52486 17.0267 3.52486 17.1098 3.4417C17.193 3.4417 17.193 3.35855 17.2762 3.35855C17.2762 3.35855 17.3594 3.35855 17.3594 3.27539V9.8447Z" fill="white"/>
</svg>
