<svg width="20" height="20" viewBox="0 0 20 20" fill="" xmlns="http://www.w3.org/2000/svg">
<path fill-rule="evenodd" clip-rule="evenodd" d="M3.75 6.35156V16.2478C3.75 16.7453 3.9475 17.2222 4.29938 17.5734C4.47336 17.7477 4.68001 17.8859 4.90747 17.9801C5.13494 18.0744 5.37877 18.1229 5.625 18.1228H12.5C12.6658 18.1228 12.8247 18.057 12.9419 17.9398C13.0592 17.8225 13.125 17.6636 13.125 17.4978C13.125 17.3321 13.0592 17.1731 12.9419 17.0559C12.8247 16.9387 12.6658 16.8728 12.5 16.8728H5.625C5.54285 16.8731 5.46147 16.8571 5.38553 16.8257C5.30959 16.7944 5.24059 16.7484 5.18251 16.6903C5.12442 16.6322 5.07839 16.5632 5.04707 16.4873C5.01575 16.4113 4.99975 16.33 5 16.2478V6.35156C5 6.1858 4.93415 6.02683 4.81694 5.90962C4.69973 5.79241 4.54076 5.72656 4.375 5.72656C4.20924 5.72656 4.05027 5.79241 3.93306 5.90962C3.81585 6.02683 3.75 6.1858 3.75 6.35156Z" fill=""/>
<path fill-rule="evenodd" clip-rule="evenodd" d="M16.8794 6.14375C16.8794 5.64562 16.6813 5.16812 16.3294 4.81625L13.9325 2.42313C13.581 2.07197 13.1044 1.8748 12.6075 1.875H8.125C7.6275 1.875 7.15062 2.0725 6.79937 2.42438C6.62514 2.59836 6.48694 2.80501 6.39267 3.03247C6.2984 3.25994 6.24992 3.50377 6.25 3.75V13.75C6.25 14.2475 6.4475 14.7244 6.79937 15.0756C6.97336 15.2499 7.18001 15.3881 7.40747 15.4823C7.63494 15.5766 7.87877 15.6251 8.125 15.625H15.0006C15.4978 15.625 15.9746 15.4275 16.3262 15.076C16.6778 14.7246 16.8755 14.2478 16.8756 13.7506L16.8794 6.14375ZM15.6294 6.14313L15.6256 13.75C15.6256 13.9158 15.5598 14.0747 15.4426 14.1919C15.3254 14.3092 15.1664 14.375 15.0006 14.375H8.125C8.04285 14.3752 7.96147 14.3593 7.88553 14.3279C7.80959 14.2966 7.74059 14.2506 7.68251 14.1925C7.62442 14.1344 7.57839 14.0654 7.54707 13.9895C7.51575 13.9135 7.49975 13.8321 7.5 13.75V3.75C7.49975 3.66785 7.51575 3.58647 7.54707 3.51053C7.57839 3.43459 7.62442 3.36559 7.68251 3.30751C7.74059 3.24942 7.80959 3.20339 7.88553 3.17207C7.96147 3.14075 8.04285 3.12475 8.125 3.125H12.6075C12.7731 3.125 12.9319 3.19063 13.0494 3.3075L15.4456 5.70063C15.5631 5.81813 15.6294 5.9775 15.6294 6.14313Z" fill=""/>
</svg>
