<svg width="16" height="16" viewBox="0 0 16 16" fill="none" xmlns="http://www.w3.org/2000/svg">
<path d="M14.2929 5.18732L15.093 4.38715C15.2236 4.2566 15.3272 4.10161 15.3979 3.93101C15.4686 3.76042 15.505 3.57757 15.505 3.39292C15.505 3.20826 15.4686 3.02541 15.3979 2.85482C15.3272 2.68422 15.2236 2.52923 15.093 2.39868L13.6066 0.911778C13.3428 0.648114 12.9851 0.5 12.6121 0.5C12.2392 0.5 11.8815 0.648114 11.6177 0.911778L10.8175 1.71195L14.2929 5.18732ZM10.1547 2.37477L1.11092 11.4185C1.03924 11.49 0.992693 11.5827 0.978263 11.6829L0.504818 14.9642C0.495203 15.0308 0.500016 15.0986 0.518929 15.1631C0.537842 15.2276 0.570412 15.2873 0.614431 15.3381C0.658449 15.389 0.712885 15.4297 0.774044 15.4576C0.835203 15.4856 0.901654 15.5 0.968888 15.5C0.990847 15.5 1.01278 15.4984 1.03451 15.4953L4.32098 15.0266C4.42142 15.0122 4.51451 14.9656 4.58629 14.8939L13.63 5.85014L10.1547 2.37477Z" fill="white"/>
</svg>
