<svg width="20" height="20" viewBox="0 0 20 20" fill="none" xmlns="http://www.w3.org/2000/svg">
<g clip-path="url(#clip0_71_9500)">
<path d="M10.0001 7.36816L11.7123 11.9531H8.2878L10.0001 7.36816ZM17.3651 17.0409L15.4047 11.7914C15.4004 11.7793 15.3958 11.7674 15.3913 11.7555L11.6468 1.7288C11.3901 1.04158 10.7337 0.585995 10.0001 0.585995C9.26647 0.585995 8.60999 1.04158 8.35335 1.7288L4.60883 11.7555C4.6043 11.7674 4.59973 11.7793 4.59543 11.7914L2.635 17.0409C2.29536 17.9503 2.75727 18.9629 3.66676 19.3025C4.57625 19.6421 5.58879 19.1802 5.92843 18.2707L6.97488 15.4688H13.0252L14.0717 18.2707C14.3357 18.9776 15.006 19.4141 15.7186 19.4141C15.9229 19.4141 16.1307 19.3782 16.3334 19.3025C17.2429 18.9629 17.7048 17.9503 17.3651 17.0409Z" stroke="white" stroke-miterlimit="10" stroke-linecap="round" stroke-linejoin="round"/>
</g>
<defs>
<clipPath id="clip0_71_9500">
<rect width="20" height="20" fill="white" transform="matrix(0 -1 1 0 0 20)"/>
</clipPath>
</defs>
</svg>
