<svg width="16" height="18" viewBox="0 0 16 18" fill="none" xmlns="http://www.w3.org/2000/svg">
<path fill-rule="evenodd" clip-rule="evenodd" d="M0.5 5.66927C0.5 5.44826 0.587797 5.23629 0.744078 5.08001C0.900358 4.92373 1.11232 4.83594 1.33333 4.83594H2.16667V1.5026C2.16667 1.28159 2.25446 1.06963 2.41074 0.913347C2.56702 0.757067 2.77899 0.66927 3 0.66927C3.22101 0.66927 3.43298 0.757067 3.58926 0.913347C3.74554 1.06963 3.83333 1.28159 3.83333 1.5026V4.83594H4.66667C4.88768 4.83594 5.09964 4.92373 5.25592 5.08001C5.4122 5.23629 5.5 5.44826 5.5 5.66927C5.5 5.89028 5.4122 6.10225 5.25592 6.25853C5.09964 6.41481 4.88768 6.5026 4.66667 6.5026H1.33333C1.11232 6.5026 0.900358 6.41481 0.744078 6.25853C0.587797 6.10225 0.5 5.89028 0.5 5.66927ZM3 17.3359C2.77899 17.3359 2.56702 17.2481 2.41074 17.0919C2.25446 16.9356 2.16667 16.7236 2.16667 16.5026L2.16667 9.0026C2.16667 8.78159 2.25446 8.56963 2.41074 8.41335C2.56702 8.25707 2.77899 8.16927 3 8.16927C3.22101 8.16927 3.43298 8.25707 3.58926 8.41335C3.74554 8.56963 3.83333 8.78159 3.83333 9.0026L3.83333 16.5026C3.83333 16.7236 3.74554 16.9356 3.58926 17.0919C3.43298 17.2481 3.22101 17.3359 3 17.3359ZM5.5 12.3359C5.5 12.1149 5.5878 11.903 5.74408 11.7467C5.90036 11.5904 6.11232 11.5026 6.33333 11.5026H9.66667C9.88768 11.5026 10.0996 11.5904 10.2559 11.7467C10.4122 11.903 10.5 12.1149 10.5 12.3359C10.5 12.557 10.4122 12.7689 10.2559 12.9252C10.0996 13.0815 9.88768 13.1693 9.66667 13.1693H8.83333V16.5026C8.83333 16.7236 8.74554 16.9356 8.58926 17.0919C8.43297 17.2481 8.22101 17.3359 8 17.3359C7.77899 17.3359 7.56702 17.2481 7.41074 17.0919C7.25446 16.9356 7.16667 16.7236 7.16667 16.5026V13.1693H6.33333C6.11232 13.1693 5.90036 13.0815 5.74408 12.9252C5.5878 12.7689 5.5 12.557 5.5 12.3359ZM8 9.83594C7.77899 9.83594 7.56702 9.74814 7.41074 9.59186C7.25446 9.43558 7.16667 9.22362 7.16667 9.0026V1.5026C7.16667 1.28159 7.25446 1.06963 7.41074 0.913347C7.56702 0.757067 7.77899 0.66927 8 0.66927C8.22101 0.66927 8.43297 0.757067 8.58926 0.913347C8.74554 1.06963 8.83333 1.28159 8.83333 1.5026L8.83333 9.0026C8.83333 9.22362 8.74554 9.43558 8.58926 9.59186C8.43297 9.74814 8.22101 9.83594 8 9.83594ZM10.5 5.66927C10.5 5.44826 10.5878 5.23629 10.7441 5.08001C10.9004 4.92373 11.1123 4.83594 11.3333 4.83594H12.1667L12.1667 1.5026C12.1667 1.28159 12.2545 1.06963 12.4107 0.913347C12.567 0.757067 12.779 0.66927 13 0.66927C13.221 0.66927 13.433 0.757067 13.5893 0.913347C13.7455 1.06963 13.8333 1.28159 13.8333 1.5026L13.8333 4.83594H14.6667C14.8877 4.83594 15.0996 4.92373 15.2559 5.08001C15.4122 5.23629 15.5 5.44826 15.5 5.66927C15.5 5.89028 15.4122 6.10225 15.2559 6.25853C15.0996 6.41481 14.8877 6.5026 14.6667 6.5026H11.3333C11.1123 6.5026 10.9004 6.41481 10.7441 6.25853C10.5878 6.10225 10.5 5.89028 10.5 5.66927ZM13 17.3359C12.779 17.3359 12.567 17.2481 12.4107 17.0919C12.2545 16.9356 12.1667 16.7236 12.1667 16.5026V9.0026C12.1667 8.78159 12.2545 8.56963 12.4107 8.41335C12.567 8.25707 12.779 8.16927 13 8.16927C13.221 8.16927 13.433 8.25707 13.5893 8.41335C13.7455 8.56963 13.8333 8.78159 13.8333 9.0026V16.5026C13.8333 16.7236 13.7455 16.9356 13.5893 17.0919C13.433 17.2481 13.221 17.3359 13 17.3359Z" fill="currentColor"/>
</svg>
