<svg width="20" height="20" viewBox="0 0 20 20" fill="none" xmlns="http://www.w3.org/2000/svg">
<path fill-rule="evenodd" clip-rule="evenodd" d="M2.5 6.66927C2.5 6.44826 2.5878 6.23629 2.74408 6.08001C2.90036 5.92373 3.11232 5.83594 3.33333 5.83594H4.16667V2.5026C4.16667 2.28159 4.25446 2.06963 4.41074 1.91335C4.56702 1.75707 4.77899 1.66927 5 1.66927C5.22101 1.66927 5.43298 1.75707 5.58926 1.91335C5.74554 2.06963 5.83333 2.28159 5.83333 2.5026V5.83594H6.66667C6.88768 5.83594 7.09964 5.92373 7.25592 6.08001C7.4122 6.23629 7.5 6.44826 7.5 6.66927C7.5 6.89028 7.4122 7.10225 7.25592 7.25853C7.09964 7.41481 6.88768 7.5026 6.66667 7.5026H3.33333C3.11232 7.5026 2.90036 7.41481 2.74408 7.25853C2.5878 7.10225 2.5 6.89028 2.5 6.66927ZM5 18.3359C4.77899 18.3359 4.56702 18.2481 4.41074 18.0919C4.25446 17.9356 4.16667 17.7236 4.16667 17.5026V10.0026C4.16667 9.78159 4.25446 9.56963 4.41074 9.41335C4.56702 9.25707 4.77899 9.16927 5 9.16927C5.22101 9.16927 5.43298 9.25707 5.58926 9.41335C5.74554 9.56963 5.83333 9.78159 5.83333 10.0026V17.5026C5.83333 17.7236 5.74554 17.9356 5.58926 18.0919C5.43298 18.2481 5.22101 18.3359 5 18.3359ZM7.5 13.3359C7.5 13.1149 7.5878 12.903 7.74408 12.7467C7.90036 12.5904 8.11232 12.5026 8.33333 12.5026H11.6667C11.8877 12.5026 12.0996 12.5904 12.2559 12.7467C12.4122 12.903 12.5 13.1149 12.5 13.3359C12.5 13.557 12.4122 13.7689 12.2559 13.9252C12.0996 14.0815 11.8877 14.1693 11.6667 14.1693H10.8333V17.5026C10.8333 17.7236 10.7455 17.9356 10.5893 18.0919C10.433 18.2481 10.221 18.3359 10 18.3359C9.77899 18.3359 9.56702 18.2481 9.41074 18.0919C9.25446 17.9356 9.16667 17.7236 9.16667 17.5026V14.1693H8.33333C8.11232 14.1693 7.90036 14.0815 7.74408 13.9252C7.5878 13.7689 7.5 13.557 7.5 13.3359ZM10 10.8359C9.77899 10.8359 9.56702 10.7481 9.41074 10.5919C9.25446 10.4356 9.16667 10.2236 9.16667 10.0026V2.5026C9.16667 2.28159 9.25446 2.06963 9.41074 1.91335C9.56702 1.75707 9.77899 1.66927 10 1.66927C10.221 1.66927 10.433 1.75707 10.5893 1.91335C10.7455 2.06963 10.8333 2.28159 10.8333 2.5026L10.8333 10.0026C10.8333 10.2236 10.7455 10.4356 10.5893 10.5919C10.433 10.7481 10.221 10.8359 10 10.8359ZM12.5 6.66927C12.5 6.44826 12.5878 6.23629 12.7441 6.08001C12.9004 5.92373 13.1123 5.83594 13.3333 5.83594H14.1667L14.1667 2.5026C14.1667 2.28159 14.2545 2.06963 14.4107 1.91335C14.567 1.75707 14.779 1.66927 15 1.66927C15.221 1.66927 15.433 1.75707 15.5893 1.91335C15.7455 2.06963 15.8333 2.28159 15.8333 2.5026L15.8333 5.83594H16.6667C16.8877 5.83594 17.0996 5.92373 17.2559 6.08001C17.4122 6.23629 17.5 6.44826 17.5 6.66927C17.5 6.89028 17.4122 7.10225 17.2559 7.25853C17.0996 7.41481 16.8877 7.5026 16.6667 7.5026H13.3333C13.1123 7.5026 12.9004 7.41481 12.7441 7.25853C12.5878 7.10225 12.5 6.89028 12.5 6.66927ZM15 18.3359C14.779 18.3359 14.567 18.2481 14.4107 18.0919C14.2545 17.9356 14.1667 17.7236 14.1667 17.5026V10.0026C14.1667 9.78159 14.2545 9.56963 14.4107 9.41335C14.567 9.25707 14.779 9.16927 15 9.16927C15.221 9.16927 15.433 9.25707 15.5893 9.41335C15.7455 9.56963 15.8333 9.78159 15.8333 10.0026V17.5026C15.8333 17.7236 15.7455 17.9356 15.5893 18.0919C15.433 18.2481 15.221 18.3359 15 18.3359Z" fill="white"/>
</svg>
