<svg width="18" height="17" viewBox="0 0 18 17" fill="none" xmlns="http://www.w3.org/2000/svg">
<path d="M16.4993 14.8307H1.49935C1.27834 14.8307 1.06637 14.9185 0.910093 15.0748C0.753813 15.2311 0.666016 15.443 0.666016 15.6641C0.666016 15.8851 0.753813 16.097 0.910093 16.2533C1.06637 16.4096 1.27834 16.4974 1.49935 16.4974H16.4993C16.7204 16.4974 16.9323 16.4096 17.0886 16.2533C17.2449 16.097 17.3327 15.8851 17.3327 15.6641C17.3327 15.443 17.2449 15.2311 17.0886 15.0748C16.9323 14.9185 16.7204 14.8307 16.4993 14.8307ZM8.99935 0.664062C8.77833 0.664063 8.56637 0.75186 8.41009 0.90814C8.25381 1.06442 8.16602 1.27638 8.16602 1.4974V10.3224L5.42435 7.5724C5.26743 7.41548 5.0546 7.32732 4.83268 7.32732C4.61076 7.32732 4.39794 7.41548 4.24102 7.5724C4.0841 7.72931 3.99594 7.94214 3.99594 8.16406C3.99594 8.38598 4.0841 8.59881 4.24102 8.75573L8.40768 12.9224C8.48515 13.0005 8.57732 13.0625 8.67887 13.1048C8.78042 13.1471 8.88934 13.1689 8.99935 13.1689C9.10936 13.1689 9.21828 13.1471 9.31983 13.1048C9.42138 13.0625 9.51355 13.0005 9.59102 12.9224L13.7577 8.75573C13.8354 8.67803 13.897 8.58579 13.9391 8.48427C13.9811 8.38275 14.0028 8.27394 14.0028 8.16406C14.0028 8.05418 13.9811 7.94537 13.9391 7.84385C13.897 7.74234 13.8354 7.65009 13.7577 7.5724C13.68 7.4947 13.5877 7.43306 13.4862 7.39101C13.3847 7.34896 13.2759 7.32732 13.166 7.32732C13.0561 7.32732 12.9473 7.34896 12.8458 7.39101C12.7443 7.43306 12.652 7.4947 12.5743 7.5724L9.83268 10.3224V1.4974C9.83268 1.27638 9.74488 1.06442 9.5886 0.90814C9.43232 0.75186 9.22036 0.664063 8.99935 0.664062Z" fill="currentColor"/>
</svg>
