<svg width="5" height="7" viewBox="0 0 5 7" fill="none" xmlns="http://www.w3.org/2000/svg">
<path d="M3.8125 1.71023C3.7822 1.44129 3.6572 1.23295 3.4375 1.08523C3.2178 0.935606 2.94129 0.860795 2.60795 0.860795C2.36932 0.860795 2.16288 0.898674 1.98864 0.974432C1.81439 1.0483 1.67898 1.15057 1.58239 1.28125C1.48769 1.41004 1.44034 1.55682 1.44034 1.72159C1.44034 1.85985 1.47254 1.97917 1.53693 2.07955C1.60322 2.17992 1.68939 2.2642 1.79545 2.33239C1.90341 2.39867 2.01894 2.45455 2.14205 2.5C2.26515 2.54356 2.38352 2.57955 2.49716 2.60795L3.06534 2.75568C3.25095 2.80114 3.44129 2.86269 3.63636 2.94034C3.83144 3.01799 4.01231 3.12027 4.17898 3.24716C4.34564 3.37405 4.48011 3.53125 4.58239 3.71875C4.68655 3.90625 4.73864 4.13068 4.73864 4.39205C4.73864 4.72159 4.65341 5.0142 4.48295 5.26989C4.31439 5.52557 4.06913 5.72727 3.74716 5.875C3.42708 6.02273 3.03977 6.09659 2.58523 6.09659C2.14962 6.09659 1.77273 6.02746 1.45455 5.8892C1.13636 5.75095 0.887311 5.55492 0.707386 5.30114C0.527462 5.04545 0.42803 4.74242 0.409091 4.39205H1.28977C1.30682 4.60227 1.375 4.77746 1.49432 4.91761C1.61553 5.05587 1.76989 5.15909 1.95739 5.22727C2.14678 5.29356 2.35417 5.3267 2.57955 5.3267C2.82765 5.3267 3.0483 5.28788 3.24148 5.21023C3.43655 5.13068 3.58996 5.02083 3.7017 4.88068C3.81345 4.73864 3.86932 4.57292 3.86932 4.38352C3.86932 4.21117 3.82008 4.07008 3.72159 3.96023C3.625 3.85038 3.49337 3.75947 3.3267 3.6875C3.16193 3.61553 2.97538 3.55208 2.76705 3.49716L2.07955 3.30966C1.61364 3.18277 1.24432 2.99621 0.971591 2.75C0.700758 2.50379 0.565341 2.17803 0.565341 1.77273C0.565341 1.4375 0.65625 1.14489 0.838068 0.894886C1.01989 0.644886 1.2661 0.450757 1.5767 0.3125C1.88731 0.172348 2.23769 0.102273 2.62784 0.102273C3.02178 0.102273 3.36932 0.171401 3.67045 0.309659C3.97348 0.447917 4.21212 0.638258 4.38636 0.880682C4.56061 1.12121 4.65152 1.39773 4.65909 1.71023H3.8125Z" fill="white" fill-opacity="0.6"/>
</svg>
