<svg width="51" height="50" viewBox="0 0 51 50" fill="none" xmlns="http://www.w3.org/2000/svg">
<path d="M45.8125 5.46875H5.1875C3.03359 5.46875 1.28125 7.22109 1.28125 9.375V40.625C1.28125 42.7789 3.03359 44.5312 5.1875 44.5312H45.8125C47.9664 44.5312 49.7188 42.7789 49.7188 40.625V9.375C49.7188 7.22109 47.9664 5.46875 45.8125 5.46875ZM5.1875 7.03125H45.8125C47.1047 7.03125 48.1562 8.08281 48.1562 9.375V27.3438H2.84375V9.375C2.84375 8.08281 3.89531 7.03125 5.1875 7.03125ZM45.8125 42.9688H5.1875C3.89531 42.9688 2.84375 41.9172 2.84375 40.625V28.9062H48.1562V40.625C48.1562 41.9172 47.1047 42.9688 45.8125 42.9688ZM26.2812 35.3V30.4688H24.7188V35.3C23.8117 35.6234 23.1562 36.4828 23.1562 37.5C23.1562 38.5172 23.8117 39.3766 24.7188 39.7V41.4062H26.2812V39.7C27.1883 39.3766 27.8438 38.5172 27.8438 37.5C27.8438 36.4828 27.1883 35.6234 26.2812 35.3ZM25.5 38.2812C25.0695 38.2812 24.7188 37.9305 24.7188 37.5C24.7188 37.0695 25.0695 36.7188 25.5 36.7188C25.9305 36.7188 26.2812 37.0695 26.2812 37.5C26.2812 37.9305 25.9305 38.2812 25.5 38.2812ZM20.0312 33.7375V30.4688H18.4688V33.7375C17.5617 34.0609 16.9062 34.9203 16.9062 35.9375C16.9062 36.9547 17.5617 37.8141 18.4688 38.1375V41.4062H20.0312V38.1375C20.9383 37.8141 21.5938 36.9547 21.5938 35.9375C21.5938 34.9203 20.9383 34.0609 20.0312 33.7375ZM19.25 36.7188C18.8195 36.7188 18.4688 36.368 18.4688 35.9375C18.4688 35.507 18.8195 35.1562 19.25 35.1562C19.6805 35.1562 20.0312 35.507 20.0312 35.9375C20.0312 36.368 19.6805 36.7188 19.25 36.7188ZM32.5312 32.175V30.4688H30.9688V32.175C30.0617 32.4984 29.4062 33.3578 29.4062 34.375C29.4062 35.3922 30.0617 36.2516 30.9688 36.575V41.4062H32.5312V36.575C33.4383 36.2516 34.0938 35.3922 34.0938 34.375C34.0938 33.3578 33.4383 32.4984 32.5312 32.175ZM31.75 35.1562C31.3195 35.1562 30.9688 34.8055 30.9688 34.375C30.9688 33.9445 31.3195 33.5938 31.75 33.5938C32.1805 33.5938 32.5312 33.9445 32.5312 34.375C32.5312 34.8055 32.1805 35.1562 31.75 35.1562ZM38 30.4688C36.7078 30.4688 35.6562 31.5203 35.6562 32.8125C35.6562 33.8297 36.3117 34.6891 37.2188 35.0125V41.4062H38.7812V35.0125C39.2369 34.8519 39.6317 34.5542 39.9114 34.1603C40.1912 33.7664 40.3422 33.2956 40.3438 32.8125C40.3438 31.5203 39.2922 30.4688 38 30.4688ZM38 33.5938C37.5695 33.5938 37.2188 33.243 37.2188 32.8125C37.2188 32.382 37.5695 32.0312 38 32.0312C38.4305 32.0312 38.7812 32.382 38.7812 32.8125C38.7812 33.243 38.4305 33.5938 38 33.5938ZM45.0312 36.8625V30.4688H43.4688V36.8625C43.0131 37.0231 42.6183 37.3208 42.3386 37.7147C42.0588 38.1086 41.9078 38.5794 41.9062 39.0625C41.9062 40.3547 42.9578 41.4062 44.25 41.4062C45.5422 41.4062 46.5938 40.3547 46.5938 39.0625C46.5922 38.5794 46.4412 38.1086 46.1614 37.7147C45.8817 37.3208 45.4869 37.0231 45.0312 36.8625ZM44.25 39.8438C43.8195 39.8438 43.4688 39.493 43.4688 39.0625C43.4688 38.632 43.8195 38.2812 44.25 38.2812C44.6805 38.2812 45.0312 38.632 45.0312 39.0625C45.0312 39.493 44.6805 39.8438 44.25 39.8438ZM5.96875 25.7812H29.4062C30.268 25.7812 30.9688 25.0805 30.9688 24.2188V10.1562C30.9688 9.29453 30.268 8.59375 29.4062 8.59375H5.96875C5.10703 8.59375 4.40625 9.29453 4.40625 10.1562V24.2188C4.40625 25.0805 5.10703 25.7812 5.96875 25.7812ZM27.8438 24.2188V17.9688H26.2812V24.2188H24.7188V21.0938H23.1562V24.2188H21.5938V17.9688H20.0312V24.2188H18.4688V19.5312H16.9062V24.2188H15.3438V16.4062H13.7812V24.2188H12.2188V17.9688H10.6562V24.2188H9.09375V16.4062H7.53125V24.2188H5.96875V14.8438H7.71797C7.93359 14.8438 8.14766 14.9148 8.31953 15.0438L9.46016 15.8992C10.0211 16.3203 10.7391 16.493 11.432 16.3758C11.7758 16.3164 12.1038 16.1878 12.3963 15.9978C12.6888 15.8077 12.9397 15.5602 13.1336 15.2703L13.6117 14.5531C13.8086 14.2578 14.1297 14.0797 14.4805 14.1078C14.8359 14.1203 15.1406 14.3039 15.3164 14.6125L16.007 15.8211C16.1876 16.1368 16.4332 16.4105 16.7276 16.6241C17.022 16.8376 17.3584 16.9862 17.7145 17.0599C18.0706 17.1337 18.4384 17.1308 18.7933 17.0517C19.1483 16.9725 19.4824 16.8188 19.7734 16.6008C19.9961 16.4336 20.2703 16.3687 20.5438 16.4148C20.818 16.4617 21.0539 16.6156 21.2086 16.8469L21.9344 17.9359C22.1673 18.2895 22.4849 18.5792 22.8584 18.7787C23.2319 18.9782 23.6493 19.0811 24.0727 19.0781C24.457 19.0795 24.8366 18.9936 25.1828 18.8267C25.5291 18.6598 25.8328 18.4164 26.0711 18.1148L27.1367 16.7828C27.3281 16.543 27.6133 16.4062 27.9195 16.4062H29.407L29.4078 24.2188H27.8438ZM29.4062 10.1562V14.8438H27.9195C27.5348 14.8427 27.1548 14.9287 26.808 15.0954C26.4612 15.2621 26.1567 15.5051 25.9172 15.8063L24.8516 17.1383C24.7547 17.2633 24.6287 17.3628 24.4847 17.4281C24.3407 17.4935 24.1829 17.5227 24.025 17.5133C23.8673 17.5073 23.7133 17.4638 23.5758 17.3863C23.4383 17.3089 23.3212 17.1997 23.2344 17.068L22.5086 15.9789C22.3147 15.689 22.0638 15.4415 21.7713 15.2514C21.4788 15.0614 21.1508 14.9328 20.807 14.8734C20.4634 14.8154 20.1115 14.8277 19.7728 14.9095C19.434 14.9913 19.1153 15.1408 18.8359 15.3492C18.6016 15.5242 18.3156 15.5883 18.0305 15.5289C17.7453 15.4695 17.5086 15.2977 17.3633 15.0445L16.6727 13.8359C16.4569 13.4553 16.1468 13.1366 15.7721 12.9105C15.3975 12.6845 14.9709 12.5587 14.5336 12.5453C14.0965 12.5296 13.6627 12.6262 13.2736 12.8259C12.8845 13.0256 12.553 13.3217 12.3109 13.6859L11.8328 14.4031C11.6781 14.6344 11.4422 14.7883 11.168 14.8352C11.0337 14.8587 10.896 14.8543 10.7635 14.8223C10.631 14.7903 10.5064 14.7314 10.3977 14.6492L9.25703 13.7937C8.81241 13.462 8.27273 13.2823 7.71797 13.2812H5.96875V10.1562H29.4062ZM34.0938 16.4062H45.0312C45.893 16.4062 46.5938 15.7055 46.5938 14.8438V10.1562C46.5938 9.29453 45.893 8.59375 45.0312 8.59375H34.0938C33.232 8.59375 32.5312 9.29453 32.5312 10.1562V14.8438C32.5312 15.7055 33.232 16.4062 34.0938 16.4062ZM34.0938 10.1562H45.0312L45.032 14.8438H34.0938V10.1562ZM34.0938 25.7812H45.0312C45.893 25.7812 46.5938 25.0805 46.5938 24.2188V19.5312C46.5938 18.6695 45.893 17.9688 45.0312 17.9688H34.0938C33.232 17.9688 32.5312 18.6695 32.5312 19.5312V24.2188C32.5312 25.0805 33.232 25.7812 34.0938 25.7812ZM34.0938 19.5312H45.0312L45.032 24.2188H34.0938V19.5312ZM4.40625 35.1562H13.7812V30.4688H4.40625V35.1562ZM5.96875 32.0312H12.2188V33.5938H5.96875V32.0312ZM4.40625 41.4062H13.7812V36.7188H4.40625V41.4062ZM5.96875 38.2812H12.2188V39.8438H5.96875V38.2812ZM38.7812 21.0938H40.3438V22.6562H38.7812V21.0938ZM35.6562 21.0938H37.2188V22.6562H35.6562V21.0938ZM41.9062 21.0938H43.4688V22.6562H41.9062V21.0938ZM38.7812 11.7188H40.3438V13.2812H38.7812V11.7188ZM41.9062 11.7188H43.4688V13.2812H41.9062V11.7188ZM35.6562 11.7188H37.2188V13.2812H35.6562V11.7188Z" fill="url(#paint0_linear_191_1935)"/>
<defs>
<linearGradient id="paint0_linear_191_1935" x1="25.5" y1="44.5312" x2="25.5" y2="5.46875" gradientUnits="userSpaceOnUse">
<stop stop-color="#9F2FFF"/>
<stop offset="1" stop-color="#0BB1D3"/>
</linearGradient>
</defs>
</svg>
