<svg width="50" height="50" viewBox="0 0 50 50" fill="none" xmlns="http://www.w3.org/2000/svg">
<g clip-path="url(#clip0_191_1942)">
<path d="M49.2882 13.1271H49.288L49.2863 13.1254L46.0589 12.665C45.8965 12.6418 45.7445 12.571 45.6223 12.4615C45.5 12.352 45.4131 12.2087 45.3723 12.0497C45.3315 11.8907 45.3388 11.7232 45.3933 11.5684C45.4477 11.4136 45.5468 11.2784 45.6781 11.1799L48.2866 9.22357C48.4626 9.09155 48.579 8.89501 48.6101 8.67718C48.6412 8.45936 48.5845 8.23809 48.4525 8.06206L45.4657 4.07973C45.3337 3.9037 45.1372 3.78733 44.9194 3.75621C44.7015 3.72509 44.4803 3.78178 44.3042 3.9138L41.6966 5.87012C41.5654 5.96968 41.4076 6.02793 41.2432 6.03746C41.0787 6.04699 40.9152 6.00737 40.7734 5.92365C40.6315 5.83992 40.5178 5.71588 40.4468 5.56731C40.3757 5.41875 40.3504 5.25239 40.3742 5.08942L40.8355 1.86207C40.8509 1.75422 40.845 1.64438 40.818 1.53882C40.7911 1.43326 40.7435 1.33405 40.6782 1.24685C40.6129 1.15965 40.5311 1.08617 40.4373 1.03061C40.3436 0.975042 40.2399 0.938481 40.132 0.923011L40.1311 0.922907L35.2063 0.219362C35.0984 0.203875 34.9886 0.209782 34.883 0.236746C34.7775 0.263711 34.6782 0.311205 34.591 0.376516C34.5038 0.441827 34.4303 0.523677 34.3747 0.617392C34.3192 0.711106 34.2826 0.81485 34.2671 0.922699V0.922907L33.8058 4.15025C33.7827 4.31273 33.7119 4.46469 33.6023 4.58692C33.4928 4.70915 33.3495 4.79615 33.1905 4.83691C33.0316 4.87768 32.8641 4.87038 32.7092 4.81594C32.5544 4.76149 32.4192 4.66236 32.3207 4.53106L30.3653 1.92264C30.2332 1.74661 30.0367 1.63023 29.8189 1.59912C29.601 1.568 29.3798 1.62468 29.2037 1.75671L26.7106 3.62757C25.5827 3.50769 24.4453 3.50769 23.3174 3.62757C15.9308 4.47185 10.1382 10.3626 9.41821 17.7623C9.39581 17.9971 9.38751 18.2303 9.3759 18.4634H9.127C8.93603 18.4637 8.75101 18.53 8.60319 18.6509C8.45537 18.7718 8.3538 18.94 8.3156 19.1271L7.74231 21.8534L5.44584 20.2696C5.2861 20.1593 5.09278 20.1086 4.89951 20.1262C4.70624 20.1438 4.52526 20.2286 4.38803 20.3658L1.89907 22.8548C1.76206 22.9919 1.67741 23.1728 1.65983 23.3658C1.64225 23.5589 1.69285 23.7521 1.80284 23.9117L3.37917 26.2041L0.652108 26.7773C0.466996 26.8179 0.301345 26.9206 0.182706 27.0684C0.0640674 27.2161 -0.000408482 27.4001 1.94742e-06 27.5896V30.9082C-8.33594e-05 31.0986 0.0653384 31.2833 0.185286 31.4312C0.305234 31.5791 0.472407 31.6812 0.658745 31.7204L3.38581 32.2937L1.80947 34.586C1.69948 34.7457 1.64889 34.9388 1.66647 35.1319C1.68405 35.325 1.7687 35.5058 1.90571 35.643L4.39467 38.132C4.53189 38.2692 4.71288 38.354 4.90615 38.3715C5.09942 38.3891 5.29274 38.3384 5.45247 38.2282L7.7448 36.6477L8.31809 39.3748C8.35628 39.5619 8.45786 39.7301 8.60568 39.851C8.7535 39.9719 8.93851 40.0382 9.12949 40.0385H12.4481C12.6385 40.0386 12.8232 39.9732 12.9711 39.8532C13.119 39.7333 13.2211 39.5661 13.2603 39.3798L13.8336 36.6527L16.1259 38.229C16.2856 38.339 16.4787 38.3896 16.6718 38.372C16.8649 38.3545 17.0457 38.2698 17.1829 38.1328L18.4714 36.8402V39.2047C18.4732 39.7846 18.6275 40.3539 18.9187 40.8554C19.2099 41.3569 19.6279 41.773 20.1307 42.062V46.6716C20.1307 48.5044 21.6165 49.9902 23.4493 49.9902H26.7679C28.6007 49.9902 30.0865 48.5044 30.0865 46.6716V42.062C30.5893 41.773 31.0072 41.3569 31.2985 40.8554C31.5897 40.3539 31.744 39.7846 31.7458 39.2047V35.9209C31.7569 35.241 31.9383 34.5747 32.2736 33.983C32.6089 33.3913 33.0872 32.8932 33.6648 32.5343C34.3533 32.0876 35.0062 31.5883 35.6178 31.0409L34.511 29.8047C33.964 30.2951 33.3795 30.7419 32.763 31.1413C31.9523 31.6501 31.2823 32.3544 30.8147 33.1895C30.347 34.0246 30.0967 34.9638 30.0865 35.9209V39.2047C30.0865 40.1212 29.3436 40.864 28.4272 40.864H21.79C20.8735 40.864 20.1307 40.1212 20.1307 39.2047V35.8521C20.1212 34.9132 19.8751 33.9919 19.4151 33.1734C18.9551 32.3549 18.2961 31.6657 17.499 31.1695C10.9233 27.0376 8.94209 18.3575 13.074 11.7818C14.3353 9.77445 16.0836 8.11857 18.1565 6.96809C20.2294 5.81762 22.5595 5.2099 24.9302 5.20142C24.9178 5.23097 24.907 5.26116 24.8979 5.29185C24.8671 5.50968 24.9241 5.73081 25.0563 5.90662L27.0118 8.51422C27.1125 8.64457 27.1712 8.80245 27.1801 8.96693C27.189 9.1314 27.1476 9.29469 27.0616 9.43513C26.9786 9.5766 26.8554 9.69013 26.7076 9.76121C26.5598 9.8323 26.3942 9.85771 26.2319 9.8342L23.0046 9.37291C22.8967 9.35744 22.7869 9.36336 22.6813 9.39034C22.5758 9.41732 22.4766 9.46482 22.3894 9.53014C22.3022 9.59546 22.2287 9.67732 22.1731 9.77104C22.1176 9.86476 22.081 9.9685 22.0655 10.0764L22.0654 10.0773L21.361 15.0046C21.3298 15.2224 21.3864 15.4437 21.5183 15.6198C21.6502 15.7959 21.8467 15.9124 22.0645 15.9436L22.0654 15.9438L25.2928 16.405C25.4552 16.4282 25.6072 16.499 25.7294 16.6085C25.8517 16.718 25.9387 16.8613 25.9794 17.0203C26.0202 17.1793 26.0129 17.3468 25.9584 17.5016C25.904 17.6564 25.8049 17.7916 25.6736 17.8901L23.066 19.8456C22.8899 19.9776 22.7736 20.1742 22.7425 20.392C22.7113 20.6098 22.768 20.8311 22.9 21.0071L25.8868 24.9894C26.0188 25.1655 26.2154 25.2818 26.4332 25.313C26.651 25.3441 26.8723 25.2874 27.0483 25.1554L29.6567 23.1999C29.788 23.1017 29.9454 23.0447 30.109 23.0359C30.2727 23.0271 30.4353 23.0669 30.5763 23.1504C30.7174 23.234 30.8305 23.3574 30.9014 23.5051C30.9724 23.6529 30.998 23.8183 30.975 23.9806L30.5146 27.2079C30.4991 27.3158 30.505 27.4256 30.532 27.5312C30.5589 27.6368 30.6064 27.736 30.6717 27.8232C30.7371 27.9104 30.8189 27.9839 30.9126 28.0395C31.0063 28.095 31.1101 28.1316 31.2179 28.1471H31.2181L36.1463 28.8515C36.1851 28.8565 36.2242 28.8589 36.2632 28.8589C36.463 28.8592 36.6562 28.7873 36.8072 28.6565C36.9583 28.5257 37.0571 28.3449 37.0854 28.1471L37.5459 24.9198C37.569 24.7573 37.6398 24.6053 37.7494 24.4831C37.8589 24.3609 38.0022 24.2739 38.1612 24.2331C38.3202 24.1923 38.4876 24.1996 38.6425 24.2541C38.7973 24.3085 38.9325 24.4077 39.031 24.5389L40.9873 27.1465C41.1193 27.3226 41.3158 27.4389 41.5337 27.4701C41.7515 27.5012 41.9728 27.4445 42.1488 27.3125L46.1311 24.3257C46.3072 24.1937 46.4235 23.9972 46.4547 23.7793C46.4858 23.5615 46.4291 23.3402 46.2971 23.1642L44.3416 20.5566C44.2413 20.4261 44.1829 20.2682 44.174 20.1039C44.1651 19.9395 44.2062 19.7763 44.2918 19.6357C44.3729 19.4925 44.4958 19.3776 44.6442 19.3065C44.7925 19.2353 44.959 19.2112 45.1214 19.2375L48.3488 19.6979C48.4566 19.7134 48.5665 19.7075 48.672 19.6805C48.7776 19.6536 48.8768 19.6061 48.964 19.5408C49.0513 19.4755 49.1247 19.3936 49.1803 19.2999C49.2359 19.2062 49.2725 19.1024 49.288 18.9946V18.9944L49.9915 14.0662C50.007 13.9584 50.0011 13.8486 49.9741 13.743C49.9471 13.6374 49.8997 13.5382 49.8343 13.451C49.769 13.3638 49.6872 13.2903 49.5935 13.2347C49.4998 13.1791 49.396 13.1426 49.2882 13.1271ZM21.79 42.5233H28.4272V44.1826H21.79V42.5233ZM21.79 45.8419H28.4272V46.6716C28.4272 47.588 27.6843 48.3309 26.7679 48.3309H23.4493C22.5328 48.3309 21.79 47.588 21.79 46.6716V45.8419ZM15.1851 31.5346C15.6381 31.9051 16.1115 32.2499 16.603 32.5675C17.3869 33.0629 17.977 33.8123 18.2747 34.6906L16.4951 36.4668L14.772 35.2788C14.0174 34.7588 12.9842 34.949 12.4641 35.7036C12.3394 35.8845 12.2519 36.0884 12.2067 36.3034L11.7719 38.375H9.79985L9.36511 36.3067C9.17636 35.41 8.29641 34.836 7.39966 35.0247C7.18465 35.07 6.98076 35.1574 6.79983 35.2821L5.07581 36.4668L3.56419 34.9585L4.75142 33.2362C5.27192 32.4819 5.08234 31.4486 4.32809 30.9281C4.14703 30.8031 3.94291 30.7154 3.72763 30.6701L1.65931 30.2345V28.2633L3.72763 27.8277C4.62407 27.6376 5.19673 26.7568 5.00664 25.8603C4.96156 25.6476 4.87513 25.4459 4.75225 25.2665L3.56419 23.5392L5.07581 22.0309L6.80066 23.219C7.55554 23.7384 8.58876 23.5476 9.10823 22.7927C9.23268 22.612 9.32 22.4083 9.36511 22.1935L9.5103 21.5032C9.64322 22.4592 9.86344 23.4009 10.1682 24.3166C7.43835 24.642 5.48919 27.119 5.81462 29.8488C6.14005 32.5787 8.61697 34.5278 11.3468 34.2024C12.1561 34.1059 12.9293 33.8122 13.5986 33.347C14.2678 32.8818 14.8126 32.2595 15.1851 31.5346ZM13.8967 30.3656C13.2771 32.0876 11.379 32.9814 9.65694 32.3619C7.93489 31.7424 7.04115 29.8443 7.66059 28.1222C7.89189 27.4793 8.31629 26.9235 8.87568 26.5311C9.43507 26.1387 10.1021 25.9289 10.7854 25.9303H10.8169C11.5799 27.5753 12.6218 29.0759 13.8967 30.3656ZM47.7581 17.9357L45.3521 17.5923C43.9912 17.3979 42.7306 18.3436 42.5362 19.7044C42.4429 20.3578 42.613 21.0216 43.0091 21.5497L44.4668 23.4936L41.812 25.4847L40.3534 23.5417C39.5288 22.4419 37.9687 22.2188 36.869 23.0435C36.3409 23.4395 35.9917 24.029 35.8982 24.6825L35.5622 27.0918L32.2776 26.6222L32.6211 24.2162C32.8159 22.8555 31.8708 21.5944 30.51 21.3996C30.1863 21.3533 29.8566 21.3712 29.5398 21.4523C29.223 21.5334 28.9252 21.6762 28.6636 21.8724L26.7198 23.3301L24.7286 20.6753L26.6716 19.2167C27.7715 18.3921 27.9945 16.832 27.1699 15.7323C26.7738 15.2042 26.1843 14.855 25.5309 14.7615L23.1249 14.418L23.5945 11.1334L26.0005 11.4769C27.3612 11.6718 28.6223 10.7266 28.817 9.36586C28.8634 9.04212 28.8455 8.71243 28.7644 8.39561C28.6833 8.07879 28.5405 7.78107 28.3442 7.51947L26.8815 5.57393L29.5364 3.58277L30.995 5.52664C31.8196 6.62645 33.3797 6.84952 34.4794 6.02485C35.0075 5.62884 35.3567 5.0393 35.4502 4.38587L35.7937 1.97988L39.0783 2.44864L38.7348 4.85463C38.5404 6.21546 39.486 7.47612 40.8469 7.67046C41.5003 7.7638 42.1641 7.59372 42.6922 7.19756L44.6361 5.73986L46.6273 8.39475L44.6834 9.85328C43.5836 10.678 43.3605 12.238 44.1852 13.3377C44.5812 13.8658 45.1707 14.215 45.8242 14.3085L48.2301 14.652L47.7581 17.9357Z" fill="url(#paint0_linear_191_1942)"/>
<path d="M35.675 7.90029C32.0094 7.90029 29.0378 10.8719 29.0378 14.5375C29.0378 18.2031 32.0094 21.1747 35.675 21.1747C39.3406 21.1747 42.3122 18.2031 42.3122 14.5375C42.3081 10.8736 39.339 7.90433 35.675 7.90029ZM35.675 19.5154C32.9258 19.5154 30.6971 17.2868 30.6971 14.5375C30.6971 11.7882 32.9258 9.55959 35.675 9.55959C38.4243 9.55959 40.6529 11.7882 40.6529 14.5375C40.6497 17.2854 38.4229 19.5122 35.675 19.5154ZM24.2789 36.7191H25.9382V39.208H24.2789V36.7191ZM21.4797 28.5711C16.3581 26.5704 13.8282 20.7966 15.829 15.6751C16.6043 13.6906 17.9957 12.0071 19.7988 10.8721L18.9119 9.46833C13.4843 12.8876 11.8562 20.0595 15.2755 25.487C16.5998 27.5891 18.5632 29.2112 20.8773 30.115C22.9258 30.8999 24.2784 32.8662 24.2789 35.0598H25.9382C25.9408 32.1817 24.1672 29.6006 21.4797 28.5711ZM40.872 30.9115H46.6795V32.5708H40.872V30.9115ZM39.5114 36.5263L40.5735 35.2514L45.5518 39.3991L44.4897 40.6738L39.5114 36.5263ZM35.894 37.5487H37.5533V43.3563H35.894V37.5487ZM0.847168 14.3424L7.48397 12.6835L7.88614 14.2923L1.24934 15.9514L0.847168 14.3424ZM2.22532 5.86775L3.18927 4.51821L8.99632 8.66606L8.03247 10.0156L2.22532 5.86775ZM9.33388 0.418801L10.9413 0.0078125L12.6383 6.64451L11.0308 7.0555L9.33388 0.418801Z" fill="url(#paint1_linear_191_1942)"/>
</g>
<defs>
<linearGradient id="paint0_linear_191_1942" x1="25" y1="49.9902" x2="25" y2="0.210938" gradientUnits="userSpaceOnUse">
<stop stop-color="#9F2FFF"/>
<stop offset="1" stop-color="#0BB1D3"/>
</linearGradient>
<linearGradient id="paint1_linear_191_1942" x1="23.7633" y1="43.3563" x2="23.7633" y2="0.0078125" gradientUnits="userSpaceOnUse">
<stop stop-color="#9F2FFF"/>
<stop offset="1" stop-color="#0BB1D3"/>
</linearGradient>
<clipPath id="clip0_191_1942">
<rect width="50" height="50" fill="white"/>
</clipPath>
</defs>
</svg>
