<svg width="51" height="50" viewBox="0 0 51 50" fill="none" xmlns="http://www.w3.org/2000/svg">
<path d="M43.7501 19.1565C44.2993 17.2916 44.406 15.3243 44.0616 13.411C43.7172 11.4977 42.9313 9.69101 41.7663 8.13465C40.6013 6.57828 39.0894 5.31511 37.3506 4.44551C35.6118 3.57591 33.6942 3.12386 31.7501 3.12528C28.9578 3.10641 26.241 4.0313 24.0401 5.74998C21.8393 7.46867 20.2836 9.88037 19.6251 12.594C17.9784 12.3209 16.2883 12.6425 14.857 13.5013C13.4256 14.36 12.3465 15.7 11.8126 17.2815C9.47495 17.613 7.34842 18.8144 5.85796 20.6456C4.3675 22.4768 3.62287 24.8029 3.77285 27.1592C3.92284 29.5155 4.95639 31.7285 6.66699 33.3559C8.3776 34.9833 10.6393 35.9053 13.0001 35.9378H14.5626C14.977 35.9378 15.3745 35.7732 15.6675 35.4801C15.9605 35.1871 16.1251 34.7897 16.1251 34.3753C16.1251 33.9609 15.9605 33.5635 15.6675 33.2704C15.3745 32.9774 14.977 32.8128 14.5626 32.8128H13.0001C11.3425 32.8128 9.75282 32.1543 8.58072 30.9822C7.40862 29.8101 6.75014 28.2204 6.75014 26.5628C6.75014 24.9052 7.40862 23.3155 8.58072 22.1434C9.75282 20.9713 11.3425 20.3128 13.0001 20.3128C13.3793 20.3165 13.7468 20.1823 14.0343 19.935C14.3218 19.6878 14.5096 19.3445 14.5626 18.969C14.6513 18.3623 14.8817 17.7849 15.2349 17.2837C15.5882 16.7825 16.0545 16.3715 16.5961 16.084C17.1377 15.7964 17.7394 15.6404 18.3525 15.6286C18.9656 15.6168 19.5728 15.7495 20.1251 16.0159C20.3512 16.1363 20.6034 16.1992 20.8595 16.1992C21.1156 16.1992 21.3678 16.1363 21.5939 16.0159C21.8169 15.8879 22.0049 15.7069 22.1412 15.4888C22.2775 15.2708 22.3578 15.0225 22.3751 14.7659C22.5688 12.4231 23.6443 10.2411 25.3844 8.66053C27.1245 7.07994 29.3996 6.21854 31.7501 6.25028C33.2909 6.24769 34.8085 6.62489 36.1688 7.3485C37.5291 8.07211 38.69 9.11982 39.549 10.399C40.4079 11.6781 40.9383 13.1492 41.0933 14.6821C41.2483 16.2151 41.0231 17.7626 40.4376 19.1878C40.2941 19.5411 40.2848 19.9348 40.4114 20.2946C40.5381 20.6543 40.7919 20.9554 41.1251 21.1409C42.3212 21.8268 43.257 22.8889 43.7867 24.1619C44.3163 25.4349 44.4101 26.8473 44.0535 28.1792C43.6969 29.5111 42.9099 30.6877 41.8151 31.5258C40.7202 32.3638 39.3789 32.8163 38.0001 32.8128C37.5857 32.8128 37.1883 32.9774 36.8953 33.2704C36.6023 33.5635 36.4376 33.9609 36.4376 34.3753C36.4376 34.7897 36.6023 35.1871 36.8953 35.4801C37.1883 35.7732 37.5857 35.9378 38.0001 35.9378C39.9548 35.9382 41.8607 35.3277 43.4512 34.1916C45.0418 33.0556 46.2375 31.4507 46.8711 29.6016C47.5047 27.7525 47.5444 25.7516 46.9849 23.8788C46.4253 22.006 45.2943 20.3549 43.7501 19.1565Z" fill="url(#paint0_linear_191_1950)"/>
<path d="M29.6719 24.1535L21.8594 25.0285C20.7129 25.1553 19.6535 25.7004 18.8838 26.5595C18.1141 27.4186 17.6882 28.5313 17.6875 29.6847V37.7785C16.7488 37.4466 15.7289 37.4222 14.7754 37.7089C13.822 37.9955 12.9845 38.5783 12.3845 39.3728C11.7845 40.1672 11.453 41.1321 11.438 42.1276C11.4231 43.1231 11.7255 44.0975 12.3015 44.9096C12.8774 45.7217 13.697 46.3293 14.6414 46.6444C15.5859 46.9595 16.6061 46.9657 17.5543 46.6622C18.5025 46.3586 19.3294 45.761 19.9152 44.956C20.501 44.1509 20.8153 43.1803 20.8125 42.1847V29.6847C20.8101 29.2984 20.951 28.925 21.2078 28.6364C21.4646 28.3479 21.8192 28.1647 22.2031 28.1222L30.0156 27.2472C30.2348 27.2226 30.4568 27.2447 30.6668 27.312C30.8769 27.3793 31.0703 27.4904 31.2344 27.6378C31.3962 27.7839 31.5257 27.9623 31.6145 28.1614C31.7033 28.3605 31.7495 28.576 31.75 28.7941V36.2003C30.8119 35.8687 29.7927 35.8441 28.8398 36.1302C27.8868 36.4162 27.0497 36.9981 26.4493 37.7915C25.849 38.5849 25.5168 39.5488 25.5006 40.5436C25.4844 41.5384 25.7852 42.5126 26.3594 43.3251C26.9337 44.1376 27.7515 44.7463 28.6947 45.0632C29.6378 45.38 30.6573 45.3886 31.6056 45.0876C32.5539 44.7866 33.3819 44.1917 33.9696 43.3889C34.5574 42.5861 34.8745 41.6171 34.875 40.6222V28.8097C34.879 28.1482 34.743 27.4934 34.4758 26.8883C34.2087 26.2831 33.8165 25.7414 33.3251 25.2986C32.8336 24.8559 32.254 24.5221 31.6244 24.3194C30.9947 24.1166 30.3293 24.0494 29.6719 24.1222V24.1535ZM16.125 43.7472C15.8159 43.7472 15.5139 43.6556 15.2569 43.4839C15 43.3122 14.7997 43.0682 14.6814 42.7826C14.5632 42.4971 14.5322 42.183 14.5925 41.8799C14.6528 41.5768 14.8016 41.2984 15.0201 41.0799C15.2386 40.8613 15.5171 40.7125 15.8202 40.6522C16.1232 40.5919 16.4374 40.6229 16.7229 40.7411C17.0084 40.8594 17.2525 41.0597 17.4242 41.3166C17.5958 41.5736 17.6875 41.8757 17.6875 42.1847C17.6875 42.5991 17.5229 42.9965 17.2298 43.2896C16.9368 43.5826 16.5394 43.7472 16.125 43.7472ZM30.1875 42.1847C29.8784 42.1847 29.5764 42.0931 29.3194 41.9214C29.0625 41.7497 28.8622 41.5057 28.7439 41.2201C28.6257 40.9346 28.5947 40.6205 28.655 40.3174C28.7153 40.0143 28.8641 39.7359 29.0826 39.5174C29.3011 39.2988 29.5796 39.15 29.8827 39.0897C30.1857 39.0294 30.4999 39.0604 30.7854 39.1786C31.0709 39.2969 31.315 39.4972 31.4867 39.7541C31.6583 40.0111 31.75 40.3132 31.75 40.6222C31.75 41.0366 31.5854 41.434 31.2923 41.7271C30.9993 42.0201 30.6019 42.1847 30.1875 42.1847Z" fill="url(#paint1_linear_191_1950)"/>
<defs>
<linearGradient id="paint0_linear_191_1950" x1="25.5656" y1="35.9378" x2="25.5656" y2="3.125" gradientUnits="userSpaceOnUse">
<stop stop-color="#9F2FFF"/>
<stop offset="1" stop-color="#0BB1D3"/>
</linearGradient>
<linearGradient id="paint1_linear_191_1950" x1="23.1563" y1="46.8854" x2="23.1563" y2="24.0938" gradientUnits="userSpaceOnUse">
<stop stop-color="#9F2FFF"/>
<stop offset="1" stop-color="#0BB1D3"/>
</linearGradient>
</defs>
</svg>
