<svg width="51" height="50" viewBox="0 0 51 50" fill="none" xmlns="http://www.w3.org/2000/svg">
<g clip-path="url(#clip0_191_1959)">
<path d="M49.9185 12.2104C49.7379 12.0739 49.5281 11.981 49.3055 11.9392C49.083 11.8974 48.8538 11.9077 48.6359 11.9693L27.9329 17.8287C27.626 17.9155 27.3559 18.1002 27.1635 18.3546C26.9711 18.609 26.867 18.9192 26.867 19.2381V39.0693C25.9773 38.5522 24.9664 38.2802 23.9373 38.281C20.7065 38.281 18.078 40.9095 18.078 44.1404C18.078 47.3712 20.7065 49.9997 23.9373 49.9997C27.1682 49.9997 29.7967 47.3712 29.7967 44.1404V26.2053L47.57 21.1751V33.21C46.6803 32.6929 45.6694 32.4209 44.6404 32.4217C41.4095 32.4217 38.781 35.0502 38.781 38.281C38.781 41.5119 41.4095 44.1404 44.6404 44.1404C47.8712 44.1404 50.4997 41.5119 50.4997 38.281V13.3788C50.4997 13.1524 50.4473 12.929 50.3464 12.7263C50.2456 12.5236 50.0991 12.347 49.9185 12.2104ZM23.9374 47.0701C22.322 47.0701 21.0077 45.7558 21.0077 44.1404C21.0077 42.525 22.322 41.2107 23.9374 41.2107C25.5528 41.2107 26.8671 42.525 26.8671 44.1404C26.8671 45.7558 25.5528 47.0701 23.9374 47.0701ZM44.6405 41.2107C43.025 41.2107 41.7108 39.8965 41.7108 38.281C41.7108 36.6656 43.025 35.3514 44.6405 35.3514C46.2559 35.3514 47.5701 36.6656 47.5701 38.281C47.5701 39.8965 46.2559 41.2107 44.6405 41.2107ZM47.5701 18.1304L29.7968 23.1606V20.346L47.5701 15.3158V18.1304ZM20.9398 10.3982C17.6898 8.01583 15.3088 5.65626 13.661 3.1845L11.9726 0.652182C11.7982 0.390623 11.5443 0.192112 11.2484 0.0859877C10.9524 -0.0201367 10.6302 -0.0282442 10.3293 0.0628636C10.0285 0.153971 9.76487 0.33946 9.57753 0.591917C9.39019 0.844373 9.28904 1.1504 9.28903 1.46478V24.4209C8.39931 23.9038 7.38842 23.6318 6.35935 23.6327C3.12851 23.6327 0.5 26.2612 0.5 29.492C0.5 32.7229 3.12851 35.3514 6.35935 35.3514C9.5902 35.3514 12.2187 32.7229 12.2187 29.492V6.19064C13.9694 8.44639 16.2703 10.608 19.2076 12.7612C20.3348 13.5874 21.0077 14.9135 21.0077 16.3086C21.0077 18.7317 19.0364 20.7031 16.6132 20.7031C15.8042 20.7031 15.1484 21.3589 15.1484 22.1679C15.1484 22.9769 15.8042 23.6328 16.6132 23.6328C20.6518 23.6327 23.9374 20.347 23.9374 16.3085C23.9374 13.9836 22.8167 11.7741 20.9398 10.3982ZM6.35935 32.4217C4.74393 32.4217 3.42968 31.1074 3.42968 29.492C3.42968 27.8766 4.74393 26.5623 6.35935 26.5623C7.97478 26.5623 9.28903 27.8766 9.28903 29.492C9.28903 31.1074 7.97478 32.4217 6.35935 32.4217Z" fill="url(#paint0_linear_191_1959)"/>
</g>
<defs>
<linearGradient id="paint0_linear_191_1959" x1="25.4999" y1="49.9997" x2="25.4999" y2="0" gradientUnits="userSpaceOnUse">
<stop stop-color="#9F2FFF"/>
<stop offset="1" stop-color="#0BB1D3"/>
</linearGradient>
<clipPath id="clip0_191_1959">
<rect width="50" height="50" fill="white" transform="translate(0.5)"/>
</clipPath>
</defs>
</svg>
