<svg width="50" height="50" viewBox="0 0 50 50" fill="none" xmlns="http://www.w3.org/2000/svg">
<path d="M45.8332 29.1641V35.4141C45.8299 38.1757 44.7313 40.8233 42.7785 42.7761C40.8258 44.7289 38.1782 45.8274 35.4165 45.8307H14.5832C11.8215 45.8274 9.17392 44.7289 7.22113 42.7761C5.26834 40.8233 4.16981 38.1757 4.1665 35.4141V14.5807C4.16981 11.8191 5.26834 9.17147 7.22113 7.21869C9.17392 5.2659 11.8215 4.16737 14.5832 4.16406H24.9998C25.5524 4.16406 26.0823 4.38356 26.473 4.77426C26.8637 5.16496 27.0832 5.69486 27.0832 6.2474C27.0832 6.79993 26.8637 7.32983 26.473 7.72054C26.0823 8.11124 25.5524 8.33073 24.9998 8.33073H14.5832C12.9256 8.33073 11.3359 8.98921 10.1638 10.1613C8.99165 11.3334 8.33317 12.9231 8.33317 14.5807V35.4141C8.33317 37.0717 8.99165 38.6614 10.1638 39.8335C11.3359 41.0056 12.9256 41.6641 14.5832 41.6641H35.4165C37.0741 41.6641 38.6638 41.0056 39.8359 39.8335C41.008 38.6614 41.6665 37.0717 41.6665 35.4141V29.1641C41.6665 28.6115 41.886 28.0816 42.2767 27.6909C42.6674 27.3002 43.1973 27.0807 43.7498 27.0807C44.3024 27.0807 44.8323 27.3002 45.223 27.6909C45.6137 28.0816 45.8332 28.6115 45.8332 29.1641ZM18.0394 16.4557C20.9582 13.4411 25.4165 12.0536 31.2498 12.3266V8.33073C31.2497 7.93816 31.3605 7.55354 31.5694 7.22119C31.7783 6.88884 32.0769 6.62228 32.4307 6.45223C32.7845 6.28217 33.1792 6.21555 33.5692 6.26003C33.9593 6.30451 34.3288 6.45829 34.6353 6.70365L45.0519 15.037C45.2807 15.2201 45.4682 15.4494 45.6023 15.7099C45.7364 15.9704 45.8141 16.2562 45.8302 16.5488C45.8463 16.8414 45.8006 17.134 45.6959 17.4077C45.5912 17.6813 45.43 17.9299 45.2228 18.137L34.8061 28.5536C34.5147 28.8449 34.1436 29.0433 33.7395 29.1236C33.3354 29.204 32.9166 29.1627 32.536 29.0051C32.1554 28.8474 31.83 28.5805 31.6011 28.2379C31.3722 27.8954 31.2499 27.4927 31.2498 27.0807V22.7224C27.9957 22.5286 21.1165 22.8391 18.5415 28.012C18.3677 28.3599 18.0999 28.6522 17.7685 28.8558C17.4372 29.0594 17.0554 29.1662 16.6665 29.1641C16.5548 29.1643 16.4433 29.1552 16.3332 29.137C15.895 29.066 15.491 28.857 15.1799 28.5403C14.8689 28.2237 14.6671 27.8159 14.604 27.3766C14.3754 25.417 14.5633 23.4312 15.1553 21.5492C15.7474 19.6673 16.7302 17.9316 18.0394 16.4557ZM19.9436 20.7974C23.0232 19.2135 26.4502 18.4257 29.9123 18.5057C31.1722 18.4977 32.4308 18.5868 33.6769 18.7724C34.1637 18.8538 34.6058 19.1054 34.9244 19.4824C35.2429 19.8594 35.4173 20.3372 35.4165 20.8307V22.0516L40.6248 16.8432L35.4165 12.6766V14.5807C35.4165 14.8737 35.3547 15.1633 35.2352 15.4308C35.1156 15.6982 34.941 15.9374 34.7228 16.1328C34.5033 16.3262 34.2462 16.4722 33.9676 16.5615C33.689 16.6507 33.395 16.6814 33.104 16.6516C27.4394 16.0266 23.379 16.9307 21.0311 19.3599C20.612 19.7912 20.2468 20.2718 19.9436 20.7911V20.7974Z" fill="url(#paint0_linear_191_1966)"/>
<defs>
<linearGradient id="paint0_linear_191_1966" x1="24.9999" y1="45.8307" x2="24.9999" y2="4.16406" gradientUnits="userSpaceOnUse">
<stop stop-color="#9F2FFF"/>
<stop offset="1" stop-color="#0BB1D3"/>
</linearGradient>
</defs>
</svg>
