<svg width="51" height="50" viewBox="0 0 51 50" fill="none" xmlns="http://www.w3.org/2000/svg">
<path d="M36.2422 0H14.7578C12.7385 0 11.0957 1.64277 11.0957 3.66211V46.3379C11.0957 48.3572 12.7385 50 14.7578 50H36.2422C38.2615 50 39.9043 48.3572 39.9043 46.3379V3.66211C39.9043 1.64277 38.2615 0 36.2422 0ZM38.4395 39.7461H17.6875C17.4932 39.7461 17.307 39.8233 17.1696 39.9606C17.0322 40.098 16.9551 40.2843 16.9551 40.4785C16.9551 40.6728 17.0322 40.8591 17.1696 40.9964C17.307 41.1338 17.4932 41.2109 17.6875 41.2109H38.4395V46.3379C38.4395 47.5495 37.4538 48.5352 36.2422 48.5352H14.7578C13.5462 48.5352 12.5605 47.5495 12.5605 46.3379V41.2109H14.7578C14.9521 41.2109 15.1384 41.1338 15.2757 40.9964C15.4131 40.8591 15.4902 40.6728 15.4902 40.4785C15.4902 40.2843 15.4131 40.098 15.2757 39.9606C15.1384 39.8233 14.9521 39.7461 14.7578 39.7461H12.5605V7.32422H38.4395V39.7461ZM38.4395 5.85938H12.5605V3.66211C12.5605 2.45049 13.5462 1.46484 14.7578 1.46484H36.2422C37.4538 1.46484 38.4395 2.45049 38.4395 3.66211V5.85938Z" fill="url(#paint0_linear_191_1973)"/>
<path d="M28.4297 2.92969H25.5C25.3057 2.92969 25.1195 3.00685 24.9821 3.14421C24.8447 3.28156 24.7676 3.46786 24.7676 3.66211C24.7676 3.85636 24.8447 4.04265 24.9821 4.18001C25.1195 4.31737 25.3057 4.39453 25.5 4.39453H28.4297C28.6239 4.39453 28.8102 4.31737 28.9476 4.18001C29.0849 4.04265 29.1621 3.85636 29.1621 3.66211C29.1621 3.46786 29.0849 3.28156 28.9476 3.14421C28.8102 3.00685 28.6239 2.92969 28.4297 2.92969ZM25.5 42.6758C24.2884 42.6758 23.3027 43.6614 23.3027 44.873C23.3027 46.0847 24.2884 47.0703 25.5 47.0703C26.7116 47.0703 27.6973 46.0847 27.6973 44.873C27.6973 43.6614 26.7116 42.6758 25.5 42.6758ZM25.5 45.6055C25.0961 45.6055 24.7676 45.277 24.7676 44.873C24.7676 44.4691 25.0961 44.1406 25.5 44.1406C25.9039 44.1406 26.2324 44.4691 26.2324 44.873C26.2324 45.277 25.9039 45.6055 25.5 45.6055Z" fill="url(#paint1_linear_191_1973)"/>
<path d="M22.5703 4.39453C22.9748 4.39453 23.3027 4.06661 23.3027 3.66211C23.3027 3.2576 22.9748 2.92969 22.5703 2.92969C22.1658 2.92969 21.8379 3.2576 21.8379 3.66211C21.8379 4.06661 22.1658 4.39453 22.5703 4.39453Z" fill="url(#paint2_linear_191_1973)"/>
<defs>
<linearGradient id="paint0_linear_191_1973" x1="25.5" y1="50" x2="25.5" y2="0" gradientUnits="userSpaceOnUse">
<stop stop-color="#9F2FFF"/>
<stop offset="1" stop-color="#0BB1D3"/>
</linearGradient>
<linearGradient id="paint1_linear_191_1973" x1="26.2324" y1="47.0703" x2="26.2324" y2="2.92969" gradientUnits="userSpaceOnUse">
<stop stop-color="#9F2FFF"/>
<stop offset="1" stop-color="#0BB1D3"/>
</linearGradient>
<linearGradient id="paint2_linear_191_1973" x1="22.5703" y1="4.39453" x2="22.5703" y2="2.92969" gradientUnits="userSpaceOnUse">
<stop stop-color="#9F2FFF"/>
<stop offset="1" stop-color="#0BB1D3"/>
</linearGradient>
</defs>
</svg>
