<svg width="30" height="24" viewBox="0 0 30 24" fill="none" xmlns="http://www.w3.org/2000/svg">
<path d="M29.6506 10.5731C29.1946 9.83789 28.3889 9.39844 27.4954 9.39844H7.59912C6.61287 9.39844 5.71592 9.95443 5.31332 10.8152L0.0507812 21.849C0.249414 22.6569 1.0041 23.2605 1.90293 23.2605H23.0711C23.5148 23.2604 23.9497 23.1368 24.3271 22.9033C24.7044 22.6699 25.0093 22.3359 25.2074 21.9389L29.7561 12.8221C30.1152 12.1007 30.0754 11.26 29.6506 10.5731Z" fill="white"/>
<path d="M4.2423 9.12047C4.64449 8.2599 5.54168 7.70367 6.52816 7.70367H25.2638V5.30736C25.2638 4.31947 24.4304 3.51568 23.4062 3.51568H12.4816C12.4656 3.51568 12.4546 3.51158 12.4505 3.50859L10.4952 0.774609C10.1488 0.289453 9.5768 0 8.96572 0H1.85801C0.833379 0 0 0.803848 0 1.79168V18.0148L4.2423 9.12047Z" fill="white"/>
</svg>
