<svg width="20" height="20" viewBox="0 0 20 20" fill="" xmlns="http://www.w3.org/2000/svg">
<path d="M10.0007 1.25C9.68503 1.25 9.36941 1.4625 9.37566 1.885V3.84063L8.22691 2.69062C8.16926 2.63093 8.10029 2.58332 8.02404 2.55056C7.94779 2.51781 7.86577 2.50056 7.78279 2.49984C7.6998 2.49912 7.6175 2.51494 7.54069 2.54636C7.46388 2.57779 7.3941 2.6242 7.33541 2.68288C7.27673 2.74156 7.23032 2.81134 7.1989 2.88815C7.16747 2.96496 7.15166 3.04726 7.15238 3.13025C7.1531 3.21324 7.17034 3.29525 7.2031 3.3715C7.23585 3.44776 7.28347 3.51672 7.34316 3.57437L9.37566 5.60687V8.91813L6.50691 7.26313C6.25879 6.3375 6.01191 5.41187 5.76316 4.48625C5.74627 4.40247 5.7124 4.32303 5.66363 4.25284C5.61486 4.18266 5.55222 4.12321 5.47959 4.07816C5.40695 4.03312 5.32586 4.00344 5.24131 3.99094C5.15676 3.97845 5.07054 3.98342 4.98798 4.00553C4.90543 4.02765 4.82828 4.06644 4.76129 4.11953C4.69431 4.17261 4.63891 4.23886 4.59852 4.31418C4.55812 4.3895 4.53359 4.4723 4.52644 4.55747C4.51928 4.64264 4.52965 4.72837 4.55691 4.80938L4.97754 6.37937L3.28379 5.40187C3.21279 5.36084 3.13441 5.33418 3.05311 5.32344C2.97181 5.31269 2.8892 5.31807 2.80998 5.33925C2.73076 5.36043 2.65648 5.39701 2.5914 5.4469C2.52632 5.49679 2.4717 5.559 2.43066 5.63C2.38962 5.701 2.36297 5.77938 2.35222 5.86068C2.34148 5.94197 2.34685 6.02459 2.36803 6.10381C2.38922 6.18303 2.4258 6.2573 2.47568 6.32238C2.52557 6.38747 2.58779 6.44209 2.65879 6.48313L4.35128 7.46063L2.78254 7.88063C2.70325 7.90188 2.62893 7.93855 2.56381 7.98853C2.4987 8.03851 2.44406 8.10083 2.40303 8.17192C2.362 8.24302 2.33537 8.3215 2.32467 8.40288C2.31397 8.48427 2.3194 8.56696 2.34066 8.64625C2.36192 8.72554 2.39858 8.79986 2.44856 8.86497C2.49855 8.93009 2.56086 8.98472 2.63196 9.02575C2.70305 9.06679 2.78153 9.09341 2.86292 9.10411C2.9443 9.11482 3.027 9.10938 3.10628 9.08813L5.88191 8.34437L8.75066 10.0006L5.88191 11.6569L3.10691 10.9131C3.02762 10.8919 2.94493 10.8864 2.86354 10.8971C2.78216 10.9078 2.70368 10.9345 2.63258 10.9755C2.56149 11.0165 2.49917 11.0712 2.44919 11.1363C2.39921 11.2014 2.36254 11.2757 2.34129 11.355C2.32003 11.4343 2.31459 11.517 2.3253 11.5984C2.336 11.6798 2.36262 11.7582 2.40366 11.8293C2.44469 11.9004 2.49932 11.9627 2.56444 12.0127C2.62955 12.0627 2.70387 12.0994 2.78316 12.1206L4.35254 12.54L2.65879 13.5181C2.58779 13.5592 2.52557 13.6138 2.47568 13.6789C2.4258 13.7439 2.38922 13.8182 2.36803 13.8974C2.34685 13.9767 2.34148 14.0593 2.35222 14.1406C2.36297 14.2219 2.38962 14.3003 2.43066 14.3713C2.4717 14.4422 2.52632 14.5045 2.5914 14.5543C2.65648 14.6042 2.73076 14.6408 2.80998 14.662C2.8892 14.6832 2.97181 14.6886 3.05311 14.6778C3.13441 14.6671 3.21279 14.6404 3.28379 14.5994L4.97754 13.6219L4.55628 15.1919C4.53104 15.2724 4.52233 15.3572 4.53069 15.4411C4.53905 15.5251 4.56431 15.6065 4.60494 15.6804C4.64557 15.7543 4.70073 15.8193 4.76712 15.8714C4.8335 15.9234 4.90973 15.9615 4.99122 15.9834C5.07271 16.0052 5.15778 16.0104 5.24131 15.9985C5.32483 15.9866 5.4051 15.958 5.47727 15.9143C5.54944 15.8706 5.61202 15.8127 5.66126 15.7442C5.7105 15.6757 5.74537 15.598 5.76379 15.5156C6.01191 14.5894 6.25879 13.6638 6.50753 12.7381L9.37504 11.0825V14.395L7.34254 16.4269C7.28284 16.4845 7.23523 16.5535 7.20247 16.6297C7.16972 16.706 7.15247 16.788 7.15175 16.871C7.15103 16.954 7.16685 17.0363 7.19827 17.1131C7.2297 17.1899 7.27611 17.2597 7.33479 17.3184C7.39347 17.3771 7.46325 17.4235 7.54006 17.4549C7.61687 17.4863 7.69917 17.5021 7.78216 17.5014C7.86515 17.5007 7.94716 17.4834 8.02341 17.4507C8.09967 17.4179 8.16863 17.3703 8.22628 17.3106L9.37504 16.1619V18.1162C9.37361 18.1996 9.38892 18.2824 9.42007 18.3597C9.45121 18.4371 9.49756 18.5074 9.55637 18.5664C9.61517 18.6255 9.68523 18.6722 9.76241 18.7038C9.83958 18.7353 9.9223 18.751 10.0057 18.75C10.3538 18.7437 10.6307 18.4613 10.6257 18.1162V16.1644L11.7732 17.3106C11.8308 17.3703 11.8998 17.4179 11.976 17.4507C12.0523 17.4834 12.1343 17.5007 12.2173 17.5014C12.3003 17.5021 12.3826 17.4863 12.4594 17.4549C12.5362 17.4235 12.606 17.3771 12.6647 17.3184C12.7233 17.2597 12.7697 17.1899 12.8012 17.1131C12.8326 17.0363 12.8484 16.954 12.8477 16.871C12.847 16.788 12.8297 16.706 12.797 16.6297C12.7642 16.5535 12.7166 16.4845 12.6569 16.4269L10.625 14.3956V11.0837L13.4925 12.7394L14.2369 15.515C14.2551 15.5976 14.2898 15.6756 14.3389 15.7443C14.3881 15.8131 14.4506 15.8712 14.5228 15.9151C14.5951 15.959 14.6754 15.9879 14.7591 15.9999C14.8428 16.0119 14.928 16.0068 15.0097 15.985C15.0913 15.9631 15.1677 15.9249 15.2342 15.8727C15.3007 15.8206 15.3559 15.7554 15.3965 15.6813C15.4372 15.6072 15.4623 15.5256 15.4706 15.4415C15.4788 15.3574 15.4699 15.2725 15.4444 15.1919L15.0244 13.6231L16.7163 14.5994C17.4419 15.0325 18.0788 13.9294 17.3413 13.5169L15.6494 12.54L17.2169 12.1206C17.377 12.0777 17.5135 11.9729 17.5964 11.8293C17.6793 11.6857 17.7017 11.5151 17.6588 11.355C17.6159 11.1949 17.5111 11.0584 17.3675 10.9755C17.2239 10.8926 17.0533 10.8702 16.8932 10.9131L14.1182 11.6569L11.25 10L14.1188 8.34375L16.8938 9.0875C16.9731 9.10876 17.0558 9.11419 17.1372 9.10349C17.2185 9.09279 17.297 9.06616 17.3681 9.02513C17.4392 8.9841 17.5015 8.92946 17.5515 8.86435C17.6015 8.79923 17.6382 8.72491 17.6594 8.64563C17.6807 8.56634 17.6861 8.48364 17.6754 8.40226C17.6647 8.32087 17.6381 8.24239 17.597 8.1713C17.556 8.1002 17.5014 8.03789 17.4363 7.9879C17.3711 7.93792 17.2968 7.90126 17.2175 7.88L15.65 7.46L17.3419 6.48375C18.0794 6.07125 17.4425 4.96813 16.7169 5.40125L15.0232 6.37875L15.445 4.80875C15.4703 4.72825 15.479 4.64347 15.4706 4.55952C15.4623 4.47557 15.437 4.39417 15.3964 4.32023C15.3558 4.24629 15.3006 4.18133 15.2342 4.12926C15.1678 4.07719 15.0916 4.03909 15.0101 4.01724C14.9286 3.99539 14.8435 3.99025 14.76 4.00213C14.6765 4.014 14.5962 4.04265 14.5241 4.08635C14.4519 4.13004 14.3893 4.18789 14.3401 4.25639C14.2908 4.3249 14.2559 4.40267 14.2375 4.485L13.4932 7.2625L10.625 8.91813V5.60563L12.6563 3.57437C12.716 3.51672 12.7636 3.44776 12.7963 3.3715C12.8291 3.29525 12.8463 3.21324 12.8471 3.13025C12.8478 3.04726 12.832 2.96496 12.8005 2.88815C12.7691 2.81134 12.7227 2.74156 12.664 2.68288C12.6053 2.6242 12.5356 2.57779 12.4588 2.54636C12.3819 2.51494 12.2996 2.49912 12.2167 2.49984C12.1337 2.50056 12.0517 2.51781 11.9754 2.55056C11.8992 2.58332 11.8302 2.63093 11.7725 2.69062L10.625 3.8375V1.885C10.6313 1.46188 10.3169 1.25 10.0007 1.25Z" fill=""/>
</svg>
