<svg width="120" height="136" viewBox="0 0 120 136" fill="none" xmlns="http://www.w3.org/2000/svg">
<path d="M0 0H120V134C120 135.105 119.105 136 118 136H2C0.895429 136 0 135.105 0 134V0Z" fill="#1F1F1F"/>
<circle cx="29" cy="93" r="15" fill="#141414"/>
<circle cx="29" cy="93" r="14" stroke="white" stroke-opacity="0.3" stroke-width="2"/>
<line x1="30" y1="78" x2="30" y2="88" stroke="white" stroke-opacity="0.3" stroke-width="2"/>
<circle cx="90" cy="52" r="20" fill="#141414"/>
<circle cx="90" cy="52" r="19" stroke="white" stroke-opacity="0.3" stroke-width="2"/>
<line x1="91" y1="32" x2="91" y2="42" stroke="white" stroke-opacity="0.3" stroke-width="2"/>
<path d="M81.8807 86V78.7273H84.4233C84.9299 78.7273 85.3478 78.8149 85.6768 78.9901C86.0059 79.1629 86.2509 79.3961 86.4119 79.6896C86.5729 79.9808 86.6534 80.304 86.6534 80.6591C86.6534 80.9716 86.5978 81.2296 86.4865 81.4332C86.3776 81.6368 86.2332 81.7978 86.0533 81.9162C85.8757 82.0346 85.6828 82.1222 85.4744 82.179V82.25C85.697 82.2642 85.9207 82.3423 86.1456 82.4844C86.3705 82.6264 86.5587 82.83 86.7102 83.0952C86.8617 83.3603 86.9375 83.6847 86.9375 84.0682C86.9375 84.4328 86.8546 84.7607 86.6889 85.0518C86.5232 85.343 86.2616 85.5739 85.9041 85.7443C85.5466 85.9148 85.0814 86 84.5085 86H81.8807ZM82.7614 85.2188H84.5085C85.0838 85.2188 85.4922 85.1075 85.7337 84.8849C85.9775 84.66 86.0994 84.3878 86.0994 84.0682C86.0994 83.822 86.0367 83.5947 85.9112 83.3864C85.7857 83.1757 85.607 83.0076 85.375 82.8821C85.143 82.7543 84.8684 82.6903 84.5511 82.6903H82.7614V85.2188ZM82.7614 81.9233H84.3949C84.66 81.9233 84.8991 81.8712 85.1122 81.767C85.3277 81.6629 85.4981 81.5161 85.6236 81.3267C85.7514 81.1373 85.8153 80.9148 85.8153 80.6591C85.8153 80.3395 85.7041 80.0684 85.4815 79.8459C85.259 79.621 84.9063 79.5085 84.4233 79.5085H82.7614V81.9233ZM88.271 86V80.5455H89.109V86H88.271ZM88.6971 79.6364C88.5337 79.6364 88.3929 79.5807 88.2745 79.4695C88.1585 79.3582 88.1005 79.2244 88.1005 79.0682C88.1005 78.9119 88.1585 78.7782 88.2745 78.6669C88.3929 78.5556 88.5337 78.5 88.6971 78.5C88.8604 78.5 89.0001 78.5556 89.1161 78.6669C89.2345 78.7782 89.2937 78.9119 89.2937 79.0682C89.2937 79.2244 89.2345 79.3582 89.1161 79.4695C89.0001 79.5807 88.8604 79.6364 88.6971 79.6364ZM93.0162 80.5455V81.2557H90.1895V80.5455H93.0162ZM91.0133 79.2386H91.8514V84.4375C91.8514 84.6742 91.8857 84.8518 91.9544 84.9702C92.0254 85.0862 92.1154 85.1643 92.2243 85.2045C92.3355 85.2424 92.4527 85.2614 92.5758 85.2614C92.6681 85.2614 92.7439 85.2566 92.8031 85.2472C92.8623 85.2353 92.9096 85.2259 92.9451 85.2188L93.1156 85.9716C93.0588 85.9929 92.9795 86.0142 92.8777 86.0355C92.7759 86.0592 92.6468 86.071 92.4906 86.071C92.2538 86.071 92.0218 86.0201 91.7946 85.9183C91.5697 85.8165 91.3826 85.6615 91.2335 85.4531C91.0867 85.2448 91.0133 84.982 91.0133 84.6648V79.2386ZM96.5051 86.1136C95.9796 86.1136 95.5262 85.9976 95.1451 85.7656C94.7663 85.5312 94.4739 85.2045 94.2679 84.7855C94.0643 84.3641 93.9625 83.8741 93.9625 83.3153C93.9625 82.7566 94.0643 82.2642 94.2679 81.8381C94.4739 81.4096 94.7604 81.0758 95.1273 80.8366C95.4966 80.5952 95.9275 80.4744 96.4199 80.4744C96.704 80.4744 96.9846 80.5218 97.2615 80.6165C97.5385 80.7112 97.7907 80.8651 98.0179 81.0781C98.2452 81.2888 98.4263 81.5682 98.5613 81.9162C98.6962 82.2642 98.7637 82.6927 98.7637 83.2017V83.5568H94.5591V82.8324H97.9114C97.9114 82.5246 97.8498 82.25 97.7267 82.0085C97.606 81.767 97.4332 81.5765 97.2083 81.4368C96.9857 81.2971 96.723 81.2273 96.4199 81.2273C96.0861 81.2273 95.7973 81.3101 95.5534 81.4759C95.312 81.6392 95.1261 81.8523 94.9959 82.1151C94.8657 82.3778 94.8006 82.6596 94.8006 82.9602V83.4432C94.8006 83.8551 94.8716 84.2043 95.0137 84.4908C95.1581 84.7749 95.3581 84.9915 95.6138 85.1406C95.8695 85.2874 96.1666 85.3608 96.5051 85.3608C96.7253 85.3608 96.9242 85.33 97.1017 85.2685C97.2817 85.2045 97.4367 85.1098 97.5669 84.9844C97.6971 84.8565 97.7978 84.6979 97.8688 84.5085L98.6784 84.7358C98.5932 85.0104 98.45 85.2519 98.2488 85.4602C98.0475 85.6662 97.7989 85.8272 97.503 85.9432C97.2071 86.0568 96.8745 86.1136 96.5051 86.1136Z" fill="white"/>
<path d="M10.8807 122V114.727H11.7614V121.219H15.142V122H10.8807ZM18.608 122.114C18.1155 122.114 17.6835 121.996 17.3118 121.762C16.9425 121.528 16.6536 121.2 16.4453 120.778C16.2393 120.357 16.1364 119.865 16.1364 119.301C16.1364 118.733 16.2393 118.237 16.4453 117.813C16.6536 117.389 16.9425 117.06 17.3118 116.826C17.6835 116.592 18.1155 116.474 18.608 116.474C19.1004 116.474 19.5313 116.592 19.9006 116.826C20.2723 117.06 20.5611 117.389 20.767 117.813C20.9754 118.237 21.0795 118.733 21.0795 119.301C21.0795 119.865 20.9754 120.357 20.767 120.778C20.5611 121.2 20.2723 121.528 19.9006 121.762C19.5313 121.996 19.1004 122.114 18.608 122.114ZM18.608 121.361C18.982 121.361 19.2898 121.265 19.5312 121.073C19.7727 120.881 19.9515 120.629 20.0675 120.317C20.1835 120.004 20.2415 119.666 20.2415 119.301C20.2415 118.937 20.1835 118.597 20.0675 118.282C19.9515 117.967 19.7727 117.713 19.5312 117.518C19.2898 117.324 18.982 117.227 18.608 117.227C18.2339 117.227 17.9261 117.324 17.6847 117.518C17.4432 117.713 17.2644 117.967 17.1484 118.282C17.0324 118.597 16.9744 118.937 16.9744 119.301C16.9744 119.666 17.0324 120.004 17.1484 120.317C17.2644 120.629 17.4432 120.881 17.6847 121.073C17.9261 121.265 18.2339 121.361 18.608 121.361ZM23.4091 122L21.7472 116.545H22.6278L23.8068 120.722H23.8636L25.0284 116.545H25.9233L27.0739 120.707H27.1307L28.3097 116.545H29.1903L27.5284 122H26.7045L25.5114 117.81H25.4261L24.233 122H23.4091ZM35.3267 122.114C34.8153 122.114 34.375 121.993 34.0057 121.751C33.6364 121.51 33.3523 121.177 33.1534 120.754C32.9545 120.33 32.8551 119.846 32.8551 119.301C32.8551 118.747 32.9569 118.258 33.1605 117.835C33.3665 117.408 33.6529 117.076 34.0199 116.837C34.3892 116.595 34.8201 116.474 35.3125 116.474C35.696 116.474 36.0417 116.545 36.3494 116.688C36.6572 116.83 36.9093 117.028 37.1058 117.284C37.3023 117.54 37.4242 117.838 37.4716 118.179H36.6335C36.5696 117.93 36.4276 117.71 36.2074 117.518C35.9896 117.324 35.696 117.227 35.3267 117.227C35 117.227 34.7135 117.312 34.4673 117.483C34.2235 117.651 34.0329 117.889 33.8956 118.197C33.7607 118.502 33.6932 118.861 33.6932 119.273C33.6932 119.694 33.7595 120.061 33.892 120.374C34.027 120.686 34.2164 120.929 34.4602 121.102C34.7064 121.274 34.9953 121.361 35.3267 121.361C35.5445 121.361 35.7422 121.323 35.9197 121.247C36.0973 121.171 36.2476 121.062 36.3707 120.92C36.4938 120.778 36.5814 120.608 36.6335 120.409H37.4716C37.4242 120.731 37.3071 121.021 37.12 121.279C36.9354 121.535 36.6903 121.738 36.3849 121.89C36.0819 122.039 35.7292 122.114 35.3267 122.114ZM42.1342 119.77V116.545H42.9723V122H42.1342V121.077H42.0774C41.9496 121.354 41.7507 121.589 41.4808 121.783C41.2109 121.975 40.87 122.071 40.4581 122.071C40.1172 122.071 39.8142 121.996 39.549 121.847C39.2839 121.696 39.0755 121.469 38.924 121.165C38.7725 120.86 38.6967 120.475 38.6967 120.011V116.545H39.5348V119.955C39.5348 120.352 39.6461 120.67 39.8686 120.906C40.0935 121.143 40.38 121.261 40.728 121.261C40.9363 121.261 41.1482 121.208 41.3636 121.102C41.5814 120.995 41.7637 120.832 41.9105 120.612C42.0597 120.391 42.1342 120.111 42.1342 119.77ZM46.8794 116.545V117.256H44.0527V116.545H46.8794ZM44.8766 115.239H45.7147V120.438C45.7147 120.674 45.749 120.852 45.8176 120.97C45.8887 121.086 45.9786 121.164 46.0875 121.205C46.1988 121.242 46.316 121.261 46.4391 121.261C46.5314 121.261 46.6072 121.257 46.6664 121.247C46.7256 121.235 46.7729 121.226 46.8084 121.219L46.9789 121.972C46.9221 121.993 46.8427 122.014 46.7409 122.036C46.6391 122.059 46.5101 122.071 46.3539 122.071C46.1171 122.071 45.8851 122.02 45.6578 121.918C45.4329 121.817 45.2459 121.661 45.0968 121.453C44.95 121.245 44.8766 120.982 44.8766 120.665V115.239Z" fill="white"/>
<path d="M22.8523 61C22.7741 60.7609 22.6712 60.5466 22.5433 60.3572C22.4179 60.1655 22.2675 60.0021 22.0923 59.8672C21.9195 59.7322 21.723 59.6293 21.5028 59.5582C21.2827 59.4872 21.0412 59.4517 20.7784 59.4517C20.3475 59.4517 19.9557 59.563 19.603 59.7855C19.2502 60.008 18.9697 60.3359 18.7614 60.7692C18.553 61.2024 18.4489 61.7339 18.4489 62.3636C18.4489 62.9934 18.5542 63.5249 18.7649 63.9581C18.9756 64.3913 19.2609 64.7192 19.6207 64.9418C19.9806 65.1643 20.3854 65.2756 20.8352 65.2756C21.2519 65.2756 21.6188 65.1868 21.9361 65.0092C22.2557 64.8293 22.5043 64.576 22.6818 64.2493C22.8617 63.9202 22.9517 63.5331 22.9517 63.0881L23.2216 63.1449H21.0341V62.3636H23.804V63.1449C23.804 63.7438 23.6761 64.2647 23.4205 64.7074C23.1671 65.1501 22.8168 65.4934 22.3693 65.7372C21.9242 65.9787 21.4129 66.0994 20.8352 66.0994C20.1913 66.0994 19.6255 65.9479 19.1378 65.6449C18.6525 65.3419 18.2737 64.911 18.0014 64.3523C17.7315 63.7936 17.5966 63.1307 17.5966 62.3636C17.5966 61.7884 17.6735 61.2711 17.8274 60.8118C17.9837 60.3501 18.2038 59.9571 18.4879 59.6328C18.772 59.3085 19.1082 59.0599 19.4964 58.8871C19.8847 58.7143 20.312 58.6278 20.7784 58.6278C21.1619 58.6278 21.5194 58.6858 21.8509 58.8018C22.1847 58.9155 22.4818 59.0777 22.7422 59.2884C23.005 59.4967 23.224 59.7464 23.3991 60.0376C23.5743 60.3265 23.6951 60.6473 23.7614 61H22.8523ZM25.1987 66V60.5455H26.0083V61.3693H26.0652C26.1646 61.0994 26.3445 60.8804 26.6049 60.7124C26.8654 60.5443 27.1589 60.4602 27.4856 60.4602C27.5472 60.4602 27.6241 60.4614 27.7164 60.4638C27.8088 60.4661 27.8786 60.4697 27.926 60.4744V61.3267C27.8975 61.3196 27.8324 61.3089 27.7306 61.2947C27.6312 61.2782 27.5259 61.2699 27.4146 61.2699C27.1494 61.2699 26.9127 61.3255 26.7044 61.4368C26.4984 61.5457 26.335 61.6972 26.2143 61.8913C26.0959 62.0831 26.0368 62.3021 26.0368 62.5483V66H25.1987ZM30.5245 66.1278C30.1789 66.1278 29.8652 66.0627 29.5835 65.9325C29.3017 65.8 29.078 65.6094 28.9123 65.3608C28.7466 65.1098 28.6637 64.8068 28.6637 64.4517C28.6637 64.1392 28.7253 63.8859 28.8484 63.6918C28.9715 63.4953 29.136 63.3414 29.342 63.2301C29.5479 63.1188 29.7752 63.036 30.0238 62.9815C30.2747 62.9247 30.5269 62.8797 30.7802 62.8466C31.1116 62.804 31.3803 62.772 31.5863 62.7507C31.7946 62.727 31.9461 62.688 32.0408 62.6335C32.1379 62.5791 32.1864 62.4844 32.1864 62.3494V62.321C32.1864 61.9706 32.0906 61.6984 31.8988 61.5043C31.7094 61.3101 31.4218 61.2131 31.0359 61.2131C30.6358 61.2131 30.3221 61.3007 30.0948 61.4759C29.8675 61.651 29.7077 61.8381 29.6154 62.0369L28.82 61.7528C28.962 61.4214 29.1514 61.1634 29.3881 60.9787C29.6272 60.7917 29.8877 60.6615 30.1694 60.5881C30.4535 60.5123 30.7328 60.4744 31.0075 60.4744C31.1826 60.4744 31.3839 60.4957 31.6112 60.5384C31.8408 60.5786 32.0621 60.6626 32.2752 60.7905C32.4906 60.9183 32.6694 61.1113 32.8114 61.3693C32.9535 61.6274 33.0245 61.973 33.0245 62.4062V66H32.1864V65.2614H32.1438C32.087 65.3797 31.9923 65.5064 31.8597 65.6413C31.7272 65.7763 31.5508 65.8911 31.3306 65.9858C31.1104 66.0805 30.8417 66.1278 30.5245 66.1278ZM30.6523 65.375C30.9838 65.375 31.2631 65.3099 31.4904 65.1797C31.7201 65.0495 31.8929 64.8814 32.0089 64.6754C32.1272 64.4695 32.1864 64.2528 32.1864 64.0256V63.2585C32.1509 63.3011 32.0728 63.3402 31.9521 63.3757C31.8337 63.4089 31.6964 63.4384 31.5401 63.4645C31.3862 63.4882 31.2359 63.5095 31.0891 63.5284C30.9447 63.545 30.8275 63.5592 30.7376 63.571C30.5198 63.5994 30.3162 63.6456 30.1268 63.7095C29.9397 63.7711 29.7882 63.8646 29.6722 63.9901C29.5586 64.1132 29.5018 64.2812 29.5018 64.4943C29.5018 64.7855 29.6095 65.0057 29.8249 65.1548C30.0427 65.3016 30.3185 65.375 30.6523 65.375ZM34.5542 66V60.5455H35.3922V66H34.5542ZM34.9803 59.6364C34.8169 59.6364 34.6761 59.5807 34.5577 59.4695C34.4417 59.3582 34.3837 59.2244 34.3837 59.0682C34.3837 58.9119 34.4417 58.7782 34.5577 58.6669C34.6761 58.5556 34.8169 58.5 34.9803 58.5C35.1436 58.5 35.2833 58.5556 35.3993 58.6669C35.5177 58.7782 35.5769 58.9119 35.5769 59.0682C35.5769 59.2244 35.5177 59.3582 35.3993 59.4695C35.2833 59.5807 35.1436 59.6364 34.9803 59.6364ZM37.7653 62.7188V66H36.9272V60.5455H37.7369V61.3977H37.8079C37.9357 61.1207 38.1299 60.8982 38.3903 60.7301C38.6507 60.5597 38.9869 60.4744 39.3988 60.4744C39.7681 60.4744 40.0913 60.5502 40.3683 60.7017C40.6452 60.8509 40.8607 61.0781 41.0146 61.3835C41.1684 61.6866 41.2454 62.0701 41.2454 62.5341V66H40.4073V62.5909C40.4073 62.1624 40.296 61.8286 40.0735 61.5895C39.851 61.348 39.5456 61.2273 39.1573 61.2273C38.8898 61.2273 38.6507 61.2853 38.44 61.4013C38.2317 61.5173 38.0671 61.6866 37.9464 61.9091C37.8256 62.1316 37.7653 62.4015 37.7653 62.7188Z" fill="white"/>
<circle cx="30" cy="32" r="20" fill="#141414"/>
<circle cx="30" cy="32" r="19" stroke="white" stroke-opacity="0.3" stroke-width="2"/>
<line x1="31" y1="12" x2="31" y2="22" stroke="white" stroke-opacity="0.3" stroke-width="2"/>
</svg>
