<svg width="24" height="24" viewBox="0 0 24 24" fill="none" xmlns="http://www.w3.org/2000/svg">
<path d="M21.0592 15.7994C20.8668 15.5872 20.6199 15.4752 20.3455 15.4752C20.1209 15.4752 19.5702 15.5529 19.3025 16.2719C19.235 16.4527 19.2156 16.549 19.1246 16.5392C18.9704 16.5239 18.3705 15.883 18.1743 14.9418L17.6875 12.6667C18.0722 12.0436 18.4675 11.5627 18.862 11.2365C19.0738 11.0635 19.3158 10.972 19.6088 10.9561C20.357 10.9051 20.6293 10.8109 20.813 10.6817C21.1164 10.463 21.2832 10.1466 21.2832 9.79087C21.2832 9.47785 21.1647 9.19876 20.9399 8.98381C20.723 8.77611 20.4337 8.66647 20.1044 8.66647C19.6204 8.66647 19.0769 8.89045 18.4424 9.35096C18.0678 9.62318 17.6707 10.019 17.2419 10.5495C17.1025 10.0292 16.9832 9.78675 16.8946 9.64181C16.6208 9.19013 16.176 9.19013 16.0297 9.19013L15.8702 9.19268L11.3505 9.29938L11.6048 8.21949C11.7672 7.51481 11.9804 6.95722 12.2375 6.56221C12.3627 6.37001 12.5541 6.14093 12.7549 6.14093C12.8308 6.14093 12.9809 6.15329 13.2613 6.21154C14.0415 6.38021 14.3332 6.39962 14.485 6.39962C14.82 6.39962 15.1145 6.28764 15.3375 6.07582C15.5682 5.85635 15.69 5.56922 15.69 5.24561C15.69 4.9926 15.6068 4.62663 15.2105 4.31949C14.9367 4.10748 14.5611 4 14.0943 4C13.3945 4 12.6529 4.22378 11.8896 4.66487C11.1322 5.10263 10.5093 5.70769 10.0386 6.46356C9.62571 7.12628 9.26797 8.0569 8.94907 9.29938H6.95719L6.51826 11.0314H8.51602L6.99799 17.1341C6.68359 18.3977 6.45334 18.7086 6.39038 18.7739C6.21877 18.9512 5.86476 18.9885 5.59803 18.9885C5.26794 18.9885 4.91609 18.9648 4.54894 18.9177C4.29672 18.8869 4.10471 18.8718 3.96232 18.8718C3.59399 18.8718 3.29098 18.9675 3.06209 19.1558C2.80693 19.3654 2.6665 19.6685 2.6665 20.0091C2.6665 20.2753 2.7528 20.6581 3.16447 20.9692C3.44572 21.181 3.82915 21.2885 4.30456 21.2885C5.49486 21.2885 6.60416 20.8156 7.60206 19.8832C8.57231 18.9763 9.28307 17.6448 9.71495 15.9224L10.9151 11.032L15.0082 11.1014L15.4484 12.9921L14.5515 14.3155C14.3899 14.5527 14.1492 14.8453 13.834 15.1865C13.6693 15.367 13.5598 15.4662 13.4965 15.5178C13.2384 15.2024 12.9456 15.0424 12.6272 15.0424C12.3282 15.0424 12.0565 15.165 11.8423 15.3962C11.641 15.6106 11.5299 15.8941 11.5319 16.1882C11.5319 16.5471 11.6854 16.8666 11.9759 17.1117C12.2421 17.3365 12.571 17.4506 12.9528 17.4506C13.4263 17.4506 13.9107 17.27 14.3932 16.9138C14.7958 16.6159 15.3144 16.0262 15.9767 15.1116C16.4023 16.3355 17.006 17.1223 17.2935 17.4508C17.7472 17.9694 18.4799 18.2785 19.2534 18.2785C19.9101 18.2785 20.2819 18.0035 20.6098 17.7605L20.6389 17.7391C21.2127 17.3147 21.3332 16.8477 21.3332 16.5298C21.3328 16.2484 21.238 15.9962 21.0592 15.7994Z" fill="white"/>
</svg>
