<svg width="20" height="20" viewBox="0 0 20 20" fill="none" xmlns="http://www.w3.org/2000/svg">
<path d="M9.96679 18.3037H2.49168C2.0332 18.3037 1.66113 17.9316 1.66113 17.4732V2.52297C1.66113 2.06449 2.03324 1.69242 2.49168 1.69242H9.96679C10.4261 1.69242 10.7973 1.32117 10.7973 0.861875C10.7973 0.402578 10.4261 0.03125 9.96679 0.03125H2.49168C1.11793 0.03125 0 1.14922 0 2.52297V17.4731C0 18.8469 1.11793 19.9648 2.49168 19.9648H9.96679C10.4261 19.9648 10.7973 19.5936 10.7973 19.1343C10.7973 18.675 10.4261 18.3037 9.96679 18.3037Z" fill="white"/>
<path d="M19.7525 9.41001L14.7027 4.42661C14.3771 4.10435 13.8505 4.10853 13.5282 4.43493C13.206 4.76134 13.2093 5.28708 13.5366 5.60935L17.1454 9.17079H7.47508C7.01578 9.17079 6.64453 9.54204 6.64453 10.0013C6.64453 10.4606 7.01578 10.8319 7.47508 10.8319H17.1454L13.5366 14.3934C13.2093 14.7156 13.2068 15.2414 13.5282 15.5678C13.6055 15.6462 13.6976 15.7084 13.7991 15.7509C13.9006 15.7934 14.0096 15.8153 14.1196 15.8153C14.3306 15.8153 14.5415 15.7356 14.7027 15.5761L19.7525 10.5927C19.8308 10.5154 19.893 10.4233 19.9355 10.3218C19.978 10.2203 19.9999 10.1113 20 10.0013C20 9.7788 19.9111 9.567 19.7525 9.41001Z" fill="currentColor"/>
</svg>
