<svg width="20" height="20" viewBox="0 0 20 20" fill="none" xmlns="http://www.w3.org/2000/svg">
<path d="M10 1.99609C5.58867 1.99609 2 5.58476 2 9.99609V14.3361C2 15.2228 2.34667 16.0628 2.96667 16.6894L3.88667 17.6161L5.22 18.0028H5.24C6.34 18.0028 7.24 17.1028 7.24 16.0028V12.0694C7.24 10.9694 6.34 10.0694 5.24 10.0694H5.22L3.88667 10.4628L3.33333 11.0188V9.99609C3.33333 6.32009 6.324 3.32943 10 3.32943C13.676 3.32943 16.6667 6.32009 16.6667 9.99609V11.0181L16.1133 10.4628L14.78 10.0694H14.76C13.66 10.0694 12.76 10.9694 12.76 12.0694V16.0028C12.76 17.1028 13.66 18.0028 14.76 18.0028H14.78L16.1133 17.6161L17.0333 16.6894C17.6533 16.0628 18 15.2228 18 14.3361V9.99609C18 5.58476 14.4113 1.99609 10 1.99609Z" fill="white" fill-opacity="0.3"/>
</svg>
