<svg width="18" height="18" viewBox="0 0 18 18" fill="none" xmlns="http://www.w3.org/2000/svg">
<path d="M10.666 1.5026C10.666 1.72362 10.7538 1.93558 10.9101 2.09186C11.0664 2.24814 11.2783 2.33594 11.4993 2.33594H14.8327C15.0537 2.33594 15.2657 2.42373 15.4219 2.58001C15.5782 2.73629 15.666 2.94826 15.666 3.16927L15.666 14.8359C15.666 15.057 15.5782 15.2689 15.4219 15.4252C15.2657 15.5815 15.0537 15.6693 14.8327 15.6693H11.4993C11.2783 15.6693 11.0664 15.7571 10.9101 15.9133C10.7538 16.0696 10.666 16.2816 10.666 16.5026C10.666 16.7236 10.7538 16.9356 10.9101 17.0919C11.0664 17.2481 11.2783 17.3359 11.4993 17.3359L14.8327 17.3359C15.4957 17.3359 16.1316 17.0725 16.6005 16.6037C17.0693 16.1349 17.3327 15.499 17.3327 14.8359L17.3327 3.16927C17.3327 2.50623 17.0693 1.87034 16.6005 1.4015C16.1316 0.932661 15.4957 0.66927 14.8327 0.66927L11.4993 0.66927C11.2783 0.66927 11.0664 0.757067 10.9101 0.913347C10.7538 1.06963 10.666 1.28159 10.666 1.5026ZM12.091 9.59427C12.1669 9.51502 12.2264 9.42156 12.266 9.31927C12.3101 9.21952 12.3329 9.11166 12.3329 9.0026C12.3329 8.89355 12.3101 8.78569 12.266 8.68594C12.2264 8.58364 12.1669 8.49019 12.091 8.41094L8.75768 5.0776C8.60076 4.92068 8.38793 4.83253 8.16602 4.83253C7.9441 4.83253 7.73127 4.92068 7.57435 5.0776C7.41743 5.23452 7.32927 5.44735 7.32927 5.66927C7.32927 5.89119 7.41743 6.10402 7.57435 6.26094L9.49102 8.16927L1.49935 8.16927C1.27834 8.16927 1.06637 8.25707 0.910093 8.41335C0.753813 8.56963 0.666016 8.78159 0.666016 9.0026C0.666016 9.22362 0.753813 9.43558 0.910093 9.59186C1.06637 9.74814 1.27834 9.83594 1.49935 9.83594H9.49102L7.57435 11.7443C7.49665 11.822 7.43502 11.9142 7.39297 12.0157C7.35092 12.1172 7.32927 12.2261 7.32927 12.3359C7.32927 12.4458 7.35092 12.5546 7.39297 12.6561C7.43502 12.7577 7.49665 12.8499 7.57435 12.9276C7.65205 13.0053 7.74429 13.0669 7.84581 13.109C7.94733 13.151 8.05613 13.1727 8.16602 13.1727C8.2759 13.1727 8.38471 13.151 8.48622 13.109C8.58774 13.0669 8.67998 13.0053 8.75768 12.9276L12.091 9.59427Z" fill="white"/>
</svg>
