<svg width="120" height="136" viewBox="0 0 120 136" fill="none" xmlns="http://www.w3.org/2000/svg">
<path d="M0 0H120V134C120 135.105 119.105 136 118 136H2C0.895429 136 0 135.105 0 134V0Z" fill="#1F1F1F"/>
<rect x="10" y="7" width="100" height="26" rx="2" fill="white" fill-opacity="0.06"/>
<path d="M95.9887 22.6826C95.8134 22.6813 95.6403 22.6443 95.4799 22.5738C95.3195 22.5033 95.1751 22.4009 95.0556 22.2727L91.5032 18.4817C91.4168 18.3852 91.3605 18.2654 91.3413 18.1371C91.3221 18.0089 91.3409 17.8779 91.3953 17.7602C91.4498 17.6426 91.5375 17.5434 91.6476 17.475C91.7577 17.4067 91.8855 17.372 92.0151 17.3754C92.1884 17.3787 92.355 17.45 92.4763 17.5733L95.9887 21.325L99.501 17.5733C99.5593 17.5041 99.6309 17.4475 99.7117 17.4069C99.7925 17.3663 99.8807 17.3426 99.971 17.3371C100.061 17.3317 100.152 17.3447 100.237 17.3753C100.322 17.4059 100.4 17.4535 100.466 17.5152C100.532 17.5769 100.585 17.6514 100.621 17.7342C100.658 17.817 100.677 17.9063 100.677 17.9967C100.678 18.0871 100.661 18.1768 100.626 18.2601C100.591 18.3435 100.539 18.4189 100.474 18.4817L96.9244 22.272C96.8047 22.4007 96.6599 22.5035 96.499 22.5741C96.3381 22.6447 96.1644 22.6816 95.9887 22.6826Z" fill="white" fill-opacity="0.6"/>
<path d="M19.8125 18.7102C19.7822 18.4413 19.6572 18.233 19.4375 18.0852C19.2178 17.9356 18.9413 17.8608 18.608 17.8608C18.3693 17.8608 18.1629 17.8987 17.9886 17.9744C17.8144 18.0483 17.679 18.1506 17.5824 18.2812C17.4877 18.41 17.4403 18.5568 17.4403 18.7216C17.4403 18.8598 17.4725 18.9792 17.5369 19.0795C17.6032 19.1799 17.6894 19.2642 17.7955 19.3324C17.9034 19.3987 18.0189 19.4545 18.142 19.5C18.2652 19.5436 18.3835 19.5795 18.4972 19.608L19.0653 19.7557C19.2509 19.8011 19.4413 19.8627 19.6364 19.9403C19.8314 20.018 20.0123 20.1203 20.179 20.2472C20.3456 20.3741 20.4801 20.5312 20.5824 20.7188C20.6866 20.9062 20.7386 21.1307 20.7386 21.392C20.7386 21.7216 20.6534 22.0142 20.483 22.2699C20.3144 22.5256 20.0691 22.7273 19.7472 22.875C19.4271 23.0227 19.0398 23.0966 18.5852 23.0966C18.1496 23.0966 17.7727 23.0275 17.4545 22.8892C17.1364 22.7509 16.8873 22.5549 16.7074 22.3011C16.5275 22.0455 16.428 21.7424 16.4091 21.392H17.2898C17.3068 21.6023 17.375 21.7775 17.4943 21.9176C17.6155 22.0559 17.7699 22.1591 17.9574 22.2273C18.1468 22.2936 18.3542 22.3267 18.5795 22.3267C18.8277 22.3267 19.0483 22.2879 19.2415 22.2102C19.4366 22.1307 19.59 22.0208 19.7017 21.8807C19.8134 21.7386 19.8693 21.5729 19.8693 21.3835C19.8693 21.2112 19.8201 21.0701 19.7216 20.9602C19.625 20.8504 19.4934 20.7595 19.3267 20.6875C19.1619 20.6155 18.9754 20.5521 18.767 20.4972L18.0795 20.3097C17.6136 20.1828 17.2443 19.9962 16.9716 19.75C16.7008 19.5038 16.5653 19.178 16.5653 18.7727C16.5653 18.4375 16.6563 18.1449 16.8381 17.8949C17.0199 17.6449 17.2661 17.4508 17.5767 17.3125C17.8873 17.1723 18.2377 17.1023 18.6278 17.1023C19.0218 17.1023 19.3693 17.1714 19.6705 17.3097C19.9735 17.4479 20.2121 17.6383 20.3864 17.8807C20.5606 18.1212 20.6515 18.3977 20.6591 18.7102H19.8125ZM22.5689 20.4091V23H21.7195V17.1818H22.5575V19.3466H22.6115C22.7138 19.1117 22.87 18.9252 23.0803 18.7869C23.2905 18.6487 23.5651 18.5795 23.9041 18.5795C24.2034 18.5795 24.4647 18.6411 24.6882 18.7642C24.9136 18.8873 25.0878 19.071 25.2109 19.3153C25.3359 19.5578 25.3984 19.8608 25.3984 20.2244V23H24.549V20.3267C24.549 20.0066 24.4666 19.7585 24.3018 19.5824C24.1371 19.4044 23.9079 19.3153 23.6143 19.3153C23.4136 19.3153 23.2337 19.358 23.0746 19.4432C22.9174 19.5284 22.7933 19.6534 22.7024 19.8182C22.6134 19.9811 22.5689 20.178 22.5689 20.4091ZM28.37 23.0881C27.9609 23.0881 27.6039 22.9943 27.299 22.8068C26.9941 22.6193 26.7573 22.357 26.5888 22.0199C26.4202 21.6828 26.3359 21.2888 26.3359 20.8381C26.3359 20.3854 26.4202 19.9896 26.5888 19.6506C26.7573 19.3116 26.9941 19.0483 27.299 18.8608C27.6039 18.6733 27.9609 18.5795 28.37 18.5795C28.7791 18.5795 29.1361 18.6733 29.4411 18.8608C29.746 19.0483 29.9827 19.3116 30.1513 19.6506C30.3198 19.9896 30.4041 20.3854 30.4041 20.8381C30.4041 21.2888 30.3198 21.6828 30.1513 22.0199C29.9827 22.357 29.746 22.6193 29.4411 22.8068C29.1361 22.9943 28.7791 23.0881 28.37 23.0881ZM28.3729 22.375C28.638 22.375 28.8577 22.3049 29.032 22.1648C29.2062 22.0246 29.335 21.8381 29.4183 21.6051C29.5036 21.3722 29.5462 21.1155 29.5462 20.8352C29.5462 20.5568 29.5036 20.3011 29.4183 20.0682C29.335 19.8333 29.2062 19.6449 29.032 19.5028C28.8577 19.3608 28.638 19.2898 28.3729 19.2898C28.1058 19.2898 27.8842 19.3608 27.7081 19.5028C27.5339 19.6449 27.4041 19.8333 27.3189 20.0682C27.2356 20.3011 27.1939 20.5568 27.1939 20.8352C27.1939 21.1155 27.2356 21.3722 27.3189 21.6051C27.4041 21.8381 27.5339 22.0246 27.7081 22.1648C27.8842 22.3049 28.1058 22.375 28.3729 22.375ZM31.3523 23V18.6364H32.1733V19.3295H32.2188C32.2983 19.0947 32.4384 18.91 32.6392 18.7756C32.8419 18.6392 33.071 18.571 33.3267 18.571C33.3797 18.571 33.4422 18.5729 33.5142 18.5767C33.5881 18.5805 33.6458 18.5852 33.6875 18.5909V19.4034C33.6534 19.3939 33.5928 19.3835 33.5057 19.3722C33.4186 19.3589 33.3314 19.3523 33.2443 19.3523C33.0436 19.3523 32.8646 19.3949 32.7074 19.4801C32.5521 19.5634 32.429 19.6799 32.3381 19.8295C32.2472 19.9773 32.2017 20.1458 32.2017 20.3352V23H31.3523ZM36.7173 18.6364V19.3182H34.3338V18.6364H36.7173ZM34.973 17.5909H35.8224V21.7188C35.8224 21.8835 35.8471 22.0076 35.8963 22.0909C35.9455 22.1723 36.009 22.2282 36.0866 22.2585C36.1662 22.2869 36.2524 22.3011 36.3452 22.3011C36.4134 22.3011 36.473 22.2964 36.5241 22.2869C36.5753 22.2775 36.6151 22.2699 36.6435 22.2642L36.7969 22.9659C36.7476 22.9848 36.6776 23.0038 36.5866 23.0227C36.4957 23.0436 36.3821 23.0549 36.2457 23.0568C36.0223 23.0606 35.8139 23.0208 35.6207 22.9375C35.4276 22.8542 35.2713 22.7254 35.152 22.5511C35.0327 22.3769 34.973 22.1581 34.973 21.8949V17.5909ZM41.4077 23.0852C41.0554 23.0852 40.741 22.9953 40.4645 22.8153C40.1899 22.6335 39.974 22.375 39.8168 22.0398C39.6615 21.7027 39.5838 21.2983 39.5838 20.8267C39.5838 20.3551 39.6624 19.9517 39.8196 19.6165C39.9787 19.2812 40.1965 19.0246 40.473 18.8466C40.7495 18.6686 41.063 18.5795 41.4134 18.5795C41.6842 18.5795 41.902 18.625 42.0668 18.7159C42.2334 18.8049 42.3622 18.9091 42.4531 19.0284C42.5459 19.1477 42.6179 19.2528 42.669 19.3438H42.7202V17.1818H43.5696V23H42.7401V22.321H42.669C42.6179 22.4138 42.544 22.5199 42.4474 22.6392C42.3527 22.7585 42.2221 22.8627 42.0554 22.9517C41.8887 23.0407 41.6728 23.0852 41.4077 23.0852ZM41.5952 22.3608C41.8395 22.3608 42.0459 22.2964 42.2145 22.1676C42.3849 22.0369 42.5137 21.8561 42.6009 21.625C42.6899 21.3939 42.7344 21.125 42.7344 20.8182C42.7344 20.5152 42.6908 20.25 42.6037 20.0227C42.5166 19.7955 42.3887 19.6184 42.2202 19.4915C42.0516 19.3646 41.8433 19.3011 41.5952 19.3011C41.3395 19.3011 41.1264 19.3674 40.956 19.5C40.7855 19.6326 40.6567 19.8134 40.5696 20.0426C40.4844 20.2718 40.4418 20.5303 40.4418 20.8182C40.4418 21.1098 40.4853 21.3722 40.5724 21.6051C40.6596 21.8381 40.7884 22.0227 40.9588 22.1591C41.1312 22.2936 41.3433 22.3608 41.5952 22.3608ZM47.5462 21.1903V18.6364H48.3984V23H47.5632V22.2443H47.5178C47.4174 22.4773 47.2564 22.6714 47.0348 22.8267C46.8151 22.9801 46.5414 23.0568 46.2138 23.0568C45.9335 23.0568 45.6854 22.9953 45.4695 22.8722C45.2554 22.7472 45.0869 22.5625 44.9638 22.3182C44.8426 22.0739 44.782 21.7718 44.782 21.4119V18.6364H45.6314V21.3097C45.6314 21.607 45.7138 21.8437 45.8786 22.0199C46.0433 22.196 46.2573 22.2841 46.5206 22.2841C46.6797 22.2841 46.8378 22.2443 46.995 22.1648C47.1541 22.0852 47.2857 21.965 47.3899 21.804C47.496 21.643 47.5481 21.4384 47.5462 21.1903ZM51.3778 23.0881C50.9555 23.0881 50.5919 22.9924 50.2869 22.8011C49.9839 22.608 49.7509 22.3419 49.5881 22.0028C49.4252 21.6638 49.3438 21.2756 49.3438 20.8381C49.3438 20.3949 49.4271 20.0038 49.5938 19.6648C49.7604 19.3239 49.9953 19.0578 50.2983 18.8665C50.6013 18.6752 50.9583 18.5795 51.3693 18.5795C51.7008 18.5795 51.9962 18.6411 52.2557 18.7642C52.5152 18.8854 52.7244 19.0559 52.8835 19.2756C53.0445 19.4953 53.1402 19.7519 53.1705 20.0455H52.3438C52.2983 19.8409 52.1941 19.6648 52.0312 19.517C51.8703 19.3693 51.6544 19.2955 51.3835 19.2955C51.1468 19.2955 50.9394 19.358 50.7614 19.483C50.5852 19.6061 50.4479 19.7822 50.3494 20.0114C50.2509 20.2386 50.2017 20.5076 50.2017 20.8182C50.2017 21.1364 50.25 21.411 50.3466 21.642C50.4432 21.8731 50.5795 22.0521 50.7557 22.179C50.9337 22.3059 51.143 22.3693 51.3835 22.3693C51.5445 22.3693 51.6903 22.34 51.821 22.2812C51.9536 22.2206 52.0644 22.1345 52.1534 22.0227C52.2443 21.911 52.3078 21.7765 52.3438 21.6193H53.1705C53.1402 21.9015 53.0483 22.1534 52.8949 22.375C52.7415 22.5966 52.536 22.7708 52.2784 22.8977C52.0227 23.0246 51.7225 23.0881 51.3778 23.0881ZM54.8601 21.5199L54.8544 20.483H55.0021L56.7408 18.6364H57.7578L55.7749 20.7386H55.6413L54.8601 21.5199ZM54.0788 23V17.1818H54.9283V23H54.0788ZM56.8345 23L55.272 20.9261L55.8572 20.3324L57.8771 23H56.8345Z" fill="white"/>
<path d="M10.3523 104.938V104.182H14.8551V104.938H13.0398V110H12.1648V104.938H10.3523ZM15.782 110V105.636H16.6314V110H15.782ZM16.2109 104.963C16.0632 104.963 15.9363 104.914 15.8303 104.815C15.7261 104.715 15.674 104.596 15.674 104.457C15.674 104.317 15.7261 104.198 15.8303 104.099C15.9363 103.999 16.0632 103.949 16.2109 103.949C16.3587 103.949 16.4846 103.999 16.5888 104.099C16.6948 104.198 16.7479 104.317 16.7479 104.457C16.7479 104.596 16.6948 104.715 16.5888 104.815C16.4846 104.914 16.3587 104.963 16.2109 104.963ZM17.7741 110V105.636H18.5895V106.347H18.6435C18.7344 106.106 18.883 105.919 19.0895 105.784C19.2959 105.648 19.5431 105.58 19.831 105.58C20.1226 105.58 20.367 105.648 20.5639 105.784C20.7628 105.92 20.9096 106.108 21.0043 106.347H21.0497C21.1539 106.114 21.3196 105.928 21.5469 105.79C21.7741 105.65 22.045 105.58 22.3594 105.58C22.7552 105.58 23.0781 105.704 23.3281 105.952C23.58 106.2 23.706 106.574 23.706 107.074V110H22.8565V107.153C22.8565 106.858 22.776 106.644 22.6151 106.511C22.4541 106.379 22.2618 106.312 22.0384 106.312C21.7618 106.312 21.5469 106.398 21.3935 106.568C21.2401 106.737 21.1634 106.954 21.1634 107.219V110H20.3168V107.099C20.3168 106.863 20.2429 106.672 20.0952 106.528C19.9474 106.384 19.7552 106.312 19.5185 106.312C19.3575 106.312 19.2088 106.355 19.0724 106.44C18.938 106.524 18.8291 106.64 18.7457 106.79C18.6643 106.939 18.6236 107.113 18.6236 107.31V110H17.7741ZM26.7251 110.088C26.2952 110.088 25.925 109.996 25.6143 109.812C25.3056 109.627 25.067 109.366 24.8984 109.031C24.7318 108.694 24.6484 108.299 24.6484 107.847C24.6484 107.4 24.7318 107.006 24.8984 106.665C25.067 106.324 25.3018 106.058 25.603 105.866C25.906 105.675 26.2602 105.58 26.6655 105.58C26.9117 105.58 27.1503 105.62 27.3814 105.702C27.6125 105.783 27.8198 105.911 28.0036 106.085C28.1873 106.259 28.3321 106.486 28.4382 106.764C28.5443 107.041 28.5973 107.377 28.5973 107.773V108.074H25.1286V107.438H27.7649C27.7649 107.214 27.7195 107.016 27.6286 106.844C27.5376 106.67 27.4098 106.532 27.245 106.432C27.0821 106.331 26.8909 106.281 26.6712 106.281C26.4325 106.281 26.2242 106.34 26.0462 106.457C25.87 106.573 25.7337 106.724 25.6371 106.912C25.5424 107.098 25.495 107.299 25.495 107.517V108.014C25.495 108.306 25.5462 108.554 25.6484 108.759C25.7526 108.963 25.8975 109.119 26.0831 109.227C26.2687 109.333 26.4856 109.386 26.7337 109.386C26.8946 109.386 27.0414 109.364 27.174 109.318C27.3066 109.271 27.4212 109.201 27.5178 109.108C27.6143 109.015 27.6882 108.901 27.7393 108.764L28.5433 108.909C28.4789 109.146 28.3634 109.353 28.1967 109.531C28.032 109.707 27.8246 109.845 27.5746 109.943C27.3265 110.04 27.0433 110.088 26.7251 110.088Z" fill="white"/>
<path d="M13.4588 116.727V124H12.358V117.828H12.3153L10.5753 118.964V117.913L12.3899 116.727H13.4588ZM18.2102 116.386L15.8665 125.094H14.9183L17.2621 116.386H18.2102ZM18.9453 122.58V121.692L22.0881 116.727H22.7876V118.034H22.3438L20.0959 121.592V121.649H24.4034V122.58H18.9453ZM22.3935 124V122.31L22.4006 121.905V116.727H23.4411V124H22.3935Z" fill="white"/>
<path d="M33.9889 122.342C33.8355 122.341 33.6841 122.309 33.5437 122.247C33.4033 122.186 33.277 122.096 33.1724 121.984L30.0641 118.667C29.9884 118.582 29.9392 118.477 29.9224 118.365C29.9056 118.253 29.9221 118.138 29.9697 118.035C30.0173 117.932 30.0941 117.846 30.1904 117.786C30.2868 117.726 30.3986 117.696 30.512 117.699C30.6636 117.701 30.8094 117.764 30.9155 117.872L33.9889 121.154L37.0622 117.872C37.1131 117.811 37.1759 117.762 37.2465 117.726C37.3172 117.691 37.3944 117.67 37.4734 117.665C37.5524 117.66 37.6315 117.672 37.7059 117.699C37.7804 117.725 37.8486 117.767 37.9064 117.821C37.9642 117.875 38.0105 117.94 38.0423 118.013C38.0741 118.085 38.0909 118.163 38.0916 118.242C38.0923 118.321 38.0768 118.4 38.0462 118.473C38.0156 118.546 37.9705 118.612 37.9136 118.667L34.8076 121.983C34.7029 122.096 34.5762 122.186 34.4354 122.247C34.2946 122.309 34.1426 122.342 33.9889 122.342Z" fill="white" fill-opacity="0.6"/>
<rect x="10" y="93" width="100" height="2" rx="1" fill="white" fill-opacity="0.1"/>
<path d="M10 94C10 93.4477 10.4477 93 11 93H109C109.552 93 110 93.4477 110 94C110 94.5523 109.552 95 109 95H11C10.4477 95 10 94.5523 10 94Z" fill="white"/>
<circle cx="107" cy="94" r="3" fill="white"/>
<path d="M11.179 87H10.2557L12.9261 79.7273H13.8352L16.5057 87H15.5824L13.4091 80.8778H13.3523L11.179 87ZM11.5199 84.1591H15.2415V84.9403H11.5199V84.1591ZM17.5249 87V81.5455H18.3345V82.3977H18.4055C18.5192 82.1065 18.7027 81.8804 18.956 81.7195C19.2093 81.5561 19.5135 81.4744 19.8686 81.4744C20.2285 81.4744 20.5279 81.5561 20.767 81.7195C21.0085 81.8804 21.1967 82.1065 21.3317 82.3977H21.3885C21.5282 82.116 21.7377 81.8923 22.017 81.7266C22.2964 81.5585 22.6314 81.4744 23.022 81.4744C23.5097 81.4744 23.9086 81.6271 24.2188 81.9325C24.5289 82.2356 24.6839 82.7079 24.6839 83.3494V87H23.8459V83.3494C23.8459 82.947 23.7358 82.6593 23.5156 82.4865C23.2955 82.3137 23.0362 82.2273 22.7379 82.2273C22.3544 82.2273 22.0573 82.3433 21.8466 82.5753C21.6359 82.8049 21.5305 83.0961 21.5305 83.4489V87H20.6783V83.2642C20.6783 82.9541 20.5777 82.7043 20.3764 82.5149C20.1752 82.3232 19.916 82.2273 19.5987 82.2273C19.3809 82.2273 19.1773 82.2853 18.9879 82.4013C18.8009 82.5173 18.6494 82.6783 18.5334 82.8842C18.4197 83.0878 18.3629 83.3234 18.3629 83.5909V87H17.5249ZM28.4322 87.1136C27.9397 87.1136 27.5077 86.9964 27.136 86.7621C26.7667 86.5277 26.4779 86.1998 26.2695 85.7784C26.0636 85.357 25.9606 84.8646 25.9606 84.3011C25.9606 83.733 26.0636 83.237 26.2695 82.8132C26.4779 82.3894 26.7667 82.0604 27.136 81.826C27.5077 81.5916 27.9397 81.4744 28.4322 81.4744C28.9246 81.4744 29.3555 81.5916 29.7248 81.826C30.0965 82.0604 30.3853 82.3894 30.5913 82.8132C30.7996 83.237 30.9038 83.733 30.9038 84.3011C30.9038 84.8646 30.7996 85.357 30.5913 85.7784C30.3853 86.1998 30.0965 86.5277 29.7248 86.7621C29.3555 86.9964 28.9246 87.1136 28.4322 87.1136ZM28.4322 86.3608C28.8062 86.3608 29.114 86.2649 29.3555 86.0732C29.5969 85.8814 29.7757 85.6293 29.8917 85.3168C30.0077 85.0043 30.0657 84.6657 30.0657 84.3011C30.0657 83.9366 30.0077 83.5968 29.8917 83.282C29.7757 82.9671 29.5969 82.7126 29.3555 82.5185C29.114 82.3243 28.8062 82.2273 28.4322 82.2273C28.0581 82.2273 27.7504 82.3243 27.5089 82.5185C27.2674 82.7126 27.0887 82.9671 26.9727 83.282C26.8567 83.5968 26.7987 83.9366 26.7987 84.3011C26.7987 84.6657 26.8567 85.0043 26.9727 85.3168C27.0887 85.6293 27.2674 85.8814 27.5089 86.0732C27.7504 86.2649 28.0581 86.3608 28.4322 86.3608ZM35.6206 84.7699V81.5455H36.4586V87H35.6206V86.0767H35.5637C35.4359 86.3537 35.237 86.5893 34.9672 86.7834C34.6973 86.9751 34.3564 87.071 33.9444 87.071C33.6035 87.071 33.3005 86.9964 33.0353 86.8473C32.7702 86.6958 32.5618 86.4685 32.4103 86.1655C32.2588 85.8601 32.1831 85.4754 32.1831 85.0114V81.5455H33.0211V84.9545C33.0211 85.3523 33.1324 85.6695 33.3549 85.9062C33.5798 86.143 33.8663 86.2614 34.2143 86.2614C34.4226 86.2614 34.6345 86.2081 34.85 86.1016C35.0678 85.995 35.2501 85.8317 35.3968 85.6115C35.546 85.3913 35.6206 85.1108 35.6206 84.7699ZM38.8317 83.7188V87H37.9936V81.5455H38.8033V82.3977H38.8743C39.0021 82.1207 39.1963 81.8982 39.4567 81.7301C39.7171 81.5597 40.0533 81.4744 40.4652 81.4744C40.8345 81.4744 41.1577 81.5502 41.4347 81.7017C41.7116 81.8509 41.9271 82.0781 42.081 82.3835C42.2348 82.6866 42.3118 83.0701 42.3118 83.5341V87H41.4737V83.5909C41.4737 83.1624 41.3625 82.8286 41.1399 82.5895C40.9174 82.348 40.612 82.2273 40.2237 82.2273C39.9562 82.2273 39.7171 82.2853 39.5064 82.4013C39.2981 82.5173 39.1335 82.6866 39.0128 82.9091C38.892 83.1316 38.8317 83.4015 38.8317 83.7188ZM46.2154 81.5455V82.2557H43.3887V81.5455H46.2154ZM44.2125 80.2386H45.0506V85.4375C45.0506 85.6742 45.0849 85.8518 45.1536 85.9702C45.2246 86.0862 45.3146 86.1643 45.4235 86.2045C45.5347 86.2424 45.6519 86.2614 45.775 86.2614C45.8674 86.2614 45.9431 86.2566 46.0023 86.2472C46.0615 86.2353 46.1088 86.2259 46.1444 86.2188L46.3148 86.9716C46.258 86.9929 46.1787 87.0142 46.0769 87.0355C45.9751 87.0592 45.8461 87.071 45.6898 87.071C45.4531 87.071 45.2211 87.0201 44.9938 86.9183C44.7689 86.8165 44.5819 86.6615 44.4327 86.4531C44.2859 86.2448 44.2125 85.982 44.2125 85.6648V80.2386Z" fill="white"/>
<path d="M13 68.6386L19.4477 71L25.556 67.9639L42.5235 48.3976L45.2383 45.6988L48.2924 43L107 43.6747" stroke="white"/>
<path d="M48 43L107 43.4966V68.9966L24.5 69.5L48 43Z" fill="url(#paint0_linear_33_3114)"/>
<defs>
<linearGradient id="paint0_linear_33_3114" x1="65.25" y1="43" x2="65.25" y2="70" gradientUnits="userSpaceOnUse">
<stop stop-color="white" stop-opacity="0.2"/>
<stop offset="1" stop-color="white" stop-opacity="0"/>
</linearGradient>
</defs>
</svg>
