<svg width="120" height="136" viewBox="0 0 120 136" fill="none" xmlns="http://www.w3.org/2000/svg">
<path d="M0 0H120V134C120 135.105 119.105 136 118 136H2C0.895429 136 0 135.105 0 134V0Z" fill="#1F1F1F"/>
<circle cx="93" cy="27" r="15" fill="#141414"/>
<circle cx="93" cy="27" r="14" stroke="white" stroke-opacity="0.3" stroke-width="2"/>
<line x1="94" y1="12" x2="94" y2="22" stroke="white" stroke-opacity="0.3" stroke-width="2"/>
<path d="M76.179 48.7273L78.3381 54.8494H78.4233L80.5824 48.7273H81.5057L78.8352 56H77.9261L75.2557 48.7273H76.179ZM84.233 56.1136C83.7405 56.1136 83.3085 55.9964 82.9368 55.7621C82.5675 55.5277 82.2786 55.1998 82.0703 54.7784C81.8643 54.357 81.7614 53.8646 81.7614 53.3011C81.7614 52.733 81.8643 52.237 82.0703 51.8132C82.2786 51.3894 82.5675 51.0604 82.9368 50.826C83.3085 50.5916 83.7405 50.4744 84.233 50.4744C84.7254 50.4744 85.1563 50.5916 85.5256 50.826C85.8973 51.0604 86.1861 51.3894 86.392 51.8132C86.6004 52.237 86.7045 52.733 86.7045 53.3011C86.7045 53.8646 86.6004 54.357 86.392 54.7784C86.1861 55.1998 85.8973 55.5277 85.5256 55.7621C85.1563 55.9964 84.7254 56.1136 84.233 56.1136ZM84.233 55.3608C84.607 55.3608 84.9148 55.2649 85.1562 55.0732C85.3977 54.8814 85.5765 54.6293 85.6925 54.3168C85.8085 54.0043 85.8665 53.6657 85.8665 53.3011C85.8665 52.9366 85.8085 52.5968 85.6925 52.282C85.5765 51.9671 85.3977 51.7126 85.1562 51.5185C84.9148 51.3243 84.607 51.2273 84.233 51.2273C83.8589 51.2273 83.5511 51.3243 83.3097 51.5185C83.0682 51.7126 82.8894 51.9671 82.7734 52.282C82.6574 52.5968 82.5994 52.9366 82.5994 53.3011C82.5994 53.6657 82.6574 54.0043 82.7734 54.3168C82.8894 54.6293 83.0682 54.8814 83.3097 55.0732C83.5511 55.2649 83.8589 55.3608 84.233 55.3608ZM88.8219 48.7273V56H87.9838V48.7273H88.8219ZM93.7944 53.7699V50.5455H94.6325V56H93.7944V55.0767H93.7376C93.6097 55.3537 93.4109 55.5893 93.141 55.7834C92.8711 55.9751 92.5302 56.071 92.1183 56.071C91.7773 56.071 91.4743 55.9964 91.2092 55.8473C90.944 55.6958 90.7357 55.4685 90.5842 55.1655C90.4326 54.8601 90.3569 54.4754 90.3569 54.0114V50.5455H91.195V53.9545C91.195 54.3523 91.3062 54.6695 91.5288 54.9062C91.7537 55.143 92.0401 55.2614 92.3881 55.2614C92.5965 55.2614 92.8084 55.2081 93.0238 55.1016C93.2416 54.995 93.4239 54.8317 93.5707 54.6115C93.7198 54.3913 93.7944 54.1108 93.7944 53.7699ZM96.1674 56V50.5455H96.9771V51.3977H97.0481C97.1618 51.1065 97.3452 50.8804 97.5985 50.7195C97.8519 50.5561 98.1561 50.4744 98.5112 50.4744C98.871 50.4744 99.1705 50.5561 99.4096 50.7195C99.6511 50.8804 99.8393 51.1065 99.9743 51.3977H100.031C100.171 51.116 100.38 50.8923 100.66 50.7266C100.939 50.5585 101.274 50.4744 101.665 50.4744C102.152 50.4744 102.551 50.6271 102.861 50.9325C103.171 51.2356 103.327 51.7079 103.327 52.3494V56H102.488V52.3494C102.488 51.947 102.378 51.6593 102.158 51.4865C101.938 51.3137 101.679 51.2273 101.381 51.2273C100.997 51.2273 100.7 51.3433 100.489 51.5753C100.278 51.8049 100.173 52.0961 100.173 52.4489V56H99.3208V52.2642C99.3208 51.9541 99.2202 51.7043 99.019 51.5149C98.8178 51.3232 98.5585 51.2273 98.2413 51.2273C98.0235 51.2273 97.8199 51.2853 97.6305 51.4013C97.4435 51.5173 97.292 51.6783 97.176 51.8842C97.0623 52.0878 97.0055 52.3234 97.0055 52.5909V56H96.1674ZM107.146 56.1136C106.62 56.1136 106.167 55.9976 105.786 55.7656C105.407 55.5312 105.115 55.2045 104.909 54.7855C104.705 54.3641 104.603 53.8741 104.603 53.3153C104.603 52.7566 104.705 52.2642 104.909 51.8381C105.115 51.4096 105.401 51.0758 105.768 50.8366C106.137 50.5952 106.568 50.4744 107.061 50.4744C107.345 50.4744 107.625 50.5218 107.902 50.6165C108.179 50.7112 108.431 50.8651 108.659 51.0781C108.886 51.2888 109.067 51.5682 109.202 51.9162C109.337 52.2642 109.404 52.6927 109.404 53.2017V53.5568H105.2V52.8324H108.552C108.552 52.5246 108.49 52.25 108.367 52.0085C108.247 51.767 108.074 51.5765 107.849 51.4368C107.626 51.2971 107.364 51.2273 107.061 51.2273C106.727 51.2273 106.438 51.3101 106.194 51.4759C105.953 51.6392 105.767 51.8523 105.637 52.1151C105.506 52.3778 105.441 52.6596 105.441 52.9602V53.4432C105.441 53.8551 105.512 54.2043 105.654 54.4908C105.799 54.7749 105.999 54.9915 106.254 55.1406C106.51 55.2874 106.807 55.3608 107.146 55.3608C107.366 55.3608 107.565 55.33 107.742 55.2685C107.922 55.2045 108.077 55.1098 108.208 54.9844C108.338 54.8565 108.438 54.6979 108.509 54.5085L109.319 54.7358C109.234 55.0104 109.091 55.2519 108.889 55.4602C108.688 55.6662 108.44 55.8272 108.144 55.9432C107.848 56.0568 107.515 56.1136 107.146 56.1136Z" fill="white"/>
<circle cx="25" cy="27" r="15" fill="#141414"/>
<circle cx="25" cy="27" r="14" stroke="white" stroke-opacity="0.3" stroke-width="2"/>
<line x1="26" y1="12" x2="26" y2="22" stroke="white" stroke-opacity="0.3" stroke-width="2"/>
<path d="M19.125 56H16.8807V48.7273H19.2244C19.9299 48.7273 20.5336 48.8729 21.0355 49.1641C21.5374 49.4529 21.9221 49.8684 22.1896 50.4105C22.4571 50.9503 22.5909 51.5966 22.5909 52.3494C22.5909 53.107 22.456 53.7592 22.1861 54.3061C21.9162 54.8506 21.5232 55.2696 21.0071 55.5632C20.491 55.8544 19.8636 56 19.125 56ZM17.7614 55.2188H19.0682C19.6695 55.2188 20.1679 55.1027 20.5632 54.8707C20.9586 54.6387 21.2533 54.3085 21.4474 53.88C21.6416 53.4515 21.7386 52.9413 21.7386 52.3494C21.7386 51.7623 21.6428 51.2569 21.451 50.8331C21.2592 50.407 20.9728 50.0803 20.5916 49.853C20.2105 49.6233 19.7358 49.5085 19.1676 49.5085H17.7614V55.2188ZM23.9545 56V50.5455H24.7926V56H23.9545ZM24.3807 49.6364C24.2173 49.6364 24.0765 49.5807 23.9581 49.4695C23.8421 49.3582 23.7841 49.2244 23.7841 49.0682C23.7841 48.9119 23.8421 48.7782 23.9581 48.6669C24.0765 48.5556 24.2173 48.5 24.3807 48.5C24.544 48.5 24.6837 48.5556 24.7997 48.6669C24.9181 48.7782 24.9773 48.9119 24.9773 49.0682C24.9773 49.2244 24.9181 49.3582 24.7997 49.4695C24.6837 49.5807 24.544 49.6364 24.3807 49.6364ZM30.1912 51.767L29.4384 51.9801C29.391 51.8546 29.3212 51.7327 29.2289 51.6143C29.1389 51.4936 29.0158 51.3942 28.8596 51.3161C28.7033 51.2379 28.5033 51.1989 28.2594 51.1989C27.9256 51.1989 27.6474 51.2758 27.4249 51.4297C27.2047 51.5812 27.0946 51.7741 27.0946 52.0085C27.0946 52.2169 27.1704 52.3814 27.3219 52.5021C27.4734 52.6229 27.7102 52.7235 28.0321 52.804L28.8418 53.0028C29.3295 53.1212 29.6929 53.3023 29.932 53.5462C30.1711 53.7876 30.2907 54.099 30.2907 54.4801C30.2907 54.7926 30.2007 55.072 30.0208 55.3182C29.8432 55.5644 29.5946 55.7585 29.275 55.9006C28.9554 56.0426 28.5837 56.1136 28.16 56.1136C27.6036 56.1136 27.1432 55.9929 26.7786 55.7514C26.414 55.5099 26.1832 55.1572 26.0861 54.6932L26.8816 54.4943C26.9573 54.7879 27.1006 55.008 27.3113 55.1548C27.5243 55.3016 27.8025 55.375 28.1458 55.375C28.5364 55.375 28.8465 55.2921 29.0762 55.1264C29.3082 54.9583 29.4242 54.7571 29.4242 54.5227C29.4242 54.3333 29.3579 54.1747 29.2253 54.0469C29.0927 53.9167 28.8891 53.8196 28.6145 53.7557L27.7054 53.5426C27.2059 53.4242 26.839 53.2408 26.6046 52.9922C26.3726 52.7412 26.2566 52.4276 26.2566 52.0511C26.2566 51.7434 26.343 51.4711 26.5158 51.2344C26.691 50.9976 26.9289 50.8118 27.2296 50.6768C27.5326 50.5419 27.8759 50.4744 28.2594 50.4744C28.7992 50.4744 29.223 50.5928 29.5307 50.8295C29.8408 51.0663 30.061 51.3788 30.1912 51.767ZM33.9244 50.5455V51.2557H31.0977V50.5455H33.9244ZM31.9215 49.2386H32.7596V54.4375C32.7596 54.6742 32.7939 54.8518 32.8626 54.9702C32.9336 55.0862 33.0236 55.1643 33.1325 55.2045C33.2437 55.2424 33.3609 55.2614 33.484 55.2614C33.5763 55.2614 33.6521 55.2566 33.7113 55.2472C33.7705 55.2353 33.8178 55.2259 33.8533 55.2188L34.0238 55.9716C33.967 55.9929 33.8877 56.0142 33.7859 56.0355C33.6841 56.0592 33.555 56.071 33.3988 56.071C33.1621 56.071 32.93 56.0201 32.7028 55.9183C32.4779 55.8165 32.2908 55.6615 32.1417 55.4531C31.9949 55.2448 31.9215 54.982 31.9215 54.6648V49.2386Z" fill="white"/>
<circle cx="22" cy="96" r="10" fill="#141414"/>
<circle cx="22" cy="96" r="9.25" stroke="white" stroke-opacity="0.3" stroke-width="1.5"/>
<line x1="22.75" y1="86" x2="22.75" y2="91" stroke="white" stroke-opacity="0.3" stroke-width="1.5"/>
<path d="M10.483 113.509V112.727H15.9375V113.509H13.6506V120H12.7699V113.509H10.483ZM18.608 120.114C18.1155 120.114 17.6835 119.996 17.3118 119.762C16.9425 119.528 16.6536 119.2 16.4453 118.778C16.2393 118.357 16.1364 117.865 16.1364 117.301C16.1364 116.733 16.2393 116.237 16.4453 115.813C16.6536 115.389 16.9425 115.06 17.3118 114.826C17.6835 114.592 18.1155 114.474 18.608 114.474C19.1004 114.474 19.5313 114.592 19.9006 114.826C20.2723 115.06 20.5611 115.389 20.767 115.813C20.9754 116.237 21.0795 116.733 21.0795 117.301C21.0795 117.865 20.9754 118.357 20.767 118.778C20.5611 119.2 20.2723 119.528 19.9006 119.762C19.5313 119.996 19.1004 120.114 18.608 120.114ZM18.608 119.361C18.982 119.361 19.2898 119.265 19.5312 119.073C19.7727 118.881 19.9515 118.629 20.0675 118.317C20.1835 118.004 20.2415 117.666 20.2415 117.301C20.2415 116.937 20.1835 116.597 20.0675 116.282C19.9515 115.967 19.7727 115.713 19.5312 115.518C19.2898 115.324 18.982 115.227 18.608 115.227C18.2339 115.227 17.9261 115.324 17.6847 115.518C17.4432 115.713 17.2644 115.967 17.1484 116.282C17.0324 116.597 16.9744 116.937 16.9744 117.301C16.9744 117.666 17.0324 118.004 17.1484 118.317C17.2644 118.629 17.4432 118.881 17.6847 119.073C17.9261 119.265 18.2339 119.361 18.608 119.361ZM23.1969 116.719V120H22.3588V114.545H23.1685V115.398H23.2395C23.3674 115.121 23.5615 114.898 23.8219 114.73C24.0823 114.56 24.4185 114.474 24.8304 114.474C25.1998 114.474 25.5229 114.55 25.7999 114.702C26.0769 114.851 26.2923 115.078 26.4462 115.384C26.6001 115.687 26.677 116.07 26.677 116.534V120H25.839V116.591C25.839 116.162 25.7277 115.829 25.5051 115.589C25.2826 115.348 24.9772 115.227 24.589 115.227C24.3214 115.227 24.0823 115.285 23.8716 115.401C23.6633 115.517 23.4988 115.687 23.378 115.909C23.2573 116.132 23.1969 116.402 23.1969 116.719ZM30.4954 120.114C29.9698 120.114 29.5165 119.998 29.1353 119.766C28.7565 119.531 28.4641 119.205 28.2582 118.786C28.0546 118.364 27.9528 117.874 27.9528 117.315C27.9528 116.757 28.0546 116.264 28.2582 115.838C28.4641 115.41 28.7506 115.076 29.1175 114.837C29.4869 114.595 29.9177 114.474 30.4102 114.474C30.6942 114.474 30.9748 114.522 31.2518 114.616C31.5288 114.711 31.7809 114.865 32.0082 115.078C32.2354 115.289 32.4165 115.568 32.5515 115.916C32.6864 116.264 32.7539 116.693 32.7539 117.202V117.557H28.5494V116.832H31.9016C31.9016 116.525 31.8401 116.25 31.717 116.009C31.5962 115.767 31.4234 115.576 31.1985 115.437C30.976 115.297 30.7132 115.227 30.4102 115.227C30.0763 115.227 29.7875 115.31 29.5437 115.476C29.3022 115.639 29.1164 115.852 28.9862 116.115C28.8559 116.378 28.7908 116.66 28.7908 116.96V117.443C28.7908 117.855 28.8619 118.204 29.0039 118.491C29.1483 118.775 29.3484 118.991 29.604 119.141C29.8597 119.287 30.1568 119.361 30.4954 119.361C30.7156 119.361 30.9144 119.33 31.092 119.268C31.2719 119.205 31.427 119.11 31.5572 118.984C31.6874 118.857 31.788 118.698 31.859 118.509L32.6687 118.736C32.5835 119.01 32.4402 119.252 32.239 119.46C32.0378 119.666 31.7892 119.827 31.4933 119.943C31.1973 120.057 30.8647 120.114 30.4954 120.114Z" fill="white"/>
<circle cx="62" cy="96" r="10" fill="#141414"/>
<circle cx="62" cy="96" r="9.25" stroke="white" stroke-opacity="0.3" stroke-width="1.5"/>
<line x1="62.75" y1="86" x2="62.75" y2="91" stroke="white" stroke-opacity="0.3" stroke-width="1.5"/>
<path d="M43.8807 120V112.727H44.7614V119.219H48.142V120H43.8807ZM51.608 120.114C51.1155 120.114 50.6835 119.996 50.3118 119.762C49.9425 119.528 49.6536 119.2 49.4453 118.778C49.2393 118.357 49.1364 117.865 49.1364 117.301C49.1364 116.733 49.2393 116.237 49.4453 115.813C49.6536 115.389 49.9425 115.06 50.3118 114.826C50.6835 114.592 51.1155 114.474 51.608 114.474C52.1004 114.474 52.5313 114.592 52.9006 114.826C53.2723 115.06 53.5611 115.389 53.767 115.813C53.9754 116.237 54.0795 116.733 54.0795 117.301C54.0795 117.865 53.9754 118.357 53.767 118.778C53.5611 119.2 53.2723 119.528 52.9006 119.762C52.5313 119.996 52.1004 120.114 51.608 120.114ZM51.608 119.361C51.982 119.361 52.2898 119.265 52.5312 119.073C52.7727 118.881 52.9515 118.629 53.0675 118.317C53.1835 118.004 53.2415 117.666 53.2415 117.301C53.2415 116.937 53.1835 116.597 53.0675 116.282C52.9515 115.967 52.7727 115.713 52.5312 115.518C52.2898 115.324 51.982 115.227 51.608 115.227C51.2339 115.227 50.9261 115.324 50.6847 115.518C50.4432 115.713 50.2644 115.967 50.1484 116.282C50.0324 116.597 49.9744 116.937 49.9744 117.301C49.9744 117.666 50.0324 118.004 50.1484 118.317C50.2644 118.629 50.4432 118.881 50.6847 119.073C50.9261 119.265 51.2339 119.361 51.608 119.361ZM56.4091 120L54.7472 114.545H55.6278L56.8068 118.722H56.8636L58.0284 114.545H58.9233L60.0739 118.707H60.1307L61.3097 114.545H62.1903L60.5284 120H59.7045L58.5114 115.81H58.4261L57.233 120H56.4091ZM68.3267 120.114C67.8153 120.114 67.375 119.993 67.0057 119.751C66.6364 119.51 66.3523 119.177 66.1534 118.754C65.9545 118.33 65.8551 117.846 65.8551 117.301C65.8551 116.747 65.9569 116.258 66.1605 115.835C66.3665 115.408 66.6529 115.076 67.0199 114.837C67.3892 114.595 67.8201 114.474 68.3125 114.474C68.696 114.474 69.0417 114.545 69.3494 114.688C69.6572 114.83 69.9093 115.028 70.1058 115.284C70.3023 115.54 70.4242 115.838 70.4716 116.179H69.6335C69.5696 115.93 69.4276 115.71 69.2074 115.518C68.9896 115.324 68.696 115.227 68.3267 115.227C68 115.227 67.7135 115.312 67.4673 115.483C67.2235 115.651 67.0329 115.889 66.8956 116.197C66.7607 116.502 66.6932 116.861 66.6932 117.273C66.6932 117.694 66.7595 118.061 66.892 118.374C67.027 118.686 67.2164 118.929 67.4602 119.102C67.7064 119.274 67.9953 119.361 68.3267 119.361C68.5445 119.361 68.7422 119.323 68.9197 119.247C69.0973 119.171 69.2476 119.062 69.3707 118.92C69.4938 118.778 69.5814 118.608 69.6335 118.409H70.4716C70.4242 118.731 70.3071 119.021 70.12 119.279C69.9354 119.535 69.6903 119.738 69.3849 119.89C69.0819 120.039 68.7292 120.114 68.3267 120.114ZM75.1342 117.77V114.545H75.9723V120H75.1342V119.077H75.0774C74.9496 119.354 74.7507 119.589 74.4808 119.783C74.2109 119.975 73.87 120.071 73.4581 120.071C73.1172 120.071 72.8142 119.996 72.549 119.847C72.2839 119.696 72.0755 119.469 71.924 119.165C71.7725 118.86 71.6967 118.475 71.6967 118.011V114.545H72.5348V117.955C72.5348 118.352 72.6461 118.67 72.8686 118.906C73.0935 119.143 73.38 119.261 73.728 119.261C73.9363 119.261 74.1482 119.208 74.3636 119.102C74.5814 118.995 74.7637 118.832 74.9105 118.612C75.0597 118.391 75.1342 118.111 75.1342 117.77ZM79.8794 114.545V115.256H77.0527V114.545H79.8794ZM77.8766 113.239H78.7147V118.438C78.7147 118.674 78.749 118.852 78.8176 118.97C78.8887 119.086 78.9786 119.164 79.0875 119.205C79.1988 119.242 79.316 119.261 79.4391 119.261C79.5314 119.261 79.6072 119.257 79.6664 119.247C79.7256 119.235 79.7729 119.226 79.8084 119.219L79.9789 119.972C79.9221 119.993 79.8427 120.014 79.7409 120.036C79.6391 120.059 79.5101 120.071 79.3539 120.071C79.1171 120.071 78.8851 120.02 78.6578 119.918C78.4329 119.817 78.2459 119.661 78.0968 119.453C77.95 119.245 77.8766 118.982 77.8766 118.665V113.239Z" fill="white"/>
<circle cx="100" cy="96" r="10" fill="#141414"/>
<circle cx="100" cy="96" r="9.25" stroke="white" stroke-opacity="0.3" stroke-width="1.5"/>
<line x1="100.75" y1="86" x2="100.75" y2="91" stroke="white" stroke-opacity="0.3" stroke-width="1.5"/>
<path d="M92.8807 112.727H93.9318L96.4034 118.764H96.4886L98.9602 112.727H100.011V120H99.1875V114.474H99.1165L96.8438 120H96.0483L93.7756 114.474H93.7045V120H92.8807V112.727ZM101.664 120V114.545H102.502V120H101.664ZM102.09 113.636C101.926 113.636 101.785 113.581 101.667 113.469C101.551 113.358 101.493 113.224 101.493 113.068C101.493 112.912 101.551 112.778 101.667 112.667C101.785 112.556 101.926 112.5 102.09 112.5C102.253 112.5 102.393 112.556 102.509 112.667C102.627 112.778 102.686 112.912 102.686 113.068C102.686 113.224 102.627 113.358 102.509 113.469C102.393 113.581 102.253 113.636 102.09 113.636ZM104.662 114.545L105.968 116.776L107.275 114.545H108.241L106.48 117.273L108.241 120H107.275L105.968 117.884L104.662 120H103.696L105.429 117.273L103.696 114.545H104.662Z" fill="white"/>
</svg>
