<svg width="20" height="20" viewBox="0 0 20 20" fill="none" xmlns="http://www.w3.org/2000/svg">
<path d="M18.2563 7.39737C17.8916 7.34439 17.5435 7.20983 17.238 7.0037C16.9326 6.79756 16.6775 6.52517 16.4919 6.2068C16.3063 5.88843 16.1949 5.53229 16.166 5.1649C16.1371 4.79751 16.1915 4.42834 16.325 4.08487C16.4099 3.86032 16.4224 3.61483 16.3608 3.38282C16.2991 3.15081 16.1664 2.94391 15.9813 2.79112C15.1638 2.10466 14.2333 1.5654 13.2313 1.19737C13.0031 1.11261 12.754 1.10202 12.5194 1.16711C12.2849 1.2322 12.0769 1.36964 11.925 1.55987C11.6964 1.85215 11.4043 2.08855 11.0708 2.25113C10.7372 2.4137 10.3711 2.4982 10 2.4982C9.62897 2.4982 9.26279 2.4137 8.92926 2.25113C8.59572 2.08855 8.30359 1.85215 8.07501 1.55987C7.92315 1.36964 7.71513 1.2322 7.48059 1.16711C7.24604 1.10202 6.99694 1.11261 6.76876 1.19737C5.84356 1.53714 4.97851 2.02242 4.20626 2.63487C4.0116 2.78897 3.87139 3.00135 3.80616 3.2409C3.74093 3.48045 3.75411 3.7346 3.84376 3.96612C3.98799 4.31867 4.04757 4.70012 4.01775 5.07987C3.98792 5.45961 3.86951 5.82708 3.67201 6.1528C3.47452 6.47851 3.20343 6.75341 2.88051 6.95543C2.55758 7.15746 2.1918 7.28099 1.81251 7.31612C1.56627 7.34245 1.33498 7.44714 1.15271 7.61479C0.970433 7.78244 0.846801 8.00418 0.800014 8.24737C0.683637 8.82343 0.625014 9.40967 0.625014 9.99737C0.624158 10.4894 0.663876 10.9806 0.743764 11.4661C0.783523 11.7171 0.904855 11.948 1.089 12.1231C1.27315 12.2982 1.50985 12.4078 1.76251 12.4349C2.15014 12.4712 2.5234 12.5999 2.85108 12.8102C3.17875 13.0204 3.4513 13.3061 3.64591 13.6433C3.84052 13.9805 3.95152 14.3594 3.96963 14.7483C3.98775 15.1372 3.91244 15.5248 3.75001 15.8786C3.64372 16.1088 3.61735 16.3678 3.6751 16.6147C3.73285 16.8615 3.8714 17.082 4.06876 17.2411C4.88133 17.9151 5.80287 18.4456 6.79376 18.8099C6.92048 18.8538 7.05343 18.877 7.18751 18.8786C7.37137 18.8782 7.55245 18.8337 7.71557 18.7489C7.87869 18.6641 8.0191 18.5414 8.12501 18.3911C8.34777 18.0666 8.64638 17.8013 8.99491 17.6183C9.34344 17.4353 9.73137 17.3402 10.125 17.3411C10.5064 17.3416 10.8825 17.4311 11.2232 17.6026C11.5639 17.774 11.8598 18.0226 12.0875 18.3286C12.239 18.5322 12.4535 18.68 12.6977 18.7489C12.9418 18.8179 13.202 18.8041 13.4375 18.7099C14.3436 18.3452 15.1871 17.8412 15.9375 17.2161C16.126 17.0603 16.2603 16.8486 16.3209 16.6117C16.3815 16.3747 16.3655 16.1246 16.275 15.8974C16.128 15.5494 16.0639 15.1719 16.0878 14.7949C16.1117 14.4179 16.2228 14.0516 16.4125 13.7249C16.6023 13.3982 16.8653 13.12 17.1809 12.9124C17.4966 12.7048 17.8561 12.5734 18.2313 12.5286C18.4745 12.495 18.7007 12.3848 18.8771 12.214C19.0536 12.0432 19.171 11.8206 19.2125 11.5786C19.3129 11.0573 19.3673 10.5282 19.375 9.99737C19.3751 9.43746 19.3228 8.87877 19.2188 8.32862C19.1766 8.09193 19.0609 7.87456 18.8881 7.70739C18.7153 7.54021 18.4942 7.43174 18.2563 7.39737ZM13.125 9.99737C13.125 10.6154 12.9417 11.2196 12.5984 11.7335C12.255 12.2474 11.7669 12.648 11.1959 12.8845C10.6249 13.121 9.99655 13.1829 9.39036 13.0623C8.78417 12.9417 8.22734 12.6441 7.79031 12.2071C7.35327 11.77 7.05564 11.2132 6.93506 10.607C6.81448 10.0008 6.87637 9.3725 7.11289 8.80148C7.34941 8.23046 7.74995 7.74241 8.26386 7.39903C8.77776 7.05565 9.38195 6.87237 10 6.87237C10.8288 6.87237 11.6237 7.20161 12.2097 7.78766C12.7958 8.37371 13.125 9.16857 13.125 9.99737Z" fill="currentColor"/>
</svg>
