<svg width="20" height="16" viewBox="0 0 20 16" fill="none" xmlns="http://www.w3.org/2000/svg">
<path d="M10.0479 4.64844C11.0619 4.64822 11.8838 3.82567 11.8838 2.81152C11.8836 1.79756 11.0618 0.975803 10.0479 0.975586C9.03371 0.975586 8.21116 1.79743 8.21094 2.81152C8.21094 3.8258 9.03357 4.64844 10.0479 4.64844Z" stroke="currentColor"/>
<path d="M10.0586 10.1777C11.8908 10.2208 13.669 9.55582 15.0234 8.32129L15.0381 8.30859L15.0723 8.28125C15.0739 8.28 15.0752 8.2791 15.0762 8.27832L15.1807 8.17871L15.1865 8.17383C15.2346 8.12962 15.2513 8.11637 15.2725 8.09473V8.09375L15.8369 7.51172L15.8438 7.50488C15.9314 7.41793 16.0007 7.31434 16.0479 7.2002C16.095 7.08596 16.119 6.96344 16.1182 6.83984V6.83594C16.1183 6.71121 16.0937 6.58784 16.0459 6.47266C15.9981 6.35759 15.9282 6.25289 15.8398 6.16504L15.8379 6.16309C15.6597 5.98438 15.4174 5.8834 15.165 5.88281C14.913 5.88235 14.671 5.98164 14.4922 6.15918V6.16016L14.4873 6.16406L13.9092 6.72363H13.9102C12.9335 7.69674 11.6101 8.24336 10.2314 8.24316C8.85301 8.24285 7.53092 7.69583 6.55469 6.72266L5.74707 5.91504C5.65754 5.82591 5.55136 5.7552 5.43457 5.70703C5.31758 5.65882 5.19196 5.63456 5.06543 5.63477C4.93884 5.635 4.81315 5.65935 4.69629 5.70801C4.57941 5.75669 4.47314 5.82826 4.38379 5.91797L4.38281 5.91895L4.31934 5.98926C4.17834 6.16081 4.10004 6.37659 4.09961 6.60059C4.09913 6.85596 4.2001 7.10091 4.37988 7.28223L4.84766 7.75V7.75098L5.18555 8.09082C6.48053 9.38764 8.2264 10.1347 10.0586 10.1777Z" stroke="currentColor"/>
<path d="M1.68359 11.6211C6.26288 16.0265 13.4594 16.1547 18.1895 12.002L18.2168 11.9775L18.2471 11.957C18.272 11.9409 18.2962 11.9238 18.3193 11.9053L18.3867 11.8457L18.7656 11.4648L18.8633 11.3662H18.8652L19.2588 10.9727C19.4139 10.8156 19.5005 10.6036 19.5 10.3828C19.4996 10.189 19.4325 10.002 19.3105 9.85352L19.2549 9.79297L19.2539 9.79199C19.0976 9.63512 18.8855 9.54646 18.6641 9.5459C18.4426 9.54535 18.2294 9.633 18.0723 9.78906L17.3848 10.4775L17.3799 10.4834L17.374 10.4883C13.294 14.3425 6.87403 14.3185 2.82617 10.4082L2.82715 10.4072L2.80371 10.3828L1.92773 9.50781C1.85019 9.43056 1.75844 9.36882 1.65723 9.32715C1.556 9.28547 1.44736 9.26438 1.33789 9.26465C1.22838 9.26493 1.1196 9.28689 1.01855 9.3291C0.917642 9.37129 0.826113 9.43315 0.749023 9.51074L0.746094 9.51367C0.66847 9.59074 0.606678 9.6823 0.564453 9.7832C0.522191 9.88423 0.500335 9.99303 0.5 10.1025C0.499705 10.2119 0.520896 10.3207 0.5625 10.4219C0.60414 10.5231 0.664991 10.6158 0.742188 10.6934L1.60254 11.5547C1.60757 11.5584 1.61739 11.5646 1.62598 11.5713C1.63851 11.581 1.65483 11.5959 1.67383 11.6133L1.6748 11.6123L1.68359 11.6211ZM18.7598 11.4736C18.7565 11.4771 18.7527 11.4803 18.75 11.4834C18.7396 11.4951 18.7301 11.5071 18.7266 11.5117C18.727 11.5111 18.7403 11.4947 18.7598 11.4736Z" stroke="currentColor"/>
</svg>
