<svg width="20" height="20" viewBox="0 0 20 20" fill="none" xmlns="http://www.w3.org/2000/svg">
<path d="M9.41301 9.41045V5.84948H5.71301C5.51304 6.90008 5.38935 8.08812 5.36239 9.41045H9.41301ZM9.41301 4.67553V0.03125C8.03914 0.373964 6.72604 1.94396 5.9827 4.67553H9.41301ZM4.1895 10.5844H0C0.0713367 11.8145 0.366193 13.004 0.865511 14.1062H4.52126C4.32892 13.0219 4.21709 11.8424 4.1895 10.5844ZM0 9.41045H4.18828C4.21309 8.1375 4.32423 6.94458 4.51848 5.84948H0.883511C0.373393 6.96269 0.0721585 8.16575 0 9.41045ZM10.587 0.0361414V4.67553H14.0071C13.7258 3.65271 13.3889 2.88315 13.078 2.32123C12.3829 1.06499 11.5148 0.274765 10.587 0.0361414ZM9.41301 10.5844H5.36368C5.39447 11.9536 5.52549 13.1194 5.71301 14.1062H9.41305L9.41301 10.5844ZM14.1052 1.75288C14.5687 2.59057 14.9415 3.57238 15.2197 4.67553H18.4803C18.0835 4.04853 17.614 3.46042 17.0755 2.92197C15.9844 1.83087 14.6896 1.02237 13.2795 0.531703C13.5766 0.888974 13.8527 1.29649 14.1052 1.75288ZM14.6364 9.41045C14.6052 8.023 14.471 6.84459 14.2794 5.84948H10.587V9.41045H14.6364ZM15.2416 15.2802C14.9629 16.407 14.5856 17.4082 14.1136 18.2596C13.8669 18.7048 13.5975 19.103 13.3078 19.4534C14.7069 18.9617 15.9917 18.1567 17.0755 17.0729C17.625 16.5233 18.1026 15.9218 18.5044 15.2802H15.2416ZM4.76825 4.67553C5.04601 3.56475 5.41999 2.57687 5.8864 1.73539C6.1332 1.29015 6.40262 0.89183 6.69239 0.541408C5.2932 1.03302 4.00832 1.83811 2.92449 2.92193C2.38604 3.46038 1.91647 4.04849 1.51971 4.6755L4.76825 4.67553ZM15.4715 5.84948C15.6682 6.94461 15.7826 8.13715 15.8106 9.41045H20C19.9278 8.16575 19.6266 6.96269 19.1165 5.84948H15.4715ZM5.89485 18.2422C5.42586 17.3945 5.04984 16.3993 4.77068 15.2802H1.49557C1.89745 15.9218 2.37497 16.5233 2.92453 17.0729C4.0156 18.1639 5.31042 18.9724 6.72052 19.4631C6.42336 19.1059 6.14733 18.6984 5.89485 18.2422ZM10.587 10.5844V14.1062H14.2945C14.4901 13.0653 14.6111 11.8904 14.6377 10.5844H10.587ZM20 10.5844H15.8118C15.7873 11.8422 15.6785 13.0219 15.4885 14.1062H19.1345C19.6338 13.004 19.9287 11.8145 20 10.5844ZM10.587 15.2802V19.9636C11.9675 19.6193 13.2868 18.0362 14.0283 15.2802H10.587ZM9.41301 19.9587V15.2802H5.98223C6.2657 16.3226 6.6072 17.1047 6.92205 17.6738C7.61711 18.9299 8.48524 19.7201 9.41301 19.9587Z" fill="white"/>
</svg>
