<svg width="14" height="14" viewBox="0 0 14 14" fill="none" xmlns="http://www.w3.org/2000/svg">
<g clip-path="url(#clip0_1515_620)">
<path d="M9.82993 13.5078C9.82993 13.6383 9.77807 13.7635 9.68577 13.8558C9.59346 13.9481 9.46827 14 9.33774 14H2.99125C2.4443 13.9994 1.91992 13.7818 1.53316 13.3951C1.1464 13.0083 0.928845 12.484 0.928223 11.937V2.06303C0.928838 1.51609 1.14637 0.991723 1.53311 0.604966C1.91985 0.218209 2.4442 0.000644113 2.99114 0L9.33763 0C9.46817 0 9.59335 0.0518553 9.68566 0.144158C9.77796 0.236461 9.82982 0.361651 9.82982 0.492188C9.82982 0.622724 9.77796 0.747914 9.68566 0.840217C9.59335 0.93252 9.46817 0.984375 9.33763 0.984375H2.99114C2.70516 0.984693 2.43099 1.09844 2.22877 1.30066C2.02655 1.50288 1.91281 1.77705 1.91249 2.06303V11.937C1.91281 12.223 2.02656 12.4971 2.22878 12.6994C2.431 12.9016 2.70517 13.0153 2.99114 13.0156H9.33763C9.40227 13.0156 9.46629 13.0283 9.52601 13.0531C9.58574 13.0778 9.64001 13.114 9.68573 13.1597C9.73145 13.2055 9.76771 13.2597 9.79245 13.3194C9.81719 13.3792 9.82993 13.4432 9.82993 13.5078ZM12.928 6.65197L9.72875 3.45275C9.63629 3.36124 9.51135 3.31006 9.38126 3.31041C9.25116 3.31075 9.1265 3.36258 9.03451 3.45457C8.94252 3.54656 8.8907 3.67123 8.89036 3.80132C8.89003 3.93141 8.94121 4.05635 9.03272 4.14881L11.3917 6.50781H5.65481C5.52427 6.50781 5.39908 6.55967 5.30678 6.65197C5.21448 6.74427 5.16262 6.86946 5.16262 7C5.16262 7.13054 5.21448 7.25573 5.30678 7.34803C5.39908 7.44033 5.52427 7.49219 5.65481 7.49219H11.3917L9.03269 9.85122C8.9866 9.89683 8.94997 9.95111 8.92492 10.0109C8.89987 10.0707 8.88688 10.1349 8.88671 10.1998C8.88654 10.2646 8.89919 10.3289 8.92393 10.3888C8.94867 10.4488 8.98501 10.5032 9.03086 10.5491C9.07672 10.5949 9.13118 10.6313 9.19113 10.656C9.25108 10.6808 9.31532 10.6934 9.38017 10.6932C9.44502 10.6931 9.5092 10.6801 9.56901 10.655C9.62883 10.63 9.68311 10.5934 9.72873 10.5473L12.9279 7.34806C12.9737 7.30236 13.0099 7.2481 13.0347 7.18838C13.0594 7.12866 13.0721 7.06466 13.0721 7.00002C13.0721 6.93538 13.0594 6.87137 13.0347 6.81166C13.0099 6.75194 12.9737 6.69768 12.928 6.65197Z" fill="white" fill-opacity="0.6"/>
</g>
<defs>
<clipPath id="clip0_1515_620">
<rect width="14" height="14" fill="white"/>
</clipPath>
</defs>
</svg>
