<svg width="20" height="20" viewBox="0 0 20 20" fill="none" xmlns="http://www.w3.org/2000/svg">
<path d="M9.98866 0.00315085C9.72369 0.00615441 9.4707 0.114439 9.2851 0.304289C9.0995 0.494139 8.99642 0.750081 8.99843 1.01606V9.05512C8.99843 9.32176 9.10395 9.57747 9.29178 9.76601C9.47961 9.95455 9.73437 10.0605 10 10.0605C10.2656 10.0605 10.5204 9.95455 10.7082 9.76601C10.8961 9.57747 11.0016 9.32176 11.0016 9.05512V1.01606C11.0026 0.882441 10.977 0.749957 10.9265 0.626357C10.8759 0.502757 10.8012 0.39052 10.7069 0.29621C10.6126 0.2019 10.5005 0.127408 10.3772 0.0770889C10.2539 0.0267701 10.1218 0.00163425 9.98866 0.00315085ZM15.8243 2.01386C15.7915 2.01225 15.7587 2.01225 15.726 2.01386C15.5276 2.03042 15.3387 2.10592 15.1833 2.23074C15.0279 2.35555 14.913 2.52401 14.8534 2.71462C14.7938 2.90523 14.7921 3.10935 14.8486 3.30093C14.905 3.4925 15.0171 3.66285 15.1704 3.79024C16.9052 5.26803 18.0013 7.46772 18.0013 9.93575C18.0013 14.3956 14.4334 17.9899 10.0038 17.9899C8.94995 17.9879 7.90687 17.7781 6.93426 17.3724C5.96165 16.9667 5.07862 16.3732 4.33574 15.6257C3.59286 14.8783 3.00471 13.9916 2.60499 13.0166C2.20527 12.0415 2.00182 10.9971 2.0063 9.94331C2.0063 7.48662 3.08724 5.30205 4.80315 3.82047C4.9099 3.73696 4.99867 3.63261 5.06412 3.5137C5.12957 3.39479 5.17033 3.26381 5.18395 3.12865C5.19756 2.99349 5.18375 2.85696 5.14334 2.72731C5.10293 2.59766 5.03676 2.47758 4.94883 2.37431C4.8609 2.27104 4.75303 2.18674 4.63173 2.12648C4.51044 2.06622 4.37824 2.03126 4.24311 2.02371C4.10798 2.01616 3.97273 2.03618 3.84553 2.08256C3.71832 2.12893 3.6018 2.20071 3.50299 2.29354C2.40408 3.24052 1.5225 4.41352 0.918487 5.73244C0.314474 7.05136 0.00225179 8.4851 0.00314985 9.93575C0.000118274 12.5956 1.05126 15.1482 2.92637 17.0347C4.80148 18.9211 7.34775 19.9876 10.0076 20.0006C12.667 19.9886 15.2131 18.9222 17.0872 17.0353C18.9613 15.1484 20.0104 12.5952 20.0044 9.93575C20.0044 6.86677 18.6324 4.10772 16.4668 2.26331C16.2887 2.10651 16.0611 2.01813 15.8243 2.01386Z" fill="#FF0000"/>
</svg>
