<svg width="21" height="20" viewBox="0 0 21 20" fill="none" xmlns="http://www.w3.org/2000/svg">
<path d="M17.9102 2.39005C17.8343 2.32431 17.7453 2.27562 17.649 2.24727C17.5527 2.21893 17.4515 2.2116 17.3522 2.22577L7.5457 3.62668C7.20059 3.67599 6.94429 3.97155 6.94429 4.32015V12.5327C6.52939 12.2909 6.04775 12.1518 5.53393 12.1518C3.98381 12.1518 2.72266 13.4129 2.72266 14.963C2.72266 16.5131 3.98378 17.7743 5.5339 17.7743C7.08401 17.7743 8.34517 16.5131 8.34517 14.963V7.72952L16.7507 6.52874V11.1317C16.3358 10.89 15.8542 10.7508 15.3404 10.7508C13.7902 10.7508 12.5291 12.012 12.5291 13.5621C12.5291 15.1122 13.7902 16.3734 15.3404 16.3734C16.8905 16.3734 18.1516 15.1122 18.1516 13.5621V2.91921C18.1517 2.81886 18.1301 2.71967 18.0884 2.62837C18.0468 2.53708 17.986 2.4558 17.9102 2.39005Z" fill="white"/>
</svg>
