<svg width="20" height="20" viewBox="0 0 20 20" fill="none" xmlns="http://www.w3.org/2000/svg">
<g clip-path="url(#clip0_21_5453)">
<path d="M0.0381451 14.2841C0.170446 13.8769 0.607788 13.6543 1.01505 13.7864L2.02322 14.1139C1.40563 12.8367 1.08216 11.4322 1.08216 9.99798C1.08216 4.7823 5.32534 0.539062 10.5411 0.539062C15.7568 0.539063 20 4.7823 20 9.99798C20 15.2137 15.7568 19.4569 10.5411 19.4569C10.1129 19.4569 9.76576 19.1097 9.76576 18.6816C9.76576 18.2535 10.1129 17.9063 10.5411 17.9063C14.9017 17.9063 18.4494 14.3587 18.4494 9.99798C18.4494 5.63733 14.9017 2.0897 10.5411 2.0897C6.18036 2.0897 2.6328 5.63733 2.6328 9.99798C2.6328 11.1995 2.90392 12.3759 3.42196 13.4446L3.76639 12.3842C3.89869 11.9771 4.33615 11.7543 4.74329 11.8865C5.15055 12.0188 5.37347 12.4562 5.24117 12.8634L4.32691 15.6774C4.22054 16.0051 3.91661 16.2135 3.58974 16.2135C3.50833 16.2134 3.42743 16.2006 3.35001 16.1754L0.535963 15.2612C0.128765 15.1289 -0.0941563 14.6915 0.0381451 14.2841Z" fill="white"/>
</g>
<defs>
<clipPath id="clip0_21_5453">
<rect width="20" height="20" fill="white"/>
</clipPath>
</defs>
</svg>
