<svg width="14" height="14" viewBox="0 0 14 14" fill="none" xmlns="http://www.w3.org/2000/svg">
<path d="M0.311836 1.24027V12.7603C0.311836 13.0149 0.412979 13.2591 0.593014 13.4391C0.773049 13.6191 1.01723 13.7203 1.27184 13.7203H1.91184C2.16644 13.7203 2.41062 13.6191 2.59066 13.4391C2.77069 13.2591 2.87184 13.0149 2.87184 12.7603V1.24027C2.87184 0.985666 2.77069 0.741486 2.59066 0.561451C2.41062 0.381416 2.16644 0.280273 1.91184 0.280273H1.27184C1.01723 0.280273 0.773049 0.381416 0.593014 0.561451C0.412979 0.741486 0.311836 0.985666 0.311836 1.24027ZM4.69584 5.96347L11.6782 0.600273C11.8648 0.459699 12.0863 0.372861 12.3187 0.34917C12.5511 0.325479 12.7855 0.365838 12.9966 0.465873C13.2162 0.571925 13.4009 0.738497 13.5291 0.945985C13.6572 1.15347 13.7234 1.39324 13.7198 1.63707V12.3635C13.7213 12.6012 13.6566 12.8346 13.5329 13.0376C13.4092 13.2406 13.2314 13.4052 13.0194 13.5128C12.8075 13.6204 12.5697 13.6669 12.3329 13.647C12.096 13.6272 11.8693 13.5417 11.6782 13.4003L4.69584 8.04347C4.53651 7.92094 4.40746 7.76343 4.31866 7.58311C4.22986 7.40279 4.18368 7.20447 4.18368 7.00347C4.18368 6.80247 4.22986 6.60416 4.31866 6.42384C4.40746 6.24352 4.53651 6.08601 4.69584 5.96347Z" fill="white" fill-opacity="0.6"/>
</svg>
