<svg width="16" height="14" viewBox="0 0 16 14" fill="none" xmlns="http://www.w3.org/2000/svg">
<path d="M7.37511 6.0324L14.4033 0.450296C14.5713 0.366279 14.7578 0.326245 14.9454 0.33394C15.1331 0.341636 15.3157 0.396808 15.4762 0.494296C15.6357 0.589718 15.7678 0.724824 15.8596 0.886455C15.9514 1.04809 15.9998 1.23073 16 1.41661V12.5842C16 12.959 15.8028 13.3085 15.4762 13.5057C15.3155 13.603 15.1327 13.6581 14.945 13.6658C14.7573 13.6735 14.5706 13.6335 14.4025 13.5497L7.37427 7.96587C7.0358 7.64772 6.76842 7.4091 6.76842 6.99871C6.76842 6.58833 6.99603 6.36748 7.37511 6.0324Z" fill="white" fill-opacity="0.6"/>
<path d="M0.605955 6.03239L7.63414 0.450289C7.80226 0.366275 7.98892 0.326246 8.1767 0.33394C8.36448 0.341635 8.54724 0.396802 8.70792 0.494289C8.86743 0.589711 8.99951 0.724816 9.0913 0.886447C9.18309 1.04808 9.23146 1.23073 9.23169 1.4166V12.5842C9.23169 12.959 9.03453 13.3085 8.70792 13.5057C8.54719 13.603 8.36444 13.6581 8.17669 13.6658C7.98894 13.6735 7.8023 13.6335 7.63414 13.5497L0.605955 7.96586C0.267492 7.64771 0.000106812 7.40909 0.000106812 6.9987C0.000106812 6.58832 0.226877 6.36747 0.605955 6.03239Z" fill="white" fill-opacity="0.6"/>
</svg>
