<svg width="16" height="14" viewBox="0 0 16 14" fill="none" xmlns="http://www.w3.org/2000/svg">
<path d="M8.62489 6.0324L1.5967 0.450296C1.42874 0.366279 1.24221 0.326245 1.05456 0.33394C0.866916 0.341636 0.68429 0.396808 0.523772 0.494296C0.364259 0.589718 0.232176 0.724824 0.140387 0.886455C0.0485988 1.04809 0.000232852 1.23073 0 1.41661L0 12.5842C0 12.959 0.197155 13.3085 0.523772 13.5057C0.684503 13.603 0.867251 13.6581 1.055 13.6658C1.24275 13.6735 1.42939 13.6335 1.59755 13.5497L8.62573 7.96587C8.9642 7.64772 9.23158 7.4091 9.23158 6.99871C9.23158 6.58833 9.00397 6.36748 8.62489 6.0324Z" fill="white" fill-opacity="0.6"/>
<path d="M15.394 6.03239L8.36586 0.450289C8.19774 0.366275 8.01108 0.326246 7.8233 0.33394C7.63552 0.341635 7.45276 0.396802 7.29208 0.494289C7.13257 0.589711 7.00049 0.724816 6.9087 0.886447C6.81691 1.04808 6.76854 1.23073 6.76831 1.4166V12.5842C6.76831 12.959 6.96547 13.3085 7.29208 13.5057C7.45281 13.603 7.63556 13.6581 7.82331 13.6658C8.01106 13.6735 8.1977 13.6335 8.36586 13.5497L15.394 7.96586C15.7325 7.64771 15.9999 7.40909 15.9999 6.9987C15.9999 6.58832 15.7731 6.36747 15.394 6.03239Z" fill="white" fill-opacity="0.6"/>
</svg>
