<svg width="16" height="16" viewBox="0 0 16 16" fill="none" xmlns="http://www.w3.org/2000/svg">
<path d="M7.77519 7.36777L7.41284 7.00545L8.31869 6.09961L8.68103 6.46195L7.77519 7.36777Z" fill="white"/>
<path d="M13.7563 1.02242C12.5094 -0.224452 10.3563 -0.290077 9.0438 1.02242C8.0438 2.02242 8.0688 3.30992 8.0688 3.30992L8.15317 3.3943L1.2688 11.7349L1.98755 12.4537C1.65942 12.888 1.58442 13.4474 1.79692 13.963C2.04067 14.5474 2.58442 14.913 3.2188 14.913H4.9938C5.55942 14.913 6.0188 15.3724 6.0188 15.938H6.5313C6.5313 15.0912 5.84067 14.4005 4.9938 14.4005H3.2188C2.71255 14.4005 2.39692 14.0724 2.27192 13.7662C2.16567 13.5068 2.1438 13.1412 2.3563 12.8193L3.05005 13.513L11.3844 6.62555L11.4688 6.70992C11.4688 6.70992 12.8157 6.67555 13.7563 5.73492C15.0563 4.43492 15.0563 2.32242 13.7563 1.02242ZM3.0813 12.8224L1.95942 11.7005L3.08442 10.338L4.44067 11.6943L3.0813 12.8224ZM4.84067 11.3662L3.41567 9.94117L8.52192 3.75992L11.0219 6.26305L4.84067 11.3662ZM11.6688 6.18492L8.59692 3.11305C8.63442 2.72242 8.75317 2.34742 8.94067 2.0068L12.775 5.84117C12.4375 6.02867 12.0625 6.14742 11.6688 6.18492ZM13.3938 5.37242C13.3344 5.4318 13.2688 5.49117 13.2032 5.5443L9.23442 1.57555C9.28755 1.50992 9.34692 1.44742 9.4063 1.38492C10.5094 0.281798 12.3407 0.331798 13.3938 1.38492C14.4938 2.48492 14.4938 4.27242 13.3938 5.37242Z" fill="white"/>
</svg>
