<svg width="14" height="18" viewBox="0 0 14 18" fill="none" xmlns="http://www.w3.org/2000/svg">
<path d="M6.79199 12.0623C7.23428 12.1127 7.68221 12.0698 8.10685 11.9362C8.53148 11.8026 8.92335 11.5814 9.25712 11.2869C9.59089 10.9923 9.85913 10.631 10.0445 10.2263C10.2299 9.82158 10.3282 9.38246 10.3332 8.93734V3.37484C10.2676 -0.801406 3.73324 -0.802656 3.66699 3.37484V8.93734C3.66798 9.76584 3.99754 10.5601 4.58338 11.146C5.16922 11.7318 5.9635 12.0614 6.79199 12.0623ZM4.91699 3.37484C4.92314 3.09358 4.99014 2.81698 5.11338 2.56407C5.23661 2.31116 5.41317 2.08795 5.63089 1.90977C5.84862 1.7316 6.10235 1.6027 6.37464 1.53194C6.64693 1.46117 6.93132 1.45022 7.20824 1.49984C7.70537 1.50034 8.182 1.69804 8.53352 2.04957C8.88504 2.40109 9.08275 2.87772 9.08324 3.37484V8.93734C9.08275 9.43447 8.88504 9.9111 8.53352 10.2626C8.182 10.6141 7.70537 10.8118 7.20824 10.8123C6.93132 10.862 6.64693 10.851 6.37464 10.7803C6.10235 10.7095 5.84862 10.5806 5.63089 10.4024C5.41317 10.2242 5.23661 10.001 5.11338 9.74812C4.99014 9.49521 4.92314 9.21861 4.91699 8.93734V3.37484Z" fill="white"/>
<path d="M13.457 8.24512C13.457 8.07936 13.3911 7.92039 13.2739 7.80318C13.1567 7.68597 12.9977 7.62012 12.832 7.62012C12.6662 7.62012 12.5072 7.68597 12.39 7.80318C12.2728 7.92039 12.207 8.07936 12.207 8.24512C12.207 9.62607 11.6584 10.9505 10.6819 11.9269C9.70543 12.9034 8.38104 13.452 7.00009 13.452C5.61914 13.452 4.29475 12.9034 3.31827 11.9269C2.34179 10.9505 1.79321 9.62607 1.79321 8.24512C1.79321 8.07936 1.72736 7.92039 1.61015 7.80318C1.49294 7.68597 1.33397 7.62012 1.16821 7.62012C1.00245 7.62012 0.843481 7.68597 0.726271 7.80318C0.609061 7.92039 0.543213 8.07936 0.543213 8.24512C0.545426 9.84859 1.14344 11.394 2.22115 12.5813C3.29885 13.7686 4.77932 14.5131 6.37509 14.6701V16.4995H4.29196C4.1262 16.4995 3.96723 16.5653 3.85002 16.6825C3.73281 16.7998 3.66696 16.9587 3.66696 17.1245C3.66696 17.2903 3.73281 17.4492 3.85002 17.5664C3.96723 17.6836 4.1262 17.7495 4.29196 17.7495H9.70821C9.87397 17.7495 10.0329 17.6836 10.1502 17.5664C10.2674 17.4492 10.3332 17.2903 10.3332 17.1245C10.3332 16.9587 10.2674 16.7998 10.1502 16.6825C10.0329 16.5653 9.87397 16.4995 9.70821 16.4995H7.62509V14.6701C9.22086 14.5131 10.7013 13.7686 11.779 12.5813C12.8567 11.394 13.4547 9.84859 13.457 8.24512Z" fill="white"/>
</svg>
