<svg width="14" height="4" viewBox="0 0 14 4" fill="none" xmlns="http://www.w3.org/2000/svg">
<path d="M1.58325 3.25C2.27361 3.25 2.83325 2.69036 2.83325 2C2.83325 1.30964 2.27361 0.75 1.58325 0.75C0.892896 0.75 0.333252 1.30964 0.333252 2C0.333252 2.69036 0.892896 3.25 1.58325 3.25Z" fill="white"/>
<path d="M7 3.25C7.69036 3.25 8.25 2.69036 8.25 2C8.25 1.30964 7.69036 0.75 7 0.75C6.30964 0.75 5.75 1.30964 5.75 2C5.75 2.69036 6.30964 3.25 7 3.25Z" fill="white"/>
<path d="M12.4165 3.25C13.1069 3.25 13.6665 2.69036 13.6665 2C13.6665 1.30964 13.1069 0.75 12.4165 0.75C11.7261 0.75 11.1665 1.30964 11.1665 2C11.1665 2.69036 11.7261 3.25 12.4165 3.25Z" fill="white"/>
</svg>
