<svg width="20" height="20" viewBox="0 0 20 20" fill="none" xmlns="http://www.w3.org/2000/svg">
<path d="M6.53175 3.23652V13.8827C5.91225 13.3301 5.09593 12.9936 4.20238 12.9936C2.27074 12.9936 0.699219 14.5651 0.699219 16.4968C0.699219 18.4285 2.27074 20 4.20238 20C6.13163 20 7.70151 18.4324 7.70549 16.5041H7.70557V7.94823L18.1257 5.30679V11.0566C17.5063 10.504 16.6899 10.1675 15.7964 10.1675C13.8647 10.1675 12.2932 11.739 12.2932 13.6707C12.2932 15.6024 13.8647 17.1739 15.7964 17.1739C17.7281 17.1739 19.2996 15.6023 19.2996 13.6707V0L6.53175 3.23652Z" fill="white"/>
</svg>
