<svg width="20" height="20" viewBox="0 0 20 20" fill="none" xmlns="http://www.w3.org/2000/svg">
<g clip-path="url(#clip0_58_6310)">
<path d="M2.39301 14.4782H4.6175C4.77757 14.4736 4.93429 14.5247 5.0609 14.6228L9.19496 17.6384C9.60086 17.9394 10.0923 18.1029 10.5977 18.105C10.9775 18.1036 11.3517 18.0122 11.6894 17.8382C12.0862 17.6419 12.4195 17.3375 12.651 16.9601C12.8825 16.5827 13.0028 16.1477 12.998 15.705V4.29344C12.998 3.85173 12.8758 3.41863 12.6448 3.04212C12.4138 2.6656 12.0832 2.36036 11.6894 2.1602C11.2956 1.96003 10.8542 1.87276 10.4139 1.90804C9.97357 1.94332 9.55163 2.09977 9.19477 2.36008L5.0607 5.3757C4.93409 5.47375 4.77738 5.52484 4.6173 5.52024H2.39301C1.75855 5.52095 1.15029 5.7733 0.70167 6.22193C0.253047 6.67056 0.000703053 7.27883 0 7.91328V12.0852C0.000692715 12.7196 0.253032 13.3279 0.701656 13.7765C1.15028 14.2252 1.75855 14.4775 2.39301 14.4782ZM6.02777 6.7011L10.1618 3.68547C10.274 3.60361 10.4066 3.55441 10.5451 3.54331C10.6835 3.53221 10.8223 3.55965 10.9461 3.62258C11.0699 3.68552 11.1739 3.78149 11.2465 3.89988C11.3191 4.01826 11.3576 4.15444 11.3576 4.29332V15.705C11.3576 15.8439 11.3192 15.9801 11.2465 16.0984C11.1739 16.2168 11.07 16.3128 10.9462 16.3757C10.8223 16.4387 10.6835 16.4661 10.5451 16.455C10.4067 16.4439 10.274 16.3947 10.1618 16.3129L6.02773 13.2973C5.92623 13.223 5.8193 13.1564 5.70785 13.098V6.90043C5.8193 6.8421 5.92623 6.77551 6.02773 6.70121L6.02777 6.7011ZM1.64062 7.91328C1.64085 7.7138 1.72019 7.52256 1.86124 7.38151C2.00229 7.24045 2.19353 7.1611 2.39301 7.16086H4.06723V12.8376H2.39301C2.19352 12.8374 2.00228 12.758 1.86123 12.617C1.72018 12.4759 1.64084 12.2846 1.64062 12.0852V7.91328ZM19.7597 8.45145L18.2119 9.99922L19.7597 11.547C19.8359 11.6232 19.8963 11.7136 19.9376 11.8132C19.9788 11.9127 20 12.0194 20 12.1271C20 12.2348 19.9788 12.3415 19.9376 12.441C19.8963 12.5406 19.8359 12.631 19.7597 12.7072C19.6835 12.7834 19.5931 12.8438 19.4936 12.885C19.3941 12.9262 19.2874 12.9475 19.1796 12.9475C19.0719 12.9475 18.9652 12.9262 18.8657 12.885C18.7662 12.8438 18.6757 12.7834 18.5996 12.7072L17.0518 11.1594L15.5039 12.7072C15.3501 12.861 15.1414 12.9474 14.9238 12.9474C14.7063 12.9474 14.4976 12.861 14.3438 12.7072C14.1899 12.5533 14.1035 12.3446 14.1035 12.1271C14.1035 11.9095 14.1899 11.7008 14.3438 11.547L15.8917 9.99922L14.3438 8.45141C14.1899 8.29756 14.1035 8.0889 14.1035 7.87133C14.1035 7.65376 14.1899 7.4451 14.3438 7.29125C14.4976 7.1374 14.7063 7.05098 14.9238 7.05098C15.1414 7.05098 15.3501 7.1374 15.5039 7.29125L17.0518 8.83906L18.5996 7.29125C18.7535 7.1374 18.9622 7.05098 19.1797 7.05098C19.3973 7.05098 19.606 7.1374 19.7598 7.29125C19.9137 7.4451 20.0001 7.65376 20.0001 7.87133C20.0001 8.0889 19.9137 8.29756 19.7598 8.45141L19.7597 8.45145Z" fill="white" fill-opacity="0.3"/>
</g>
<defs>
<clipPath id="clip0_58_6310">
<rect width="20" height="20" fill="white"/>
</clipPath>
</defs>
</svg>
