<svg width="20" height="20" viewBox="0 0 20 20" fill="none" xmlns="http://www.w3.org/2000/svg">
<path fill-rule="evenodd" clip-rule="evenodd" d="M11.7647 14.4119C11.7647 12.1378 13.6079 10.2942 15.8824 10.2942C18.1565 10.2942 20 12.1375 20 14.4119C20 16.686 18.1568 18.5295 15.8824 18.5295C13.6082 18.5295 11.7647 16.6863 11.7647 14.4119ZM12.9412 14.4119C12.9412 16.0366 14.2579 17.3531 15.8824 17.3531C17.5071 17.3531 18.8235 16.0363 18.8235 14.4119C18.8235 12.7872 17.5068 11.4707 15.8824 11.4707C14.2576 11.4707 12.9412 12.7875 12.9412 14.4119ZM15.2941 13.8236V13.2354C15.2941 13.0794 15.3561 12.9298 15.4664 12.8195C15.5767 12.7091 15.7263 12.6472 15.8824 12.6472C16.0384 12.6472 16.188 12.7091 16.2983 12.8195C16.4086 12.9298 16.4706 13.0794 16.4706 13.2354V13.8236H17.0588C17.2148 13.8236 17.3645 13.8856 17.4748 13.9959C17.5851 14.1062 17.6471 14.2559 17.6471 14.4119C17.6471 14.5679 17.5851 14.7175 17.4748 14.8278C17.3645 14.9381 17.2148 15.0001 17.0588 15.0001H16.4706V15.5883C16.4706 15.7444 16.4086 15.894 16.2983 16.0043C16.188 16.1146 16.0384 16.1766 15.8824 16.1766C15.7263 16.1766 15.5767 16.1146 15.4664 16.0043C15.3561 15.894 15.2941 15.7444 15.2941 15.5883V15.0001H14.7059C14.5499 15.0001 14.4003 14.9381 14.2899 14.8278C14.1796 14.7175 14.1176 14.5679 14.1176 14.4119C14.1176 14.2559 14.1796 14.1062 14.2899 13.9959C14.4003 13.8856 14.5499 13.8236 14.7059 13.8236H15.2941ZM10.2941 15.5883C10.4501 15.5883 10.5997 15.6503 10.7101 15.7606C10.8204 15.871 10.8824 16.0206 10.8824 16.1766C10.8824 16.3326 10.8204 16.4822 10.7101 16.5925C10.5997 16.7028 10.4501 16.7648 10.2941 16.7648H2.35471C1.055 16.7648 0 15.7107 0 14.4131V3.82188C0 3.19831 0.247713 2.60028 0.688644 2.15935C1.12957 1.71842 1.72761 1.4707 2.35118 1.4707L7.35147 1.4707C7.88765 1.4707 8.47735 1.81159 8.74265 2.276L9.33765 3.31717C9.39294 3.41394 9.59235 3.52953 9.70324 3.52953H15.8803C17.1803 3.52953 18.2353 4.58364 18.2353 5.881V8.82364C18.2353 8.97965 18.1733 9.12927 18.063 9.23959C17.9527 9.3499 17.8031 9.41188 17.6471 9.41188C17.4911 9.41188 17.3414 9.3499 17.2311 9.23959C17.1208 9.12927 17.0588 8.97965 17.0588 8.82364V5.881C17.058 5.569 16.9335 5.27005 16.7126 5.04976C16.4916 4.82947 16.1923 4.70584 15.8803 4.706H9.70324C9.17059 4.706 8.58118 4.36453 8.31618 3.9007L7.72118 2.85953C7.66559 2.76247 7.46618 2.64717 7.35147 2.64717H2.35147C2.19718 2.64714 2.0444 2.67749 1.90184 2.73651C1.75928 2.79553 1.62975 2.88205 1.52064 2.99113C1.41153 3.10022 1.32497 3.22973 1.26592 3.37227C1.20687 3.51481 1.17647 3.66759 1.17647 3.82188V14.4131C1.17717 14.7251 1.30163 15.024 1.52252 15.2444C1.74341 15.4647 2.0427 15.5884 2.35471 15.5883H10.2941Z" fill="currentColor"/>
</svg>
