<svg width="50" height="50" viewBox="0 0 50 50" fill="none" xmlns="http://www.w3.org/2000/svg">
<g clip-path="url(#clip0_21_4293)">
<path d="M20.4392 10.3972C17.7984 8.46176 15.0891 6.07631 13.1607 3.18383L11.4727 0.651798C11.115 0.115373 10.4484 -0.123495 9.829 0.0624428C9.52819 0.15362 9.26468 0.339144 9.07741 0.591603C8.89014 0.844061 8.78904 1.15006 8.78906 1.4644V24.4472C7.92383 23.9426 6.93135 23.6324 5.85938 23.6324C2.62783 23.6324 0 26.2602 0 29.4917C0 32.7233 2.62783 35.351 5.85938 35.351C9.09092 35.351 11.7188 32.7232 11.7188 29.4916V6.27406C13.7887 8.89047 16.3779 11.0524 18.7068 12.7604C19.8512 13.5987 20.5078 14.8919 20.5078 16.308C20.5078 18.7313 18.5365 20.7026 16.1133 20.7026C15.3036 20.7026 14.6484 21.3578 14.6484 22.1674C14.6484 22.9771 15.3036 23.6323 16.1133 23.6323C20.1517 23.6323 23.4375 20.3464 23.4375 16.308C23.4375 13.9834 22.3174 11.7747 20.4392 10.3972ZM48.1332 11.9694L27.4301 17.8288C27.1239 17.9163 26.8546 18.1012 26.6628 18.3554C26.4711 18.6097 26.3673 18.9194 26.3672 19.2378V39.0956C25.502 38.5911 24.5095 38.2808 23.4375 38.2808C20.206 38.2808 17.5781 40.9086 17.5781 44.1402C17.5781 47.3717 20.206 49.9995 23.4375 49.9995C26.669 49.9995 29.2969 47.3717 29.2969 44.1402V26.2027L47.0703 21.1803V33.2363C46.2051 32.7317 45.2126 32.4214 44.1406 32.4214C40.9091 32.4214 38.2812 35.0493 38.2812 38.2808C38.2812 41.5123 40.9091 44.1402 44.1406 44.1402C47.3722 44.1402 50 41.5123 50 38.2808V13.3785C50 12.4096 49.0732 11.7038 48.1332 11.9694Z" fill="url(#paint0_linear_21_4293)"/>
</g>
<defs>
<linearGradient id="paint0_linear_21_4293" x1="25" y1="0" x2="25" y2="49.9995" gradientUnits="userSpaceOnUse">
<stop stop-color="#16222A"/>
<stop offset="1" stop-color="#3A6073"/>
</linearGradient>
<clipPath id="clip0_21_4293">
<rect width="50" height="50" fill="white"/>
</clipPath>
</defs>
</svg>
