<svg xmlns="http://www.w3.org/2000/svg" width="24" height="24" viewBox="0 0 24 24" fill="none">
<path d="M20.8915 2.87255C20.8005 2.79366 20.6937 2.73523 20.5781 2.70122C20.4626 2.66721 20.3411 2.65841 20.2219 2.67542L8.45415 4.35651C8.04002 4.41569 7.73246 4.77035 7.73246 5.18867V15.0437C7.23459 14.7536 6.65661 14.5866 6.04003 14.5866C4.17989 14.5866 2.6665 16.1 2.6665 17.9601C2.6665 19.8203 4.17985 21.3337 6.03999 21.3337C7.90013 21.3337 9.41352 19.8203 9.41352 17.9601V9.27992L19.5002 7.83898V13.3626C19.0023 13.0725 18.4243 12.9055 17.8078 12.9055C15.9476 12.9055 14.4342 14.4189 14.4342 16.279C14.4342 18.1391 15.9476 19.6525 17.8078 19.6525C19.6679 19.6525 21.1813 18.1391 21.1813 16.279V3.50754C21.1813 3.38712 21.1554 3.2681 21.1054 3.15854C21.0554 3.04898 20.9825 2.95145 20.8915 2.87255Z" fill="#000000"/>
</svg>