<svg width="20" height="18" viewBox="0 0 20 18" fill="none" xmlns="http://www.w3.org/2000/svg">
<path d="M19.7772 6.33855C19.5382 6.00171 19.1356 5.80849 18.6724 5.80849H16.9097V3.89147C16.9097 3.15268 16.3086 2.55165 15.5698 2.55165H9.3906C9.12771 2.55165 8.71743 2.34336 8.56238 2.13116L8.09988 1.49855C7.73908 1.00506 7.00601 0.632812 6.39462 0.632812H4.25345C3.58043 0.632812 2.90357 1.11138 2.67913 1.74609L2.53189 2.16267C2.46251 2.35893 2.18999 2.55165 1.98177 2.55165H1.33982C0.601035 2.55165 0 3.15268 0 3.89147V15.9911C0 16.0552 0.01166 16.1164 0.0320832 16.1735C0.0430914 16.413 0.117542 16.6388 0.253189 16.83C0.492184 17.1669 0.894853 17.36 1.358 17.36H15.0086C15.8339 17.36 16.6939 16.75 16.9666 15.971L19.9125 7.55641C20.0655 7.11934 20.0162 6.67546 19.7772 6.33855ZM1.33982 3.63799H1.98177C2.65494 3.63799 3.33173 3.15942 3.55609 2.52471L3.70326 2.10828C3.77271 1.91194 4.04524 1.71922 4.25345 1.71922H6.39455C6.65744 1.71922 7.06772 1.92751 7.22285 2.13971L7.68534 2.77225C8.04615 3.26581 8.77921 3.63799 9.3906 3.63799H15.5698C15.7073 3.63799 15.8233 3.75408 15.8233 3.89147V5.80849H5.02178C4.19653 5.80849 3.33651 6.41858 3.06384 7.19748L1.08634 12.8459V3.89147C1.08634 3.75408 1.20243 3.63799 1.33982 3.63799ZM18.8872 7.19748L15.9412 15.6121C15.82 15.9584 15.3755 16.2737 15.0086 16.2737H1.358C1.25313 16.2737 1.17136 16.2467 1.13928 16.2014C1.1072 16.1562 1.10864 16.07 1.14334 15.971L4.08927 7.55641C4.2105 7.21016 4.65503 6.89483 5.02185 6.89483H18.6725C18.7774 6.89483 18.8591 6.92184 18.8913 6.96711C18.9233 7.01237 18.9218 7.09848 18.8872 7.19748Z" fill="currentColor"/>
</svg>
