<svg width="20" height="20" viewBox="0 0 20 20" fill="none" xmlns="http://www.w3.org/2000/svg">
<path d="M19.7772 7.33855C19.5382 7.00171 19.1356 6.80849 18.6724 6.80849H16.9097V4.89147C16.9097 4.15268 16.3086 3.55165 15.5698 3.55165H9.3906C9.12771 3.55165 8.71743 3.34336 8.56238 3.13116L8.09988 2.49855C7.73908 2.00506 7.00601 1.63281 6.39462 1.63281H4.25345C3.58043 1.63281 2.90357 2.11138 2.67913 2.74609L2.53189 3.16267C2.46251 3.35893 2.18999 3.55165 1.98177 3.55165H1.33982C0.601035 3.55165 0 4.15268 0 4.89147V16.9911C0 17.0552 0.01166 17.1164 0.0320832 17.1735C0.0430914 17.413 0.117542 17.6388 0.253189 17.83C0.492184 18.1669 0.894853 18.36 1.358 18.36H15.0086C15.8339 18.36 16.6939 17.75 16.9666 16.971L19.9125 8.55641C20.0655 8.11934 20.0162 7.67546 19.7772 7.33855ZM1.33982 4.63799H1.98177C2.65494 4.63799 3.33173 4.15942 3.55609 3.52471L3.70326 3.10828C3.77271 2.91194 4.04524 2.71922 4.25345 2.71922H6.39455C6.65744 2.71922 7.06772 2.92751 7.22285 3.13971L7.68534 3.77225C8.04615 4.26581 8.77921 4.63799 9.3906 4.63799H15.5698C15.7073 4.63799 15.8233 4.75408 15.8233 4.89147V6.80849H5.02178C4.19653 6.80849 3.33651 7.41858 3.06384 8.19748L1.08634 13.8459V4.89147C1.08634 4.75408 1.20243 4.63799 1.33982 4.63799ZM18.8872 8.19748L15.9412 16.6121C15.82 16.9584 15.3755 17.2737 15.0086 17.2737H1.358C1.25313 17.2737 1.17136 17.2467 1.13928 17.2014C1.1072 17.1562 1.10864 17.07 1.14334 16.971L4.08927 8.55641C4.2105 8.21016 4.65503 7.89483 5.02185 7.89483H18.6725C18.7774 7.89483 18.8591 7.92184 18.8913 7.96711C18.9233 8.01237 18.9218 8.09848 18.8872 8.19748Z" fill="white"/>
</svg>
