<svg width="30" height="30" viewBox="0 0 30 30" fill="none" xmlns="http://www.w3.org/2000/svg">
<g clip-path="url(#clip0_191_2173)">
<path d="M1.875 9.375C1.62636 9.375 1.3879 9.47377 1.21209 9.64959C1.03627 9.8254 0.9375 10.0639 0.9375 10.3125V19.6875C0.9375 19.9361 1.03627 20.1746 1.21209 20.3504C1.3879 20.5262 1.62636 20.625 1.875 20.625C2.12364 20.625 2.3621 20.5262 2.53791 20.3504C2.71373 20.1746 2.8125 19.9361 2.8125 19.6875V10.3125C2.8125 10.0639 2.71373 9.8254 2.53791 9.64959C2.3621 9.47377 2.12364 9.375 1.875 9.375ZM5.625 4.6875C5.37636 4.6875 5.1379 4.78627 4.96209 4.96209C4.78627 5.1379 4.6875 5.37636 4.6875 5.625V24.375C4.6875 24.6236 4.78627 24.8621 4.96209 25.0379C5.1379 25.2137 5.37636 25.3125 5.625 25.3125C5.87364 25.3125 6.1121 25.2137 6.28791 25.0379C6.46373 24.8621 6.5625 24.6236 6.5625 24.375V5.625C6.5625 5.37636 6.46373 5.1379 6.28791 4.96209C6.1121 4.78627 5.87364 4.6875 5.625 4.6875ZM16.875 9.375C16.6264 9.375 16.3879 9.47377 16.2121 9.64959C16.0363 9.8254 15.9375 10.0639 15.9375 10.3125V19.6875C15.9375 19.9361 16.0363 20.1746 16.2121 20.3504C16.3879 20.5262 16.6264 20.625 16.875 20.625C17.1236 20.625 17.3621 20.5262 17.5379 20.3504C17.7137 20.1746 17.8125 19.9361 17.8125 19.6875V10.3125C17.8125 10.0639 17.7137 9.8254 17.5379 9.64959C17.3621 9.47377 17.1236 9.375 16.875 9.375ZM13.125 4.6875C12.8764 4.6875 12.6379 4.78627 12.4621 4.96209C12.2863 5.1379 12.1875 5.37636 12.1875 5.625V24.375C12.1875 24.6236 12.2863 24.8621 12.4621 25.0379C12.6379 25.2137 12.8764 25.3125 13.125 25.3125C13.3736 25.3125 13.6121 25.2137 13.7879 25.0379C13.9637 24.8621 14.0625 24.6236 14.0625 24.375V5.625C14.0625 5.37636 13.9637 5.1379 13.7879 4.96209C13.6121 4.78627 13.3736 4.6875 13.125 4.6875ZM9.375 0.9375C9.12636 0.9375 8.8879 1.03627 8.71209 1.21209C8.53627 1.3879 8.4375 1.62636 8.4375 1.875V28.125C8.4375 28.3736 8.53627 28.6121 8.71209 28.7879C8.8879 28.9637 9.12636 29.0625 9.375 29.0625C9.62364 29.0625 9.8621 28.9637 10.0379 28.7879C10.2137 28.6121 10.3125 28.3736 10.3125 28.125V1.875C10.3125 1.62636 10.2137 1.3879 10.0379 1.21209C9.8621 1.03627 9.62364 0.9375 9.375 0.9375ZM28.125 9.375C27.8764 9.375 27.6379 9.47377 27.4621 9.64959C27.2863 9.8254 27.1875 10.0639 27.1875 10.3125V19.6875C27.1875 19.9361 27.2863 20.1746 27.4621 20.3504C27.6379 20.5262 27.8764 20.625 28.125 20.625C28.3736 20.625 28.6121 20.5262 28.7879 20.3504C28.9637 20.1746 29.0625 19.9361 29.0625 19.6875V10.3125C29.0625 10.0639 28.9637 9.8254 28.7879 9.64959C28.6121 9.47377 28.3736 9.375 28.125 9.375ZM24.375 4.6875C24.1264 4.6875 23.8879 4.78627 23.7121 4.96209C23.5363 5.1379 23.4375 5.37636 23.4375 5.625V24.375C23.4375 24.6236 23.5363 24.8621 23.7121 25.0379C23.8879 25.2137 24.1264 25.3125 24.375 25.3125C24.6236 25.3125 24.8621 25.2137 25.0379 25.0379C25.2137 24.8621 25.3125 24.6236 25.3125 24.375V5.625C25.3125 5.37636 25.2137 5.1379 25.0379 4.96209C24.8621 4.78627 24.6236 4.6875 24.375 4.6875ZM20.625 0.9375C20.3764 0.9375 20.1379 1.03627 19.9621 1.21209C19.7863 1.3879 19.6875 1.62636 19.6875 1.875V28.125C19.6875 28.3736 19.7863 28.6121 19.9621 28.7879C20.1379 28.9637 20.3764 29.0625 20.625 29.0625C20.8736 29.0625 21.1121 28.9637 21.2879 28.7879C21.4637 28.6121 21.5625 28.3736 21.5625 28.125V1.875C21.5625 1.62636 21.4637 1.3879 21.2879 1.21209C21.1121 1.03627 20.8736 0.9375 20.625 0.9375Z" fill="white"/>
</g>
<defs>
<clipPath id="clip0_191_2173">
<rect width="30" height="30" fill="white"/>
</clipPath>
</defs>
</svg>
