<svg width="30" height="30" viewBox="0 0 30 30" fill="none" xmlns="http://www.w3.org/2000/svg">
<path d="M9.7986 4.85478V20.824C8.86936 19.9951 7.64487 19.4904 6.30454 19.4904C3.40709 19.4904 1.0498 21.8477 1.0498 24.7452C1.0498 27.6427 3.40709 30 6.30454 30C9.19842 30 11.5532 27.6486 11.5592 24.7562H11.5593V11.9223L27.1896 7.96018V16.5849C26.2604 15.7559 25.0359 15.2513 23.6956 15.2513C20.7981 15.2513 18.4408 17.6086 18.4408 20.506C18.4408 23.4035 20.7981 25.7608 23.6956 25.7608C26.5931 25.7608 28.9503 23.4035 28.9503 20.506V0L9.7986 4.85478ZM6.3046 28.2392C4.37804 28.2392 2.8106 26.6718 2.8106 24.7451C2.8106 22.8185 4.37798 21.2511 6.3046 21.2511C8.23122 21.2511 9.79865 22.8185 9.79865 24.7451C9.7986 26.6718 8.23122 28.2392 6.3046 28.2392ZM11.5593 10.106V6.22487L27.1896 2.26277V6.14384L11.5593 10.106ZM23.6956 24.0001C21.769 24.0001 20.2015 22.4326 20.2015 20.506C20.2015 18.5795 21.7689 17.012 23.6956 17.012C25.6222 17.012 27.1896 18.5794 27.1896 20.506C27.1896 22.4327 25.6222 24.0001 23.6956 24.0001Z" fill="white"/>
</svg>
