<svg width="30" height="30" viewBox="0 0 30 30" fill="none" xmlns="http://www.w3.org/2000/svg">
<path d="M14.6875 19.5974C15.3509 19.673 16.0228 19.6086 16.6598 19.4082C17.2967 19.2078 17.8845 18.876 18.3852 18.4342C18.8858 17.9924 19.2882 17.4504 19.5663 16.8433C19.8443 16.2363 19.9919 15.5776 19.9994 14.9099V6.56617C19.9009 0.301797 10.0994 0.299922 10 6.56617V14.9099C10.0015 16.1527 10.4958 17.3441 11.3746 18.2228C12.2533 19.1016 13.4448 19.5959 14.6875 19.5974ZM11.875 6.56617C11.8842 6.14427 11.9847 5.72937 12.1696 5.35001C12.3544 4.97065 12.6193 4.63583 12.9458 4.36857C13.2724 4.10131 13.653 3.90796 14.0615 3.80181C14.4699 3.69567 14.8965 3.67924 15.3119 3.75367C16.0576 3.75442 16.7725 4.05097 17.2998 4.57826C17.8271 5.10554 18.1236 5.82048 18.1244 6.56617V14.9099C18.1236 15.6556 17.8271 16.3706 17.2998 16.8978C16.7725 17.4251 16.0576 17.7217 15.3119 17.7224C14.8965 17.7969 14.4699 17.7804 14.0615 17.6743C13.653 17.5681 13.2724 17.3748 12.9458 17.1075C12.6193 16.8403 12.3544 16.5054 12.1696 16.1261C11.9847 15.7467 11.8842 15.3318 11.875 14.9099V6.56617Z" fill="white"/>
<path d="M24.6851 13.875C24.6851 13.6264 24.5863 13.3879 24.4105 13.2121C24.2347 13.0363 23.9962 12.9375 23.7476 12.9375C23.4989 12.9375 23.2605 13.0363 23.0847 13.2121C22.9089 13.3879 22.8101 13.6264 22.8101 13.875C22.8101 15.9464 21.9872 17.933 20.5225 19.3977C19.0578 20.8624 17.0712 21.6853 14.9998 21.6853C12.9283 21.6853 10.9418 20.8624 9.47704 19.3977C8.01232 17.933 7.18945 15.9464 7.18945 13.875C7.18945 13.6264 7.09068 13.3879 6.91487 13.2121C6.73905 13.0363 6.50059 12.9375 6.25195 12.9375C6.00331 12.9375 5.76486 13.0363 5.58904 13.2121C5.41322 13.3879 5.31445 13.6264 5.31445 13.875C5.31777 16.2802 6.2148 18.5984 7.83135 20.3793C9.4479 22.1603 11.6686 23.277 14.0623 23.5125V26.2566H10.9376C10.6889 26.2566 10.4505 26.3553 10.2747 26.5311C10.0989 26.707 10.0001 26.9454 10.0001 27.1941C10.0001 27.4427 10.0989 27.6812 10.2747 27.857C10.4505 28.0328 10.6889 28.1316 10.9376 28.1316H19.062C19.3106 28.1316 19.5491 28.0328 19.7249 27.857C19.9007 27.6812 19.9995 27.4427 19.9995 27.1941C19.9995 26.9454 19.9007 26.707 19.7249 26.5311C19.5491 26.3553 19.3106 26.2566 19.062 26.2566H15.9373V23.5125C18.3309 23.277 20.5516 22.1603 22.1682 20.3793C23.7847 18.5984 24.6818 16.2802 24.6851 13.875Z" fill="white"/>
</svg>
