<svg width="18" height="18" viewBox="0 0 18 18" fill="none" xmlns="http://www.w3.org/2000/svg">
<path d="M12.125 1.5V2.125C12.125 2.29076 12.1908 2.44973 12.3081 2.56694C12.4253 2.68415 12.5842 2.75 12.75 2.75C12.9158 2.75 13.0747 2.68415 13.1919 2.56694C13.3092 2.44973 13.375 2.29076 13.375 2.125V0.875C13.375 0.70924 13.3092 0.550268 13.1919 0.433058C13.0747 0.315848 12.9158 0.25 12.75 0.25H12.125C11.9592 0.25 11.8003 0.315848 11.6831 0.433058C11.5658 0.550268 11.5 0.70924 11.5 0.875C11.5 1.04076 11.5658 1.19973 11.6831 1.31694C11.8003 1.43415 11.9592 1.5 12.125 1.5ZM5.875 1.5C6.04076 1.5 6.19973 1.43415 6.31694 1.31694C6.43415 1.19973 6.5 1.04076 6.5 0.875C6.5 0.70924 6.43415 0.550268 6.31694 0.433058C6.19973 0.315848 6.04076 0.25 5.875 0.25H4.625C4.45924 0.25 4.30027 0.315848 4.18306 0.433058C4.06585 0.550268 4 0.70924 4 0.875C4 1.04076 4.06585 1.19973 4.18306 1.31694C4.30027 1.43415 4.45924 1.5 4.625 1.5H5.875ZM8.375 1.5H9.625C9.79076 1.5 9.94973 1.43415 10.0669 1.31694C10.1842 1.19973 10.25 1.04076 10.25 0.875C10.25 0.70924 10.1842 0.550268 10.0669 0.433058C9.94973 0.315848 9.79076 0.25 9.625 0.25H8.375C8.20924 0.25 8.05027 0.315848 7.93306 0.433058C7.81585 0.550268 7.75 0.70924 7.75 0.875C7.75 1.04076 7.81585 1.19973 7.93306 1.31694C8.05027 1.43415 8.20924 1.5 8.375 1.5ZM1.5 2.75C1.66576 2.75 1.82473 2.68415 1.94194 2.56694C2.05915 2.44973 2.125 2.29076 2.125 2.125V1.5C2.29076 1.5 2.44973 1.43415 2.56694 1.31694C2.68415 1.19973 2.75 1.04076 2.75 0.875C2.75 0.70924 2.68415 0.550268 2.56694 0.433058C2.44973 0.315848 2.29076 0.25 2.125 0.25H1.5C1.33424 0.25 1.17527 0.315848 1.05806 0.433058C0.940848 0.550268 0.875 0.70924 0.875 0.875V2.125C0.875 2.29076 0.940848 2.44973 1.05806 2.56694C1.17527 2.68415 1.33424 2.75 1.5 2.75ZM1.5 6.5C1.66576 6.5 1.82473 6.43415 1.94194 6.31694C2.05915 6.19973 2.125 6.04076 2.125 5.875V4.625C2.125 4.45924 2.05915 4.30027 1.94194 4.18306C1.82473 4.06585 1.66576 4 1.5 4C1.33424 4 1.17527 4.06585 1.05806 4.18306C0.940848 4.30027 0.875 4.45924 0.875 4.625V5.875C0.875 6.04076 0.940848 6.19973 1.05806 6.31694C1.17527 6.43415 1.33424 6.5 1.5 6.5ZM1.5 10.25C1.66576 10.25 1.82473 10.1842 1.94194 10.0669C2.05915 9.94973 2.125 9.79076 2.125 9.625V8.375C2.125 8.20924 2.05915 8.05027 1.94194 7.93306C1.82473 7.81585 1.66576 7.75 1.5 7.75C1.33424 7.75 1.17527 7.81585 1.05806 7.93306C0.940848 8.05027 0.875 8.20924 0.875 8.375V9.625C0.875 9.79076 0.940848 9.94973 1.05806 10.0669C1.17527 10.1842 1.33424 10.25 1.5 10.25ZM2.75 12.75H2.125V12.125C2.125 11.9592 2.05915 11.8003 1.94194 11.6831C1.82473 11.5658 1.66576 11.5 1.5 11.5C1.33424 11.5 1.17527 11.5658 1.05806 11.6831C0.940848 11.8003 0.875 11.9592 0.875 12.125V13.375C0.875 13.5408 0.940848 13.6997 1.05806 13.8169C1.17527 13.9342 1.33424 14 1.5 14H2.75C2.91576 14 3.07473 13.9342 3.19194 13.8169C3.30915 13.6997 3.375 13.5408 3.375 13.375C3.375 13.2092 3.30915 13.0503 3.19194 12.9331C3.07473 12.8158 2.91576 12.75 2.75 12.75ZM16.9419 7.93313L13.1919 4.18313C13.1387 4.11889 13.0707 4.06862 12.9937 4.0367C12.9167 4.00478 12.833 3.99218 12.75 4H5.25C5.08424 4 4.92527 4.06585 4.80806 4.18306C4.69085 4.30027 4.625 4.45924 4.625 4.625V17.125C4.625 17.2908 4.69085 17.4497 4.80806 17.5669C4.92527 17.6842 5.08424 17.75 5.25 17.75H16.5C16.6658 17.75 16.8247 17.6842 16.9419 17.5669C17.0592 17.4497 17.125 17.2908 17.125 17.125V8.375C17.1259 8.2928 17.1101 8.21128 17.0786 8.13534C17.0471 8.05941 17.0006 7.99062 16.9419 7.93313ZM13.375 6.13375L14.9913 7.75H13.375V6.13375ZM5.875 16.5V5.25H12.125V8.375C12.125 8.54076 12.1908 8.69973 12.3081 8.81694C12.4253 8.93415 12.5842 9 12.75 9H15.875V16.5H5.875Z" fill="white"/>
</svg>
