<svg width="20" height="20" viewBox="0 0 20 20" fill="none" xmlns="http://www.w3.org/2000/svg">
<path d="M13.125 2.5V3.125C13.125 3.29076 13.1908 3.44973 13.3081 3.56694C13.4253 3.68415 13.5842 3.75 13.75 3.75C13.9158 3.75 14.0747 3.68415 14.1919 3.56694C14.3092 3.44973 14.375 3.29076 14.375 3.125V1.875C14.375 1.70924 14.3092 1.55027 14.1919 1.43306C14.0747 1.31585 13.9158 1.25 13.75 1.25H13.125C12.9592 1.25 12.8003 1.31585 12.6831 1.43306C12.5658 1.55027 12.5 1.70924 12.5 1.875C12.5 2.04076 12.5658 2.19973 12.6831 2.31694C12.8003 2.43415 12.9592 2.5 13.125 2.5ZM6.875 2.5C7.04076 2.5 7.19973 2.43415 7.31694 2.31694C7.43415 2.19973 7.5 2.04076 7.5 1.875C7.5 1.70924 7.43415 1.55027 7.31694 1.43306C7.19973 1.31585 7.04076 1.25 6.875 1.25H5.625C5.45924 1.25 5.30027 1.31585 5.18306 1.43306C5.06585 1.55027 5 1.70924 5 1.875C5 2.04076 5.06585 2.19973 5.18306 2.31694C5.30027 2.43415 5.45924 2.5 5.625 2.5H6.875ZM9.375 2.5H10.625C10.7908 2.5 10.9497 2.43415 11.0669 2.31694C11.1842 2.19973 11.25 2.04076 11.25 1.875C11.25 1.70924 11.1842 1.55027 11.0669 1.43306C10.9497 1.31585 10.7908 1.25 10.625 1.25H9.375C9.20924 1.25 9.05027 1.31585 8.93306 1.43306C8.81585 1.55027 8.75 1.70924 8.75 1.875C8.75 2.04076 8.81585 2.19973 8.93306 2.31694C9.05027 2.43415 9.20924 2.5 9.375 2.5ZM2.5 3.75C2.66576 3.75 2.82473 3.68415 2.94194 3.56694C3.05915 3.44973 3.125 3.29076 3.125 3.125V2.5C3.29076 2.5 3.44973 2.43415 3.56694 2.31694C3.68415 2.19973 3.75 2.04076 3.75 1.875C3.75 1.70924 3.68415 1.55027 3.56694 1.43306C3.44973 1.31585 3.29076 1.25 3.125 1.25H2.5C2.33424 1.25 2.17527 1.31585 2.05806 1.43306C1.94085 1.55027 1.875 1.70924 1.875 1.875V3.125C1.875 3.29076 1.94085 3.44973 2.05806 3.56694C2.17527 3.68415 2.33424 3.75 2.5 3.75ZM2.5 7.5C2.66576 7.5 2.82473 7.43415 2.94194 7.31694C3.05915 7.19973 3.125 7.04076 3.125 6.875V5.625C3.125 5.45924 3.05915 5.30027 2.94194 5.18306C2.82473 5.06585 2.66576 5 2.5 5C2.33424 5 2.17527 5.06585 2.05806 5.18306C1.94085 5.30027 1.875 5.45924 1.875 5.625V6.875C1.875 7.04076 1.94085 7.19973 2.05806 7.31694C2.17527 7.43415 2.33424 7.5 2.5 7.5ZM2.5 11.25C2.66576 11.25 2.82473 11.1842 2.94194 11.0669C3.05915 10.9497 3.125 10.7908 3.125 10.625V9.375C3.125 9.20924 3.05915 9.05027 2.94194 8.93306C2.82473 8.81585 2.66576 8.75 2.5 8.75C2.33424 8.75 2.17527 8.81585 2.05806 8.93306C1.94085 9.05027 1.875 9.20924 1.875 9.375V10.625C1.875 10.7908 1.94085 10.9497 2.05806 11.0669C2.17527 11.1842 2.33424 11.25 2.5 11.25ZM3.75 13.75H3.125V13.125C3.125 12.9592 3.05915 12.8003 2.94194 12.6831C2.82473 12.5658 2.66576 12.5 2.5 12.5C2.33424 12.5 2.17527 12.5658 2.05806 12.6831C1.94085 12.8003 1.875 12.9592 1.875 13.125V14.375C1.875 14.5408 1.94085 14.6997 2.05806 14.8169C2.17527 14.9342 2.33424 15 2.5 15H3.75C3.91576 15 4.07473 14.9342 4.19194 14.8169C4.30915 14.6997 4.375 14.5408 4.375 14.375C4.375 14.2092 4.30915 14.0503 4.19194 13.9331C4.07473 13.8158 3.91576 13.75 3.75 13.75ZM17.9419 8.93313L14.1919 5.18313C14.1387 5.11889 14.0707 5.06862 13.9937 5.0367C13.9167 5.00478 13.833 4.99218 13.75 5H6.25C6.08424 5 5.92527 5.06585 5.80806 5.18306C5.69085 5.30027 5.625 5.45924 5.625 5.625V18.125C5.625 18.2908 5.69085 18.4497 5.80806 18.5669C5.92527 18.6842 6.08424 18.75 6.25 18.75H17.5C17.6658 18.75 17.8247 18.6842 17.9419 18.5669C18.0592 18.4497 18.125 18.2908 18.125 18.125V9.375C18.1259 9.2928 18.1101 9.21128 18.0786 9.13534C18.0471 9.05941 18.0006 8.99062 17.9419 8.93313ZM14.375 7.13375L15.9913 8.75H14.375V7.13375ZM6.875 17.5V6.25H13.125V9.375C13.125 9.54076 13.1908 9.69973 13.3081 9.81694C13.4253 9.93415 13.5842 10 13.75 10H16.875V17.5H6.875Z" fill="white"/>
</svg>
