<svg width="6" height="8" viewBox="0 0 6 8" fill="none" xmlns="http://www.w3.org/2000/svg">
<path d="M2.27 6.89C2.27 7.18 2.18 7.46 2.02 7.67C1.87 7.88 1.66 8 1.43 8C1.21 8 1 7.88 0.84 7.67C0.68 7.46 0.6 7.18 0.6 6.89V1.11C0.6 0.82 0.68 0.54 0.84 0.33C1 0.12 1.21 0 1.43 0C1.66 0 1.87 0.12 2.02 0.33C2.18 0.54 2.27 0.82 2.27 1.11V6.89ZM5.4 6.89C5.4 7.18 5.32 7.46 5.16 7.67C5 7.88 4.79 8 4.56 8C4.34 8 4.13 7.88 3.97 7.67C3.81 7.46 3.73 7.18 3.73 6.89V1.11C3.73 0.82 3.81 0.54 3.97 0.33C4.13 0.12 4.34 0 4.56 0C4.79 0 5 0.12 5.16 0.33C5.32 0.54 5.4 0.82 5.4 1.11V6.89Z" fill="black"/>
</svg>
