<svg width="12" height="13" viewBox="0 0 24 24" fill="none" xmlns="http://www.w3.org/2000/svg">
<path d="M9.07156 20.6571C9.07156 21.5437 8.71955 22.394 8.09297 23.0209C7.4664 23.6478 6.61657 24 5.73046 24C4.84434 24 3.99452 23.6478 3.36794 23.0209C2.74137 22.394 2.38936 21.5437 2.38936 20.6571V3.34287C2.38936 2.45629 2.74137 1.60601 3.36794 0.979104C3.99452 0.352194 4.84434 4.98126e-08 5.73046 4.98126e-08C6.61657 4.98126e-08 7.4664 0.352194 8.09297 0.979104C8.71955 1.60601 9.07156 2.45629 9.07156 3.34287V20.6571ZM21.6106 20.6571C21.6106 21.5437 21.2586 22.394 20.6321 23.0209C20.0055 23.6478 19.1557 24 18.2695 24C17.3834 24 16.5336 23.6478 15.907 23.0209C15.2804 22.394 14.9284 21.5437 14.9284 20.6571V3.34287C14.9284 2.45629 15.2804 1.60601 15.907 0.979104C16.5336 0.352194 17.3834 0 18.2695 0C19.1557 0 20.0055 0.352194 20.6321 0.979104C21.2586 1.60601 21.6106 2.45629 21.6106 3.34287V20.6571Z" fill="currentColor"/>
</svg>
