<svg width="20" height="20" viewBox="0 0 20 20" fill="" xmlns="http://www.w3.org/2000/svg">
<path d="M16.2929 7.18732L17.093 6.38715C17.2236 6.2566 17.3272 6.10161 17.3979 5.93101C17.4686 5.76042 17.505 5.57757 17.505 5.39292C17.505 5.20826 17.4686 5.02541 17.3979 4.85482C17.3272 4.68422 17.2236 4.52923 17.093 4.39868L15.6066 2.91178C15.3428 2.64811 14.9851 2.5 14.6121 2.5C14.2392 2.5 13.8815 2.64811 13.6177 2.91178L12.8175 3.71195L16.2929 7.18732ZM12.1547 4.37477L3.11092 13.4185C3.03924 13.49 2.99269 13.5827 2.97826 13.6829L2.50482 16.9642C2.4952 17.0308 2.50002 17.0986 2.51893 17.1631C2.53784 17.2276 2.57041 17.2873 2.61443 17.3381C2.65845 17.389 2.71288 17.4297 2.77404 17.4576C2.8352 17.4856 2.90165 17.5 2.96889 17.5C2.99085 17.5 3.01278 17.4984 3.03451 17.4953L6.32098 17.0266C6.42142 17.0122 6.51451 16.9656 6.58629 16.8939L15.63 7.85014L12.1547 4.37477Z" fill=""/>
</svg>
