<svg width="120" height="136" viewBox="0 0 120 136" fill="none" xmlns="http://www.w3.org/2000/svg">
<path d="M0 0H120V134C120 135.105 119.105 136 118 136H2C0.895429 136 0 135.105 0 134V0Z" fill="#1F1F1F"/>
<circle cx="90" cy="43" r="15" fill="#141414"/>
<circle cx="90" cy="43" r="14" stroke="white" stroke-opacity="0.3" stroke-width="2"/>
<line x1="91" y1="28" x2="91" y2="38" stroke="white" stroke-opacity="0.3" stroke-width="2"/>
<path d="M79.125 72H76.8807V64.7273H79.2244C79.9299 64.7273 80.5336 64.8729 81.0355 65.1641C81.5374 65.4529 81.9221 65.8684 82.1896 66.4105C82.4571 66.9503 82.5909 67.5966 82.5909 68.3494C82.5909 69.107 82.456 69.7592 82.1861 70.3061C81.9162 70.8506 81.5232 71.2696 81.0071 71.5632C80.491 71.8544 79.8636 72 79.125 72ZM77.7614 71.2188H79.0682C79.6695 71.2188 80.1679 71.1027 80.5632 70.8707C80.9586 70.6387 81.2533 70.3085 81.4474 69.88C81.6416 69.4515 81.7386 68.9413 81.7386 68.3494C81.7386 67.7623 81.6428 67.2569 81.451 66.8331C81.2592 66.407 80.9728 66.0803 80.5916 65.853C80.2105 65.6233 79.7358 65.5085 79.1676 65.5085H77.7614V71.2188ZM86.2415 72.1136C85.7159 72.1136 85.2625 71.9976 84.8814 71.7656C84.5026 71.5312 84.2102 71.2045 84.0043 70.7855C83.8007 70.3641 83.6989 69.8741 83.6989 69.3153C83.6989 68.7566 83.8007 68.2642 84.0043 67.8381C84.2102 67.4096 84.4967 67.0758 84.8636 66.8366C85.233 66.5952 85.6638 66.4744 86.1562 66.4744C86.4403 66.4744 86.7209 66.5218 86.9979 66.6165C87.2749 66.7112 87.527 66.8651 87.7543 67.0781C87.9815 67.2888 88.1626 67.5682 88.2976 67.9162C88.4325 68.2642 88.5 68.6927 88.5 69.2017V69.5568H84.2955V68.8324H87.6477C87.6477 68.5246 87.5862 68.25 87.4631 68.0085C87.3423 67.767 87.1695 67.5765 86.9446 67.4368C86.7221 67.2971 86.4593 67.2273 86.1562 67.2273C85.8224 67.2273 85.5336 67.3101 85.2898 67.4759C85.0483 67.6392 84.8625 67.8523 84.7322 68.1151C84.602 68.3778 84.5369 68.6596 84.5369 68.9602V69.4432C84.5369 69.8551 84.608 70.2043 84.75 70.4908C84.8944 70.7749 85.0945 70.9915 85.3501 71.1406C85.6058 71.2874 85.9029 71.3608 86.2415 71.3608C86.4616 71.3608 86.6605 71.33 86.8381 71.2685C87.018 71.2045 87.1731 71.1098 87.3033 70.9844C87.4335 70.8565 87.5341 70.6979 87.6051 70.5085L88.4148 70.7358C88.3295 71.0104 88.1863 71.2519 87.9851 71.4602C87.7839 71.6662 87.5353 71.8272 87.2393 71.9432C86.9434 72.0568 86.6108 72.1136 86.2415 72.1136ZM89.7749 74.0455V66.5455H90.5845V67.4119H90.6839C90.7455 67.3172 90.8307 67.1965 90.9396 67.0497C91.0509 66.9006 91.2095 66.768 91.4155 66.652C91.6238 66.5336 91.9055 66.4744 92.2607 66.4744C92.7199 66.4744 93.1248 66.5893 93.4751 66.8189C93.8255 67.0485 94.099 67.3741 94.2955 67.7955C94.492 68.2169 94.5902 68.714 94.5902 69.2869C94.5902 69.8646 94.492 70.3653 94.2955 70.7891C94.099 71.2105 93.8267 71.5372 93.4787 71.7692C93.1307 71.9988 92.7294 72.1136 92.2749 72.1136C91.9245 72.1136 91.6439 72.0556 91.4332 71.9396C91.2225 71.8213 91.0604 71.6875 90.9467 71.5384C90.8331 71.3868 90.7455 71.2614 90.6839 71.1619H90.6129V74.0455H89.7749ZM90.5987 69.2727C90.5987 69.6847 90.6591 70.0481 90.7798 70.3629C90.9006 70.6754 91.0769 70.9205 91.3089 71.098C91.541 71.2732 91.825 71.3608 92.1612 71.3608C92.5116 71.3608 92.804 71.2685 93.0384 71.0838C93.2751 70.8968 93.4527 70.6458 93.571 70.331C93.6918 70.0137 93.7521 69.661 93.7521 69.2727C93.7521 68.8892 93.6929 68.5436 93.5746 68.2358C93.4586 67.9257 93.2822 67.6806 93.0455 67.5007C92.8111 67.3184 92.5163 67.2273 92.1612 67.2273C91.8203 67.2273 91.5339 67.3137 91.3018 67.4865C91.0698 67.657 90.8946 67.8961 90.7763 68.2038C90.6579 68.5092 90.5987 68.8655 90.5987 69.2727ZM98.2408 66.5455V67.2557H95.4141V66.5455H98.2408ZM96.2379 65.2386H97.076V70.4375C97.076 70.6742 97.1103 70.8518 97.179 70.9702C97.25 71.0862 97.34 71.1643 97.4489 71.2045C97.5601 71.2424 97.6773 71.2614 97.8004 71.2614C97.8928 71.2614 97.9685 71.2566 98.0277 71.2472C98.0869 71.2353 98.1342 71.2259 98.1697 71.2188L98.3402 71.9716C98.2834 71.9929 98.2041 72.0142 98.1023 72.0355C98.0005 72.0592 97.8714 72.071 97.7152 72.071C97.4785 72.071 97.2464 72.0201 97.0192 71.9183C96.7943 71.8165 96.6072 71.6615 96.4581 71.4531C96.3113 71.2448 96.2379 70.982 96.2379 70.6648V65.2386ZM100.457 68.7188V72H99.6186V64.7273H100.457V67.3977H100.528C100.656 67.116 100.847 66.8923 101.103 66.7266C101.361 66.5585 101.704 66.4744 102.133 66.4744C102.504 66.4744 102.83 66.549 103.109 66.6982C103.389 66.8449 103.605 67.071 103.759 67.3764C103.915 67.6795 103.994 68.0653 103.994 68.5341V72H103.156V68.5909C103.156 68.1577 103.043 67.8227 102.818 67.5859C102.596 67.3468 102.287 67.2273 101.891 67.2273C101.617 67.2273 101.371 67.2853 101.153 67.4013C100.937 67.5173 100.767 67.6866 100.641 67.9091C100.518 68.1316 100.457 68.4015 100.457 68.7188Z" fill="white"/>
<circle cx="101" cy="102" r="8" fill="#141414"/>
<circle cx="101" cy="102" r="7.5" stroke="white" stroke-opacity="0.3"/>
<line x1="101.5" y1="94" x2="101.5" y2="99" stroke="white" stroke-opacity="0.3"/>
<path d="M93.8807 116.727H94.9318L97.4034 122.764H97.4886L99.9602 116.727H101.011V124H100.188V118.474H100.116L97.8438 124H97.0483L94.7756 118.474H94.7045V124H93.8807V116.727ZM102.664 124V118.545H103.502V124H102.664ZM103.09 117.636C102.926 117.636 102.785 117.581 102.667 117.469C102.551 117.358 102.493 117.224 102.493 117.068C102.493 116.912 102.551 116.778 102.667 116.667C102.785 116.556 102.926 116.5 103.09 116.5C103.253 116.5 103.393 116.556 103.509 116.667C103.627 116.778 103.686 116.912 103.686 117.068C103.686 117.224 103.627 117.358 103.509 117.469C103.393 117.581 103.253 117.636 103.09 117.636ZM105.662 118.545L106.968 120.776L108.275 118.545H109.241L107.48 121.273L109.241 124H108.275L106.968 121.884L105.662 124H104.696L106.429 121.273L104.696 118.545H105.662Z" fill="white"/>
<circle cx="30" cy="33" r="15" fill="#141414"/>
<circle cx="30" cy="33" r="14" stroke="white" stroke-opacity="0.3" stroke-width="2"/>
<line x1="31" y1="18" x2="31" y2="28" stroke="white" stroke-opacity="0.3" stroke-width="2"/>
<path d="M19.8807 62V54.7273H22.3381C22.9063 54.7273 23.3726 54.8243 23.7372 55.0185C24.1018 55.2102 24.3717 55.4742 24.5469 55.8104C24.7221 56.1465 24.8097 56.5289 24.8097 56.9574C24.8097 57.3859 24.7221 57.7659 24.5469 58.0973C24.3717 58.4287 24.103 58.6892 23.7408 58.8786C23.3786 59.0656 22.9157 59.1591 22.3523 59.1591H20.3636V58.3636H22.3239C22.7121 58.3636 23.0246 58.3068 23.2614 58.1932C23.5005 58.0795 23.6733 57.9186 23.7798 57.7102C23.8887 57.4995 23.9432 57.2486 23.9432 56.9574C23.9432 56.6662 23.8887 56.4117 23.7798 56.1939C23.6709 55.9761 23.4969 55.808 23.2578 55.6896C23.0187 55.5689 22.7027 55.5085 22.3097 55.5085H20.7614V62H19.8807ZM23.304 58.733L25.0938 62H24.071L22.3097 58.733H23.304ZM27.7686 62.1278C27.423 62.1278 27.1093 62.0627 26.8276 61.9325C26.5459 61.8 26.3221 61.6094 26.1564 61.3608C25.9907 61.1098 25.9078 60.8068 25.9078 60.4517C25.9078 60.1392 25.9694 59.8859 26.0925 59.6918C26.2156 59.4953 26.3801 59.3414 26.5861 59.2301C26.7921 59.1188 27.0194 59.036 27.2679 58.9815C27.5189 58.9247 27.771 58.8797 28.0243 58.8466C28.3558 58.804 28.6245 58.772 28.8304 58.7507C29.0388 58.727 29.1903 58.688 29.285 58.6335C29.382 58.5791 29.4306 58.4844 29.4306 58.3494V58.321C29.4306 57.9706 29.3347 57.6984 29.1429 57.5043C28.9535 57.3101 28.6659 57.2131 28.28 57.2131C27.8799 57.2131 27.5662 57.3007 27.339 57.4759C27.1117 57.651 26.9519 57.8381 26.8596 58.0369L26.0641 57.7528C26.2061 57.4214 26.3955 57.1634 26.6323 56.9787C26.8714 56.7917 27.1318 56.6615 27.4135 56.5881C27.6976 56.5123 27.977 56.4744 28.2516 56.4744C28.4268 56.4744 28.628 56.4957 28.8553 56.5384C29.0849 56.5786 29.3063 56.6626 29.5194 56.7905C29.7348 56.9183 29.9135 57.1113 30.0556 57.3693C30.1976 57.6274 30.2686 57.973 30.2686 58.4062V62H29.4306V61.2614H29.388C29.3311 61.3797 29.2364 61.5064 29.1039 61.6413C28.9713 61.7763 28.7949 61.8911 28.5748 61.9858C28.3546 62.0805 28.0859 62.1278 27.7686 62.1278ZM27.8965 61.375C28.2279 61.375 28.5073 61.3099 28.7346 61.1797C28.9642 61.0495 29.137 60.8814 29.253 60.6754C29.3714 60.4695 29.4306 60.2528 29.4306 60.0256V59.2585C29.3951 59.3011 29.3169 59.3402 29.1962 59.3757C29.0778 59.4089 28.9405 59.4384 28.7843 59.4645C28.6304 59.4882 28.4801 59.5095 28.3333 59.5284C28.1889 59.545 28.0717 59.5592 27.9817 59.571C27.7639 59.5994 27.5603 59.6456 27.3709 59.7095C27.1839 59.7711 27.0324 59.8646 26.9164 59.9901C26.8027 60.1132 26.7459 60.2812 26.7459 60.4943C26.7459 60.7855 26.8536 61.0057 27.0691 61.1548C27.2869 61.3016 27.5627 61.375 27.8965 61.375ZM34.1705 56.5455V57.2557H31.3438V56.5455H34.1705ZM32.1676 55.2386H33.0057V60.4375C33.0057 60.6742 33.04 60.8518 33.1087 60.9702C33.1797 61.0862 33.2696 61.1643 33.3786 61.2045C33.4898 61.2424 33.607 61.2614 33.7301 61.2614C33.8224 61.2614 33.8982 61.2566 33.9574 61.2472C34.0166 61.2353 34.0639 61.2259 34.0994 61.2188L34.2699 61.9716C34.2131 61.9929 34.1338 62.0142 34.032 62.0355C33.9302 62.0592 33.8011 62.071 33.6449 62.071C33.4081 62.071 33.1761 62.0201 32.9489 61.9183C32.724 61.8165 32.5369 61.6615 32.3878 61.4531C32.241 61.2448 32.1676 60.982 32.1676 60.6648V55.2386ZM37.6594 62.1136C37.1339 62.1136 36.6805 61.9976 36.2994 61.7656C35.9206 61.5312 35.6282 61.2045 35.4222 60.7855C35.2186 60.3641 35.1168 59.8741 35.1168 59.3153C35.1168 58.7566 35.2186 58.2642 35.4222 57.8381C35.6282 57.4096 35.9147 57.0758 36.2816 56.8366C36.6509 56.5952 37.0818 56.4744 37.5742 56.4744C37.8583 56.4744 38.1388 56.5218 38.4158 56.6165C38.6928 56.7112 38.945 56.8651 39.1722 57.0781C39.3995 57.2888 39.5806 57.5682 39.7156 57.9162C39.8505 58.2642 39.918 58.6927 39.918 59.2017V59.5568H35.7134V58.8324H39.0657C39.0657 58.5246 39.0041 58.25 38.881 58.0085C38.7603 57.767 38.5875 57.5765 38.3626 57.4368C38.14 57.2971 37.8772 57.2273 37.5742 57.2273C37.2404 57.2273 36.9516 57.3101 36.7077 57.4759C36.4663 57.6392 36.2804 57.8523 36.1502 58.1151C36.02 58.3778 35.9549 58.6596 35.9549 58.9602V59.4432C35.9549 59.8551 36.0259 60.2043 36.168 60.4908C36.3124 60.7749 36.5124 60.9915 36.7681 61.1406C37.0238 61.2874 37.3209 61.3608 37.6594 61.3608C37.8796 61.3608 38.0785 61.33 38.256 61.2685C38.436 61.2045 38.591 61.1098 38.7212 60.9844C38.8514 60.8565 38.9521 60.6979 39.0231 60.5085L39.8327 60.7358C39.7475 61.0104 39.6043 61.2519 39.4031 61.4602C39.2018 61.6662 38.9532 61.8272 38.6573 61.9432C38.3614 62.0568 38.0288 62.1136 37.6594 62.1136Z" fill="white"/>
</svg>
