<svg width="18" height="12" viewBox="0 0 18 12" fill="none" xmlns="http://www.w3.org/2000/svg">
<path fill-rule="evenodd" clip-rule="evenodd" d="M15.0763 4.10752C15.0763 3.98906 15.109 3.8729 15.1708 3.77187C15.2327 3.67084 15.3212 3.58886 15.4267 3.535C15.4327 3.53202 15.4378 3.52741 15.4413 3.52169C15.4448 3.51597 15.4466 3.50938 15.4465 3.50268V1.69048C15.4465 1.61823 15.4752 1.54895 15.5263 1.49786C15.5774 1.44678 15.6467 1.41808 15.7189 1.41808C15.7912 1.41808 15.8605 1.44678 15.9115 1.49786C15.9626 1.54895 15.9913 1.61823 15.9913 1.69048V3.50264C15.9913 3.51664 15.9987 3.52864 16.0112 3.535C16.4769 3.77172 16.4769 4.44324 16.0112 4.67996C16.0052 4.68293 16.0001 4.68754 15.9966 4.69327C15.9931 4.69899 15.9912 4.7056 15.9913 4.71232V5.2926C15.9913 5.36484 15.9626 5.43413 15.9115 5.48521C15.8605 5.5363 15.7912 5.565 15.7189 5.565C15.6467 5.565 15.5774 5.5363 15.5263 5.48521C15.4752 5.43413 15.4465 5.36484 15.4465 5.2926V4.71228C15.4466 4.70557 15.4448 4.69898 15.4413 4.69326C15.4378 4.68754 15.4327 4.68293 15.4267 4.67996C15.3212 4.62612 15.2326 4.54416 15.1708 4.44314C15.109 4.34212 15.0762 4.22597 15.0763 4.10752ZM0.0117588 6.0542V10.9608C0.0117588 11.4819 0.426479 11.9195 0.945999 11.9195H17.03C17.5583 11.9195 17.9886 11.4892 17.9886 10.9608V1.03872C17.9886 0.510358 17.5583 0.0800781 17.03 0.0800781H0.970359C0.441999 0.0800781 0.0117188 0.510358 0.0117188 1.03872V6.0542H0.0117588ZM17.4438 6.09052V10.9609C17.4438 11.1885 17.2575 11.3748 17.0299 11.3748H15.9537C15.9441 11.3747 15.9349 11.3709 15.9281 11.3641C15.9213 11.3573 15.9174 11.3481 15.9174 11.3384V6.67884C15.9174 6.66921 15.9135 6.65999 15.9067 6.65318C15.8999 6.64637 15.8907 6.64254 15.8811 6.64252H15.409C15.3993 6.64254 15.3901 6.64637 15.3833 6.65318C15.3765 6.65999 15.3727 6.66921 15.3726 6.67884V11.3384C15.3726 11.348 15.3688 11.3573 15.362 11.3641C15.3552 11.3709 15.3459 11.3747 15.3363 11.3747H13.6707C13.6611 11.3747 13.6518 11.3709 13.645 11.3641C13.6382 11.3573 13.6344 11.348 13.6344 11.3384V9.9746C13.6344 9.9546 13.6507 9.93828 13.6707 9.93828H13.9452C14.232 9.93828 14.4657 9.7046 14.4657 9.41776V6.67884C14.4657 6.66921 14.4619 6.65999 14.4551 6.65318C14.4483 6.64637 14.439 6.64254 14.4294 6.64252H12.2946C12.285 6.64254 12.2757 6.64637 12.2689 6.65318C12.2621 6.65999 12.2583 6.66921 12.2583 6.67884V9.41776C12.2583 9.7046 12.492 9.93828 12.7788 9.93828H13.0533C13.0733 9.93828 13.0896 9.9546 13.0896 9.9746V11.3384C13.0896 11.348 13.0858 11.3573 13.079 11.3641C13.0722 11.3709 13.0629 11.3747 13.0533 11.3747H11.3877C11.3781 11.3747 11.3688 11.3709 11.362 11.3641C11.3552 11.3573 11.3514 11.348 11.3514 11.3384V6.67884C11.3513 6.66921 11.3475 6.65999 11.3407 6.65318C11.3339 6.64637 11.3247 6.64254 11.315 6.64252H10.8429C10.8333 6.64254 10.824 6.64637 10.8172 6.65318C10.8104 6.65999 10.8066 6.66921 10.8066 6.67884V11.3384C10.8065 11.348 10.8027 11.3573 10.7959 11.3641C10.7891 11.3709 10.7799 11.3747 10.7702 11.3747H9.1046C9.09497 11.3747 9.08575 11.3709 9.07894 11.3641C9.07213 11.3573 9.0683 11.348 9.06828 11.3384V9.9746C9.06828 9.9546 9.0846 9.93828 9.1046 9.93828H9.37908C9.66484 9.93828 9.89964 9.70448 9.89964 9.41776V6.67884C9.89962 6.66921 9.89578 6.65999 9.88898 6.65318C9.88217 6.64637 9.87295 6.64254 9.86332 6.64252H7.72852C7.71889 6.64254 7.70967 6.64637 7.70286 6.65318C7.69605 6.65999 7.69222 6.66921 7.6922 6.67884V9.41776C7.6922 9.7046 7.92592 9.93828 8.21276 9.93828H8.48724C8.50724 9.93828 8.52356 9.9546 8.52356 9.9746V11.3384C8.52354 11.348 8.5197 11.3573 8.5129 11.3641C8.50609 11.3709 8.49687 11.3747 8.48724 11.3747H5.99024C5.98061 11.3747 5.97139 11.3709 5.96458 11.3641C5.95777 11.3573 5.95394 11.348 5.95392 11.3384V9.9746C5.95392 9.9546 5.97024 9.93828 5.99024 9.93828H6.26472C6.55156 9.93828 6.78528 9.7046 6.78528 9.41776V6.67884C6.78526 6.66921 6.78142 6.65999 6.77462 6.65318C6.76781 6.64637 6.75859 6.64254 6.74896 6.64252H4.61416C4.60453 6.64254 4.59531 6.64637 4.5885 6.65318C4.58169 6.65999 4.57786 6.66921 4.57784 6.67884V9.41776C4.57784 9.7046 4.81156 9.93828 5.0984 9.93828H5.37288C5.39288 9.93828 5.4092 9.9546 5.4092 9.9746V11.3384C5.40918 11.348 5.40534 11.3573 5.39854 11.3641C5.39173 11.3709 5.3825 11.3747 5.37288 11.3747H2.87588C2.86625 11.3747 2.85703 11.3709 2.85022 11.3641C2.84341 11.3573 2.83958 11.348 2.83956 11.3384V9.9746C2.83956 9.9546 2.85588 9.93828 2.87588 9.93828H3.15036C3.4372 9.93828 3.67092 9.7046 3.67092 9.41776V6.67884C3.6709 6.66921 3.66706 6.65999 3.66026 6.65318C3.65345 6.64637 3.64423 6.64254 3.6346 6.64252H1.49976C1.49013 6.64254 1.48091 6.64637 1.4741 6.65318C1.46729 6.65999 1.46346 6.66921 1.46344 6.67884V9.41776C1.46344 9.56116 1.52192 9.6914 1.61616 9.7856L1.61668 9.78508C1.7986 9.97056 2.00932 9.93832 2.25848 9.93832C2.27848 9.93832 2.2948 9.95464 2.2948 9.97464V11.3384C2.29478 11.3481 2.29094 11.3573 2.28414 11.3641C2.27733 11.3709 2.26811 11.3747 2.25848 11.3748H0.945999C0.725039 11.3748 0.556519 11.1836 0.556519 10.9609V6.09052C0.556519 6.07052 0.572839 6.0542 0.592839 6.0542H17.4075C17.4275 6.0542 17.4438 6.07052 17.4438 6.09052ZM14.0056 5.29264V3.48044C14.0056 3.46644 13.9983 3.45444 13.9858 3.44808C13.52 3.21128 13.52 2.53992 13.9858 2.30312C13.9918 2.30015 13.9969 2.29554 14.0004 2.28981C14.0039 2.28408 14.0057 2.27748 14.0056 2.27076V1.69048C14.0056 1.61823 14.0343 1.54895 14.0854 1.49786C14.1365 1.44678 14.2058 1.41808 14.278 1.41808C14.3503 1.41808 14.4196 1.44678 14.4707 1.49786C14.5217 1.54895 14.5504 1.61823 14.5504 1.69048V2.27076C14.5504 2.28476 14.5578 2.29676 14.5703 2.30312C15.036 2.53992 15.036 3.21128 14.5703 3.44808C14.5643 3.45105 14.5592 3.45566 14.5557 3.46139C14.5522 3.46711 14.5504 3.47372 14.5504 3.48044V5.29264C14.5504 5.36488 14.5217 5.43417 14.4707 5.48525C14.4196 5.53634 14.3503 5.56504 14.278 5.56504C14.2058 5.56504 14.1365 5.53634 14.0854 5.48525C14.0343 5.43417 14.0056 5.36488 14.0056 5.29264ZM12.5648 1.69048C12.5648 1.61823 12.5935 1.54895 12.6445 1.49786C12.6956 1.44678 12.7649 1.41808 12.8372 1.41808C12.9094 1.41808 12.9787 1.44678 13.0298 1.49786C13.0809 1.54895 13.1096 1.61823 13.1096 1.69048V3.50264C13.1096 3.51664 13.1169 3.52864 13.1294 3.535C13.5952 3.7718 13.5952 4.4432 13.1294 4.67996C13.1234 4.68293 13.1183 4.68754 13.1148 4.69327C13.1113 4.69899 13.1095 4.7056 13.1096 4.71232V5.2926C13.1096 5.36484 13.0809 5.43413 13.0298 5.48521C12.9787 5.5363 12.9094 5.565 12.8372 5.565C12.7649 5.565 12.6956 5.5363 12.6445 5.48521C12.5935 5.43413 12.5648 5.36484 12.5648 5.2926V4.71232C12.5648 4.7056 12.563 4.69899 12.5595 4.69327C12.556 4.68754 12.5509 4.68293 12.5449 4.67996C12.0792 4.44324 12.0792 3.77168 12.5449 3.535C12.5509 3.53203 12.556 3.52742 12.5595 3.52169C12.563 3.51596 12.5648 3.50936 12.5648 3.50264V1.69048ZM4.22508 2.52136C4.22508 1.87924 5.00512 1.55544 5.45964 2.01C5.9142 2.4646 5.59036 3.24456 4.94828 3.24456C4.54892 3.24456 4.22508 2.92076 4.22508 2.52136ZM7.16048 4.95844V2.02468C7.16048 1.81964 7.32824 1.65184 7.53328 1.65184H10.467C10.6721 1.65184 10.8399 1.8196 10.8399 2.02468V4.95844C10.8399 5.16348 10.6721 5.33128 10.467 5.33128H7.53328C7.3282 5.33128 7.16048 5.16348 7.16048 4.95844ZM4.43692 3.982C4.89144 3.52744 5.67148 3.85128 5.67148 4.49336C5.67148 5.13548 4.8914 5.45924 4.43688 5.00472C4.15448 4.72228 4.15448 4.26444 4.43692 3.982ZM2.75208 3.24456C2.11004 3.24456 1.78616 2.4646 2.24072 2.01C2.69528 1.55544 3.47528 1.87928 3.47528 2.52136C3.47532 2.92076 3.15148 3.24456 2.75208 3.24456ZM2.02888 4.4934C2.02888 3.85132 2.80892 3.52748 3.26344 3.98204C3.718 4.43664 3.39416 5.2166 2.75208 5.2166C2.35272 5.21656 2.02888 4.89276 2.02888 4.4934Z" fill="white"/>
</svg>
