<svg width="20" height="20" viewBox="0 0 20 20" fill="none" xmlns="http://www.w3.org/2000/svg">
<g clip-path="url(#clip0_71_9512)">
<path d="M1.25 6.25C1.08424 6.25 0.925268 6.31585 0.808058 6.43306C0.690848 6.55027 0.625 6.70924 0.625 6.875V13.125C0.625 13.2908 0.690848 13.4497 0.808058 13.5669C0.925268 13.6842 1.08424 13.75 1.25 13.75C1.41576 13.75 1.57473 13.6842 1.69194 13.5669C1.80915 13.4497 1.875 13.2908 1.875 13.125V6.875C1.875 6.70924 1.80915 6.55027 1.69194 6.43306C1.57473 6.31585 1.41576 6.25 1.25 6.25ZM3.75 3.125C3.58424 3.125 3.42527 3.19085 3.30806 3.30806C3.19085 3.42527 3.125 3.58424 3.125 3.75V16.25C3.125 16.4158 3.19085 16.5747 3.30806 16.6919C3.42527 16.8092 3.58424 16.875 3.75 16.875C3.91576 16.875 4.07473 16.8092 4.19194 16.6919C4.30915 16.5747 4.375 16.4158 4.375 16.25V3.75C4.375 3.58424 4.30915 3.42527 4.19194 3.30806C4.07473 3.19085 3.91576 3.125 3.75 3.125ZM11.25 6.25C11.0842 6.25 10.9253 6.31585 10.8081 6.43306C10.6908 6.55027 10.625 6.70924 10.625 6.875V13.125C10.625 13.2908 10.6908 13.4497 10.8081 13.5669C10.9253 13.6842 11.0842 13.75 11.25 13.75C11.4158 13.75 11.5747 13.6842 11.6919 13.5669C11.8092 13.4497 11.875 13.2908 11.875 13.125V6.875C11.875 6.70924 11.8092 6.55027 11.6919 6.43306C11.5747 6.31585 11.4158 6.25 11.25 6.25ZM8.75 3.125C8.58424 3.125 8.42527 3.19085 8.30806 3.30806C8.19085 3.42527 8.125 3.58424 8.125 3.75V16.25C8.125 16.4158 8.19085 16.5747 8.30806 16.6919C8.42527 16.8092 8.58424 16.875 8.75 16.875C8.91576 16.875 9.07473 16.8092 9.19194 16.6919C9.30915 16.5747 9.375 16.4158 9.375 16.25V3.75C9.375 3.58424 9.30915 3.42527 9.19194 3.30806C9.07473 3.19085 8.91576 3.125 8.75 3.125ZM6.25 0.625C6.08424 0.625 5.92527 0.690848 5.80806 0.808058C5.69085 0.925268 5.625 1.08424 5.625 1.25V18.75C5.625 18.9158 5.69085 19.0747 5.80806 19.1919C5.92527 19.3092 6.08424 19.375 6.25 19.375C6.41576 19.375 6.57473 19.3092 6.69194 19.1919C6.80915 19.0747 6.875 18.9158 6.875 18.75V1.25C6.875 1.08424 6.80915 0.925268 6.69194 0.808058C6.57473 0.690848 6.41576 0.625 6.25 0.625ZM18.75 6.25C18.5842 6.25 18.4253 6.31585 18.3081 6.43306C18.1908 6.55027 18.125 6.70924 18.125 6.875V13.125C18.125 13.2908 18.1908 13.4497 18.3081 13.5669C18.4253 13.6842 18.5842 13.75 18.75 13.75C18.9158 13.75 19.0747 13.6842 19.1919 13.5669C19.3092 13.4497 19.375 13.2908 19.375 13.125V6.875C19.375 6.70924 19.3092 6.55027 19.1919 6.43306C19.0747 6.31585 18.9158 6.25 18.75 6.25ZM16.25 3.125C16.0842 3.125 15.9253 3.19085 15.8081 3.30806C15.6908 3.42527 15.625 3.58424 15.625 3.75V16.25C15.625 16.4158 15.6908 16.5747 15.8081 16.6919C15.9253 16.8092 16.0842 16.875 16.25 16.875C16.4158 16.875 16.5747 16.8092 16.6919 16.6919C16.8092 16.5747 16.875 16.4158 16.875 16.25V3.75C16.875 3.58424 16.8092 3.42527 16.6919 3.30806C16.5747 3.19085 16.4158 3.125 16.25 3.125ZM13.75 0.625C13.5842 0.625 13.4253 0.690848 13.3081 0.808058C13.1908 0.925268 13.125 1.08424 13.125 1.25V18.75C13.125 18.9158 13.1908 19.0747 13.3081 19.1919C13.4253 19.3092 13.5842 19.375 13.75 19.375C13.9158 19.375 14.0747 19.3092 14.1919 19.1919C14.3092 19.0747 14.375 18.9158 14.375 18.75V1.25C14.375 1.08424 14.3092 0.925268 14.1919 0.808058C14.0747 0.690848 13.9158 0.625 13.75 0.625Z" fill="white"/>
</g>
<defs>
<clipPath id="clip0_71_9512">
<rect width="20" height="20" fill="white"/>
</clipPath>
</defs>
</svg>
