<svg width="120" height="136" viewBox="0 0 120 136" fill="none" xmlns="http://www.w3.org/2000/svg">
<path d="M0 0H120V134C120 135.105 119.105 136 118 136H2C0.895429 136 0 135.105 0 134V0Z" fill="#1F1F1F"/>
<rect x="10" y="7" width="100" height="26" rx="2" fill="white" fill-opacity="0.06"/>
<path d="M95.9887 22.6826C95.8134 22.6813 95.6403 22.6443 95.4799 22.5738C95.3195 22.5033 95.1751 22.4009 95.0556 22.2727L91.5032 18.4817C91.4168 18.3852 91.3605 18.2654 91.3413 18.1371C91.3221 18.0089 91.3409 17.8779 91.3953 17.7602C91.4498 17.6426 91.5375 17.5434 91.6476 17.475C91.7577 17.4067 91.8855 17.372 92.0151 17.3754C92.1884 17.3787 92.355 17.45 92.4763 17.5733L95.9887 21.325L99.501 17.5733C99.5593 17.5041 99.6309 17.4475 99.7117 17.4069C99.7925 17.3663 99.8807 17.3426 99.971 17.3371C100.061 17.3317 100.152 17.3447 100.237 17.3753C100.322 17.4059 100.4 17.4535 100.466 17.5152C100.532 17.5769 100.585 17.6514 100.621 17.7342C100.658 17.817 100.677 17.9063 100.677 17.9967C100.678 18.0871 100.661 18.1768 100.626 18.2601C100.591 18.3435 100.539 18.4189 100.474 18.4817L96.9244 22.272C96.8047 22.4007 96.6599 22.5035 96.499 22.5741C96.3381 22.6447 96.1644 22.6816 95.9887 22.6826Z" fill="white" fill-opacity="0.6"/>
<path d="M16.6392 23V17.1818H17.517V22.2443H20.1534V23H16.6392ZM22.9247 23.0881C22.5156 23.0881 22.1586 22.9943 21.8537 22.8068C21.5488 22.6193 21.312 22.357 21.1435 22.0199C20.9749 21.6828 20.8906 21.2888 20.8906 20.8381C20.8906 20.3854 20.9749 19.9896 21.1435 19.6506C21.312 19.3116 21.5488 19.0483 21.8537 18.8608C22.1586 18.6733 22.5156 18.5795 22.9247 18.5795C23.3338 18.5795 23.6908 18.6733 23.9957 18.8608C24.3007 19.0483 24.5374 19.3116 24.706 19.6506C24.8745 19.9896 24.9588 20.3854 24.9588 20.8381C24.9588 21.2888 24.8745 21.6828 24.706 22.0199C24.5374 22.357 24.3007 22.6193 23.9957 22.8068C23.6908 22.9943 23.3338 23.0881 22.9247 23.0881ZM22.9276 22.375C23.1927 22.375 23.4124 22.3049 23.5866 22.1648C23.7609 22.0246 23.8897 21.8381 23.973 21.6051C24.0582 21.3722 24.1009 21.1155 24.1009 20.8352C24.1009 20.5568 24.0582 20.3011 23.973 20.0682C23.8897 19.8333 23.7609 19.6449 23.5866 19.5028C23.4124 19.3608 23.1927 19.2898 22.9276 19.2898C22.6605 19.2898 22.4389 19.3608 22.2628 19.5028C22.0885 19.6449 21.9588 19.8333 21.8736 20.0682C21.7902 20.3011 21.7486 20.5568 21.7486 20.8352C21.7486 21.1155 21.7902 21.3722 21.8736 21.6051C21.9588 21.8381 22.0885 22.0246 22.2628 22.1648C22.4389 22.3049 22.6605 22.375 22.9276 22.375ZM26.7202 23L25.4361 18.6364H26.3139L27.169 21.8409H27.2116L28.0696 18.6364H28.9474L29.7997 21.8267H29.8423L30.6918 18.6364H31.5696L30.2884 23H29.4219L28.5355 19.8494H28.4702L27.5838 23H26.7202ZM39.6151 20.0909C39.6151 20.7121 39.5014 21.2462 39.2741 21.6932C39.0469 22.1383 38.7353 22.4811 38.3395 22.7216C37.9455 22.9602 37.4976 23.0795 36.9957 23.0795C36.492 23.0795 36.0421 22.9602 35.6463 22.7216C35.2524 22.4811 34.9418 22.1373 34.7145 21.6903C34.4872 21.2434 34.3736 20.7102 34.3736 20.0909C34.3736 19.4697 34.4872 18.9366 34.7145 18.4915C34.9418 18.0445 35.2524 17.7017 35.6463 17.4631C36.0421 17.2225 36.492 17.1023 36.9957 17.1023C37.4976 17.1023 37.9455 17.2225 38.3395 17.4631C38.7353 17.7017 39.0469 18.0445 39.2741 18.4915C39.5014 18.9366 39.6151 19.4697 39.6151 20.0909ZM38.7457 20.0909C38.7457 19.6174 38.669 19.2187 38.5156 18.8949C38.3641 18.5691 38.1558 18.3229 37.8906 18.1562C37.6274 17.9877 37.3291 17.9034 36.9957 17.9034C36.6605 17.9034 36.3613 17.9877 36.098 18.1562C35.8348 18.3229 35.6264 18.5691 35.473 18.8949C35.3215 19.2187 35.2457 19.6174 35.2457 20.0909C35.2457 20.5644 35.3215 20.964 35.473 21.2898C35.6264 21.6136 35.8348 21.8598 36.098 22.0284C36.3613 22.1951 36.6605 22.2784 36.9957 22.2784C37.3291 22.2784 37.6274 22.1951 37.8906 22.0284C38.1558 21.8598 38.3641 21.6136 38.5156 21.2898C38.669 20.964 38.7457 20.5644 38.7457 20.0909ZM42.4794 23.0881C42.0571 23.0881 41.6934 22.9924 41.3885 22.8011C41.0855 22.608 40.8525 22.3419 40.6896 22.0028C40.5268 21.6638 40.4453 21.2756 40.4453 20.8381C40.4453 20.3949 40.5286 20.0038 40.6953 19.6648C40.862 19.3239 41.0968 19.0578 41.3999 18.8665C41.7029 18.6752 42.0599 18.5795 42.4709 18.5795C42.8023 18.5795 43.0978 18.6411 43.3572 18.7642C43.6167 18.8854 43.826 19.0559 43.9851 19.2756C44.1461 19.4953 44.2417 19.7519 44.272 20.0455H43.4453C43.3999 19.8409 43.2957 19.6648 43.1328 19.517C42.9718 19.3693 42.7559 19.2955 42.4851 19.2955C42.2483 19.2955 42.041 19.358 41.8629 19.483C41.6868 19.6061 41.5495 19.7822 41.451 20.0114C41.3525 20.2386 41.3033 20.5076 41.3033 20.8182C41.3033 21.1364 41.3516 21.411 41.4482 21.642C41.5447 21.8731 41.6811 22.0521 41.8572 22.179C42.0353 22.3059 42.2446 22.3693 42.4851 22.3693C42.6461 22.3693 42.7919 22.34 42.9226 22.2812C43.0552 22.2206 43.166 22.1345 43.255 22.0227C43.3459 21.911 43.4093 21.7765 43.4453 21.6193H44.272C44.2417 21.9015 44.1499 22.1534 43.9964 22.375C43.843 22.5966 43.6375 22.7708 43.38 22.8977C43.1243 23.0246 42.8241 23.0881 42.4794 23.0881ZM47.2173 18.6364V19.3182H44.8338V18.6364H47.2173ZM45.473 17.5909H46.3224V21.7188C46.3224 21.8835 46.3471 22.0076 46.3963 22.0909C46.4455 22.1723 46.509 22.2282 46.5866 22.2585C46.6662 22.2869 46.7524 22.3011 46.8452 22.3011C46.9134 22.3011 46.973 22.2964 47.0241 22.2869C47.0753 22.2775 47.1151 22.2699 47.1435 22.2642L47.2969 22.9659C47.2476 22.9848 47.1776 23.0038 47.0866 23.0227C46.9957 23.0436 46.8821 23.0549 46.7457 23.0568C46.5223 23.0606 46.3139 23.0208 46.1207 22.9375C45.9276 22.8542 45.7713 22.7254 45.652 22.5511C45.5327 22.3769 45.473 22.1581 45.473 21.8949V17.5909ZM48.7166 23.054C48.5613 23.054 48.4278 22.9991 48.3161 22.8892C48.2043 22.7775 48.1484 22.643 48.1484 22.4858C48.1484 22.3305 48.2043 22.1979 48.3161 22.0881C48.4278 21.9763 48.5613 21.9205 48.7166 21.9205C48.8719 21.9205 49.0054 21.9763 49.1172 22.0881C49.2289 22.1979 49.2848 22.3305 49.2848 22.4858C49.2848 22.59 49.2583 22.6856 49.2053 22.7727C49.1541 22.858 49.0859 22.9261 49.0007 22.9773C48.9155 23.0284 48.8208 23.054 48.7166 23.054ZM52.5142 23V17.1818H53.392V19.7102H56.2926V17.1818H57.1733V23H56.2926V20.4631H53.392V23H52.5142ZM59.6534 23.0966C59.3769 23.0966 59.1269 23.0455 58.9034 22.9432C58.6799 22.839 58.5028 22.6884 58.3722 22.4915C58.2434 22.2945 58.179 22.053 58.179 21.767C58.179 21.5208 58.2263 21.3182 58.321 21.1591C58.4157 21 58.5436 20.8741 58.7045 20.7812C58.8655 20.6884 59.0455 20.6184 59.2443 20.571C59.4432 20.5237 59.6458 20.4877 59.8523 20.4631C60.1136 20.4328 60.3258 20.4081 60.4886 20.3892C60.6515 20.3684 60.7699 20.3352 60.8438 20.2898C60.9176 20.2443 60.9545 20.1705 60.9545 20.0682V20.0483C60.9545 19.8002 60.8845 19.608 60.7443 19.4716C60.6061 19.3352 60.3996 19.267 60.125 19.267C59.839 19.267 59.6136 19.3305 59.4489 19.4574C59.286 19.5824 59.1733 19.7216 59.1108 19.875L58.3125 19.6932C58.4072 19.428 58.5455 19.214 58.7273 19.0511C58.911 18.8864 59.1222 18.767 59.3608 18.6932C59.5994 18.6174 59.8504 18.5795 60.1136 18.5795C60.2879 18.5795 60.4725 18.6004 60.6676 18.642C60.8646 18.6818 61.0483 18.7557 61.2188 18.8636C61.3911 18.9716 61.5322 19.1259 61.642 19.3267C61.7519 19.5256 61.8068 19.7841 61.8068 20.1023V23H60.9773V22.4034H60.9432C60.8883 22.5133 60.8059 22.6212 60.696 22.7273C60.5862 22.8333 60.4451 22.9214 60.2727 22.9915C60.1004 23.0616 59.8939 23.0966 59.6534 23.0966ZM59.8381 22.4148C60.0729 22.4148 60.2737 22.3684 60.4403 22.2756C60.6089 22.1828 60.7367 22.0616 60.8239 21.9119C60.9129 21.7604 60.9574 21.5985 60.9574 21.4261V20.8636C60.9271 20.8939 60.8684 20.9223 60.7812 20.9489C60.696 20.9735 60.5985 20.9953 60.4886 21.0142C60.3788 21.0312 60.2718 21.0473 60.1676 21.0625C60.0634 21.0758 59.9763 21.0871 59.9062 21.0966C59.7415 21.1174 59.5909 21.1525 59.4545 21.2017C59.3201 21.2509 59.2121 21.322 59.1307 21.4148C59.0511 21.5057 59.0114 21.6269 59.0114 21.7784C59.0114 21.9886 59.089 22.1477 59.2443 22.2557C59.3996 22.3617 59.5975 22.4148 59.8381 22.4148ZM62.9382 23V18.6364H63.7592V19.3295H63.8047C63.8842 19.0947 64.0244 18.91 64.2251 18.7756C64.4278 18.6392 64.657 18.571 64.9126 18.571C64.9657 18.571 65.0282 18.5729 65.1001 18.5767C65.174 18.5805 65.2318 18.5852 65.2734 18.5909V19.4034C65.2393 19.3939 65.1787 19.3835 65.0916 19.3722C65.0045 19.3589 64.9174 19.3523 64.8303 19.3523C64.6295 19.3523 64.4505 19.3949 64.2933 19.4801C64.138 19.5634 64.0149 19.6799 63.924 19.8295C63.8331 19.9773 63.7876 20.1458 63.7876 20.3352V23H62.9382ZM66.0085 23V18.6364H66.8239V19.3466H66.8778C66.9688 19.1061 67.1174 18.9186 67.3239 18.7841C67.5303 18.6477 67.7775 18.5795 68.0653 18.5795C68.357 18.5795 68.6013 18.6477 68.7983 18.7841C68.9972 18.9205 69.1439 19.108 69.2386 19.3466H69.2841C69.3883 19.1136 69.554 18.928 69.7812 18.7898C70.0085 18.6496 70.2794 18.5795 70.5938 18.5795C70.9896 18.5795 71.3125 18.7036 71.5625 18.9517C71.8144 19.1998 71.9403 19.5739 71.9403 20.0739V23H71.0909V20.1534C71.0909 19.858 71.0104 19.6439 70.8494 19.5114C70.6884 19.3788 70.4962 19.3125 70.2727 19.3125C69.9962 19.3125 69.7812 19.3977 69.6278 19.5682C69.4744 19.7367 69.3977 19.9536 69.3977 20.2188V23H68.5511V20.0994C68.5511 19.8627 68.4773 19.6723 68.3295 19.5284C68.1818 19.3845 67.9896 19.3125 67.7528 19.3125C67.5919 19.3125 67.4432 19.3551 67.3068 19.4403C67.1723 19.5237 67.0634 19.6402 66.9801 19.7898C66.8987 19.9394 66.858 20.1127 66.858 20.3097V23H66.0085ZM74.9169 23.0881C74.5078 23.0881 74.1508 22.9943 73.8459 22.8068C73.541 22.6193 73.3042 22.357 73.1357 22.0199C72.9671 21.6828 72.8828 21.2888 72.8828 20.8381C72.8828 20.3854 72.9671 19.9896 73.1357 19.6506C73.3042 19.3116 73.541 19.0483 73.8459 18.8608C74.1508 18.6733 74.5078 18.5795 74.9169 18.5795C75.326 18.5795 75.683 18.6733 75.9879 18.8608C76.2929 19.0483 76.5296 19.3116 76.6982 19.6506C76.8667 19.9896 76.951 20.3854 76.951 20.8381C76.951 21.2888 76.8667 21.6828 76.6982 22.0199C76.5296 22.357 76.2929 22.6193 75.9879 22.8068C75.683 22.9943 75.326 23.0881 74.9169 23.0881ZM74.9197 22.375C75.1849 22.375 75.4046 22.3049 75.5788 22.1648C75.7531 22.0246 75.8819 21.8381 75.9652 21.6051C76.0504 21.3722 76.093 21.1155 76.093 20.8352C76.093 20.5568 76.0504 20.3011 75.9652 20.0682C75.8819 19.8333 75.7531 19.6449 75.5788 19.5028C75.4046 19.3608 75.1849 19.2898 74.9197 19.2898C74.6527 19.2898 74.4311 19.3608 74.255 19.5028C74.0807 19.6449 73.951 19.8333 73.8658 20.0682C73.7824 20.3011 73.7408 20.5568 73.7408 20.8352C73.7408 21.1155 73.7824 21.3722 73.8658 21.6051C73.951 21.8381 74.0807 22.0246 74.255 22.1648C74.4311 22.3049 74.6527 22.375 74.9197 22.375ZM78.7486 20.4091V23H77.8991V18.6364H78.7145V19.3466H78.7685C78.8688 19.1155 79.026 18.9299 79.2401 18.7898C79.456 18.6496 79.7277 18.5795 80.0554 18.5795C80.3527 18.5795 80.6132 18.642 80.8366 18.767C81.0601 18.8902 81.2334 19.0739 81.3565 19.3182C81.4796 19.5625 81.5412 19.8646 81.5412 20.2244V23H80.6918V20.3267C80.6918 20.0104 80.6094 19.7633 80.4446 19.5852C80.2798 19.4053 80.0535 19.3153 79.7656 19.3153C79.5687 19.3153 79.3935 19.358 79.2401 19.4432C79.0885 19.5284 78.9683 19.6534 78.8793 19.8182C78.7921 19.9811 78.7486 20.178 78.7486 20.4091ZM83.0611 24.6364C82.9342 24.6364 82.8187 24.6259 82.7145 24.6051C82.6103 24.5862 82.5327 24.5653 82.4815 24.5426L82.6861 23.8466C82.8414 23.8883 82.9796 23.9063 83.1009 23.9006C83.2221 23.8949 83.3291 23.8494 83.4219 23.7642C83.5166 23.679 83.5999 23.5398 83.6719 23.3466L83.777 23.0568L82.1804 18.6364H83.0895L84.1946 22.0227H84.2401L85.3452 18.6364H86.2571L84.4588 23.5824C84.3755 23.8097 84.2694 24.0019 84.1406 24.1591C84.0118 24.3182 83.8584 24.4375 83.6804 24.517C83.5024 24.5966 83.2959 24.6364 83.0611 24.6364Z" fill="white"/>
<circle cx="89" cy="58" r="15" fill="#141414"/>
<circle cx="89" cy="58" r="14" stroke="white" stroke-opacity="0.3" stroke-width="2"/>
<line x1="92.4264" y1="54.9152" x2="100.618" y2="49.1795" stroke="white" stroke-width="2"/>
<mask id="path-8-inside-1_33_3169" fill="white">
<path d="M101.608 49.8743C100.131 47.5813 98.0556 45.7347 95.6065 44.5332C93.1574 43.3317 90.427 42.8209 87.7091 43.0556L87.8857 45.0997C90.2318 44.8971 92.5887 45.3381 94.7029 46.3752C96.817 47.4123 98.6083 49.0064 99.8839 50.9858L101.608 49.8743Z"/>
</mask>
<path d="M101.608 49.8743C100.131 47.5813 98.0556 45.7347 95.6065 44.5332C93.1574 43.3317 90.427 42.8209 87.7091 43.0556L87.8857 45.0997C90.2318 44.8971 92.5887 45.3381 94.7029 46.3752C96.817 47.4123 98.6083 49.0064 99.8839 50.9858L101.608 49.8743Z" fill="#141414" stroke="white" stroke-width="4" mask="url(#path-8-inside-1_33_3169)"/>
<path d="M69.8807 87V79.7273H74.2415V80.5085H70.7614V82.9659H73.9148V83.7472H70.7614V87H69.8807ZM77.4517 87.1136C76.9593 87.1136 76.5272 86.9964 76.1555 86.7621C75.7862 86.5277 75.4974 86.1998 75.2891 85.7784C75.0831 85.357 74.9801 84.8646 74.9801 84.3011C74.9801 83.733 75.0831 83.237 75.2891 82.8132C75.4974 82.3894 75.7862 82.0604 76.1555 81.826C76.5272 81.5916 76.9593 81.4744 77.4517 81.4744C77.9441 81.4744 78.375 81.5916 78.7443 81.826C79.116 82.0604 79.4048 82.3894 79.6108 82.8132C79.8191 83.237 79.9233 83.733 79.9233 84.3011C79.9233 84.8646 79.8191 85.357 79.6108 85.7784C79.4048 86.1998 79.116 86.5277 78.7443 86.7621C78.375 86.9964 77.9441 87.1136 77.4517 87.1136ZM77.4517 86.3608C77.8258 86.3608 78.1335 86.2649 78.375 86.0732C78.6165 85.8814 78.7952 85.6293 78.9112 85.3168C79.0272 85.0043 79.0852 84.6657 79.0852 84.3011C79.0852 83.9366 79.0272 83.5968 78.9112 83.282C78.7952 82.9671 78.6165 82.7126 78.375 82.5185C78.1335 82.3243 77.8258 82.2273 77.4517 82.2273C77.0777 82.2273 76.7699 82.3243 76.5284 82.5185C76.2869 82.7126 76.1082 82.9671 75.9922 83.282C75.8762 83.5968 75.8182 83.9366 75.8182 84.3011C75.8182 84.6657 75.8762 85.0043 75.9922 85.3168C76.1082 85.6293 76.2869 85.8814 76.5284 86.0732C76.7699 86.2649 77.0777 86.3608 77.4517 86.3608ZM81.2026 87V81.5455H82.0123V82.3693H82.0691C82.1685 82.0994 82.3484 81.8804 82.6088 81.7124C82.8693 81.5443 83.1628 81.4602 83.4895 81.4602C83.5511 81.4602 83.628 81.4614 83.7203 81.4638C83.8127 81.4661 83.8825 81.4697 83.9299 81.4744V82.3267C83.9015 82.3196 83.8364 82.3089 83.7346 82.2947C83.6351 82.2782 83.5298 82.2699 83.4185 82.2699C83.1534 82.2699 82.9166 82.3255 82.7083 82.4368C82.5023 82.5457 82.339 82.6972 82.2182 82.8913C82.0998 83.0831 82.0407 83.3021 82.0407 83.5483V87H81.2026ZM84.9233 87V81.5455H85.733V82.3977H85.804C85.9176 82.1065 86.1011 81.8804 86.3544 81.7195C86.6077 81.5561 86.9119 81.4744 87.267 81.4744C87.6269 81.4744 87.9264 81.5561 88.1655 81.7195C88.407 81.8804 88.5952 82.1065 88.7301 82.3977H88.7869C88.9266 82.116 89.1361 81.8923 89.4155 81.7266C89.6948 81.5585 90.0298 81.4744 90.4205 81.4744C90.9081 81.4744 91.3071 81.6271 91.6172 81.9325C91.9273 82.2356 92.0824 82.7079 92.0824 83.3494V87H91.2443V83.3494C91.2443 82.947 91.1342 82.6593 90.9141 82.4865C90.6939 82.3137 90.4347 82.2273 90.1364 82.2273C89.7528 82.2273 89.4557 82.3433 89.245 82.5753C89.0343 82.8049 88.929 83.0961 88.929 83.4489V87H88.0767V83.2642C88.0767 82.9541 87.9761 82.7043 87.7749 82.5149C87.5736 82.3232 87.3144 82.2273 86.9972 82.2273C86.7794 82.2273 86.5758 82.2853 86.3864 82.4013C86.1993 82.5173 86.0478 82.6783 85.9318 82.8842C85.8182 83.0878 85.7614 83.3234 85.7614 83.5909V87H84.9233ZM95.2198 87.1278C94.8742 87.1278 94.5605 87.0627 94.2788 86.9325C93.997 86.8 93.7733 86.6094 93.6076 86.3608C93.4419 86.1098 93.359 85.8068 93.359 85.4517C93.359 85.1392 93.4206 84.8859 93.5437 84.6918C93.6668 84.4953 93.8313 84.3414 94.0373 84.2301C94.2433 84.1188 94.4705 84.036 94.7191 83.9815C94.9701 83.9247 95.2222 83.8797 95.4755 83.8466C95.8069 83.804 96.0756 83.772 96.2816 83.7507C96.4899 83.727 96.6415 83.688 96.7362 83.6335C96.8332 83.5791 96.8817 83.4844 96.8817 83.3494V83.321C96.8817 82.9706 96.7859 82.6984 96.5941 82.5043C96.4047 82.3101 96.1171 82.2131 95.7312 82.2131C95.3311 82.2131 95.0174 82.3007 94.7901 82.4759C94.5629 82.651 94.4031 82.8381 94.3107 83.0369L93.5153 82.7528C93.6573 82.4214 93.8467 82.1634 94.0835 81.9787C94.3226 81.7917 94.583 81.6615 94.8647 81.5881C95.1488 81.5123 95.4281 81.4744 95.7028 81.4744C95.878 81.4744 96.0792 81.4957 96.3065 81.5384C96.5361 81.5786 96.7575 81.6626 96.9705 81.7905C97.186 81.9183 97.3647 82.1113 97.5067 82.3693C97.6488 82.6274 97.7198 82.973 97.7198 83.4062V87H96.8817V86.2614H96.8391C96.7823 86.3797 96.6876 86.5064 96.555 86.6413C96.4225 86.7763 96.2461 86.8911 96.0259 86.9858C95.8058 87.0805 95.5371 87.1278 95.2198 87.1278ZM95.3477 86.375C95.6791 86.375 95.9585 86.3099 96.1857 86.1797C96.4154 86.0495 96.5882 85.8814 96.7042 85.6754C96.8226 85.4695 96.8817 85.2528 96.8817 85.0256V84.2585C96.8462 84.3011 96.7681 84.3402 96.6474 84.3757C96.529 84.4089 96.3917 84.4384 96.2354 84.4645C96.0816 84.4882 95.9312 84.5095 95.7844 84.5284C95.64 84.545 95.5228 84.5592 95.4329 84.571C95.2151 84.5994 95.0115 84.6456 94.8221 84.7095C94.6351 84.7711 94.4835 84.8646 94.3675 84.9901C94.2539 85.1132 94.1971 85.2812 94.1971 85.4943C94.1971 85.7855 94.3048 86.0057 94.5202 86.1548C94.738 86.3016 95.0138 86.375 95.3477 86.375ZM100.088 83.7188V87H99.2495V81.5455H100.059V82.3977H100.13C100.258 82.1207 100.452 81.8982 100.713 81.7301C100.973 81.5597 101.309 81.4744 101.721 81.4744C102.09 81.4744 102.414 81.5502 102.691 81.7017C102.968 81.8509 103.183 82.0781 103.337 82.3835C103.491 82.6866 103.568 83.0701 103.568 83.5341V87H102.73V83.5909C102.73 83.1624 102.618 82.8286 102.396 82.5895C102.173 82.348 101.868 82.2273 101.48 82.2273C101.212 82.2273 100.973 82.2853 100.762 82.4013C100.554 82.5173 100.389 82.6866 100.269 82.9091C100.148 83.1316 100.088 83.4015 100.088 83.7188ZM107.471 81.5455V82.2557H104.645V81.5455H107.471ZM105.468 80.2386H106.306V85.4375C106.306 85.6742 106.341 85.8518 106.409 85.9702C106.48 86.0862 106.57 86.1643 106.679 86.2045C106.791 86.2424 106.908 86.2614 107.031 86.2614C107.123 86.2614 107.199 86.2566 107.258 86.2472C107.317 86.2353 107.365 86.2259 107.4 86.2188L107.571 86.9716C107.514 86.9929 107.435 87.0142 107.333 87.0355C107.231 87.0592 107.102 87.071 106.946 87.071C106.709 87.071 106.477 87.0201 106.25 86.9183C106.025 86.8165 105.838 86.6615 105.689 86.4531C105.542 86.2448 105.468 85.982 105.468 85.6648V80.2386Z" fill="white"/>
<circle cx="57" cy="101" r="8" fill="#141414"/>
<circle cx="57" cy="101" r="7.5" stroke="white" stroke-opacity="0.3"/>
<mask id="path-12-inside-2_33_3169" fill="white">
<path d="M50.3964 105.516C49.3873 104.04 48.9015 102.269 49.0166 100.485L49.974 100.547C49.8727 102.117 50.3002 103.676 51.1883 104.974L50.3964 105.516Z"/>
</mask>
<path d="M50.3964 105.516C49.3873 104.04 48.9015 102.269 49.0166 100.485L49.974 100.547C49.8727 102.117 50.3002 103.676 51.1883 104.974L50.3964 105.516Z" fill="#141414" stroke="white" stroke-width="2" mask="url(#path-12-inside-2_33_3169)"/>
<line x1="49" y1="100.5" x2="54" y2="100.5" stroke="white"/>
<path d="M49.8807 115.727H50.9318L53.4034 121.764H53.4886L55.9602 115.727H57.0114V123H56.1875V117.474H56.1165L53.8438 123H53.0483L50.7756 117.474H50.7045V123H49.8807V115.727ZM58.6635 123V117.545H59.5016V123H58.6635ZM59.0897 116.636C58.9263 116.636 58.7855 116.581 58.6671 116.469C58.5511 116.358 58.4931 116.224 58.4931 116.068C58.4931 115.912 58.5511 115.778 58.6671 115.667C58.7855 115.556 58.9263 115.5 59.0897 115.5C59.253 115.5 59.3927 115.556 59.5087 115.667C59.6271 115.778 59.6863 115.912 59.6863 116.068C59.6863 116.224 59.6271 116.358 59.5087 116.469C59.3927 116.581 59.253 116.636 59.0897 116.636ZM61.6616 117.545L62.9684 119.776L64.2752 117.545H65.2411L63.4798 120.273L65.2411 123H64.2752L62.9684 120.884L61.6616 123H60.6957L62.4286 120.273L60.6957 117.545H61.6616Z" fill="white"/>
<circle cx="28" cy="58" r="15" fill="#141414"/>
<circle cx="28" cy="58" r="14" stroke="white" stroke-opacity="0.3" stroke-width="2"/>
<mask id="path-17-inside-3_33_3169" fill="white">
<path d="M28 43C26.0302 43 24.0796 43.388 22.2597 44.1418C20.4399 44.8956 18.7863 46.0005 17.3934 47.3934C16.0005 48.7863 14.8956 50.4399 14.1418 52.2598C13.388 54.0796 13 56.0302 13 58H15.0517C15.0517 56.2996 15.3866 54.6159 16.0373 53.0449C16.688 51.4739 17.6418 50.0465 18.8442 48.8442C20.0465 47.6418 21.4739 46.688 23.0449 46.0373C24.6159 45.3866 26.2996 45.0517 28 45.0517V43Z"/>
</mask>
<path d="M28 43C26.0302 43 24.0796 43.388 22.2597 44.1418C20.4399 44.8956 18.7863 46.0005 17.3934 47.3934C16.0005 48.7863 14.8956 50.4399 14.1418 52.2598C13.388 54.0796 13 56.0302 13 58H15.0517C15.0517 56.2996 15.3866 54.6159 16.0373 53.0449C16.688 51.4739 17.6418 50.0465 18.8442 48.8442C20.0465 47.6418 21.4739 46.688 23.0449 46.0373C24.6159 45.3866 26.2996 45.0517 28 45.0517V43Z" fill="#141414" stroke="white" stroke-width="4" mask="url(#path-17-inside-3_33_3169)"/>
<line x1="13" y1="57" x2="23" y2="57" stroke="white" stroke-width="2"/>
<path d="M16.8807 87V79.7273H19.3381C19.9086 79.7273 20.375 79.8303 20.7372 80.0362C21.1018 80.2398 21.3717 80.5156 21.5469 80.8636C21.7221 81.2116 21.8097 81.5999 21.8097 82.0284C21.8097 82.4569 21.7221 82.8464 21.5469 83.1967C21.3741 83.5471 21.1065 83.8265 20.7443 84.0348C20.3821 84.2408 19.9181 84.3438 19.3523 84.3438H17.5909V83.5625H19.3239C19.7145 83.5625 20.0282 83.495 20.2649 83.3601C20.5017 83.2251 20.6733 83.0429 20.7798 82.8132C20.8887 82.5812 20.9432 82.3196 20.9432 82.0284C20.9432 81.7372 20.8887 81.4768 20.7798 81.2472C20.6733 81.0175 20.5005 80.8376 20.2614 80.7074C20.0223 80.5748 19.705 80.5085 19.3097 80.5085H17.7614V87H16.8807ZM23.1147 87V81.5455H23.9528V87H23.1147ZM23.5408 80.6364C23.3775 80.6364 23.2366 80.5807 23.1183 80.4695C23.0022 80.3582 22.9442 80.2244 22.9442 80.0682C22.9442 79.9119 23.0022 79.7782 23.1183 79.6669C23.2366 79.5556 23.3775 79.5 23.5408 79.5C23.7042 79.5 23.8439 79.5556 23.9599 79.6669C24.0782 79.7782 24.1374 79.9119 24.1374 80.0682C24.1374 80.2244 24.0782 80.3582 23.9599 80.4695C23.8439 80.5807 23.7042 80.6364 23.5408 80.6364ZM27.8599 81.5455V82.2557H25.0332V81.5455H27.8599ZM25.8571 80.2386H26.6951V85.4375C26.6951 85.6742 26.7295 85.8518 26.7981 85.9702C26.8691 86.0862 26.9591 86.1643 27.068 86.2045C27.1793 86.2424 27.2965 86.2614 27.4196 86.2614C27.5119 86.2614 27.5877 86.2566 27.6468 86.2472C27.706 86.2353 27.7534 86.2259 27.7889 86.2188L27.9593 86.9716C27.9025 86.9929 27.8232 87.0142 27.7214 87.0355C27.6196 87.0592 27.4906 87.071 27.3343 87.071C27.0976 87.071 26.8656 87.0201 26.6383 86.9183C26.4134 86.8165 26.2264 86.6615 26.0772 86.4531C25.9305 86.2448 25.8571 85.982 25.8571 85.6648V80.2386ZM31.2779 87.1136C30.7665 87.1136 30.3262 86.9929 29.9569 86.7514C29.5875 86.5099 29.3034 86.1773 29.1046 85.7536C28.9057 85.3298 28.8063 84.8456 28.8063 84.3011C28.8063 83.7472 28.9081 83.2583 29.1117 82.8345C29.3176 82.4084 29.6041 82.0758 29.9711 81.8366C30.3404 81.5952 30.7712 81.4744 31.2637 81.4744C31.6472 81.4744 31.9928 81.5455 32.3006 81.6875C32.6084 81.8295 32.8605 82.0284 33.057 82.2841C33.2535 82.5398 33.3754 82.8381 33.4228 83.179H32.5847C32.5208 82.9304 32.3787 82.7102 32.1586 82.5185C31.9408 82.3243 31.6472 82.2273 31.2779 82.2273C30.9512 82.2273 30.6647 82.3125 30.4185 82.483C30.1747 82.651 29.9841 82.889 29.8468 83.1967C29.7118 83.5021 29.6444 83.8608 29.6444 84.2727C29.6444 84.6941 29.7106 85.0611 29.8432 85.3736C29.9782 85.6861 30.1676 85.9287 30.4114 86.1016C30.6576 86.2744 30.9464 86.3608 31.2779 86.3608C31.4957 86.3608 31.6934 86.3229 31.8709 86.2472C32.0485 86.1714 32.1988 86.0625 32.3219 85.9205C32.445 85.7784 32.5326 85.608 32.5847 85.4091H33.4228C33.3754 85.7311 33.2582 86.0211 33.0712 86.2791C32.8865 86.5348 32.6415 86.7384 32.3361 86.8899C32.0331 87.0391 31.6803 87.1136 31.2779 87.1136ZM35.486 83.7188V87H34.6479V79.7273H35.486V82.3977H35.557C35.6848 82.116 35.8766 81.8923 36.1323 81.7266C36.3903 81.5585 36.7336 81.4744 37.1621 81.4744C37.5338 81.4744 37.8593 81.549 38.1387 81.6982C38.418 81.8449 38.6346 82.071 38.7885 82.3764C38.9448 82.6795 39.0229 83.0653 39.0229 83.5341V87H38.1848V83.5909C38.1848 83.1577 38.0724 82.8227 37.8475 82.5859C37.6249 82.3468 37.316 82.2273 36.9206 82.2273C36.646 82.2273 36.3998 82.2853 36.182 82.4013C35.9666 82.5173 35.7961 82.6866 35.6706 82.9091C35.5475 83.1316 35.486 83.4015 35.486 83.7188Z" fill="white"/>
</svg>
