<svg width="16" height="16" viewBox="0 0 16 16" fill="none" xmlns="http://www.w3.org/2000/svg">
<path d="M15.4102 0.390048C15.3343 0.324306 15.2453 0.275616 15.149 0.247274C15.0527 0.218933 14.9515 0.2116 14.8522 0.225773L5.0457 1.62668C4.70059 1.67599 4.44429 1.97155 4.44429 2.32015V10.5327C4.02939 10.2909 3.54775 10.1518 3.03393 10.1518C1.48381 10.1518 0.222656 11.4129 0.222656 12.963C0.222656 14.5132 1.48378 15.7743 3.0339 15.7743C4.58401 15.7743 5.84517 14.5132 5.84517 12.963V5.72952L14.2507 4.52874V9.13172C13.8358 8.89 13.3542 8.75082 12.8404 8.75082C11.2902 8.75082 10.0291 10.012 10.0291 11.5621C10.0291 13.1122 11.2902 14.3734 12.8404 14.3734C14.3905 14.3734 15.6516 13.1122 15.6516 11.5621V0.91921C15.6517 0.818856 15.6301 0.719671 15.5884 0.628373C15.5468 0.537076 15.486 0.455799 15.4102 0.390048Z" fill="white"/>
</svg>
