<svg width="20" height="20" viewBox="0 0 20 20" fill="none" xmlns="http://www.w3.org/2000/svg">
<g clip-path="url(#clip0_33_335)">
<path d="M17.0711 2.93668C15.1823 1.04793 12.6711 0.0078125 10 0.0078125C8.38992 0.0078125 6.78949 0.399727 5.37168 1.14125C4.55414 1.56879 3.79652 2.11312 3.125 2.74879V0.0078125H1.5625V5.47656H7.03125V3.91406H4.16648C5.72457 2.42676 7.81535 1.57031 10 1.57031C14.6524 1.57031 18.4375 5.35531 18.4375 10.0078C18.4375 10.2669 18.4257 10.5259 18.4023 10.7839L19.9584 10.9257C19.9861 10.6205 20 10.3143 20 10.0079L19.2188 10.0078H20C20 7.33668 18.9598 4.82551 17.0711 2.93668ZM3.42672 15.2982L2.21012 16.2787C2.56474 16.7184 2.9557 17.1276 3.37887 17.5019L4.41379 16.3313C4.05639 16.0152 3.7262 15.6696 3.42672 15.2982ZM2.0398 12.8129L0.566094 13.3323C0.754277 13.8656 0.987433 14.382 1.26305 14.8759L2.62734 14.1143C2.39499 13.6979 2.19843 13.2626 2.0398 12.8129ZM1.5625 10.0078H0C0 10.573 0.0476563 11.1401 0.141563 11.6932L1.68203 11.4315C1.60241 10.9611 1.56243 10.4849 1.5625 10.0078ZM5.55977 17.1839L4.73625 18.5118C5.21651 18.8095 5.72116 19.066 6.24477 19.2785L6.83184 17.8305C6.39029 17.6513 5.96474 17.435 5.55977 17.1839ZM18.153 12.1894C18.03 12.6497 17.868 13.0988 17.6688 13.5318L19.0882 14.1852C19.3245 13.6715 19.5167 13.1386 19.6626 12.5923L18.153 12.1894ZM14.9826 16.8178C14.5979 17.0997 14.19 17.3486 13.7633 17.5618L14.4613 18.9598C14.9669 18.7071 15.4504 18.4121 15.9063 18.078L14.9826 16.8178ZM16.9641 14.773C16.6942 15.1664 16.3917 15.5363 16.0598 15.8789L17.1818 16.9663C17.5749 16.5606 17.9331 16.1225 18.2527 15.6567L16.9641 14.773ZM12.4363 18.0884C11.9799 18.2256 11.5127 18.3238 11.0396 18.3819L11.23 19.9328C11.7911 19.8638 12.3453 19.7473 12.8867 19.5846L12.4363 18.0884ZM8.19508 18.252L7.8625 19.7787C8.41463 19.8987 8.97591 19.9719 9.54035 19.9975L9.61102 18.4366C9.13469 18.415 8.66103 18.3533 8.19508 18.252Z" fill="currentColor"/>
</g>
<defs>
<clipPath id="clip0_33_335">
<rect width="20" height="20" fill="white"/>
</clipPath>
</defs>
</svg>
