<svg width="18" height="20" viewBox="0 0 18 20" fill="none" xmlns="http://www.w3.org/2000/svg">
<path d="M8.60102 11.4085C9.88999 11.4085 11.0813 11.0451 12.0344 10.4278C12.7726 9.95507 13.7335 10.0332 14.3819 10.6232C16.1825 12.2563 17.2059 14.5732 17.202 17.0072V18.0504C17.202 19.1287 16.327 20 15.249 20H1.95304C0.874984 20 4.44e-05 19.1287 4.44e-05 18.0504V17.0072C-0.00776756 14.5771 1.0156 12.2563 2.81626 10.6271C3.46465 10.0371 4.42943 9.95898 5.16375 10.4317C6.12072 11.0451 7.30814 11.4085 8.60102 11.4085Z" fill="white"/>
<path d="M8.60234 9.67376C11.273 9.67376 13.4379 7.50822 13.4379 4.83688C13.4379 2.16555 11.273 0 8.60234 0C5.93171 0 3.76674 2.16555 3.76674 4.83688C3.76674 7.50822 5.93171 9.67376 8.60234 9.67376Z" fill="white"/>
</svg>
