<svg width="20" height="20" viewBox="0 0 20 20" fill="none" xmlns="http://www.w3.org/2000/svg">
<g clip-path="url(#clip0_21_297)">
<path d="M16.0481 3.39052C15.5384 3.39052 15.1238 3.80611 15.1238 4.31697V15.6891C15.1704 16.9185 16.9296 16.9141 16.976 15.6891V4.31697C16.976 3.80615 16.5598 3.39052 16.0481 3.39052ZM10 3.39052C9.48836 3.39052 9.07215 3.80611 9.07215 4.31697V15.6891C9.11891 16.9168 10.8816 16.9158 10.9279 15.6891V4.31697C10.9279 3.80615 10.5116 3.39052 10 3.39052ZM13.024 6.77802C12.5144 6.77802 12.0998 7.19361 12.0998 7.70447V12.3016C12.1464 13.5311 13.9056 13.5265 13.9519 12.3016V7.70447C13.9519 7.19361 13.5357 6.77802 13.024 6.77802ZM19.0721 8.47181C18.5625 8.47181 18.1479 8.8874 18.1479 9.39826V10.6079C18.1945 11.8373 19.9537 11.8328 20 10.6079V9.39826C20 8.8874 19.5838 8.47181 19.0721 8.47181ZM0.927891 8.47181C0.41625 8.47181 0 8.8874 0 9.39822V10.6078C0.0467969 11.8337 1.80598 11.8364 1.85215 10.6078V9.39822C1.85215 8.8874 1.43754 8.47181 0.927891 8.47181ZM3.95191 5.08427C3.44027 5.08427 3.02402 5.49986 3.02402 6.01072V13.9953C3.07082 15.2213 4.83004 15.2238 4.87625 13.9953V6.01072C4.87625 5.49986 4.4616 5.08427 3.95191 5.08427ZM6.97598 0.00302124C6.46434 0.00302124 6.04813 0.418607 6.04813 0.929467V19.0766C6.09488 20.3025 7.85406 20.3051 7.90027 19.0766V0.929467C7.90027 0.418607 7.48563 0.00302124 6.97598 0.00302124Z" fill="white"/>
</g>
<defs>
<clipPath id="clip0_21_297">
<rect width="20" height="20" fill="white"/>
</clipPath>
</defs>
</svg>
