<svg width="20" height="20" viewBox="0 0 20 20" fill="none" xmlns="http://www.w3.org/2000/svg">
<path d="M0 0.454545V19.5455C0 19.666 0.0478895 19.7816 0.133133 19.8669C0.218377 19.9521 0.333993 20 0.454545 20H19.5455C19.666 20 19.7816 19.9521 19.8669 19.8669C19.9521 19.7816 20 19.666 20 19.5455V0.454545C20 0.333993 19.9521 0.218377 19.8669 0.133133C19.7816 0.0478895 19.666 0 19.5455 0L0.454545 0C0.333993 0 0.218377 0.0478895 0.133133 0.133133C0.0478895 0.218377 0 0.333993 0 0.454545ZM5.42909 10H6.56545V0.909091H8.18152V10H9.31788V19.053C9.31788 19.0661 9.32061 19.0782 9.32182 19.0909H5.42545C5.42667 19.0782 5.42939 19.0661 5.42939 19.053L5.42909 10ZM14.1161 10V19.0909H10.223C10.2242 19.0782 10.2273 19.0661 10.2273 19.053V10H11.3636V0.909091H12.9797V10H14.1161ZM19.0909 19.0909H15.0252V10H16.1615V0.909091H19.0909V19.0909ZM0.909091 0.909091H3.38364V10H4.52V19.053C4.52 19.0661 4.52273 19.0782 4.52394 19.0909H0.909091V0.909091Z" fill="white"/>
</svg>
