<svg width="18" height="16" viewBox="0 0 18 16" fill="none" xmlns="http://www.w3.org/2000/svg">
<path d="M13.0285 10.2603C12.8733 10.4142 12.6638 10.501 12.4452 10.5019C12.3349 10.5015 12.2258 10.4791 12.1243 10.4362C12.0227 10.3933 11.9307 10.3307 11.8535 10.2519C11.6983 10.0958 11.6112 9.88459 11.6112 9.66444C11.6112 9.44428 11.6983 9.23307 11.8535 9.07694L14.6452 6.33527H9.11183C7.34372 6.33527 5.64803 7.03765 4.39779 8.28789C3.14754 9.53813 2.44517 11.2338 2.44517 13.0019V14.6686C2.44517 14.8896 2.35737 15.1016 2.20109 15.2579C2.04481 15.4141 1.83285 15.5019 1.61183 15.5019C1.39082 15.5019 1.17886 15.4141 1.02258 15.2579C0.866297 15.1016 0.7785 14.8896 0.7785 14.6686V13.0019C0.7785 10.7918 1.65647 8.67218 3.21928 7.10938C4.78208 5.54658 6.9017 4.6686 9.11183 4.6686H14.6285L11.8618 1.92694C11.7241 1.7685 11.6512 1.56392 11.6578 1.35409C11.6644 1.14426 11.7499 0.944642 11.8973 0.795147C12.0447 0.645653 12.2431 0.557296 12.4528 0.54774C12.6625 0.538183 12.8681 0.608133 13.0285 0.743603L17.2535 4.91027C17.3316 4.98774 17.3936 5.07991 17.4359 5.18146C17.4782 5.283 17.5 5.39193 17.5 5.50194C17.5 5.61195 17.4782 5.72087 17.4359 5.82242C17.3936 5.92397 17.3316 6.01613 17.2535 6.0936L13.0285 10.2603Z" fill="white"/>
</svg>
