<svg width="24" height="24" viewBox="0 0 24 24" fill="none" xmlns="http://www.w3.org/2000/svg">
<path d="M19.5514 8.62479L20.5116 7.66458C20.6684 7.50792 20.7927 7.32193 20.8775 7.11721C20.9623 6.9125 21.006 6.69309 21.006 6.4715C21.006 6.24991 20.9623 6.03049 20.8775 5.82578C20.7927 5.62107 20.6684 5.43507 20.5116 5.27842L18.7279 3.49413C18.4114 3.17774 17.9821 3 17.5346 3C17.087 3 16.6578 3.17774 16.3412 3.49413L15.381 4.45434L19.5514 8.62479ZM14.5856 5.24973L3.73311 16.1022C3.64709 16.188 3.59123 16.2993 3.57392 16.4195L3.00578 20.3571C2.99424 20.4369 3.00002 20.5183 3.02271 20.5957C3.04541 20.6731 3.08449 20.7448 3.13732 20.8058C3.19014 20.8668 3.25546 20.9157 3.32885 20.9492C3.40224 20.9827 3.48199 21 3.56267 21C3.58902 21 3.61534 20.9981 3.64142 20.9944L7.58517 20.4319C7.70571 20.4146 7.81741 20.3587 7.90355 20.2727L18.7561 9.42017L14.5856 5.24973Z" fill="white"/>
</svg>
