<svg width="20" height="20" viewBox="0 0 20 20" fill="none" xmlns="http://www.w3.org/2000/svg">
<path fill-rule="evenodd" clip-rule="evenodd" d="M10.6263 3.33073C10.6263 3.90573 11.093 4.3724 11.668 4.3724H14.153L10.9313 7.59406C10.7359 7.78944 10.6262 8.05443 10.6262 8.33073C10.6262 8.60703 10.7359 8.87202 10.9313 9.0674C11.1267 9.26277 11.3917 9.37253 11.668 9.37253C11.9443 9.37253 12.2093 9.26277 12.4046 9.0674L15.6263 5.84573V8.33073C15.6263 8.607 15.736 8.87195 15.9314 9.0673C16.1267 9.26265 16.3917 9.3724 16.668 9.3724C16.9442 9.3724 17.2092 9.26265 17.4045 9.0673C17.5999 8.87195 17.7096 8.607 17.7096 8.33073V3.33073C17.7096 2.75573 17.243 2.28906 16.668 2.28906H11.668C11.093 2.28906 10.6263 2.75573 10.6263 3.33073ZM4.3763 11.6641C4.3763 11.3878 4.26656 11.1228 4.07121 10.9275C3.87585 10.7321 3.6109 10.6224 3.33464 10.6224C3.05837 10.6224 2.79342 10.7321 2.59807 10.9275C2.40272 11.1228 2.29297 11.3878 2.29297 11.6641V16.6641C2.29297 17.2391 2.75964 17.7057 3.33464 17.7057H8.33464C8.6109 17.7057 8.87585 17.596 9.07121 17.4006C9.26656 17.2053 9.3763 16.9403 9.3763 16.6641C9.3763 16.3878 9.26656 16.1228 9.07121 15.9275C8.87585 15.7321 8.6109 15.6224 8.33464 15.6224H5.84964L9.0713 12.4007C9.26668 12.2054 9.37644 11.9404 9.37644 11.6641C9.37644 11.3878 9.26668 11.1228 9.0713 10.9274C8.87593 10.732 8.61094 10.6223 8.33464 10.6223C8.05833 10.6223 7.79335 10.732 7.59797 10.9274L4.3763 14.1491V11.6641Z" fill="white"/>
</svg>
