<svg width="16" height="16" viewBox="0 0 16 16" fill="none" xmlns="http://www.w3.org/2000/svg">
<path fill-rule="evenodd" clip-rule="evenodd" d="M2.66682 1.33301C2.49001 1.33301 2.32044 1.40325 2.19542 1.52827C2.07039 1.65329 2.00015 1.82286 2.00015 1.99967V5.33301C2.00015 5.50982 2.07039 5.67939 2.19542 5.80441C2.32044 5.92944 2.49001 5.99967 2.66682 5.99967H6.00015C6.17697 5.99967 6.34653 5.92944 6.47156 5.80441C6.59658 5.67939 6.66682 5.50982 6.66682 5.33301C6.66682 5.1562 6.59658 4.98663 6.47156 4.8616C6.34653 4.73658 6.17697 4.66634 6.00015 4.66634H4.06749C4.755 3.99256 5.63405 3.54787 6.58417 3.39322C7.5343 3.23857 8.509 3.38152 9.3747 3.8025C10.2404 4.22347 10.9547 4.90186 11.4198 5.74469C11.8849 6.58753 12.0779 7.55356 11.9725 8.5104C11.867 9.46723 11.4683 10.3681 10.8309 11.0894C10.1934 11.8108 9.34854 12.3173 8.41194 12.5397C7.47535 12.7621 6.49291 12.6894 5.59925 12.3316C4.7056 11.9737 3.94446 11.3483 3.42015 10.541C3.37244 10.4676 3.31073 10.4042 3.23854 10.3546C3.16635 10.305 3.08509 10.2701 2.99941 10.2519C2.91374 10.2337 2.82531 10.2326 2.73919 10.2485C2.65307 10.2645 2.57094 10.2973 2.49749 10.345C2.42404 10.3927 2.3607 10.4544 2.3111 10.5266C2.26149 10.5988 2.2266 10.6801 2.2084 10.7657C2.1902 10.8514 2.18905 10.9398 2.20502 11.026C2.221 11.1121 2.25377 11.1942 2.30149 11.2677C2.96922 12.2959 3.93591 13.0949 5.07145 13.5571C6.20699 14.0193 7.45687 14.1225 8.65286 13.853C9.84886 13.5834 10.9336 12.9539 11.761 12.0492C12.5884 11.1445 13.1188 10.008 13.2809 8.79279C13.4429 7.57754 13.2288 6.34182 12.6673 5.25195C12.1058 4.16208 11.2239 3.27036 10.1403 2.69683C9.05676 2.1233 7.8235 1.89547 6.60653 2.04401C5.38955 2.19255 4.2473 2.71034 3.33349 3.52767V1.99967C3.33349 1.82286 3.26325 1.65329 3.13823 1.52827C3.0132 1.40325 2.84363 1.33301 2.66682 1.33301Z" fill="white" fill-opacity="0.6"/>
</svg>
