<svg width="14" height="14" viewBox="0 0 14 14" fill="none" xmlns="http://www.w3.org/2000/svg">
<g clip-path="url(#clip0_1515_623)">
<path d="M4.17032 13.5078C4.17032 13.6383 4.22217 13.7635 4.31448 13.8558C4.40678 13.9481 4.53197 14 4.66251 14H11.009C11.5559 13.9994 12.0803 13.7818 12.4671 13.3951C12.8538 13.0083 13.0714 12.484 13.072 11.937V2.06303C13.0714 1.51609 12.8539 0.991723 12.4671 0.604966C12.0804 0.218209 11.556 0.000644113 11.0091 0L4.66261 0C4.53208 0 4.40689 0.0518553 4.31459 0.144158C4.22228 0.236461 4.17043 0.361651 4.17043 0.492188C4.17043 0.622724 4.22228 0.747914 4.31459 0.840217C4.40689 0.93252 4.53208 0.984375 4.66261 0.984375H11.0091C11.2951 0.984693 11.5693 1.09844 11.7715 1.30066C11.9737 1.50288 12.0874 1.77705 12.0878 2.06303V11.937C12.0874 12.223 11.9737 12.4971 11.7715 12.6994C11.5692 12.9016 11.2951 13.0153 11.0091 13.0156H4.66261C4.59797 13.0156 4.53396 13.0283 4.47423 13.0531C4.4145 13.0778 4.36023 13.114 4.31451 13.1597C4.2688 13.2054 4.23254 13.2597 4.2078 13.3194C4.18305 13.3792 4.17032 13.4432 4.17032 13.5078ZM1.07227 6.65197L4.27149 3.45275C4.36396 3.36124 4.4889 3.31006 4.61899 3.31041C4.74908 3.31075 4.87375 3.36258 4.96573 3.45457C5.05772 3.54656 5.10955 3.67123 5.10988 3.80132C5.11022 3.93141 5.05904 4.05635 4.96753 4.14881L2.60855 6.50781H8.34544C8.47597 6.50781 8.60116 6.55967 8.69346 6.65197C8.78577 6.74427 8.83762 6.86946 8.83762 7C8.83762 7.13054 8.78577 7.25573 8.69346 7.34803C8.60116 7.44033 8.47597 7.49219 8.34544 7.49219H2.60855L4.96755 9.85122C5.01365 9.89683 5.05027 9.95111 5.07533 10.0109C5.10038 10.0707 5.11336 10.1349 5.11353 10.1998C5.1137 10.2646 5.10105 10.3289 5.07631 10.3888C5.05158 10.4488 5.01524 10.5032 4.96938 10.5491C4.92353 10.5949 4.86906 10.6313 4.80911 10.656C4.74917 10.6808 4.68493 10.6934 4.62008 10.6932C4.55523 10.6931 4.49105 10.6801 4.43123 10.655C4.37141 10.63 4.31714 10.5934 4.27152 10.5473L1.0723 7.34806C1.02659 7.30236 0.990328 7.2481 0.965588 7.18838C0.940847 7.12866 0.928113 7.06466 0.92811 7.00002C0.928107 6.93538 0.940837 6.87137 0.965572 6.81166C0.990308 6.75194 1.02656 6.69768 1.07227 6.65197Z" fill="white" fill-opacity="0.6"/>
</g>
<defs>
<clipPath id="clip0_1515_623">
<rect width="14" height="14" fill="white"/>
</clipPath>
</defs>
</svg>
