<svg width="120" height="136" viewBox="0 0 120 136" fill="none" xmlns="http://www.w3.org/2000/svg">
<path d="M0 0H120V134C120 135.105 119.105 136 118 136H2C0.895429 136 0 135.105 0 134V0Z" fill="#1F1F1F"/>
<circle cx="60" cy="60" r="25" fill="#141414"/>
<circle cx="60" cy="60" r="24" stroke="white" stroke-opacity="0.3" stroke-width="2"/>
<line x1="61" y1="35" x2="61" y2="45" stroke="white" stroke-opacity="0.3" stroke-width="2"/>
<path d="M49.8807 99V91.7273H52.3381C52.9063 91.7273 53.3726 91.8243 53.7372 92.0185C54.1018 92.2102 54.3717 92.4742 54.5469 92.8104C54.7221 93.1465 54.8097 93.5289 54.8097 93.9574C54.8097 94.3859 54.7221 94.7659 54.5469 95.0973C54.3717 95.4287 54.103 95.6892 53.7408 95.8786C53.3786 96.0656 52.9157 96.1591 52.3523 96.1591H50.3636V95.3636H52.3239C52.7121 95.3636 53.0246 95.3068 53.2614 95.1932C53.5005 95.0795 53.6733 94.9186 53.7798 94.7102C53.8887 94.4995 53.9432 94.2486 53.9432 93.9574C53.9432 93.6662 53.8887 93.4117 53.7798 93.1939C53.6709 92.9761 53.4969 92.808 53.2578 92.6896C53.0187 92.5689 52.7027 92.5085 52.3097 92.5085H50.7614V99H49.8807ZM53.304 95.733L55.0938 99H54.071L52.3097 95.733H53.304ZM57.7686 99.1278C57.423 99.1278 57.1093 99.0627 56.8276 98.9325C56.5459 98.8 56.3221 98.6094 56.1564 98.3608C55.9907 98.1098 55.9078 97.8068 55.9078 97.4517C55.9078 97.1392 55.9694 96.8859 56.0925 96.6918C56.2156 96.4953 56.3801 96.3414 56.5861 96.2301C56.7921 96.1188 57.0194 96.036 57.2679 95.9815C57.5189 95.9247 57.771 95.8797 58.0243 95.8466C58.3558 95.804 58.6245 95.772 58.8304 95.7507C59.0388 95.727 59.1903 95.688 59.285 95.6335C59.382 95.5791 59.4306 95.4844 59.4306 95.3494V95.321C59.4306 94.9706 59.3347 94.6984 59.1429 94.5043C58.9535 94.3101 58.6659 94.2131 58.28 94.2131C57.8799 94.2131 57.5662 94.3007 57.339 94.4759C57.1117 94.651 56.9519 94.8381 56.8596 95.0369L56.0641 94.7528C56.2061 94.4214 56.3955 94.1634 56.6323 93.9787C56.8714 93.7917 57.1318 93.6615 57.4135 93.5881C57.6976 93.5123 57.977 93.4744 58.2516 93.4744C58.4268 93.4744 58.628 93.4957 58.8553 93.5384C59.0849 93.5786 59.3063 93.6626 59.5194 93.7905C59.7348 93.9183 59.9135 94.1113 60.0556 94.3693C60.1976 94.6274 60.2686 94.973 60.2686 95.4062V99H59.4306V98.2614H59.388C59.3311 98.3797 59.2364 98.5064 59.1039 98.6413C58.9713 98.7763 58.7949 98.8911 58.5748 98.9858C58.3546 99.0805 58.0859 99.1278 57.7686 99.1278ZM57.8965 98.375C58.2279 98.375 58.5073 98.3099 58.7346 98.1797C58.9642 98.0495 59.137 97.8814 59.253 97.6754C59.3714 97.4695 59.4306 97.2528 59.4306 97.0256V96.2585C59.3951 96.3011 59.3169 96.3402 59.1962 96.3757C59.0778 96.4089 58.9405 96.4384 58.7843 96.4645C58.6304 96.4882 58.4801 96.5095 58.3333 96.5284C58.1889 96.545 58.0717 96.5592 57.9817 96.571C57.7639 96.5994 57.5603 96.6456 57.3709 96.7095C57.1839 96.7711 57.0324 96.8646 56.9164 96.9901C56.8027 97.1132 56.7459 97.2812 56.7459 97.4943C56.7459 97.7855 56.8536 98.0057 57.0691 98.1548C57.2869 98.3016 57.5627 98.375 57.8965 98.375ZM64.1705 93.5455V94.2557H61.3438V93.5455H64.1705ZM62.1676 92.2386H63.0057V97.4375C63.0057 97.6742 63.04 97.8518 63.1087 97.9702C63.1797 98.0862 63.2696 98.1643 63.3786 98.2045C63.4898 98.2424 63.607 98.2614 63.7301 98.2614C63.8224 98.2614 63.8982 98.2566 63.9574 98.2472C64.0166 98.2353 64.0639 98.2259 64.0994 98.2188L64.2699 98.9716C64.2131 98.9929 64.1338 99.0142 64.032 99.0355C63.9302 99.0592 63.8011 99.071 63.6449 99.071C63.4081 99.071 63.1761 99.0201 62.9489 98.9183C62.724 98.8165 62.5369 98.6615 62.3878 98.4531C62.241 98.2448 62.1676 97.982 62.1676 97.6648V92.2386ZM67.6594 99.1136C67.1339 99.1136 66.6805 98.9976 66.2994 98.7656C65.9206 98.5312 65.6282 98.2045 65.4222 97.7855C65.2186 97.3641 65.1168 96.8741 65.1168 96.3153C65.1168 95.7566 65.2186 95.2642 65.4222 94.8381C65.6282 94.4096 65.9147 94.0758 66.2816 93.8366C66.6509 93.5952 67.0818 93.4744 67.5742 93.4744C67.8583 93.4744 68.1388 93.5218 68.4158 93.6165C68.6928 93.7112 68.945 93.8651 69.1722 94.0781C69.3995 94.2888 69.5806 94.5682 69.7156 94.9162C69.8505 95.2642 69.918 95.6927 69.918 96.2017V96.5568H65.7134V95.8324H69.0657C69.0657 95.5246 69.0041 95.25 68.881 95.0085C68.7603 94.767 68.5875 94.5765 68.3626 94.4368C68.14 94.2971 67.8772 94.2273 67.5742 94.2273C67.2404 94.2273 66.9516 94.3101 66.7077 94.4759C66.4663 94.6392 66.2804 94.8523 66.1502 95.1151C66.02 95.3778 65.9549 95.6596 65.9549 95.9602V96.4432C65.9549 96.8551 66.0259 97.2043 66.168 97.4908C66.3124 97.7749 66.5124 97.9915 66.7681 98.1406C67.0238 98.2874 67.3209 98.3608 67.6594 98.3608C67.8796 98.3608 68.0785 98.33 68.256 98.2685C68.436 98.2045 68.591 98.1098 68.7212 97.9844C68.8514 97.8565 68.9521 97.6979 69.0231 97.5085L69.8327 97.7358C69.7475 98.0104 69.6043 98.2519 69.4031 98.4602C69.2018 98.6662 68.9532 98.8272 68.6573 98.9432C68.3614 99.0568 68.0288 99.1136 67.6594 99.1136Z" fill="white"/>
</svg>
