<svg width="120" height="136" viewBox="0 0 120 136" fill="none" xmlns="http://www.w3.org/2000/svg">
<path d="M0 0H120V134C120 135.105 119.105 136 118 136H2C0.895429 136 0 135.105 0 134V0Z" fill="#1F1F1F"/>
<circle cx="42" cy="102" r="8" fill="#141414"/>
<circle cx="42" cy="102" r="7.5" stroke="white" stroke-opacity="0.3"/>
<mask id="path-4-inside-1_33_3216" fill="white">
<path d="M35.3964 106.516C34.2693 104.868 33.7993 102.858 34.0787 100.881C34.3581 98.9036 35.3667 97.1025 36.9063 95.8312L37.5171 96.571C36.1621 97.6898 35.2745 99.2749 35.0286 101.015C34.7827 102.755 35.1964 104.524 36.1883 105.974L35.3964 106.516Z"/>
</mask>
<path d="M35.3964 106.516C34.2693 104.868 33.7993 102.858 34.0787 100.881C34.3581 98.9036 35.3667 97.1025 36.9063 95.8312L37.5171 96.571C36.1621 97.6898 35.2745 99.2749 35.0286 101.015C34.7827 102.755 35.1964 104.524 36.1883 105.974L35.3964 106.516Z" fill="#141414" stroke="white" stroke-width="2" mask="url(#path-4-inside-1_33_3216)"/>
<line x1="36.4397" y1="96.6801" x2="39.4026" y2="100.704" stroke="white"/>
<path d="M23.3807 124V116.727H25.9233C26.4299 116.727 26.8478 116.815 27.1768 116.99C27.5059 117.163 27.7509 117.396 27.9119 117.69C28.0729 117.981 28.1534 118.304 28.1534 118.659C28.1534 118.972 28.0978 119.23 27.9865 119.433C27.8776 119.637 27.7332 119.798 27.5533 119.916C27.3757 120.035 27.1828 120.122 26.9744 120.179V120.25C27.197 120.264 27.4207 120.342 27.6456 120.484C27.8705 120.626 28.0587 120.83 28.2102 121.095C28.3617 121.36 28.4375 121.685 28.4375 122.068C28.4375 122.433 28.3546 122.761 28.1889 123.052C28.0232 123.343 27.7616 123.574 27.4041 123.744C27.0466 123.915 26.5814 124 26.0085 124H23.3807ZM24.2614 123.219H26.0085C26.5838 123.219 26.9922 123.107 27.2337 122.885C27.4775 122.66 27.5994 122.388 27.5994 122.068C27.5994 121.822 27.5367 121.595 27.4112 121.386C27.2857 121.176 27.107 121.008 26.875 120.882C26.643 120.754 26.3684 120.69 26.0511 120.69H24.2614V123.219ZM24.2614 119.923H25.8949C26.16 119.923 26.3991 119.871 26.6122 119.767C26.8277 119.663 26.9981 119.516 27.1236 119.327C27.2514 119.137 27.3153 118.915 27.3153 118.659C27.3153 118.339 27.2041 118.068 26.9815 117.846C26.759 117.621 26.4063 117.509 25.9233 117.509H24.2614V119.923ZM31.3761 124.128C31.0304 124.128 30.7167 124.063 30.435 123.933C30.1533 123.8 29.9296 123.609 29.7638 123.361C29.5981 123.11 29.5153 122.807 29.5153 122.452C29.5153 122.139 29.5768 121.886 29.6999 121.692C29.823 121.495 29.9876 121.341 30.1935 121.23C30.3995 121.119 30.6268 121.036 30.8754 120.982C31.1263 120.925 31.3784 120.88 31.6317 120.847C31.9632 120.804 32.2319 120.772 32.4379 120.751C32.6462 120.727 32.7977 120.688 32.8924 120.634C32.9895 120.579 33.038 120.484 33.038 120.349V120.321C33.038 119.971 32.9421 119.698 32.7504 119.504C32.561 119.31 32.2733 119.213 31.8874 119.213C31.4873 119.213 31.1737 119.301 30.9464 119.476C30.7191 119.651 30.5593 119.838 30.467 120.037L29.6715 119.753C29.8136 119.421 30.003 119.163 30.2397 118.979C30.4788 118.792 30.7392 118.661 31.021 118.588C31.305 118.512 31.5844 118.474 31.859 118.474C32.0342 118.474 32.2354 118.496 32.4627 118.538C32.6924 118.579 32.9137 118.663 33.1268 118.79C33.3422 118.918 33.521 119.111 33.663 119.369C33.805 119.627 33.8761 119.973 33.8761 120.406V124H33.038V123.261H32.9954C32.9386 123.38 32.8439 123.506 32.7113 123.641C32.5787 123.776 32.4023 123.891 32.1822 123.986C31.962 124.08 31.6933 124.128 31.3761 124.128ZM31.5039 123.375C31.8353 123.375 32.1147 123.31 32.342 123.18C32.5716 123.049 32.7444 122.881 32.8604 122.675C32.9788 122.469 33.038 122.253 33.038 122.026V121.259C33.0025 121.301 32.9244 121.34 32.8036 121.376C32.6853 121.409 32.5479 121.438 32.3917 121.464C32.2378 121.488 32.0875 121.509 31.9407 121.528C31.7963 121.545 31.6791 121.559 31.5891 121.571C31.3713 121.599 31.1677 121.646 30.9783 121.71C30.7913 121.771 30.6398 121.865 30.5238 121.99C30.4102 122.113 30.3533 122.281 30.3533 122.494C30.3533 122.786 30.4611 123.006 30.6765 123.155C30.8943 123.302 31.1701 123.375 31.5039 123.375ZM36.2438 116.727V124H35.4057V116.727H36.2438ZM39.3839 124.128C39.0382 124.128 38.7246 124.063 38.4428 123.933C38.1611 123.8 37.9374 123.609 37.7717 123.361C37.6059 123.11 37.5231 122.807 37.5231 122.452C37.5231 122.139 37.5846 121.886 37.7077 121.692C37.8308 121.495 37.9954 121.341 38.2013 121.23C38.4073 121.119 38.6346 121.036 38.8832 120.982C39.1341 120.925 39.3862 120.88 39.6396 120.847C39.971 120.804 40.2397 120.772 40.4457 120.751C40.654 120.727 40.8055 120.688 40.9002 120.634C40.9973 120.579 41.0458 120.484 41.0458 120.349V120.321C41.0458 119.971 40.9499 119.698 40.7582 119.504C40.5688 119.31 40.2811 119.213 39.8952 119.213C39.4951 119.213 39.1815 119.301 38.9542 119.476C38.7269 119.651 38.5671 119.838 38.4748 120.037L37.6793 119.753C37.8214 119.421 38.0108 119.163 38.2475 118.979C38.4866 118.792 38.747 118.661 39.0288 118.588C39.3129 118.512 39.5922 118.474 39.8668 118.474C40.042 118.474 40.2433 118.496 40.4705 118.538C40.7002 118.579 40.9215 118.663 41.1346 118.79C41.35 118.918 41.5288 119.111 41.6708 119.369C41.8129 119.627 41.8839 119.973 41.8839 120.406V124H41.0458V123.261H41.0032C40.9464 123.38 40.8517 123.506 40.7191 123.641C40.5865 123.776 40.4102 123.891 40.19 123.986C39.9698 124.08 39.7011 124.128 39.3839 124.128ZM39.5117 123.375C39.8432 123.375 40.1225 123.31 40.3498 123.18C40.5794 123.049 40.7522 122.881 40.8683 122.675C40.9866 122.469 41.0458 122.253 41.0458 122.026V121.259C41.0103 121.301 40.9322 121.34 40.8114 121.376C40.6931 121.409 40.5558 121.438 40.3995 121.464C40.2456 121.488 40.0953 121.509 39.9485 121.528C39.8041 121.545 39.6869 121.559 39.5969 121.571C39.3791 121.599 39.1755 121.646 38.9862 121.71C38.7991 121.771 38.6476 121.865 38.5316 121.99C38.418 122.113 38.3612 122.281 38.3612 122.494C38.3612 122.786 38.4689 123.006 38.6843 123.155C38.9021 123.302 39.1779 123.375 39.5117 123.375ZM44.2516 120.719V124H43.4135V118.545H44.2232V119.398H44.2942C44.4221 119.121 44.6162 118.898 44.8766 118.73C45.137 118.56 45.4732 118.474 45.8851 118.474C46.2544 118.474 46.5776 118.55 46.8546 118.702C47.1316 118.851 47.347 119.078 47.5009 119.384C47.6548 119.687 47.7317 120.07 47.7317 120.534V124H46.8936V120.591C46.8936 120.162 46.7824 119.829 46.5598 119.589C46.3373 119.348 46.0319 119.227 45.6436 119.227C45.3761 119.227 45.137 119.285 44.9263 119.401C44.718 119.517 44.5534 119.687 44.4327 119.909C44.312 120.132 44.2516 120.402 44.2516 120.719ZM51.479 124.114C50.9677 124.114 50.5273 123.993 50.158 123.751C49.7887 123.51 49.5046 123.177 49.3058 122.754C49.1069 122.33 49.0075 121.846 49.0075 121.301C49.0075 120.747 49.1093 120.258 49.3129 119.835C49.5188 119.408 49.8053 119.076 50.1722 118.837C50.5415 118.595 50.9724 118.474 51.4648 118.474C51.8484 118.474 52.194 118.545 52.5018 118.688C52.8095 118.83 53.0617 119.028 53.2582 119.284C53.4547 119.54 53.5766 119.838 53.6239 120.179H52.7859C52.7219 119.93 52.5799 119.71 52.3597 119.518C52.1419 119.324 51.8484 119.227 51.479 119.227C51.1523 119.227 50.8659 119.312 50.6197 119.483C50.3758 119.651 50.1853 119.889 50.0479 120.197C49.913 120.502 49.8455 120.861 49.8455 121.273C49.8455 121.694 49.9118 122.061 50.0444 122.374C50.1793 122.686 50.3687 122.929 50.6126 123.102C50.8588 123.274 51.1476 123.361 51.479 123.361C51.6969 123.361 51.8945 123.323 52.0721 123.247C52.2496 123.171 52.4 123.062 52.5231 122.92C52.6462 122.778 52.7338 122.608 52.7859 122.409H53.6239C53.5766 122.731 53.4594 123.021 53.2724 123.279C53.0877 123.535 52.8427 123.738 52.5373 123.89C52.2343 124.039 51.8815 124.114 51.479 124.114ZM57.136 124.114C56.6104 124.114 56.1571 123.998 55.7759 123.766C55.3971 123.531 55.1048 123.205 54.8988 122.786C54.6952 122.364 54.5934 121.874 54.5934 121.315C54.5934 120.757 54.6952 120.264 54.8988 119.838C55.1048 119.41 55.3912 119.076 55.7582 118.837C56.1275 118.595 56.5584 118.474 57.0508 118.474C57.3349 118.474 57.6154 118.522 57.8924 118.616C58.1694 118.711 58.4215 118.865 58.6488 119.078C58.8761 119.289 59.0572 119.568 59.1921 119.916C59.3271 120.264 59.3945 120.693 59.3945 121.202V121.557H55.19V120.832H58.5423C58.5423 120.525 58.4807 120.25 58.3576 120.009C58.2369 119.767 58.064 119.576 57.8391 119.437C57.6166 119.297 57.3538 119.227 57.0508 119.227C56.717 119.227 56.4281 119.31 56.1843 119.476C55.9428 119.639 55.757 119.852 55.6268 120.115C55.4966 120.378 55.4315 120.66 55.4315 120.96V121.443C55.4315 121.855 55.5025 122.204 55.6445 122.491C55.7889 122.775 55.989 122.991 56.2447 123.141C56.5004 123.287 56.7975 123.361 57.136 123.361C57.3562 123.361 57.555 123.33 57.7326 123.268C57.9125 123.205 58.0676 123.11 58.1978 122.984C58.328 122.857 58.4286 122.698 58.4996 122.509L59.3093 122.736C59.2241 123.01 59.0808 123.252 58.8796 123.46C58.6784 123.666 58.4298 123.827 58.1339 123.943C57.8379 124.057 57.5053 124.114 57.136 124.114Z" fill="white"/>
<circle cx="88.5" cy="102" r="8" fill="#141414"/>
<circle cx="88.5" cy="102" r="7.5" stroke="white" stroke-opacity="0.3"/>
<mask id="path-9-inside-2_33_3216" fill="white">
<path d="M81.8964 106.516C80.8516 104.988 80.3689 103.145 80.5306 101.301C80.6922 99.4577 81.4881 97.727 82.7827 96.4043C84.0773 95.0815 85.7905 94.2486 87.6303 94.0474C89.4702 93.8462 91.3229 94.2892 92.8728 95.3008C94.4227 96.3125 95.5738 97.8303 96.1301 99.5956C96.6864 101.361 96.6134 103.264 95.9235 104.982C95.2337 106.699 93.9696 108.124 92.3468 109.014C90.724 109.904 88.8428 110.204 87.0237 109.863L87.2007 108.92C88.8017 109.22 90.4573 108.957 91.8855 108.173C93.3137 107.39 94.4262 106.136 95.0333 104.624C95.6404 103.113 95.7047 101.437 95.2151 99.8839C94.7255 98.3303 93.7124 96.9946 92.3484 96.1042C90.9844 95.2139 89.3539 94.824 87.7346 95.0011C86.1154 95.1782 84.6076 95.9112 83.4683 97.0753C82.3289 98.2394 81.6285 99.7626 81.4862 101.385C81.344 103.008 81.7688 104.63 82.6883 105.974L81.8964 106.516Z"/>
</mask>
<path d="M81.8964 106.516C80.8516 104.988 80.3689 103.145 80.5306 101.301C80.6922 99.4577 81.4881 97.727 82.7827 96.4043C84.0773 95.0815 85.7905 94.2486 87.6303 94.0474C89.4702 93.8462 91.3229 94.2892 92.8728 95.3008C94.4227 96.3125 95.5738 97.8303 96.1301 99.5956C96.6864 101.361 96.6134 103.264 95.9235 104.982C95.2337 106.699 93.9696 108.124 92.3468 109.014C90.724 109.904 88.8428 110.204 87.0237 109.863L87.2007 108.92C88.8017 109.22 90.4573 108.957 91.8855 108.173C93.3137 107.39 94.4262 106.136 95.0333 104.624C95.6404 103.113 95.7047 101.437 95.2151 99.8839C94.7255 98.3303 93.7124 96.9946 92.3484 96.1042C90.9844 95.2139 89.3539 94.824 87.7346 95.0011C86.1154 95.1782 84.6076 95.9112 83.4683 97.0753C82.3289 98.2394 81.6285 99.7626 81.4862 101.385C81.344 103.008 81.7688 104.63 82.6883 105.974L81.8964 106.516Z" fill="#141414" stroke="white" stroke-width="2" mask="url(#path-9-inside-2_33_3216)"/>
<line x1="87.5" y1="110" x2="87.5" y2="105" stroke="white"/>
<path d="M81.3807 116.727H82.4318L84.9034 122.764H84.9886L87.4602 116.727H88.5114V124H87.6875V118.474H87.6165L85.3438 124H84.5483L82.2756 118.474H82.2045V124H81.3807V116.727ZM90.1635 124V118.545H91.0016V124H90.1635ZM90.5897 117.636C90.4263 117.636 90.2855 117.581 90.1671 117.469C90.0511 117.358 89.9931 117.224 89.9931 117.068C89.9931 116.912 90.0511 116.778 90.1671 116.667C90.2855 116.556 90.4263 116.5 90.5897 116.5C90.753 116.5 90.8927 116.556 91.0087 116.667C91.1271 116.778 91.1863 116.912 91.1863 117.068C91.1863 117.224 91.1271 117.358 91.0087 117.469C90.8927 117.581 90.753 117.636 90.5897 117.636ZM93.1616 118.545L94.4684 120.776L95.7752 118.545H96.7411L94.9798 121.273L96.7411 124H95.7752L94.4684 121.884L93.1616 124H92.1957L93.9286 121.273L92.1957 118.545H93.1616Z" fill="white"/>
<rect x="10" y="55" width="100" height="2" rx="1" fill="white" fill-opacity="0.1"/>
<path d="M10 56C10 55.4477 10.4477 55 11 55H43C43.5523 55 44 55.4477 44 56C44 56.5523 43.5523 57 43 57H11C10.4477 57 10 56.5523 10 56Z" fill="white"/>
<circle cx="44" cy="55" r="3" fill="white"/>
<path d="M10.483 42.5085V41.7273H15.9375V42.5085H13.6506V49H12.7699V42.5085H10.483ZM16.6167 49V43.5455H17.4263V44.3693H17.4831C17.5826 44.0994 17.7625 43.8804 18.0229 43.7124C18.2833 43.5443 18.5769 43.4602 18.9036 43.4602C18.9651 43.4602 19.0421 43.4614 19.1344 43.4638C19.2267 43.4661 19.2966 43.4697 19.3439 43.4744V44.3267C19.3155 44.3196 19.2504 44.3089 19.1486 44.2947C19.0492 44.2782 18.9438 44.2699 18.8326 44.2699C18.5674 44.2699 18.3307 44.3255 18.1223 44.4368C17.9164 44.5457 17.753 44.6972 17.6323 44.8913C17.5139 45.0831 17.4547 45.3021 17.4547 45.5483V49H16.6167ZM22.4583 49.1136C21.9327 49.1136 21.4793 48.9976 21.0982 48.7656C20.7194 48.5312 20.427 48.2045 20.2211 47.7855C20.0175 47.3641 19.9157 46.8741 19.9157 46.3153C19.9157 45.7566 20.0175 45.2642 20.2211 44.8381C20.427 44.4096 20.7135 44.0758 21.0804 43.8366C21.4498 43.5952 21.8806 43.4744 22.373 43.4744C22.6571 43.4744 22.9377 43.5218 23.2147 43.6165C23.4917 43.7112 23.7438 43.8651 23.9711 44.0781C24.1983 44.2888 24.3794 44.5682 24.5144 44.9162C24.6493 45.2642 24.7168 45.6927 24.7168 46.2017V46.5568H20.5123V45.8324H23.8645C23.8645 45.5246 23.803 45.25 23.6799 45.0085C23.5591 44.767 23.3863 44.5765 23.1614 44.4368C22.9389 44.2971 22.6761 44.2273 22.373 44.2273C22.0392 44.2273 21.7504 44.3101 21.5066 44.4759C21.2651 44.6392 21.0792 44.8523 20.949 45.1151C20.8188 45.3778 20.7537 45.6596 20.7537 45.9602V46.4432C20.7537 46.8551 20.8248 47.2043 20.9668 47.4908C21.1112 47.7749 21.3113 47.9915 21.5669 48.1406C21.8226 48.2874 22.1197 48.3608 22.4583 48.3608C22.6784 48.3608 22.8773 48.33 23.0549 48.2685C23.2348 48.2045 23.3899 48.1098 23.5201 47.9844C23.6503 47.8565 23.7509 47.6979 23.8219 47.5085L24.6316 47.7358C24.5463 48.0104 24.4031 48.2519 24.2019 48.4602C24.0007 48.6662 23.7521 48.8272 23.4561 48.9432C23.1602 49.0568 22.8276 49.1136 22.4583 49.1136ZM26.1053 49V41.7273H26.9434V44.4119H27.0144C27.0759 44.3172 27.1612 44.1965 27.2701 44.0497C27.3813 43.9006 27.54 43.768 27.7459 43.652C27.9542 43.5336 28.236 43.4744 28.5911 43.4744C29.0504 43.4744 29.4552 43.5893 29.8056 43.8189C30.156 44.0485 30.4294 44.3741 30.6259 44.7955C30.8224 45.2169 30.9206 45.714 30.9206 46.2869C30.9206 46.8646 30.8224 47.3653 30.6259 47.7891C30.4294 48.2105 30.1571 48.5372 29.8091 48.7692C29.4611 48.9988 29.0598 49.1136 28.6053 49.1136C28.2549 49.1136 27.9744 49.0556 27.7637 48.9396C27.553 48.8213 27.3908 48.6875 27.2772 48.5384C27.1635 48.3868 27.0759 48.2614 27.0144 48.1619H26.915V49H26.1053ZM26.9292 46.2727C26.9292 46.6847 26.9895 47.0481 27.1103 47.3629C27.231 47.6754 27.4074 47.9205 27.6394 48.098C27.8714 48.2732 28.1555 48.3608 28.4917 48.3608C28.842 48.3608 29.1344 48.2685 29.3688 48.0838C29.6055 47.8968 29.7831 47.6458 29.9015 47.331C30.0222 47.0137 30.0826 46.661 30.0826 46.2727C30.0826 45.8892 30.0234 45.5436 29.905 45.2358C29.789 44.9257 29.6126 44.6806 29.3759 44.5007C29.1415 44.3184 28.8468 44.2273 28.4917 44.2273C28.1507 44.2273 27.8643 44.3137 27.6323 44.4865C27.4003 44.657 27.2251 44.8961 27.1067 45.2038C26.9883 45.5092 26.9292 45.8655 26.9292 46.2727ZM33.0407 41.7273V49H32.2026V41.7273H33.0407ZM36.8626 49.1136C36.337 49.1136 35.8836 48.9976 35.5025 48.7656C35.1237 48.5312 34.8313 48.2045 34.6254 47.7855C34.4218 47.3641 34.32 46.8741 34.32 46.3153C34.32 45.7566 34.4218 45.2642 34.6254 44.8381C34.8313 44.4096 35.1178 44.0758 35.4847 43.8366C35.854 43.5952 36.2849 43.4744 36.7773 43.4744C37.0614 43.4744 37.342 43.5218 37.619 43.6165C37.896 43.7112 38.1481 43.8651 38.3754 44.0781C38.6026 44.2888 38.7837 44.5682 38.9187 44.9162C39.0536 45.2642 39.1211 45.6927 39.1211 46.2017V46.5568H34.9165V45.8324H38.2688C38.2688 45.5246 38.2073 45.25 38.0842 45.0085C37.9634 44.767 37.7906 44.5765 37.5657 44.4368C37.3432 44.2971 37.0804 44.2273 36.7773 44.2273C36.4435 44.2273 36.1547 44.3101 35.9109 44.4759C35.6694 44.6392 35.4835 44.8523 35.3533 45.1151C35.2231 45.3778 35.158 45.6596 35.158 45.9602V46.4432C35.158 46.8551 35.229 47.2043 35.3711 47.4908C35.5155 47.7749 35.7156 47.9915 35.9712 48.1406C36.2269 48.2874 36.524 48.3608 36.8626 48.3608C37.0827 48.3608 37.2816 48.33 37.4592 48.2685C37.6391 48.2045 37.7942 48.1098 37.9244 47.9844C38.0546 47.8565 38.1552 47.6979 38.2262 47.5085L39.0359 47.7358C38.9506 48.0104 38.8074 48.2519 38.6062 48.4602C38.4049 48.6662 38.1564 48.8272 37.8604 48.9432C37.5645 49.0568 37.2319 49.1136 36.8626 49.1136ZM47.2994 43.5455C47.2567 43.1856 47.0839 42.9062 46.7809 42.7074C46.4779 42.5085 46.1062 42.4091 45.6658 42.4091C45.3439 42.4091 45.0621 42.4612 44.8207 42.5653C44.5816 42.6695 44.3945 42.8127 44.2596 42.995C44.127 43.1773 44.0607 43.3845 44.0607 43.6165C44.0607 43.8106 44.1069 43.9775 44.1992 44.1172C44.2939 44.2545 44.4147 44.3693 44.5614 44.4616C44.7082 44.5516 44.8621 44.6262 45.0231 44.6854C45.1841 44.7422 45.332 44.7884 45.467 44.8239L46.2056 45.0227C46.395 45.0724 46.6057 45.1411 46.8377 45.2287C47.0721 45.3163 47.2958 45.4358 47.5089 45.5874C47.7243 45.7365 47.9019 45.9283 48.0415 46.1626C48.1812 46.397 48.2511 46.6847 48.2511 47.0256C48.2511 47.4186 48.1481 47.7737 47.9421 48.0909C47.7385 48.4081 47.4402 48.6603 47.0472 48.8473C46.6566 49.0343 46.1819 49.1278 45.6232 49.1278C45.1024 49.1278 44.6514 49.0438 44.2702 48.8757C43.8915 48.7076 43.5932 48.4732 43.3754 48.1726C43.1599 47.8719 43.038 47.5227 43.0096 47.125H43.9187C43.9424 47.3996 44.0347 47.6269 44.1957 47.8068C44.359 47.9844 44.565 48.117 44.8136 48.2045C45.0645 48.2898 45.3344 48.3324 45.6232 48.3324C45.9594 48.3324 46.2612 48.2779 46.5288 48.169C46.7963 48.0578 47.0082 47.9039 47.1644 47.7074C47.3207 47.5085 47.3988 47.2765 47.3988 47.0114C47.3988 46.7699 47.3313 46.5734 47.1964 46.4219C47.0614 46.2704 46.8839 46.1473 46.6637 46.0526C46.4435 45.9579 46.2056 45.875 45.9499 45.804L45.055 45.5483C44.4869 45.3849 44.0371 45.1518 43.7056 44.8487C43.3742 44.5457 43.2085 44.1491 43.2085 43.6591C43.2085 43.2519 43.3185 42.8968 43.5387 42.5938C43.7612 42.2884 44.0595 42.0516 44.4336 41.8835C44.81 41.7131 45.2302 41.6278 45.6942 41.6278C46.163 41.6278 46.5797 41.7119 46.9442 41.88C47.3088 42.0457 47.5977 42.273 47.8107 42.5618C48.0262 42.8506 48.1398 43.1785 48.1516 43.5455H47.2994ZM49.5854 51.0455V43.5455H50.3951V44.4119H50.4945C50.556 44.3172 50.6413 44.1965 50.7502 44.0497C50.8614 43.9006 51.0201 43.768 51.226 43.652C51.4344 43.5336 51.7161 43.4744 52.0712 43.4744C52.5305 43.4744 52.9353 43.5893 53.2857 43.8189C53.6361 44.0485 53.9095 44.3741 54.106 44.7955C54.3025 45.2169 54.4007 45.714 54.4007 46.2869C54.4007 46.8646 54.3025 47.3653 54.106 47.7891C53.9095 48.2105 53.6373 48.5372 53.2892 48.7692C52.9412 48.9988 52.54 49.1136 52.0854 49.1136C51.735 49.1136 51.4545 49.0556 51.2438 48.9396C51.0331 48.8213 50.8709 48.6875 50.7573 48.5384C50.6436 48.3868 50.556 48.2614 50.4945 48.1619H50.4235V51.0455H49.5854ZM50.4093 46.2727C50.4093 46.6847 50.4696 47.0481 50.5904 47.3629C50.7111 47.6754 50.8875 47.9205 51.1195 48.098C51.3515 48.2732 51.6356 48.3608 51.9718 48.3608C52.3221 48.3608 52.6145 48.2685 52.8489 48.0838C53.0856 47.8968 53.2632 47.6458 53.3816 47.331C53.5023 47.0137 53.5627 46.661 53.5627 46.2727C53.5627 45.8892 53.5035 45.5436 53.3851 45.2358C53.2691 44.9257 53.0927 44.6806 52.856 44.5007C52.6216 44.3184 52.3269 44.2273 51.9718 44.2273C51.6309 44.2273 51.3444 44.3137 51.1124 44.4865C50.8804 44.657 50.7052 44.8961 50.5868 45.2038C50.4685 45.5092 50.4093 45.8655 50.4093 46.2727ZM57.9661 49.1136C57.4405 49.1136 56.9872 48.9976 56.606 48.7656C56.2272 48.5312 55.9348 48.2045 55.7289 47.7855C55.5253 47.3641 55.4235 46.8741 55.4235 46.3153C55.4235 45.7566 55.5253 45.2642 55.7289 44.8381C55.9348 44.4096 56.2213 44.0758 56.5882 43.8366C56.9576 43.5952 57.3884 43.4744 57.8809 43.4744C58.165 43.4744 58.4455 43.5218 58.7225 43.6165C58.9995 43.7112 59.2516 43.8651 59.4789 44.0781C59.7061 44.2888 59.8873 44.5682 60.0222 44.9162C60.1571 45.2642 60.2246 45.6927 60.2246 46.2017V46.5568H56.0201V45.8324H59.3723C59.3723 45.5246 59.3108 45.25 59.1877 45.0085C59.0669 44.767 58.8941 44.5765 58.6692 44.4368C58.4467 44.2971 58.1839 44.2273 57.8809 44.2273C57.5471 44.2273 57.2582 44.3101 57.0144 44.4759C56.7729 44.6392 56.5871 44.8523 56.4569 45.1151C56.3266 45.3778 56.2615 45.6596 56.2615 45.9602V46.4432C56.2615 46.8551 56.3326 47.2043 56.4746 47.4908C56.619 47.7749 56.8191 47.9915 57.0748 48.1406C57.3304 48.2874 57.6275 48.3608 57.9661 48.3608C58.1863 48.3608 58.3851 48.33 58.5627 48.2685C58.7426 48.2045 58.8977 48.1098 59.0279 47.9844C59.1581 47.8565 59.2587 47.6979 59.3297 47.5085L60.1394 47.7358C60.0542 48.0104 59.9109 48.2519 59.7097 48.4602C59.5085 48.6662 59.2599 48.8272 58.964 48.9432C58.668 49.0568 58.3354 49.1136 57.9661 49.1136ZM63.7864 49.1136C63.2608 49.1136 62.8075 48.9976 62.4263 48.7656C62.0475 48.5312 61.7551 48.2045 61.5492 47.7855C61.3456 47.3641 61.2438 46.8741 61.2438 46.3153C61.2438 45.7566 61.3456 45.2642 61.5492 44.8381C61.7551 44.4096 62.0416 44.0758 62.4086 43.8366C62.7779 43.5952 63.2087 43.4744 63.7012 43.4744C63.9853 43.4744 64.2658 43.5218 64.5428 43.6165C64.8198 43.7112 65.0719 43.8651 65.2992 44.0781C65.5265 44.2888 65.7076 44.5682 65.8425 44.9162C65.9775 45.2642 66.0449 45.6927 66.0449 46.2017V46.5568H61.8404V45.8324H65.1926C65.1926 45.5246 65.1311 45.25 65.008 45.0085C64.8873 44.767 64.7144 44.5765 64.4895 44.4368C64.267 44.2971 64.0042 44.2273 63.7012 44.2273C63.3674 44.2273 63.0785 44.3101 62.8347 44.4759C62.5932 44.6392 62.4074 44.8523 62.2772 45.1151C62.147 45.3778 62.0819 45.6596 62.0819 45.9602V46.4432C62.0819 46.8551 62.1529 47.2043 62.2949 47.4908C62.4393 47.7749 62.6394 47.9915 62.8951 48.1406C63.1507 48.2874 63.4479 48.3608 63.7864 48.3608C64.0066 48.3608 64.2054 48.33 64.383 48.2685C64.5629 48.2045 64.718 48.1098 64.8482 47.9844C64.9784 47.8565 65.079 47.6979 65.15 47.5085L65.9597 47.7358C65.8745 48.0104 65.7312 48.2519 65.53 48.4602C65.3288 48.6662 65.0802 48.8272 64.7843 48.9432C64.4883 49.0568 64.1557 49.1136 63.7864 49.1136ZM69.3794 49.1136C68.9249 49.1136 68.5236 48.9988 68.1756 48.7692C67.8276 48.5372 67.5553 48.2105 67.3588 47.7891C67.1623 47.3653 67.0641 46.8646 67.0641 46.2869C67.0641 45.714 67.1623 45.2169 67.3588 44.7955C67.5553 44.3741 67.8288 44.0485 68.1792 43.8189C68.5295 43.5893 68.9344 43.4744 69.3936 43.4744C69.7488 43.4744 70.0293 43.5336 70.2353 43.652C70.4436 43.768 70.6022 43.9006 70.7111 44.0497C70.8224 44.1965 70.9088 44.3172 70.9703 44.4119H71.0414V41.7273H71.8794V49H71.0698V48.1619H70.9703C70.9088 48.2614 70.8212 48.3868 70.7076 48.5384C70.5939 48.6875 70.4318 48.8213 70.2211 48.9396C70.0104 49.0556 69.7298 49.1136 69.3794 49.1136ZM69.4931 48.3608C69.8292 48.3608 70.1133 48.2732 70.3453 48.098C70.5774 47.9205 70.7537 47.6754 70.8745 47.3629C70.9952 47.0481 71.0556 46.6847 71.0556 46.2727C71.0556 45.8655 70.9964 45.5092 70.878 45.2038C70.7596 44.8961 70.5845 44.657 70.3525 44.4865C70.1204 44.3137 69.834 44.2273 69.4931 44.2273C69.138 44.2273 68.842 44.3184 68.6053 44.5007C68.3709 44.6806 68.1945 44.9257 68.0762 45.2358C67.9602 45.5436 67.9022 45.8892 67.9022 46.2727C67.9022 46.661 67.9614 47.0137 68.0797 47.331C68.2005 47.6458 68.378 47.8968 68.6124 48.0838C68.8491 48.2685 69.1427 48.3608 69.4931 48.3608Z" fill="white"/>
<rect x="10" y="85" width="100" height="2" rx="1" fill="white" fill-opacity="0.1"/>
<path d="M10 86C10 85.4477 10.4477 85 11 85H43C43.5523 85 44 85.4477 44 86C44 86.5523 43.5523 87 43 87H11C10.4477 87 10 86.5523 10 86Z" fill="white"/>
<circle cx="44" cy="85" r="3" fill="white"/>
<path d="M10.8807 79V71.7273H13.4233C13.9299 71.7273 14.3478 71.8149 14.6768 71.9901C15.0059 72.1629 15.2509 72.3961 15.4119 72.6896C15.5729 72.9808 15.6534 73.304 15.6534 73.6591C15.6534 73.9716 15.5978 74.2296 15.4865 74.4332C15.3776 74.6368 15.2332 74.7978 15.0533 74.9162C14.8757 75.0346 14.6828 75.1222 14.4744 75.179V75.25C14.697 75.2642 14.9207 75.3423 15.1456 75.4844C15.3705 75.6264 15.5587 75.83 15.7102 76.0952C15.8617 76.3603 15.9375 76.6847 15.9375 77.0682C15.9375 77.4328 15.8546 77.7607 15.6889 78.0518C15.5232 78.343 15.2616 78.5739 14.9041 78.7443C14.5466 78.9148 14.0814 79 13.5085 79H10.8807ZM11.7614 78.2188H13.5085C14.0838 78.2188 14.4922 78.1075 14.7337 77.8849C14.9775 77.66 15.0994 77.3878 15.0994 77.0682C15.0994 76.822 15.0367 76.5947 14.9112 76.3864C14.7857 76.1757 14.607 76.0076 14.375 75.8821C14.143 75.7543 13.8684 75.6903 13.5511 75.6903H11.7614V78.2188ZM11.7614 74.9233H13.3949C13.66 74.9233 13.8991 74.8712 14.1122 74.767C14.3277 74.6629 14.4981 74.5161 14.6236 74.3267C14.7514 74.1373 14.8153 73.9148 14.8153 73.6591C14.8153 73.3395 14.7041 73.0684 14.4815 72.8459C14.259 72.621 13.9063 72.5085 13.4233 72.5085H11.7614V74.9233ZM18.8761 79.1278C18.5304 79.1278 18.2167 79.0627 17.935 78.9325C17.6533 78.8 17.4296 78.6094 17.2638 78.3608C17.0981 78.1098 17.0153 77.8068 17.0153 77.4517C17.0153 77.1392 17.0768 76.8859 17.1999 76.6918C17.323 76.4953 17.4876 76.3414 17.6935 76.2301C17.8995 76.1188 18.1268 76.036 18.3754 75.9815C18.6263 75.9247 18.8784 75.8797 19.1317 75.8466C19.4632 75.804 19.7319 75.772 19.9379 75.7507C20.1462 75.727 20.2977 75.688 20.3924 75.6335C20.4895 75.5791 20.538 75.4844 20.538 75.3494V75.321C20.538 74.9706 20.4421 74.6984 20.2504 74.5043C20.061 74.3101 19.7733 74.2131 19.3874 74.2131C18.9873 74.2131 18.6737 74.3007 18.4464 74.4759C18.2191 74.651 18.0593 74.8381 17.967 75.0369L17.1715 74.7528C17.3136 74.4214 17.503 74.1634 17.7397 73.9787C17.9788 73.7917 18.2392 73.6615 18.521 73.5881C18.805 73.5123 19.0844 73.4744 19.359 73.4744C19.5342 73.4744 19.7354 73.4957 19.9627 73.5384C20.1924 73.5786 20.4137 73.6626 20.6268 73.7905C20.8422 73.9183 21.021 74.1113 21.163 74.3693C21.305 74.6274 21.3761 74.973 21.3761 75.4062V79H20.538V78.2614H20.4954C20.4386 78.3797 20.3439 78.5064 20.2113 78.6413C20.0787 78.7763 19.9023 78.8911 19.6822 78.9858C19.462 79.0805 19.1933 79.1278 18.8761 79.1278ZM19.0039 78.375C19.3353 78.375 19.6147 78.3099 19.842 78.1797C20.0716 78.0495 20.2444 77.8814 20.3604 77.6754C20.4788 77.4695 20.538 77.2528 20.538 77.0256V76.2585C20.5025 76.3011 20.4244 76.3402 20.3036 76.3757C20.1853 76.4089 20.0479 76.4384 19.8917 76.4645C19.7378 76.4882 19.5875 76.5095 19.4407 76.5284C19.2963 76.545 19.1791 76.5592 19.0891 76.571C18.8713 76.5994 18.6677 76.6456 18.4783 76.7095C18.2913 76.7711 18.1398 76.8646 18.0238 76.9901C17.9102 77.1132 17.8533 77.2812 17.8533 77.4943C17.8533 77.7855 17.9611 78.0057 18.1765 78.1548C18.3943 78.3016 18.6701 78.375 19.0039 78.375ZM26.7694 74.767L26.0165 74.9801C25.9692 74.8546 25.8993 74.7327 25.807 74.6143C25.717 74.4936 25.5939 74.3942 25.4377 74.3161C25.2814 74.2379 25.0814 74.1989 24.8375 74.1989C24.5037 74.1989 24.2256 74.2758 24.003 74.4297C23.7828 74.5812 23.6728 74.7741 23.6728 75.0085C23.6728 75.2169 23.7485 75.3814 23.9 75.5021C24.0516 75.6229 24.2883 75.7235 24.6103 75.804L25.4199 76.0028C25.9076 76.1212 26.271 76.3023 26.5101 76.5462C26.7492 76.7876 26.8688 77.099 26.8688 77.4801C26.8688 77.7926 26.7788 78.072 26.5989 78.3182C26.4213 78.5644 26.1728 78.7585 25.8532 78.9006C25.5336 79.0426 25.1619 79.1136 24.7381 79.1136C24.1818 79.1136 23.7213 78.9929 23.3567 78.7514C22.9921 78.5099 22.7613 78.1572 22.6642 77.6932L23.4597 77.4943C23.5355 77.7879 23.6787 78.008 23.8894 78.1548C24.1025 78.3016 24.3806 78.375 24.7239 78.375C25.1145 78.375 25.4247 78.2921 25.6543 78.1264C25.8863 77.9583 26.0023 77.7571 26.0023 77.5227C26.0023 77.3333 25.936 77.1747 25.8034 77.0469C25.6709 76.9167 25.4673 76.8196 25.1926 76.7557L24.2836 76.5426C23.784 76.4242 23.4171 76.2408 23.1827 75.9922C22.9507 75.7412 22.8347 75.4276 22.8347 75.0511C22.8347 74.7434 22.9211 74.4711 23.0939 74.2344C23.2691 73.9976 23.507 73.8118 23.8077 73.6768C24.1107 73.5419 24.454 73.4744 24.8375 73.4744C25.3773 73.4744 25.8011 73.5928 26.1088 73.8295C26.419 74.0663 26.6391 74.3788 26.7694 74.767ZM31.994 74.767L31.2411 74.9801C31.1938 74.8546 31.1239 74.7327 31.0316 74.6143C30.9416 74.4936 30.8185 74.3942 30.6623 74.3161C30.506 74.2379 30.306 74.1989 30.0621 74.1989C29.7283 74.1989 29.4502 74.2758 29.2276 74.4297C29.0075 74.5812 28.8974 74.7741 28.8974 75.0085C28.8974 75.2169 28.9731 75.3814 29.1246 75.5021C29.2762 75.6229 29.5129 75.7235 29.8349 75.804L30.6445 76.0028C31.1322 76.1212 31.4956 76.3023 31.7347 76.5462C31.9738 76.7876 32.0934 77.099 32.0934 77.4801C32.0934 77.7926 32.0034 78.072 31.8235 78.3182C31.646 78.5644 31.3974 78.7585 31.0778 78.9006C30.7582 79.0426 30.3865 79.1136 29.9627 79.1136C29.4064 79.1136 28.9459 78.9929 28.5813 78.7514C28.2167 78.5099 27.9859 78.1572 27.8888 77.6932L28.6843 77.4943C28.7601 77.7879 28.9033 78.008 29.114 78.1548C29.3271 78.3016 29.6052 78.375 29.9485 78.375C30.3391 78.375 30.6493 78.2921 30.8789 78.1264C31.1109 77.9583 31.2269 77.7571 31.2269 77.5227C31.2269 77.3333 31.1606 77.1747 31.0281 77.0469C30.8955 76.9167 30.6919 76.8196 30.4173 76.7557L29.5082 76.5426C29.0086 76.4242 28.6417 76.2408 28.4073 75.9922C28.1753 75.7412 28.0593 75.4276 28.0593 75.0511C28.0593 74.7434 28.1457 74.4711 28.3185 74.2344C28.4937 73.9976 28.7317 73.8118 29.0323 73.6768C29.3353 73.5419 29.6786 73.4744 30.0621 73.4744C30.6019 73.4744 31.0257 73.5928 31.3335 73.8295C31.6436 74.0663 31.8638 74.3788 31.994 74.767ZM40.2583 73.5455C40.2157 73.1856 40.0429 72.9062 39.7399 72.7074C39.4368 72.5085 39.0652 72.4091 38.6248 72.4091C38.3029 72.4091 38.0211 72.4612 37.7797 72.5653C37.5405 72.6695 37.3535 72.8127 37.2186 72.995C37.086 73.1773 37.0197 73.3845 37.0197 73.6165C37.0197 73.8106 37.0659 73.9775 37.1582 74.1172C37.2529 74.2545 37.3736 74.3693 37.5204 74.4616C37.6672 74.5516 37.8211 74.6262 37.9821 74.6854C38.1431 74.7422 38.291 74.7884 38.426 74.8239L39.1646 75.0227C39.354 75.0724 39.5647 75.1411 39.7967 75.2287C40.0311 75.3163 40.2548 75.4358 40.4679 75.5874C40.6833 75.7365 40.8609 75.9283 41.0005 76.1626C41.1402 76.397 41.21 76.6847 41.21 77.0256C41.21 77.4186 41.1071 77.7737 40.9011 78.0909C40.6975 78.4081 40.3992 78.6603 40.0062 78.8473C39.6156 79.0343 39.1409 79.1278 38.5822 79.1278C38.0614 79.1278 37.6104 79.0438 37.2292 78.8757C36.8504 78.7076 36.5521 78.4732 36.3343 78.1726C36.1189 77.8719 35.997 77.5227 35.9686 77.125H36.8777C36.9013 77.3996 36.9937 77.6269 37.1547 77.8068C37.318 77.9844 37.524 78.117 37.7725 78.2045C38.0235 78.2898 38.2934 78.3324 38.5822 78.3324C38.9184 78.3324 39.2202 78.2779 39.4877 78.169C39.7553 78.0578 39.9672 77.9039 40.1234 77.7074C40.2797 77.5085 40.3578 77.2765 40.3578 77.0114C40.3578 76.7699 40.2903 76.5734 40.1554 76.4219C40.0204 76.2704 39.8429 76.1473 39.6227 76.0526C39.4025 75.9579 39.1646 75.875 38.9089 75.804L38.014 75.5483C37.4458 75.3849 36.996 75.1518 36.6646 74.8487C36.3332 74.5457 36.1674 74.1491 36.1674 73.6591C36.1674 73.2519 36.2775 72.8968 36.4977 72.5938C36.7202 72.2884 37.0185 72.0516 37.3926 71.8835C37.769 71.7131 38.1892 71.6278 38.6532 71.6278C39.122 71.6278 39.5386 71.7119 39.9032 71.88C40.2678 72.0457 40.5566 72.273 40.7697 72.5618C40.9851 72.8506 41.0988 73.1785 41.1106 73.5455H40.2583ZM42.5444 81.0455V73.5455H43.354V74.4119H43.4535C43.515 74.3172 43.6003 74.1965 43.7092 74.0497C43.8204 73.9006 43.979 73.768 44.185 73.652C44.3933 73.5336 44.6751 73.4744 45.0302 73.4744C45.4895 73.4744 45.8943 73.5893 46.2447 73.8189C46.5951 74.0485 46.8685 74.3741 47.065 74.7955C47.2615 75.2169 47.3597 75.714 47.3597 76.2869C47.3597 76.8646 47.2615 77.3653 47.065 77.7891C46.8685 78.2105 46.5962 78.5372 46.2482 78.7692C45.9002 78.9988 45.4989 79.1136 45.0444 79.1136C44.694 79.1136 44.4135 79.0556 44.2028 78.9396C43.9921 78.8213 43.8299 78.6875 43.7163 78.5384C43.6026 78.3868 43.515 78.2614 43.4535 78.1619H43.3825V81.0455H42.5444ZM43.3683 76.2727C43.3683 76.6847 43.4286 77.0481 43.5494 77.3629C43.6701 77.6754 43.8465 77.9205 44.0785 78.098C44.3105 78.2732 44.5946 78.3608 44.9308 78.3608C45.2811 78.3608 45.5735 78.2685 45.8079 78.0838C46.0446 77.8968 46.2222 77.6458 46.3406 77.331C46.4613 77.0137 46.5217 76.661 46.5217 76.2727C46.5217 75.8892 46.4625 75.5436 46.3441 75.2358C46.2281 74.9257 46.0517 74.6806 45.815 74.5007C45.5806 74.3184 45.2859 74.2273 44.9308 74.2273C44.5898 74.2273 44.3034 74.3137 44.0714 74.4865C43.8394 74.657 43.6642 74.8961 43.5458 75.2038C43.4274 75.5092 43.3683 75.8655 43.3683 76.2727ZM50.9251 79.1136C50.3995 79.1136 49.9461 78.9976 49.565 78.7656C49.1862 78.5312 48.8938 78.2045 48.6879 77.7855C48.4843 77.3641 48.3825 76.8741 48.3825 76.3153C48.3825 75.7566 48.4843 75.2642 48.6879 74.8381C48.8938 74.4096 49.1803 74.0758 49.5472 73.8366C49.9165 73.5952 50.3474 73.4744 50.8398 73.4744C51.1239 73.4744 51.4045 73.5218 51.6815 73.6165C51.9585 73.7112 52.2106 73.8651 52.4379 74.0781C52.6651 74.2888 52.8462 74.5682 52.9812 74.9162C53.1161 75.2642 53.1836 75.6927 53.1836 76.2017V76.5568H48.979V75.8324H52.3313C52.3313 75.5246 52.2698 75.25 52.1467 75.0085C52.0259 74.767 51.8531 74.5765 51.6282 74.4368C51.4057 74.2971 51.1429 74.2273 50.8398 74.2273C50.506 74.2273 50.2172 74.3101 49.9734 74.4759C49.7319 74.6392 49.546 74.8523 49.4158 75.1151C49.2856 75.3778 49.2205 75.6596 49.2205 75.9602V76.4432C49.2205 76.8551 49.2915 77.2043 49.4336 77.4908C49.578 77.7749 49.7781 77.9915 50.0337 78.1406C50.2894 78.2874 50.5865 78.3608 50.9251 78.3608C51.1452 78.3608 51.3441 78.33 51.5217 78.2685C51.7016 78.2045 51.8567 78.1098 51.9869 77.9844C52.1171 77.8565 52.2177 77.6979 52.2887 77.5085L53.0984 77.7358C53.0131 78.0104 52.8699 78.2519 52.6687 78.4602C52.4674 78.6662 52.2189 78.8272 51.9229 78.9432C51.627 79.0568 51.2944 79.1136 50.9251 79.1136ZM56.7454 79.1136C56.2198 79.1136 55.7665 78.9976 55.3853 78.7656C55.0065 78.5312 54.7141 78.2045 54.5082 77.7855C54.3046 77.3641 54.2028 76.8741 54.2028 76.3153C54.2028 75.7566 54.3046 75.2642 54.5082 74.8381C54.7141 74.4096 55.0006 74.0758 55.3675 73.8366C55.7369 73.5952 56.1677 73.4744 56.6602 73.4744C56.9442 73.4744 57.2248 73.5218 57.5018 73.6165C57.7788 73.7112 58.0309 73.8651 58.2582 74.0781C58.4854 74.2888 58.6665 74.5682 58.8015 74.9162C58.9364 75.2642 59.0039 75.6927 59.0039 76.2017V76.5568H54.7994V75.8324H58.1516C58.1516 75.5246 58.0901 75.25 57.967 75.0085C57.8462 74.767 57.6734 74.5765 57.4485 74.4368C57.226 74.2971 56.9632 74.2273 56.6602 74.2273C56.3263 74.2273 56.0375 74.3101 55.7937 74.4759C55.5522 74.6392 55.3664 74.8523 55.2362 75.1151C55.1059 75.3778 55.0408 75.6596 55.0408 75.9602V76.4432C55.0408 76.8551 55.1119 77.2043 55.2539 77.4908C55.3983 77.7749 55.5984 77.9915 55.854 78.1406C56.1097 78.2874 56.4068 78.3608 56.7454 78.3608C56.9656 78.3608 57.1644 78.33 57.342 78.2685C57.5219 78.2045 57.677 78.1098 57.8072 77.9844C57.9374 77.8565 58.038 77.6979 58.109 77.5085L58.9187 77.7358C58.8335 78.0104 58.6902 78.2519 58.489 78.4602C58.2878 78.6662 58.0392 78.8272 57.7433 78.9432C57.4473 79.0568 57.1147 79.1136 56.7454 79.1136ZM62.3384 79.1136C61.8839 79.1136 61.4826 78.9988 61.1346 78.7692C60.7866 78.5372 60.5143 78.2105 60.3178 77.7891C60.1213 77.3653 60.0231 76.8646 60.0231 76.2869C60.0231 75.714 60.1213 75.2169 60.3178 74.7955C60.5143 74.3741 60.7878 74.0485 61.1381 73.8189C61.4885 73.5893 61.8933 73.4744 62.3526 73.4744C62.7077 73.4744 62.9883 73.5336 63.1942 73.652C63.4026 73.768 63.5612 73.9006 63.6701 74.0497C63.7814 74.1965 63.8678 74.3172 63.9293 74.4119H64.0004V71.7273H64.8384V79H64.0288V78.1619H63.9293C63.8678 78.2614 63.7802 78.3868 63.6665 78.5384C63.5529 78.6875 63.3907 78.8213 63.18 78.9396C62.9693 79.0556 62.6888 79.1136 62.3384 79.1136ZM62.4521 78.3608C62.7882 78.3608 63.0723 78.2732 63.3043 78.098C63.5363 77.9205 63.7127 77.6754 63.8335 77.3629C63.9542 77.0481 64.0146 76.6847 64.0146 76.2727C64.0146 75.8655 63.9554 75.5092 63.837 75.2038C63.7186 74.8961 63.5434 74.657 63.3114 74.4865C63.0794 74.3137 62.793 74.2273 62.4521 74.2273C62.0969 74.2273 61.801 74.3184 61.5643 74.5007C61.3299 74.6806 61.1535 74.9257 61.0352 75.2358C60.9192 75.5436 60.8612 75.8892 60.8612 76.2727C60.8612 76.661 60.9203 77.0137 61.0387 77.331C61.1594 77.6458 61.337 77.8968 61.5714 78.0838C61.8081 78.2685 62.1017 78.3608 62.4521 78.3608Z" fill="white"/>
</svg>
