<svg width="20" height="20" viewBox="0 0 20 20" fill="none" xmlns="http://www.w3.org/2000/svg">
<path d="M18.125 0H1.875C0.839453 0 0 0.839453 0 1.875V18.125C0 19.1605 0.839453 20 1.875 20H18.125C19.1605 20 20 19.1605 20 18.125V1.875C20 0.839453 19.1605 0 18.125 0ZM4.375 18.75H1.875C1.5298 18.75 1.25 18.4702 1.25 18.125V1.875C1.25 1.5298 1.5298 1.25 1.875 1.25H3.125V10.625C3.125 10.9702 3.4048 11.25 3.75 11.25H4.375V18.75ZM9.375 18.75H5.625V11.25H6.25C6.5952 11.25 6.875 10.9702 6.875 10.625V1.25H8.125V10.625C8.125 10.9702 8.4048 11.25 8.75 11.25H9.375V18.75ZM14.375 18.75H10.625V11.25H11.25C11.5952 11.25 11.875 10.9702 11.875 10.625V1.25H13.125V10.625C13.125 10.9702 13.4048 11.25 13.75 11.25H14.375V18.75ZM18.75 18.125C18.75 18.4702 18.4702 18.75 18.125 18.75H15.625V11.25H16.25C16.5952 11.25 16.875 10.9702 16.875 10.625V1.25H18.125C18.4702 1.25 18.75 1.5298 18.75 1.875V18.125Z" fill="white"/>
</svg>
