<svg width="24" height="24" viewBox="0 0 24 24" fill="none" xmlns="http://www.w3.org/2000/svg">
<path d="M12 1C5.93436 1 1 5.93436 1 12C1 18.0656 5.93436 23 12 23C18.0656 23 23 18.0656 23 12C23 5.93436 18.0656 1 12 1Z" fill="#357935"/>
<path d="M17.5755 9.6695L11.6171 15.6277C11.4384 15.8065 11.2037 15.8964 10.9691 15.8964C10.7344 15.8964 10.4998 15.8065 10.321 15.6277L7.3419 12.6486C6.98337 12.2903 6.98337 11.7109 7.3419 11.3525C7.70026 10.994 8.27947 10.994 8.63801 11.3525L10.9691 13.6836L16.2794 8.37339C16.6378 8.01486 17.217 8.01486 17.5755 8.37339C17.9339 8.73175 17.9339 9.31097 17.5755 9.6695Z" fill="white"/>
</svg>
