<svg width="20" height="21" viewBox="0 0 20 21" fill="none" xmlns="http://www.w3.org/2000/svg">
<path d="M10 18.8327C9.75 18.8327 9.58333 18.7493 9.41667 18.5827L5.25 14.416C4.91667 14.0827 4.91667 13.5827 5.25 13.2493C5.58333 12.916 6.08333 12.916 6.41667 13.2493L10 16.8327L13.5833 13.2493C13.9167 12.916 14.4167 12.916 14.75 13.2493C15.0833 13.5827 15.0833 14.0827 14.75 14.416L10.5833 18.5827C10.4167 18.7493 10.25 18.8327 10 18.8327ZM5.83333 7.99935C5.58333 7.99935 5.41667 7.91602 5.25 7.74935C4.91667 7.41602 4.91667 6.91602 5.25 6.58268L9.41667 2.41602C9.75 2.08268 10.25 2.08268 10.5833 2.41602L14.75 6.58268C15.0833 6.91602 15.0833 7.41602 14.75 7.74935C14.4167 8.08268 13.9167 8.08268 13.5833 7.74935L10 4.16602L6.41667 7.74935C6.25 7.91602 6.08333 7.99935 5.83333 7.99935Z" fill="white" fill-opacity="0.6"/>
</svg>
