<svg width="17" height="16" viewBox="0 0 17 16" fill="none" xmlns="http://www.w3.org/2000/svg">
<path d="M15.105 5.92024C14.8133 5.87786 14.5348 5.77021 14.2904 5.6053C14.046 5.44039 13.842 5.22248 13.6935 4.96778C13.545 4.71309 13.4559 4.42818 13.4328 4.13427C13.4097 3.84035 13.4532 3.54501 13.56 3.27024C13.6279 3.0906 13.6379 2.89421 13.5886 2.7086C13.5393 2.52299 13.4331 2.35747 13.285 2.23524C12.631 1.68607 11.8866 1.25466 11.085 0.960238C10.9025 0.89243 10.7032 0.883958 10.5156 0.936029C10.3279 0.9881 10.1615 1.09806 10.04 1.25024C9.85715 1.48406 9.62344 1.67318 9.35662 1.80324C9.08979 1.93331 8.79685 2.0009 8.50001 2.0009C8.20317 2.0009 7.91023 1.93331 7.6434 1.80324C7.37658 1.67318 7.14287 1.48406 6.96001 1.25024C6.83852 1.09806 6.6721 0.9881 6.48447 0.936029C6.29683 0.883958 6.09755 0.89243 5.91501 0.960238C5.17484 1.23206 4.48281 1.62028 3.86501 2.11024C3.70928 2.23352 3.59711 2.40342 3.54493 2.59506C3.49275 2.78671 3.50329 2.99002 3.57501 3.17524C3.69039 3.45728 3.73806 3.76244 3.7142 4.06624C3.69034 4.37003 3.59561 4.66401 3.43761 4.92458C3.27961 5.18515 3.06275 5.40507 2.80441 5.56669C2.54607 5.72831 2.25344 5.82714 1.95001 5.85524C1.75301 5.8763 1.56799 5.96006 1.42217 6.09418C1.27635 6.22829 1.17744 6.40569 1.14001 6.60024C1.04691 7.06109 1.00001 7.53008 1.00001 8.00024C0.999327 8.39385 1.0311 8.78685 1.09501 9.17524C1.12682 9.37602 1.22388 9.56074 1.3712 9.70083C1.51852 9.84091 1.70788 9.92857 1.91001 9.95024C2.22011 9.97934 2.51872 10.0823 2.78086 10.2505C3.043 10.4187 3.26104 10.6472 3.41673 10.917C3.57241 11.1867 3.66122 11.4899 3.67571 11.801C3.6902 12.1121 3.62995 12.4222 3.50001 12.7052C3.41497 12.8894 3.39388 13.0966 3.44008 13.2941C3.48628 13.4916 3.59712 13.6679 3.75501 13.7952C4.40507 14.3344 5.1423 14.7588 5.93501 15.0502C6.03638 15.0854 6.14274 15.1039 6.25001 15.1052C6.3971 15.1049 6.54196 15.0693 6.67246 15.0015C6.80295 14.9336 6.91528 14.8355 7.00001 14.7152C7.17822 14.4556 7.4171 14.2434 7.69593 14.097C7.97476 13.9506 8.2851 13.8745 8.60001 13.8752C8.90514 13.8756 9.20596 13.9472 9.47852 14.0844C9.75109 14.2215 9.98787 14.4204 10.17 14.6652C10.2912 14.8281 10.4628 14.9463 10.6581 15.0015C10.8535 15.0566 11.0616 15.0457 11.25 14.9702C11.9749 14.6785 12.6497 14.2753 13.25 13.7752C13.4008 13.6506 13.5082 13.4813 13.5567 13.2917C13.6052 13.1021 13.5924 12.902 13.52 12.7202C13.4024 12.4418 13.3511 12.1399 13.3702 11.8383C13.3893 11.5366 13.4783 11.2436 13.63 10.9822C13.7818 10.7209 13.9923 10.4984 14.2448 10.3323C14.4973 10.1662 14.7849 10.0611 15.085 10.0252C15.2796 9.99833 15.4606 9.91017 15.6017 9.77353C15.7429 9.63689 15.8368 9.45886 15.87 9.26524C15.9503 8.84819 15.9938 8.4249 16 8.00024C16.0001 7.55231 15.9583 7.10536 15.875 6.66524C15.8413 6.47589 15.7487 6.30199 15.6105 6.16825C15.4722 6.03451 15.2954 5.94773 15.105 5.92024ZM11 8.00024C11 8.49469 10.8534 8.97804 10.5787 9.38916C10.304 9.80029 9.91354 10.1207 9.45672 10.3099C8.9999 10.4992 8.49724 10.5487 8.01229 10.4522C7.52733 10.3557 7.08188 10.1176 6.73224 9.76801C6.38261 9.41837 6.14451 8.97292 6.04805 8.48796C5.95158 8.00301 6.00109 7.50035 6.19031 7.04353C6.37953 6.58671 6.69996 6.19627 7.11109 5.92156C7.52221 5.64686 8.00556 5.50024 8.50001 5.50024C9.16305 5.50024 9.79894 5.76363 10.2678 6.23247C10.7366 6.70131 11 7.3372 11 8.00024Z" fill="white" fill-opacity="0.6"/>
</svg>
