<svg width="20" height="20" viewBox="0 0 20 20" fill="none" xmlns="http://www.w3.org/2000/svg">
<path d="M0.390625 9.80391H2.89742V19.6094H0.390625V9.80391ZM0.390625 6.66613H2.89742V8.235H0.390625V6.66613ZM0.390625 3.52836H2.89742V5.09723H0.390625V3.52836ZM4.56859 12.9416H7.07539V19.6094H4.56859V12.9416ZM4.56859 9.80391H7.07539V11.3728H4.56859V9.80391ZM4.56859 6.66613H7.07539V8.235H4.56859V6.66613ZM4.56859 3.52836H7.07539V5.09723H4.56859V3.52836ZM4.56859 0.390625H7.07539V1.95949H4.56859V0.390625ZM8.7466 9.80391H11.2534V19.6094H8.7466V9.80391ZM8.7466 6.66613H11.2534V8.235H8.7466V6.66613ZM8.7466 3.52836H11.2534V5.09723H8.7466V3.52836ZM8.7466 0.390625H11.2534V1.95949H8.7466V0.390625ZM12.9246 12.9416H15.4314V19.6094H12.9246V12.9416ZM12.9246 9.80391H15.4314V11.3728H12.9246V9.80391ZM12.9246 6.66613H15.4314V8.235H12.9246V6.66613ZM12.9246 3.52836H15.4314V5.09723H12.9246V3.52836ZM12.9246 0.390625H15.4314V1.95949H12.9246V0.390625ZM17.1026 9.80391H19.6094V19.6094H17.1026V9.80391ZM17.1026 6.66613H19.6094V8.235H17.1026V6.66613ZM17.1026 3.52836H19.6094V5.09723H17.1026V3.52836Z" stroke="white" stroke-width="0.5" stroke-miterlimit="10" stroke-linecap="round" stroke-linejoin="round"/>
</svg>
