<svg width="14" height="16" viewBox="0 0 14 16" fill="none" xmlns="http://www.w3.org/2000/svg">
<path d="M5.27646 9.10416V2.97916C5.27646 2.72028 5.48633 2.51041 5.74521 2.51041C6.00408 2.51041 6.21396 2.72028 6.21396 2.97916V8.05294L8.94733 5.31956L7.70621 0.355063C7.68084 0.253646 7.62231 0.163617 7.53991 0.0992841C7.45751 0.0349509 7.35597 4.93067e-06 7.25143 0L4.23893 0C4.13439 1.01817e-06 4.03285 0.0349462 3.95046 0.0992804C3.86806 0.163615 3.80953 0.253646 3.78418 0.355063L1.5953 9.11063C1.63958 9.10639 1.68404 9.10423 1.72852 9.10416H5.27646ZM9.89508 9.11063L9.7428 8.50153L9.14015 9.10419H9.76184C9.80633 9.10422 9.85079 9.10637 9.89508 9.11063ZM13.3138 2.94181C12.7395 2.36753 11.8051 2.36753 11.2308 2.94181C10.7724 3.40022 10.6803 4.08797 10.9537 4.63897L6.48855 9.10416H7.81437L11.6166 5.30191C12.1676 5.57534 12.8554 5.48328 13.3138 5.02484C13.8881 4.45056 13.8881 3.51609 13.3138 2.94181ZM10.2166 10.3967C10.1913 10.2953 10.1327 10.2053 10.0503 10.1409C9.96795 10.0766 9.8664 10.0417 9.76187 10.0417H1.72852C1.62398 10.0417 1.52245 10.0766 1.44005 10.1409C1.35765 10.2053 1.29913 10.2953 1.27377 10.3967L0.269584 14.4134C0.252327 14.4825 0.251042 14.5546 0.265827 14.6243C0.280612 14.694 0.311078 14.7594 0.354913 14.8155C0.398747 14.8717 0.454798 14.9171 0.518808 14.9483C0.582818 14.9796 0.653106 14.9958 0.724334 14.9958H1.76183V15.5312C1.76183 15.7901 1.97171 16 2.23058 16C2.48946 16 2.69933 15.7901 2.69933 15.5312V14.9958H8.79099V15.5312C8.79099 15.7901 9.00087 16 9.25974 16C9.51862 16 9.72849 15.7901 9.72849 15.5312V14.9958H10.766C10.8372 14.9958 10.9075 14.9796 10.9715 14.9483C11.0356 14.9171 11.0916 14.8717 11.1355 14.8155C11.1793 14.7594 11.2098 14.694 11.2245 14.6243C11.2393 14.5546 11.238 14.4825 11.2207 14.4134L10.2166 10.3967Z" fill="#ffffff"/>
</svg>
