<svg width="22" height="16" viewBox="0 0 22 16" fill="none" xmlns="http://www.w3.org/2000/svg">
<path fill-rule="evenodd" clip-rule="evenodd" d="M21.5437 3.81678C21.5437 4.50974 20.9785 5.07491 20.2856 5.07491C20.2066 5.07491 20.1294 5.06722 20.0544 5.0532L18.7095 12.2488C18.6943 12.2484 18.6792 12.2482 18.664 12.2481H3.32958C3.31439 12.2481 3.29925 12.2484 3.28415 12.2487L1.93922 5.0532C1.86422 5.06722 1.78706 5.07491 1.70812 5.07491C1.01517 5.07491 0.449997 4.50974 0.449997 3.81678C0.449997 3.12383 1.01517 2.55866 1.70812 2.55866C2.40108 2.55866 2.96625 3.12383 2.96625 3.81678C2.96642 4.09028 2.87695 4.35629 2.71153 4.5741L6.48773 7.42405L10.4897 3.26202C9.94228 3.05581 9.55097 2.52645 9.55097 1.90841C9.55097 1.11205 10.2005 0.462502 10.9969 0.462502C11.7933 0.462502 12.4427 1.112 12.4427 1.90841C12.4427 2.52645 12.0514 3.05581 11.504 3.26202L15.5059 7.424L19.2821 4.57405C19.1167 4.35625 19.0272 4.09023 19.0274 3.81674C19.0274 3.12378 19.5926 2.55861 20.2855 2.55861C20.9785 2.55861 21.5437 3.12383 21.5437 3.81678ZM18.664 13.6544H3.32958C2.98832 13.6544 2.70909 13.9336 2.70909 14.2749V14.9143C2.70909 15.2555 2.98832 15.5348 3.32958 15.5348H18.664C19.0053 15.5348 19.2845 15.2555 19.2845 14.9143V14.2749C19.2845 13.9336 19.0053 13.6544 18.664 13.6544Z" fill="url(#paint0_linear_89_544)"/>
<defs>
<linearGradient id="paint0_linear_89_544" x1="5.4832" y1="16.8736" x2="15.4664" y2="-0.417717" gradientUnits="userSpaceOnUse">
<stop stop-color="#FF6100"/>
<stop offset="1" stop-color="#FDB82E"/>
</linearGradient>
</defs>
</svg>
