<svg width="21" height="20" viewBox="0 0 21 20" fill="none" xmlns="http://www.w3.org/2000/svg">
<rect x="0.5" width="20" height="20" rx="2" fill="#1F1F1F"/>
<path fill-rule="evenodd" clip-rule="evenodd" d="M15.7744 7.8998C15.7744 8.24627 15.4918 8.52886 15.1453 8.52886C15.1059 8.52886 15.0673 8.52502 15.0298 8.51801L14.3573 12.1158C14.3497 12.1156 14.3421 12.1155 14.3346 12.1155H6.66733C6.65973 12.1155 6.65216 12.1156 6.64462 12.1158L5.97215 8.51801C5.93465 8.52502 5.89607 8.52886 5.8566 8.52886C5.51012 8.52886 5.22754 8.24627 5.22754 7.8998C5.22754 7.55332 5.51012 7.27073 5.8566 7.27073C6.20308 7.27073 6.48566 7.55332 6.48566 7.8998C6.48575 8.03654 6.44101 8.16955 6.3583 8.27845L8.24641 9.70343L10.2474 7.62241C9.97368 7.51931 9.77802 7.25463 9.77802 6.94561C9.77802 6.54743 10.1028 6.22266 10.501 6.22266C10.8992 6.22266 11.2239 6.54741 11.2239 6.94561C11.2239 7.25463 11.0282 7.51931 10.7545 7.62241L12.7555 9.70341L14.6436 8.27843C14.5609 8.16953 14.5162 8.03652 14.5162 7.89977C14.5162 7.5533 14.7988 7.27071 15.1453 7.27071C15.4918 7.27071 15.7744 7.55332 15.7744 7.8998ZM14.3346 12.8186H6.66733C6.4967 12.8186 6.35709 12.9582 6.35709 13.1288V13.4486C6.35709 13.6192 6.4967 13.7588 6.66733 13.7588H14.3346C14.5052 13.7588 14.6448 13.6192 14.6448 13.4486V13.1288C14.6448 12.9582 14.5052 12.8186 14.3346 12.8186Z" fill="url(#paint0_linear_33_2957)"/>
<defs>
<linearGradient id="paint0_linear_33_2957" x1="7.74414" y1="14.4282" x2="12.7357" y2="5.78255" gradientUnits="userSpaceOnUse">
<stop stop-color="#FF6100"/>
<stop offset="1" stop-color="#FDB82E"/>
</linearGradient>
</defs>
</svg>
