<svg width="120" height="136" viewBox="0 0 120 136" fill="none" xmlns="http://www.w3.org/2000/svg">
<path d="M0 0H120V134C120 135.105 119.105 136 118 136H2C0.895429 136 0 135.105 0 134V0Z" fill="#1F1F1F"/>
<circle cx="85" cy="27" r="15" fill="#141414"/>
<circle cx="85" cy="27" r="14" stroke="white" stroke-opacity="0.3" stroke-width="2"/>
<line x1="86" y1="12" x2="86" y2="22" stroke="white" stroke-opacity="0.3" stroke-width="2"/>
<path d="M60.7045 55V49.1818H64.1932V49.8068H61.4091V51.7727H63.9318V52.3977H61.4091V55H60.7045ZM65.9794 49.1818V55H65.3089V49.1818H65.9794ZM69.9574 53.2159V50.6364H70.6278V55H69.9574V54.2614H69.9119C69.8097 54.483 69.6506 54.6714 69.4347 54.8267C69.2188 54.9801 68.946 55.0568 68.6165 55.0568C68.3438 55.0568 68.1013 54.9972 67.8892 54.8778C67.6771 54.7566 67.5104 54.5748 67.3892 54.3324C67.268 54.0881 67.2074 53.7803 67.2074 53.4091V50.6364H67.8778V53.3636C67.8778 53.6818 67.9669 53.9356 68.1449 54.125C68.3248 54.3144 68.554 54.4091 68.8324 54.4091C68.9991 54.4091 69.1686 54.3665 69.3409 54.2812C69.5152 54.196 69.661 54.0653 69.7784 53.8892C69.8977 53.7131 69.9574 53.4886 69.9574 53.2159ZM73.7536 50.6364V51.2045H71.4922V50.6364H73.7536ZM72.1513 49.5909H72.8217V53.75C72.8217 53.9394 72.8492 54.0814 72.9041 54.1761C72.9609 54.2689 73.0329 54.3314 73.12 54.3636C73.209 54.3939 73.3028 54.4091 73.4013 54.4091C73.4751 54.4091 73.5357 54.4053 73.5831 54.3977C73.6304 54.3883 73.6683 54.3807 73.6967 54.375L73.8331 54.9773C73.7876 54.9943 73.7242 55.0114 73.6428 55.0284C73.5613 55.0473 73.4581 55.0568 73.3331 55.0568C73.1437 55.0568 72.9581 55.0161 72.7763 54.9347C72.5964 54.8532 72.4467 54.7292 72.3274 54.5625C72.21 54.3958 72.1513 54.1856 72.1513 53.9318V49.5909ZM76.6598 50.6364V51.2045H74.3984V50.6364H76.6598ZM75.0575 49.5909H75.728V53.75C75.728 53.9394 75.7554 54.0814 75.8104 54.1761C75.8672 54.2689 75.9392 54.3314 76.0263 54.3636C76.1153 54.3939 76.209 54.4091 76.3075 54.4091C76.3814 54.4091 76.442 54.4053 76.4893 54.3977C76.5367 54.3883 76.5746 54.3807 76.603 54.375L76.7393 54.9773C76.6939 54.9943 76.6304 55.0114 76.549 55.0284C76.4676 55.0473 76.3643 55.0568 76.2393 55.0568C76.05 55.0568 75.8643 55.0161 75.6825 54.9347C75.5026 54.8532 75.353 54.7292 75.2337 54.5625C75.1162 54.3958 75.0575 54.1856 75.0575 53.9318V49.5909ZM79.451 55.0909C79.0305 55.0909 78.6679 54.9981 78.3629 54.8125C78.0599 54.625 77.826 54.3636 77.6612 54.0284C77.4983 53.6913 77.4169 53.2992 77.4169 52.8523C77.4169 52.4053 77.4983 52.0114 77.6612 51.6705C77.826 51.3277 78.0552 51.0606 78.3487 50.8693C78.6442 50.6761 78.9889 50.5795 79.3828 50.5795C79.6101 50.5795 79.8345 50.6174 80.0561 50.6932C80.2777 50.7689 80.4794 50.892 80.6612 51.0625C80.843 51.2311 80.9879 51.4545 81.0959 51.733C81.2038 52.0114 81.2578 52.3542 81.2578 52.7614V53.0455H77.8942V52.4659H80.576C80.576 52.2197 80.5268 52 80.4283 51.8068C80.3317 51.6136 80.1934 51.4612 80.0135 51.3494C79.8355 51.2377 79.6252 51.1818 79.3828 51.1818C79.1158 51.1818 78.8847 51.2481 78.6896 51.3807C78.4964 51.5114 78.3478 51.6818 78.2436 51.892C78.1394 52.1023 78.0874 52.3277 78.0874 52.5682V52.9545C78.0874 53.2841 78.1442 53.5634 78.2578 53.7926C78.3733 54.0199 78.5334 54.1932 78.7379 54.3125C78.9425 54.4299 79.1802 54.4886 79.451 54.4886C79.6271 54.4886 79.7862 54.464 79.9283 54.4148C80.0722 54.3636 80.1963 54.2879 80.3004 54.1875C80.4046 54.0852 80.4851 53.9583 80.5419 53.8068L81.1896 53.9886C81.1214 54.2083 81.0069 54.4015 80.8459 54.5682C80.6849 54.733 80.486 54.8617 80.2493 54.9545C80.0125 55.0455 79.7464 55.0909 79.451 55.0909ZM82.2777 55V50.6364H82.9254V51.2955H82.9709C83.0504 51.0795 83.1944 50.9044 83.4027 50.7699C83.611 50.6354 83.8459 50.5682 84.1072 50.5682C84.1565 50.5682 84.218 50.5691 84.2919 50.571C84.3658 50.5729 84.4216 50.5758 84.4595 50.5795V51.2614C84.4368 51.2557 84.3847 51.2472 84.3033 51.2358C84.2237 51.2225 84.1394 51.2159 84.0504 51.2159C83.8383 51.2159 83.6489 51.2604 83.4822 51.3494C83.3175 51.4366 83.1868 51.5578 83.0902 51.7131C82.9955 51.8665 82.9482 52.0417 82.9482 52.2386V55H82.2777ZM89.3906 55H87.5952V49.1818H89.4702C90.0346 49.1818 90.5175 49.2983 90.919 49.5312C91.3205 49.7623 91.6283 50.0947 91.8423 50.5284C92.0563 50.9602 92.1634 51.4773 92.1634 52.0795C92.1634 52.6856 92.0554 53.2074 91.8395 53.6449C91.6236 54.0805 91.3092 54.4157 90.8963 54.6506C90.4834 54.8835 89.9815 55 89.3906 55ZM88.2997 54.375H89.3452C89.8262 54.375 90.2249 54.2822 90.5412 54.0966C90.8575 53.911 91.0933 53.6468 91.2486 53.304C91.4039 52.9612 91.4815 52.553 91.4815 52.0795C91.4815 51.6098 91.4048 51.2055 91.2514 50.8665C91.098 50.5256 90.8688 50.2642 90.5639 50.0824C90.259 49.8987 89.8793 49.8068 89.4247 49.8068H88.2997V54.375ZM95.0838 55.0909C94.6634 55.0909 94.3007 54.9981 93.9957 54.8125C93.6927 54.625 93.4588 54.3636 93.294 54.0284C93.1312 53.6913 93.0497 53.2992 93.0497 52.8523C93.0497 52.4053 93.1312 52.0114 93.294 51.6705C93.4588 51.3277 93.688 51.0606 93.9815 50.8693C94.277 50.6761 94.6217 50.5795 95.0156 50.5795C95.2429 50.5795 95.4673 50.6174 95.6889 50.6932C95.9105 50.7689 96.1122 50.892 96.294 51.0625C96.4759 51.2311 96.6207 51.4545 96.7287 51.733C96.8366 52.0114 96.8906 52.3542 96.8906 52.7614V53.0455H93.527V52.4659H96.2088C96.2088 52.2197 96.1596 52 96.0611 51.8068C95.9645 51.6136 95.8262 51.4612 95.6463 51.3494C95.4683 51.2377 95.258 51.1818 95.0156 51.1818C94.7486 51.1818 94.5175 51.2481 94.3224 51.3807C94.1293 51.5114 93.9806 51.6818 93.8764 51.892C93.7723 52.1023 93.7202 52.3277 93.7202 52.5682V52.9545C93.7202 53.2841 93.777 53.5634 93.8906 53.7926C94.0062 54.0199 94.1662 54.1932 94.3707 54.3125C94.5753 54.4299 94.813 54.4886 95.0838 54.4886C95.2599 54.4886 95.419 54.464 95.5611 54.4148C95.705 54.3636 95.8291 54.2879 95.9332 54.1875C96.0374 54.0852 96.1179 53.9583 96.1747 53.8068L96.8224 53.9886C96.7543 54.2083 96.6397 54.4015 96.4787 54.5682C96.3177 54.733 96.1188 54.8617 95.8821 54.9545C95.6454 55.0455 95.3793 55.0909 95.0838 55.0909ZM97.9105 56.6364V50.6364H98.5582V51.3295H98.6378C98.687 51.2538 98.7552 51.1572 98.8423 51.0398C98.9313 50.9205 99.0582 50.8144 99.223 50.7216C99.3897 50.6269 99.6151 50.5795 99.8991 50.5795C100.267 50.5795 100.59 50.6714 100.871 50.8551C101.151 51.0388 101.37 51.2992 101.527 51.6364C101.684 51.9735 101.763 52.3712 101.763 52.8295C101.763 53.2917 101.684 53.6922 101.527 54.0312C101.37 54.3684 101.152 54.6297 100.874 54.8153C100.595 54.9991 100.274 55.0909 99.9105 55.0909C99.6302 55.0909 99.4058 55.0445 99.2372 54.9517C99.0687 54.857 98.9389 54.75 98.848 54.6307C98.7571 54.5095 98.687 54.4091 98.6378 54.3295H98.581V56.6364H97.9105ZM98.5696 52.8182C98.5696 53.1477 98.6179 53.4384 98.7145 53.6903C98.8111 53.9403 98.9522 54.1364 99.1378 54.2784C99.3234 54.4186 99.5507 54.4886 99.8196 54.4886C100.1 54.4886 100.334 54.4148 100.521 54.267C100.711 54.1174 100.853 53.9167 100.947 53.6648C101.044 53.411 101.092 53.1288 101.092 52.8182C101.092 52.5114 101.045 52.2348 100.95 51.9886C100.857 51.7405 100.716 51.5445 100.527 51.4006C100.339 51.2547 100.104 51.1818 99.8196 51.1818C99.5469 51.1818 99.3177 51.2509 99.1321 51.3892C98.9465 51.5256 98.8063 51.7169 98.7116 51.9631C98.617 52.2074 98.5696 52.4924 98.5696 52.8182ZM104.683 50.6364V51.2045H102.422V50.6364H104.683ZM103.081 49.5909H103.751V53.75C103.751 53.9394 103.779 54.0814 103.834 54.1761C103.891 54.2689 103.963 54.3314 104.05 54.3636C104.139 54.3939 104.232 54.4091 104.331 54.4091C104.405 54.4091 104.465 54.4053 104.513 54.3977C104.56 54.3883 104.598 54.3807 104.626 54.375L104.763 54.9773C104.717 54.9943 104.654 55.0114 104.572 55.0284C104.491 55.0473 104.388 55.0568 104.263 55.0568C104.073 55.0568 103.888 55.0161 103.706 54.9347C103.526 54.8532 103.376 54.7292 103.257 54.5625C103.14 54.3958 103.081 54.1856 103.081 53.9318V49.5909ZM106.456 52.375V55H105.786V49.1818H106.456V51.3182H106.513C106.615 51.0928 106.768 50.9138 106.973 50.7812C107.179 50.6468 107.454 50.5795 107.797 50.5795C108.094 50.5795 108.355 50.6392 108.578 50.7585C108.802 50.8759 108.975 51.0568 109.098 51.3011C109.223 51.5436 109.286 51.8523 109.286 52.2273V55H108.615V52.2727C108.615 51.9261 108.525 51.6581 108.345 51.4688C108.167 51.2775 107.92 51.1818 107.604 51.1818C107.384 51.1818 107.187 51.2282 107.013 51.321C106.84 51.4138 106.704 51.5492 106.604 51.7273C106.505 51.9053 106.456 52.1212 106.456 52.375Z" fill="white"/>
<circle cx="31" cy="27" r="15" fill="#141414"/>
<circle cx="31" cy="27" r="14" stroke="white" stroke-opacity="0.3" stroke-width="2"/>
<line x1="32" y1="12" x2="32" y2="22" stroke="white" stroke-opacity="0.3" stroke-width="2"/>
<path d="M10.7045 55V49.1818H14.1932V49.8068H11.4091V51.7727H13.9318V52.3977H11.4091V55H10.7045ZM15.9794 49.1818V55H15.3089V49.1818H15.9794ZM19.9574 53.2159V50.6364H20.6278V55H19.9574V54.2614H19.9119C19.8097 54.483 19.6506 54.6714 19.4347 54.8267C19.2188 54.9801 18.946 55.0568 18.6165 55.0568C18.3438 55.0568 18.1013 54.9972 17.8892 54.8778C17.6771 54.7566 17.5104 54.5748 17.3892 54.3324C17.268 54.0881 17.2074 53.7803 17.2074 53.4091V50.6364H17.8778V53.3636C17.8778 53.6818 17.9669 53.9356 18.1449 54.125C18.3248 54.3144 18.554 54.4091 18.8324 54.4091C18.9991 54.4091 19.1686 54.3665 19.3409 54.2812C19.5152 54.196 19.661 54.0653 19.7784 53.8892C19.8977 53.7131 19.9574 53.4886 19.9574 53.2159ZM23.7536 50.6364V51.2045H21.4922V50.6364H23.7536ZM22.1513 49.5909H22.8217V53.75C22.8217 53.9394 22.8492 54.0814 22.9041 54.1761C22.9609 54.2689 23.0329 54.3314 23.12 54.3636C23.209 54.3939 23.3028 54.4091 23.4013 54.4091C23.4751 54.4091 23.5357 54.4053 23.5831 54.3977C23.6304 54.3883 23.6683 54.3807 23.6967 54.375L23.8331 54.9773C23.7876 54.9943 23.7242 55.0114 23.6428 55.0284C23.5613 55.0473 23.4581 55.0568 23.3331 55.0568C23.1437 55.0568 22.9581 55.0161 22.7763 54.9347C22.5964 54.8532 22.4467 54.7292 22.3274 54.5625C22.21 54.3958 22.1513 54.1856 22.1513 53.9318V49.5909ZM26.6598 50.6364V51.2045H24.3984V50.6364H26.6598ZM25.0575 49.5909H25.728V53.75C25.728 53.9394 25.7554 54.0814 25.8104 54.1761C25.8672 54.2689 25.9392 54.3314 26.0263 54.3636C26.1153 54.3939 26.209 54.4091 26.3075 54.4091C26.3814 54.4091 26.442 54.4053 26.4893 54.3977C26.5367 54.3883 26.5746 54.3807 26.603 54.375L26.7393 54.9773C26.6939 54.9943 26.6304 55.0114 26.549 55.0284C26.4676 55.0473 26.3643 55.0568 26.2393 55.0568C26.05 55.0568 25.8643 55.0161 25.6825 54.9347C25.5026 54.8532 25.353 54.7292 25.2337 54.5625C25.1162 54.3958 25.0575 54.1856 25.0575 53.9318V49.5909ZM29.451 55.0909C29.0305 55.0909 28.6679 54.9981 28.3629 54.8125C28.0599 54.625 27.826 54.3636 27.6612 54.0284C27.4983 53.6913 27.4169 53.2992 27.4169 52.8523C27.4169 52.4053 27.4983 52.0114 27.6612 51.6705C27.826 51.3277 28.0552 51.0606 28.3487 50.8693C28.6442 50.6761 28.9889 50.5795 29.3828 50.5795C29.6101 50.5795 29.8345 50.6174 30.0561 50.6932C30.2777 50.7689 30.4794 50.892 30.6612 51.0625C30.843 51.2311 30.9879 51.4545 31.0959 51.733C31.2038 52.0114 31.2578 52.3542 31.2578 52.7614V53.0455H27.8942V52.4659H30.576C30.576 52.2197 30.5268 52 30.4283 51.8068C30.3317 51.6136 30.1934 51.4612 30.0135 51.3494C29.8355 51.2377 29.6252 51.1818 29.3828 51.1818C29.1158 51.1818 28.8847 51.2481 28.6896 51.3807C28.4964 51.5114 28.3478 51.6818 28.2436 51.892C28.1394 52.1023 28.0874 52.3277 28.0874 52.5682V52.9545C28.0874 53.2841 28.1442 53.5634 28.2578 53.7926C28.3733 54.0199 28.5334 54.1932 28.7379 54.3125C28.9425 54.4299 29.1802 54.4886 29.451 54.4886C29.6271 54.4886 29.7862 54.464 29.9283 54.4148C30.0722 54.3636 30.1963 54.2879 30.3004 54.1875C30.4046 54.0852 30.4851 53.9583 30.5419 53.8068L31.1896 53.9886C31.1214 54.2083 31.0069 54.4015 30.8459 54.5682C30.6849 54.733 30.486 54.8617 30.2493 54.9545C30.0125 55.0455 29.7464 55.0909 29.451 55.0909ZM32.2777 55V50.6364H32.9254V51.2955H32.9709C33.0504 51.0795 33.1944 50.9044 33.4027 50.7699C33.611 50.6354 33.8459 50.5682 34.1072 50.5682C34.1565 50.5682 34.218 50.5691 34.2919 50.571C34.3658 50.5729 34.4216 50.5758 34.4595 50.5795V51.2614C34.4368 51.2557 34.3847 51.2472 34.3033 51.2358C34.2237 51.2225 34.1394 51.2159 34.0504 51.2159C33.8383 51.2159 33.6489 51.2604 33.4822 51.3494C33.3175 51.4366 33.1868 51.5578 33.0902 51.7131C32.9955 51.8665 32.9482 52.0417 32.9482 52.2386V55H32.2777ZM37.5043 55V50.6364H38.152V51.2955H38.1974C38.277 51.0795 38.4209 50.9044 38.6293 50.7699C38.8376 50.6354 39.0724 50.5682 39.3338 50.5682C39.383 50.5682 39.4446 50.5691 39.5185 50.571C39.5923 50.5729 39.6482 50.5758 39.6861 50.5795V51.2614C39.6634 51.2557 39.6113 51.2472 39.5298 51.2358C39.4503 51.2225 39.366 51.2159 39.277 51.2159C39.0649 51.2159 38.8755 51.2604 38.7088 51.3494C38.544 51.4366 38.4134 51.5578 38.3168 51.7131C38.2221 51.8665 38.1747 52.0417 38.1747 52.2386V55H37.5043ZM41.7649 55.1023C41.4884 55.1023 41.2375 55.0502 41.0121 54.946C40.7867 54.84 40.6077 54.6875 40.4751 54.4886C40.3426 54.2879 40.2763 54.0455 40.2763 53.7614C40.2763 53.5114 40.3255 53.3087 40.424 53.1534C40.5225 52.9962 40.6541 52.8731 40.8189 52.7841C40.9837 52.6951 41.1655 52.6288 41.3643 52.5852C41.5651 52.5398 41.7668 52.5038 41.9695 52.4773C42.2346 52.4432 42.4496 52.4176 42.6143 52.4006C42.781 52.3816 42.9022 52.3504 42.978 52.3068C43.0556 52.2633 43.0945 52.1875 43.0945 52.0795V52.0568C43.0945 51.7765 43.0178 51.5587 42.8643 51.4034C42.7128 51.2481 42.4827 51.1705 42.174 51.1705C41.8539 51.1705 41.603 51.2405 41.4212 51.3807C41.2393 51.5208 41.1115 51.6705 41.0376 51.8295L40.4013 51.6023C40.5149 51.3371 40.6664 51.1307 40.8558 50.983C41.0471 50.8333 41.2554 50.7292 41.4808 50.6705C41.7081 50.6098 41.9316 50.5795 42.1513 50.5795C42.2914 50.5795 42.4524 50.5966 42.6342 50.6307C42.8179 50.6629 42.995 50.7301 43.1655 50.8324C43.3378 50.9347 43.4808 51.089 43.5945 51.2955C43.7081 51.5019 43.7649 51.7784 43.7649 52.125V55H43.0945V54.4091H43.0604C43.0149 54.5038 42.9392 54.6051 42.8331 54.7131C42.727 54.821 42.5859 54.9129 42.4098 54.9886C42.2337 55.0644 42.0187 55.1023 41.7649 55.1023ZM41.8672 54.5C42.1323 54.5 42.3558 54.4479 42.5376 54.3438C42.7214 54.2396 42.8596 54.1051 42.9524 53.9403C43.0471 53.7756 43.0945 53.6023 43.0945 53.4205V52.8068C43.0661 52.8409 43.0036 52.8722 42.907 52.9006C42.8123 52.9271 42.7024 52.9508 42.5774 52.9716C42.4543 52.9905 42.334 53.0076 42.2166 53.0227C42.1011 53.036 42.0073 53.0473 41.9354 53.0568C41.7611 53.0795 41.5982 53.1165 41.4467 53.1676C41.2971 53.2169 41.1759 53.2917 41.0831 53.392C40.9922 53.4905 40.9467 53.625 40.9467 53.7955C40.9467 54.0284 41.0329 54.2045 41.2053 54.3239C41.3795 54.4413 41.6001 54.5 41.8672 54.5ZM46.8864 50.6364V51.2045H44.625V50.6364H46.8864ZM45.2841 49.5909H45.9545V53.75C45.9545 53.9394 45.982 54.0814 46.0369 54.1761C46.0938 54.2689 46.1657 54.3314 46.2528 54.3636C46.3419 54.3939 46.4356 54.4091 46.5341 54.4091C46.608 54.4091 46.6686 54.4053 46.7159 54.3977C46.7633 54.3883 46.8011 54.3807 46.8295 54.375L46.9659 54.9773C46.9205 54.9943 46.857 55.0114 46.7756 55.0284C46.6941 55.0473 46.5909 55.0568 46.4659 55.0568C46.2765 55.0568 46.0909 55.0161 45.9091 54.9347C45.7292 54.8532 45.5795 54.7292 45.4602 54.5625C45.3428 54.3958 45.2841 54.1856 45.2841 53.9318V49.5909ZM49.6776 55.0909C49.2571 55.0909 48.8944 54.9981 48.5895 54.8125C48.2865 54.625 48.0526 54.3636 47.8878 54.0284C47.7249 53.6913 47.6435 53.2992 47.6435 52.8523C47.6435 52.4053 47.7249 52.0114 47.8878 51.6705C48.0526 51.3277 48.2817 51.0606 48.5753 50.8693C48.8707 50.6761 49.2154 50.5795 49.6094 50.5795C49.8366 50.5795 50.0611 50.6174 50.2827 50.6932C50.5043 50.7689 50.706 50.892 50.8878 51.0625C51.0696 51.2311 51.2145 51.4545 51.3224 51.733C51.4304 52.0114 51.4844 52.3542 51.4844 52.7614V53.0455H48.1207V52.4659H50.8026C50.8026 52.2197 50.7533 52 50.6548 51.8068C50.5582 51.6136 50.42 51.4612 50.2401 51.3494C50.062 51.2377 49.8518 51.1818 49.6094 51.1818C49.3423 51.1818 49.1113 51.2481 48.9162 51.3807C48.723 51.5114 48.5743 51.6818 48.4702 51.892C48.366 52.1023 48.3139 52.3277 48.3139 52.5682V52.9545C48.3139 53.2841 48.3707 53.5634 48.4844 53.7926C48.5999 54.0199 48.7599 54.1932 48.9645 54.3125C49.169 54.4299 49.4067 54.4886 49.6776 54.4886C49.8537 54.4886 50.0128 54.464 50.1548 54.4148C50.2988 54.3636 50.4228 54.2879 50.527 54.1875C50.6312 54.0852 50.7116 53.9583 50.7685 53.8068L51.4162 53.9886C51.348 54.2083 51.2334 54.4015 51.0724 54.5682C50.9115 54.733 50.7126 54.8617 50.4759 54.9545C50.2391 55.0455 49.973 55.0909 49.6776 55.0909Z" fill="white"/>
<circle cx="88" cy="84" r="15" fill="#141414"/>
<circle cx="88" cy="84" r="14" stroke="white" stroke-opacity="0.3" stroke-width="2"/>
<line x1="89" y1="69" x2="89" y2="79" stroke="white" stroke-opacity="0.3" stroke-width="2"/>
<path d="M67.7614 112L66.1705 106.182H66.8864L68.1023 110.92H68.1591L69.3977 106.182H70.1932L71.4318 110.92H71.4886L72.7045 106.182H73.4205L71.8295 112H71.1023L69.8182 107.364H69.7727L68.4886 112H67.7614ZM75.5739 112.091C75.1799 112.091 74.8343 111.997 74.5369 111.81C74.2415 111.622 74.0104 111.36 73.8438 111.023C73.679 110.686 73.5966 110.292 73.5966 109.841C73.5966 109.386 73.679 108.99 73.8438 108.651C74.0104 108.312 74.2415 108.048 74.5369 107.861C74.8343 107.673 75.1799 107.58 75.5739 107.58C75.9678 107.58 76.3125 107.673 76.608 107.861C76.9053 108.048 77.1364 108.312 77.3011 108.651C77.4678 108.99 77.5511 109.386 77.5511 109.841C77.5511 110.292 77.4678 110.686 77.3011 111.023C77.1364 111.36 76.9053 111.622 76.608 111.81C76.3125 111.997 75.9678 112.091 75.5739 112.091ZM75.5739 111.489C75.8731 111.489 76.1193 111.412 76.3125 111.259C76.5057 111.105 76.6487 110.903 76.7415 110.653C76.8343 110.403 76.8807 110.133 76.8807 109.841C76.8807 109.549 76.8343 109.277 76.7415 109.026C76.6487 108.774 76.5057 108.57 76.3125 108.415C76.1193 108.259 75.8731 108.182 75.5739 108.182C75.2746 108.182 75.0284 108.259 74.8352 108.415C74.642 108.57 74.4991 108.774 74.4062 109.026C74.3134 109.277 74.267 109.549 74.267 109.841C74.267 110.133 74.3134 110.403 74.4062 110.653C74.4991 110.903 74.642 111.105 74.8352 111.259C75.0284 111.412 75.2746 111.489 75.5739 111.489ZM79.4148 112L78.0852 107.636H78.7898L79.733 110.977H79.7784L80.7102 107.636H81.4261L82.3466 110.966H82.392L83.3352 107.636H84.0398L82.7102 112H82.0511L81.0966 108.648H81.0284L80.0739 112H79.4148ZM89.0625 112H87.267V106.182H89.142C89.7064 106.182 90.1894 106.298 90.5909 106.531C90.9924 106.762 91.3002 107.095 91.5142 107.528C91.7282 107.96 91.8352 108.477 91.8352 109.08C91.8352 109.686 91.7273 110.207 91.5114 110.645C91.2955 111.08 90.9811 111.416 90.5682 111.651C90.1553 111.884 89.6534 112 89.0625 112ZM87.9716 111.375H89.017C89.4981 111.375 89.8968 111.282 90.2131 111.097C90.5294 110.911 90.7652 110.647 90.9205 110.304C91.0758 109.961 91.1534 109.553 91.1534 109.08C91.1534 108.61 91.0767 108.205 90.9233 107.866C90.7699 107.526 90.5407 107.264 90.2358 107.082C89.9309 106.899 89.5511 106.807 89.0966 106.807H87.9716V111.375ZM94.7557 112.091C94.3352 112.091 93.9725 111.998 93.6676 111.812C93.3646 111.625 93.1307 111.364 92.9659 111.028C92.803 110.691 92.7216 110.299 92.7216 109.852C92.7216 109.405 92.803 109.011 92.9659 108.67C93.1307 108.328 93.3598 108.061 93.6534 107.869C93.9489 107.676 94.2936 107.58 94.6875 107.58C94.9148 107.58 95.1392 107.617 95.3608 107.693C95.5824 107.769 95.7841 107.892 95.9659 108.062C96.1477 108.231 96.2926 108.455 96.4006 108.733C96.5085 109.011 96.5625 109.354 96.5625 109.761V110.045H93.1989V109.466H95.8807C95.8807 109.22 95.8314 109 95.733 108.807C95.6364 108.614 95.4981 108.461 95.3182 108.349C95.1402 108.238 94.9299 108.182 94.6875 108.182C94.4205 108.182 94.1894 108.248 93.9943 108.381C93.8011 108.511 93.6525 108.682 93.5483 108.892C93.4441 109.102 93.392 109.328 93.392 109.568V109.955C93.392 110.284 93.4489 110.563 93.5625 110.793C93.678 111.02 93.8381 111.193 94.0426 111.312C94.2472 111.43 94.4848 111.489 94.7557 111.489C94.9318 111.489 95.0909 111.464 95.233 111.415C95.3769 111.364 95.5009 111.288 95.6051 111.188C95.7093 111.085 95.7898 110.958 95.8466 110.807L96.4943 110.989C96.4261 111.208 96.3116 111.402 96.1506 111.568C95.9896 111.733 95.7907 111.862 95.554 111.955C95.3172 112.045 95.0511 112.091 94.7557 112.091ZM97.5824 113.636V107.636H98.2301V108.33H98.3097C98.3589 108.254 98.4271 108.157 98.5142 108.04C98.6032 107.92 98.7301 107.814 98.8949 107.722C99.0616 107.627 99.2869 107.58 99.571 107.58C99.9384 107.58 100.262 107.671 100.543 107.855C100.823 108.039 101.042 108.299 101.199 108.636C101.356 108.973 101.435 109.371 101.435 109.83C101.435 110.292 101.356 110.692 101.199 111.031C101.042 111.368 100.824 111.63 100.545 111.815C100.267 111.999 99.946 112.091 99.5824 112.091C99.3021 112.091 99.0777 112.045 98.9091 111.952C98.7405 111.857 98.6108 111.75 98.5199 111.631C98.429 111.509 98.3589 111.409 98.3097 111.33H98.2528V113.636H97.5824ZM98.2415 109.818C98.2415 110.148 98.2898 110.438 98.3864 110.69C98.483 110.94 98.6241 111.136 98.8097 111.278C98.9953 111.419 99.2225 111.489 99.4915 111.489C99.7718 111.489 100.006 111.415 100.193 111.267C100.383 111.117 100.525 110.917 100.619 110.665C100.716 110.411 100.764 110.129 100.764 109.818C100.764 109.511 100.717 109.235 100.622 108.989C100.529 108.741 100.388 108.545 100.199 108.401C100.011 108.255 99.7756 108.182 99.4915 108.182C99.2188 108.182 98.9896 108.251 98.804 108.389C98.6184 108.526 98.4782 108.717 98.3835 108.963C98.2888 109.207 98.2415 109.492 98.2415 109.818ZM104.355 107.636V108.205H102.094V107.636H104.355ZM102.753 106.591H103.423V110.75C103.423 110.939 103.451 111.081 103.506 111.176C103.563 111.269 103.634 111.331 103.722 111.364C103.811 111.394 103.904 111.409 104.003 111.409C104.077 111.409 104.137 111.405 104.185 111.398C104.232 111.388 104.27 111.381 104.298 111.375L104.435 111.977C104.389 111.994 104.326 112.011 104.244 112.028C104.163 112.047 104.06 112.057 103.935 112.057C103.745 112.057 103.56 112.016 103.378 111.935C103.198 111.853 103.048 111.729 102.929 111.562C102.812 111.396 102.753 111.186 102.753 110.932V106.591ZM106.128 109.375V112H105.457V106.182H106.128V108.318H106.185C106.287 108.093 106.44 107.914 106.645 107.781C106.851 107.647 107.126 107.58 107.469 107.58C107.766 107.58 108.027 107.639 108.25 107.759C108.473 107.876 108.647 108.057 108.77 108.301C108.895 108.544 108.957 108.852 108.957 109.227V112H108.287V109.273C108.287 108.926 108.197 108.658 108.017 108.469C107.839 108.277 107.592 108.182 107.276 108.182C107.056 108.182 106.859 108.228 106.685 108.321C106.512 108.414 106.376 108.549 106.276 108.727C106.177 108.905 106.128 109.121 106.128 109.375Z" fill="white"/>
<circle cx="28" cy="84" r="15" fill="#141414"/>
<circle cx="28" cy="84" r="14" stroke="white" stroke-opacity="0.3" stroke-width="2"/>
<line x1="29" y1="69" x2="29" y2="79" stroke="white" stroke-opacity="0.3" stroke-width="2"/>
<path d="M11.7614 112L10.1705 106.182H10.8864L12.1023 110.92H12.1591L13.3977 106.182H14.1932L15.4318 110.92H15.4886L16.7045 106.182H17.4205L15.8295 112H15.1023L13.8182 107.364H13.7727L12.4886 112H11.7614ZM19.5739 112.091C19.1799 112.091 18.8343 111.997 18.5369 111.81C18.2415 111.622 18.0104 111.36 17.8438 111.023C17.679 110.686 17.5966 110.292 17.5966 109.841C17.5966 109.386 17.679 108.99 17.8438 108.651C18.0104 108.312 18.2415 108.048 18.5369 107.861C18.8343 107.673 19.1799 107.58 19.5739 107.58C19.9678 107.58 20.3125 107.673 20.608 107.861C20.9053 108.048 21.1364 108.312 21.3011 108.651C21.4678 108.99 21.5511 109.386 21.5511 109.841C21.5511 110.292 21.4678 110.686 21.3011 111.023C21.1364 111.36 20.9053 111.622 20.608 111.81C20.3125 111.997 19.9678 112.091 19.5739 112.091ZM19.5739 111.489C19.8731 111.489 20.1193 111.412 20.3125 111.259C20.5057 111.105 20.6487 110.903 20.7415 110.653C20.8343 110.403 20.8807 110.133 20.8807 109.841C20.8807 109.549 20.8343 109.277 20.7415 109.026C20.6487 108.774 20.5057 108.57 20.3125 108.415C20.1193 108.259 19.8731 108.182 19.5739 108.182C19.2746 108.182 19.0284 108.259 18.8352 108.415C18.642 108.57 18.4991 108.774 18.4062 109.026C18.3134 109.277 18.267 109.549 18.267 109.841C18.267 110.133 18.3134 110.403 18.4062 110.653C18.4991 110.903 18.642 111.105 18.8352 111.259C19.0284 111.412 19.2746 111.489 19.5739 111.489ZM23.4148 112L22.0852 107.636H22.7898L23.733 110.977H23.7784L24.7102 107.636H25.4261L26.3466 110.966H26.392L27.3352 107.636H28.0398L26.7102 112H26.0511L25.0966 108.648H25.0284L24.0739 112H23.4148ZM31.1761 112V107.636H31.8239V108.295H31.8693C31.9489 108.08 32.0928 107.904 32.3011 107.77C32.5095 107.635 32.7443 107.568 33.0057 107.568C33.0549 107.568 33.1165 107.569 33.1903 107.571C33.2642 107.573 33.3201 107.576 33.358 107.58V108.261C33.3352 108.256 33.2831 108.247 33.2017 108.236C33.1222 108.223 33.0379 108.216 32.9489 108.216C32.7367 108.216 32.5473 108.26 32.3807 108.349C32.2159 108.437 32.0852 108.558 31.9886 108.713C31.8939 108.866 31.8466 109.042 31.8466 109.239V112H31.1761ZM35.4368 112.102C35.1603 112.102 34.9093 112.05 34.6839 111.946C34.4586 111.84 34.2796 111.688 34.147 111.489C34.0144 111.288 33.9482 111.045 33.9482 110.761C33.9482 110.511 33.9974 110.309 34.0959 110.153C34.1944 109.996 34.326 109.873 34.4908 109.784C34.6555 109.695 34.8374 109.629 35.0362 109.585C35.237 109.54 35.4387 109.504 35.6413 109.477C35.9065 109.443 36.1214 109.418 36.2862 109.401C36.4529 109.382 36.5741 109.35 36.6499 109.307C36.7275 109.263 36.7663 109.187 36.7663 109.08V109.057C36.7663 108.777 36.6896 108.559 36.5362 108.403C36.3847 108.248 36.1546 108.17 35.8459 108.17C35.5258 108.17 35.2749 108.241 35.093 108.381C34.9112 108.521 34.7834 108.67 34.7095 108.83L34.0732 108.602C34.1868 108.337 34.3383 108.131 34.5277 107.983C34.719 107.833 34.9273 107.729 35.1527 107.67C35.38 107.61 35.6035 107.58 35.8232 107.58C35.9633 107.58 36.1243 107.597 36.3061 107.631C36.4898 107.663 36.6669 107.73 36.8374 107.832C37.0097 107.935 37.1527 108.089 37.2663 108.295C37.38 108.502 37.4368 108.778 37.4368 109.125V112H36.7663V111.409H36.7322C36.6868 111.504 36.611 111.605 36.505 111.713C36.3989 111.821 36.2578 111.913 36.0817 111.989C35.9055 112.064 35.6906 112.102 35.4368 112.102ZM35.5391 111.5C35.8042 111.5 36.0277 111.448 36.2095 111.344C36.3932 111.24 36.5315 111.105 36.6243 110.94C36.719 110.776 36.7663 110.602 36.7663 110.42V109.807C36.7379 109.841 36.6754 109.872 36.5788 109.901C36.4841 109.927 36.3743 109.951 36.2493 109.972C36.1262 109.991 36.0059 110.008 35.8885 110.023C35.773 110.036 35.6792 110.047 35.6072 110.057C35.433 110.08 35.2701 110.116 35.1186 110.168C34.969 110.217 34.8478 110.292 34.755 110.392C34.6641 110.491 34.6186 110.625 34.6186 110.795C34.6186 111.028 34.7048 111.205 34.8771 111.324C35.0514 111.441 35.272 111.5 35.5391 111.5ZM40.5582 107.636V108.205H38.2969V107.636H40.5582ZM38.956 106.591H39.6264V110.75C39.6264 110.939 39.6539 111.081 39.7088 111.176C39.7656 111.269 39.8376 111.331 39.9247 111.364C40.0137 111.394 40.1075 111.409 40.206 111.409C40.2798 111.409 40.3404 111.405 40.3878 111.398C40.4351 111.388 40.473 111.381 40.5014 111.375L40.6378 111.977C40.5923 111.994 40.5289 112.011 40.4474 112.028C40.366 112.047 40.2628 112.057 40.1378 112.057C39.9484 112.057 39.7628 112.016 39.581 111.935C39.401 111.853 39.2514 111.729 39.1321 111.562C39.0147 111.396 38.956 111.186 38.956 110.932V106.591ZM43.3494 112.091C42.929 112.091 42.5663 111.998 42.2614 111.812C41.9583 111.625 41.7244 111.364 41.5597 111.028C41.3968 110.691 41.3153 110.299 41.3153 109.852C41.3153 109.405 41.3968 109.011 41.5597 108.67C41.7244 108.328 41.9536 108.061 42.2472 107.869C42.5426 107.676 42.8873 107.58 43.2812 107.58C43.5085 107.58 43.733 107.617 43.9545 107.693C44.1761 107.769 44.3778 107.892 44.5597 108.062C44.7415 108.231 44.8864 108.455 44.9943 108.733C45.1023 109.011 45.1562 109.354 45.1562 109.761V110.045H41.7926V109.466H44.4744C44.4744 109.22 44.4252 109 44.3267 108.807C44.2301 108.614 44.0919 108.461 43.9119 108.349C43.7339 108.238 43.5237 108.182 43.2812 108.182C43.0142 108.182 42.7831 108.248 42.5881 108.381C42.3949 108.511 42.2462 108.682 42.142 108.892C42.0379 109.102 41.9858 109.328 41.9858 109.568V109.955C41.9858 110.284 42.0426 110.563 42.1562 110.793C42.2718 111.02 42.4318 111.193 42.6364 111.312C42.8409 111.43 43.0786 111.489 43.3494 111.489C43.5256 111.489 43.6847 111.464 43.8267 111.415C43.9706 111.364 44.0947 111.288 44.1989 111.188C44.303 111.085 44.3835 110.958 44.4403 110.807L45.0881 110.989C45.0199 111.208 44.9053 111.402 44.7443 111.568C44.5833 111.733 44.3845 111.862 44.1477 111.955C43.911 112.045 43.6449 112.091 43.3494 112.091Z" fill="white"/>
</svg>
