<svg width="70" height="70" viewBox="0 0 70 70" fill="none" xmlns="http://www.w3.org/2000/svg">
<circle cx="35" cy="35" r="32.5" stroke="white" stroke-width="5"/>
<circle cx="35" cy="35" r="30" fill="white" fill-opacity="0.6"/>
<circle cx="35" cy="35" r="20" fill="white"/>
<path d="M43.6998 32.941L40.2817 29.1847C39.6053 28.5083 38.5035 28.5074 37.8208 29.1901C37.6044 29.4065 37.4572 29.6656 37.3808 29.942C36.7008 29.421 35.7199 29.4729 35.0935 30.0992C34.885 30.3079 34.7332 30.5664 34.6526 30.8501C33.9726 30.3311 32.9917 30.3819 32.3662 31.0083C32.1544 31.2201 32.009 31.4728 31.9299 31.742L30.3189 30.131C29.6426 29.4547 28.5408 29.4538 27.858 30.1365C27.1808 30.8128 27.1808 31.9147 27.858 32.5919L34.0471 38.781L30.3762 39.3574C29.3844 39.4992 28.6362 40.361 28.6362 41.3637C28.6362 42.1156 29.248 42.7274 29.9998 42.7274H38.5717C39.9071 42.7274 41.1626 42.2074 42.1071 41.2628L43.5371 39.8328C44.4807 38.8901 44.9998 37.6355 44.9998 36.3019C44.9998 35.0564 44.538 33.8628 43.6998 32.941ZM42.8944 39.1901L41.4644 40.6201C40.6917 41.3928 39.6644 41.8182 38.5716 41.8182H29.9998C29.7489 41.8182 29.5452 41.6146 29.5452 41.3637C29.5452 40.8109 29.958 40.3355 30.5116 40.2564L35.0707 39.54C35.2398 39.5137 35.3789 39.3946 35.4325 39.2319C35.4852 39.0701 35.4426 38.8909 35.3216 38.7701L28.5007 31.9492C28.178 31.6265 28.178 31.101 28.5053 30.7728C28.6607 30.6178 28.8713 30.5308 29.0908 30.531C29.3026 30.531 29.5144 30.6119 29.6762 30.7737L34.2244 35.3219C34.4017 35.4992 34.6899 35.4992 34.8672 35.3219C34.9553 35.2328 34.9999 35.1165 34.9999 35.0001C34.9999 34.8837 34.9554 34.7674 34.8663 34.6783L33.009 32.821C32.6863 32.4983 32.6863 31.9737 33.0145 31.6456C33.3363 31.3237 33.8626 31.3237 34.1845 31.6456L36.0426 33.5037C36.2199 33.681 36.5081 33.681 36.6854 33.5037C36.7704 33.4182 36.8181 33.3025 36.8181 33.1819C36.8181 33.0655 36.7736 32.9492 36.6845 32.8601L35.7363 31.9119C35.4136 31.5892 35.4136 31.0646 35.7417 30.7364C36.0636 30.4146 36.5899 30.4146 36.9117 30.7364L37.8645 31.6892C37.8663 31.69 37.8654 31.69 37.8654 31.69L37.8662 31.6909L37.8671 31.6918L37.868 31.6927H37.8689C37.8698 31.6927 37.8698 31.6936 37.8698 31.6936C38.048 31.8627 38.3298 31.8591 38.5034 31.6846C38.6807 31.5073 38.6807 31.2191 38.5034 31.0418L38.4644 31.0027C38.308 30.8464 38.2216 30.6382 38.2216 30.4173C38.2216 30.1964 38.3071 29.9891 38.4689 29.8273C38.7926 29.5055 39.3162 29.5064 39.6244 29.8118L43.028 33.5527C43.7125 34.3064 44.0907 35.2828 44.0907 36.3019C44.0907 37.3928 43.6662 38.4183 42.8944 39.1901Z" fill="#141414"/>
<path d="M32.8145 29.6843C32.1527 28.2198 30.6909 27.2725 29.0909 27.2725C26.8355 27.2725 25 29.1079 25 31.3634C25 32.9634 25.9473 34.4252 27.4118 35.0879C27.4727 35.1152 27.5364 35.1279 27.5991 35.1279C27.7718 35.1279 27.9373 35.0279 28.0136 34.8607C28.1164 34.6316 28.0145 34.3625 27.7864 34.2588C26.6464 33.7434 25.9091 32.607 25.9091 31.3634C25.9091 29.6088 27.3364 28.1815 29.091 28.1815C30.3346 28.1815 31.471 28.9188 31.9864 30.0588C32.0892 30.2879 32.3592 30.3906 32.5873 30.2861C32.8164 30.1825 32.9182 29.9134 32.8145 29.6843Z" fill="#141414"/>
</svg>
