<svg width="16" height="18" viewBox="0 0 16 18" fill="none" xmlns="http://www.w3.org/2000/svg">
<path d="M8.00065 17.9557C7.393 17.9553 6.81036 17.7137 6.38069 17.284C5.95101 16.8544 5.70943 16.2717 5.70898 15.6641V13.1641C5.70898 12.9983 5.77483 12.8393 5.89204 12.7221C6.00925 12.6049 6.16822 12.5391 6.33398 12.5391H9.66732C9.83308 12.5391 9.99205 12.6049 10.1093 12.7221C10.2265 12.8393 10.2923 12.9983 10.2923 13.1641V15.6641C10.2919 16.2717 10.0503 16.8544 9.62062 17.284C9.19094 17.7137 8.6083 17.9553 8.00065 17.9557ZM6.95898 13.7891V15.6641C6.95898 15.9403 7.06873 16.2053 7.26408 16.4006C7.45943 16.596 7.72438 16.7057 8.00065 16.7057C8.27692 16.7057 8.54187 16.596 8.73722 16.4006C8.93257 16.2053 9.04232 15.9403 9.04232 15.6641V13.7891H6.95898Z" fill="white"/>
<path d="M13.0007 13.7865H3.00065C2.39286 13.7865 1.80997 13.545 1.3802 13.1152C0.950427 12.6855 0.708984 12.1026 0.708984 11.4948C0.708984 10.887 0.950427 10.3041 1.3802 9.87434C1.80997 9.44457 2.39286 9.20312 3.00065 9.20312H13.0007C13.6084 9.20313 14.1913 9.44457 14.6211 9.87434C15.0509 10.3041 15.2923 10.887 15.2923 11.4948C15.2923 12.1026 15.0509 12.6855 14.6211 13.1152C14.1913 13.545 13.6084 13.7865 13.0007 13.7865ZM3.00065 10.4531C2.72438 10.4531 2.45943 10.5629 2.26408 10.7582C2.06873 10.9536 1.95898 11.2185 1.95898 11.4948C1.95898 11.7711 2.06873 12.036 2.26408 12.2314C2.45943 12.4267 2.72438 12.5365 3.00065 12.5365H13.0007C13.2769 12.5365 13.5419 12.4267 13.7372 12.2314C13.9326 12.036 14.0423 11.7711 14.0423 11.4948C14.0423 11.2185 13.9326 10.9536 13.7372 10.7582C13.5419 10.5629 13.2769 10.4531 13.0007 10.4531H3.00065Z" fill="white"/>
<path d="M13.8346 10.6807C13.6689 10.6807 13.5099 10.6149 13.3927 10.4977C13.2755 10.3805 13.2096 10.2215 13.2096 10.0557V2.33074C13.2092 2.05461 13.0993 1.78991 12.9041 1.59466C12.7088 1.3994 12.4441 1.28951 12.168 1.28907H8.2013C8.0073 1.28894 7.81714 1.34312 7.65234 1.44548C7.48754 1.54784 7.35468 1.69428 7.2688 1.86824L6.89214 2.61241C6.8344 2.70872 6.7527 2.78843 6.655 2.84377C6.5573 2.89911 6.44692 2.9282 6.33464 2.9282C6.22235 2.9282 6.11197 2.89911 6.01427 2.84377C5.91657 2.78843 5.83487 2.70872 5.77714 2.61241L5.4013 1.87074C5.31595 1.69588 5.18321 1.54849 5.01821 1.44536C4.8532 1.34223 4.66255 1.2875 4.46797 1.28741H3.83464C3.55822 1.28785 3.29327 1.39797 3.09796 1.59358C2.90266 1.7892 2.79297 2.05432 2.79297 2.33074V10.0557C2.79297 10.2215 2.72712 10.3805 2.60991 10.4977C2.4927 10.6149 2.33373 10.6807 2.16797 10.6807C2.00221 10.6807 1.84324 10.6149 1.72603 10.4977C1.60882 10.3805 1.54297 10.2215 1.54297 10.0557V2.33074C1.54363 1.72316 1.78529 1.14065 2.21491 0.711018C2.64454 0.28139 3.22705 0.039735 3.83464 0.0390732H4.46797C4.83358 0.0380897 5.19405 0.125107 5.51895 0.292777C5.84384 0.460446 6.12362 0.703842 6.33464 1.00241C6.54556 0.703741 6.82531 0.46027 7.15023 0.292589C7.47515 0.124908 7.83567 0.0379505 8.2013 0.0390732H12.168C12.7756 0.039735 13.3581 0.28139 13.7877 0.711018C14.2173 1.14065 14.459 1.72316 14.4596 2.33074V10.0557C14.4596 10.2215 14.3938 10.3805 14.2766 10.4977C14.1594 10.6149 14.0004 10.6807 13.8346 10.6807Z" fill="white"/>
<path d="M6.33398 4.61979C6.16822 4.61979 6.00925 4.55394 5.89204 4.43673C5.77483 4.31952 5.70898 4.16055 5.70898 3.99479V2.32813C5.70898 2.16236 5.77483 2.00339 5.89204 1.88618C6.00925 1.76897 6.16822 1.70313 6.33398 1.70312C6.49974 1.70312 6.65872 1.76897 6.77593 1.88618C6.89314 2.00339 6.95898 2.16236 6.95898 2.32813V3.99479C6.95898 4.16055 6.89314 4.31952 6.77593 4.43673C6.65872 4.55394 6.49974 4.61979 6.33398 4.61979Z" fill="white"/>
</svg>
