<svg width="15" height="10" viewBox="0 0 15 10" fill="none" xmlns="http://www.w3.org/2000/svg">
<path fill-rule="evenodd" clip-rule="evenodd" d="M14.257 0.243989C14.4132 0.400262 14.5009 0.612185 14.5009 0.833155C14.5009 1.05413 14.4132 1.26605 14.257 1.42232L5.92363 9.75566C5.76735 9.91188 5.55543 9.99964 5.33446 9.99964C5.11349 9.99964 4.90157 9.91188 4.74529 9.75566L0.578626 5.58899C0.499034 5.51212 0.435549 5.42016 0.391874 5.31849C0.3482 5.21682 0.325212 5.10747 0.32425 4.99682C0.323289 4.88617 0.344373 4.77644 0.386274 4.67403C0.428175 4.57161 0.490052 4.47857 0.568296 4.40033C0.64654 4.32208 0.739584 4.26021 0.841997 4.2183C0.944411 4.1764 1.05414 4.15532 1.16479 4.15628C1.27544 4.15724 1.38479 4.18023 1.48646 4.2239C1.58813 4.26758 1.68009 4.33106 1.75696 4.41066L5.33446 7.98816L13.0786 0.243989C13.2349 0.087763 13.4468 0 13.6678 0C13.8888 0 14.1007 0.087763 14.257 0.243989Z" fill="white"/>
</svg>
