<svg width="32" height="32" viewBox="0 0 32 32" fill="none" xmlns="http://www.w3.org/2000/svg">
<path d="M28.0001 18.666C27.6465 18.666 27.3073 18.8065 27.0573 19.0565C26.8072 19.3066 26.6667 19.6457 26.6667 19.9993V25.3327C26.6667 25.6863 26.5263 26.0254 26.2762 26.2755C26.0262 26.5255 25.687 26.666 25.3334 26.666H6.66675C6.31313 26.666 5.97399 26.5255 5.72394 26.2755C5.47389 26.0254 5.33341 25.6863 5.33341 25.3327V19.9993C5.33341 19.6457 5.19294 19.3066 4.94289 19.0565C4.69284 18.8065 4.3537 18.666 4.00008 18.666C3.64646 18.666 3.30732 18.8065 3.05727 19.0565C2.80722 19.3066 2.66675 19.6457 2.66675 19.9993V25.3327C2.66675 26.3935 3.08818 27.411 3.83832 28.1611C4.58847 28.9113 5.60588 29.3327 6.66675 29.3327H25.3334C26.3943 29.3327 27.4117 28.9113 28.1618 28.1611C28.912 27.411 29.3334 26.3935 29.3334 25.3327V19.9993C29.3334 19.6457 29.1929 19.3066 28.9429 19.0565C28.6928 18.8065 28.3537 18.666 28.0001 18.666ZM15.0534 20.946C15.1802 21.0674 15.3297 21.1626 15.4934 21.226C15.653 21.2966 15.8256 21.333 16.0001 21.333C16.1746 21.333 16.3471 21.2966 16.5067 21.226C16.6704 21.1626 16.8199 21.0674 16.9467 20.946L22.2801 15.6127C22.5312 15.3616 22.6722 15.0211 22.6722 14.666C22.6722 14.3109 22.5312 13.9704 22.2801 13.7193C22.029 13.4683 21.6885 13.3272 21.3334 13.3272C20.9783 13.3272 20.6378 13.4683 20.3867 13.7193L17.3334 16.786V3.99935C17.3334 3.64573 17.1929 3.30659 16.9429 3.05654C16.6928 2.80649 16.3537 2.66602 16.0001 2.66602C15.6465 2.66602 15.3073 2.80649 15.0573 3.05654C14.8072 3.30659 14.6667 3.64573 14.6667 3.99935V16.786L11.6134 13.7193C11.4891 13.595 11.3415 13.4964 11.1791 13.4291C11.0167 13.3619 10.8426 13.3272 10.6667 13.3272C10.4909 13.3272 10.3168 13.3619 10.1544 13.4291C9.99199 13.4964 9.8444 13.595 9.72008 13.7193C9.59576 13.8437 9.49715 13.9913 9.42987 14.1537C9.36259 14.3161 9.32796 14.4902 9.32796 14.666C9.32796 14.8418 9.36259 15.0159 9.42987 15.1783C9.49715 15.3408 9.59576 15.4884 9.72008 15.6127L15.0534 20.946Z" fill="white"/>
</svg>
