<svg width="46" height="32" viewBox="0 0 46 32" fill="none" xmlns="http://www.w3.org/2000/svg">
<g clip-path="url(#clip0_33_1913)">
<path d="M12 0H2C0.89543 0 0 0.955126 0 2.13333V12.8C0 13.9782 0.89543 14.9333 2 14.9333H12C13.1046 14.9333 14 13.9782 14 12.8V2.13333C14 0.955126 13.1046 0 12 0Z" fill="white"/>
<path d="M27 1.06641H19C17.8954 1.06641 17 2.02153 17 3.19974V11.7331C17 12.9113 17.8954 13.8664 19 13.8664H27C28.1046 13.8664 29 12.9113 29 11.7331V3.19974C29 2.02153 28.1046 1.06641 27 1.06641Z" stroke="white" stroke-width="2"/>
<path d="M44 0H34C32.8954 0 32 0.955126 32 2.13333V12.8C32 13.9782 32.8954 14.9333 34 14.9333H44C45.1046 14.9333 46 13.9782 46 12.8V2.13333C46 0.955126 45.1046 0 44 0Z" fill="white"/>
<path d="M11 18.1328H3C1.89543 18.1328 1 19.0879 1 20.2661V28.7995C1 29.9777 1.89543 30.9328 3 30.9328H11C12.1046 30.9328 13 29.9777 13 28.7995V20.2661C13 19.0879 12.1046 18.1328 11 18.1328Z" stroke="white" stroke-width="2"/>
<path d="M28 17.0664H18C16.8954 17.0664 16 18.0215 16 19.1997V29.8664C16 31.0446 16.8954 31.9997 18 31.9997H28C29.1046 31.9997 30 31.0446 30 29.8664V19.1997C30 18.0215 29.1046 17.0664 28 17.0664Z" fill="white"/>
<path d="M43 18.1328H35C33.8954 18.1328 33 19.0879 33 20.2661V28.7995C33 29.9777 33.8954 30.9328 35 30.9328H43C44.1046 30.9328 45 29.9777 45 28.7995V20.2661C45 19.0879 44.1046 18.1328 43 18.1328Z" stroke="white" stroke-width="2"/>
</g>
<defs>
<clipPath id="clip0_33_1913">
<rect width="46" height="32" fill="white"/>
</clipPath>
</defs>
</svg>
