<svg width="32" height="32" viewBox="0 0 32 32" fill="none" xmlns="http://www.w3.org/2000/svg">
<path d="M28.32 4.92773H3.68005C2.08005 4.92773 0.800049 6.20773 0.800049 7.80773V24.1917C0.800049 25.7917 2.08005 27.0717 3.68005 27.0717H28.32C29.92 27.0717 31.2 25.7917 31.2 24.1917V7.80773C31.2 6.20773 29.92 4.92773 28.32 4.92773ZM10.4 17.4397C10.848 17.4397 11.2 17.0877 11.2 16.6397V6.68773H13.664V16.6397C13.664 17.0877 14.016 17.4397 14.464 17.4397H15.136V25.3117H9.72805V17.4397H10.4ZM16.896 17.4397H17.568C18.016 17.4397 18.368 17.0877 18.368 16.6397V6.68773H20.8V16.6397C20.8 17.0877 21.152 17.4397 21.6 17.4397H22.272V25.3117H16.896V17.4397ZM2.56005 24.1917V7.80773C2.56005 7.19973 3.07205 6.68773 3.68005 6.68773H6.49605V16.6397C6.49605 17.0877 6.84805 17.4397 7.29605 17.4397H7.96805V25.3117H3.68005C3.07205 25.3117 2.56005 24.7997 2.56005 24.1917ZM29.44 24.1917C29.44 24.7997 28.928 25.3117 28.32 25.3117H24.032V17.4397H24.704C25.152 17.4397 25.504 17.0877 25.504 16.6397V6.68773H28.32C28.928 6.68773 29.44 7.19973 29.44 7.80773V24.1917Z" fill="white"/>
</svg>
