<svg width="32" height="32" viewBox="0 0 32 32" fill="none" xmlns="http://www.w3.org/2000/svg">
<path d="M27.8557 3.82876C27.7344 3.72358 27.5919 3.64567 27.4378 3.60033C27.2838 3.55498 27.1218 3.54325 26.9629 3.56592L11.2725 5.80738C10.7204 5.88628 10.3103 6.35917 10.3103 6.91693V20.0569C9.64644 19.6702 8.87581 19.4475 8.0537 19.4475C5.57351 19.4475 3.55566 21.4654 3.55566 23.9455C3.55566 26.4257 5.57346 28.4436 8.05365 28.4436C10.5338 28.4436 12.5517 26.4257 12.5517 23.9455V12.3719L26.0006 10.4507V17.8154C25.3367 17.4287 24.5661 17.206 23.744 17.206C21.2638 17.206 19.246 19.2238 19.246 21.704C19.246 24.1842 21.2638 26.2021 23.744 26.2021C26.2242 26.2021 28.242 24.1842 28.242 21.704V4.67542C28.2421 4.51486 28.2076 4.35616 28.1409 4.21008C28.0743 4.06401 27.977 3.93397 27.8557 3.82876Z" fill="white"/>
</svg>
