<svg width="20" height="20" viewBox="0 0 20 20" fill="none" xmlns="http://www.w3.org/2000/svg">
<path d="M15 4C14.2651 3.99867 13.6683 4.59336 13.6669 5.32828C13.6663 5.67467 13.8008 6.00765 14.0418 6.25646L11.6058 11.1276C11.5524 11.1187 11.4985 11.1132 11.4445 11.1111C11.2723 11.1115 11.1019 11.1453 10.9427 11.2107L9.05156 9.08404C9.16196 8.88885 9.2207 8.66872 9.22224 8.44448C9.22224 7.7081 8.62529 7.11115 7.88891 7.11115C7.15252 7.11115 6.55557 7.7081 6.55557 8.44448C6.55689 8.76277 6.67304 9.06988 6.88268 9.30938L4.57156 13.3573C4.49303 13.3422 4.4133 13.3342 4.33333 13.3333C3.59695 13.3333 3 13.9303 3 14.6667C3 15.403 3.59695 16 4.33333 16C5.06971 16 5.66667 15.403 5.66667 14.6667C5.66535 14.3484 5.5492 14.0413 5.33956 13.8018L7.65068 9.75378C7.89878 9.80279 8.15587 9.77648 8.38891 9.67823L10.28 11.8049C10.1702 12.0002 10.1121 12.2204 10.1111 12.4445C10.1089 13.1808 10.7041 13.7796 11.4404 13.7818C12.1768 13.784 12.7756 13.1889 12.7778 12.4525C12.7788 12.1051 12.6442 11.771 12.4027 11.5214L14.8387 6.65024C14.8921 6.65909 14.9459 6.66459 15 6.66667C15.7364 6.66667 16.3333 6.06972 16.3333 5.33334C16.3333 4.59696 15.7364 4 15 4ZM4.33333 15.1111C4.08786 15.1111 3.88888 14.9121 3.88888 14.6667C3.88888 14.4212 4.08786 14.2222 4.33333 14.2222C4.5788 14.2222 4.77779 14.4212 4.77779 14.6667C4.77779 14.9121 4.5788 15.1111 4.33333 15.1111ZM7.88888 8.88888C7.64341 8.88888 7.44443 8.6899 7.44443 8.44443C7.44443 8.19896 7.64341 7.99998 7.88888 7.99998C8.13435 7.99998 8.33333 8.19896 8.33333 8.44443C8.33333 8.6899 8.13435 8.88888 7.88888 8.88888ZM11.4445 12.8889C11.199 12.8889 11 12.6899 11 12.4444C11 12.199 11.199 12 11.4445 12C11.6899 12 11.8889 12.199 11.8889 12.4444C11.8889 12.6899 11.6899 12.8889 11.4445 12.8889ZM15 5.77779C14.7545 5.77779 14.5555 5.5788 14.5555 5.33334C14.5555 5.08787 14.7545 4.88888 15 4.88888C15.2455 4.88888 15.4445 5.08787 15.4445 5.33334C15.4445 5.5788 15.2455 5.77779 15 5.77779Z" fill="white" fill-opacity="0.3"/>
</svg>
