<svg width="32" height="33" viewBox="0 0 32 33" fill="none" xmlns="http://www.w3.org/2000/svg">
<g clip-path="url(#clip0_21_8597)">
<path d="M15.5501 15.2365L14.8254 14.5119L16.6371 12.7002L17.3618 13.4249L15.5501 15.2365Z" fill="white"/>
<path d="M27.5126 2.54387C25.0188 0.05012 20.7126 -0.0811299 18.0876 2.54387C16.0876 4.54387 16.1376 7.11887 16.1376 7.11887L16.3063 7.28762L2.5376 23.9689L3.9751 25.4064C3.31885 26.2751 3.16885 27.3939 3.59385 28.4251C4.08135 29.5939 5.16885 30.3251 6.4376 30.3251H9.9876C11.1188 30.3251 12.0376 31.2439 12.0376 32.3751H13.0626C13.0626 30.6814 11.6813 29.3001 9.9876 29.3001H6.4376C5.4251 29.3001 4.79385 28.6439 4.54385 28.0314C4.33135 27.5126 4.2876 26.7814 4.7126 26.1376L6.1001 27.5251L22.7688 13.7501L22.9376 13.9189C22.9376 13.9189 25.6313 13.8501 27.5126 11.9689C30.1126 9.36887 30.1126 5.14387 27.5126 2.54387ZM6.1626 26.1439L3.91885 23.9001L6.16885 21.1751L8.88135 23.8876L6.1626 26.1439ZM9.68135 23.2314L6.83135 20.3814L17.0438 8.01887L22.0438 13.0251L9.68135 23.2314ZM23.3376 12.8689L17.1938 6.72512C17.2688 5.94387 17.5063 5.19387 17.8813 4.51262L25.5501 12.1814C24.8751 12.5564 24.1251 12.7939 23.3376 12.8689ZM26.7876 11.2439C26.6688 11.3626 26.5376 11.4814 26.4063 11.5876L18.4688 3.65012C18.5751 3.51887 18.6938 3.39387 18.8126 3.26887C21.0188 1.06262 24.6813 1.16262 26.7876 3.26887C28.9876 5.46887 28.9876 9.04387 26.7876 11.2439Z" fill="white"/>
</g>
<defs>
<clipPath id="clip0_21_8597">
<rect width="32" height="32" fill="white" transform="translate(0 0.5)"/>
</clipPath>
</defs>
</svg>
