<svg width="32" height="33" viewBox="0 0 32 33" fill="none" xmlns="http://www.w3.org/2000/svg">
<g clip-path="url(#clip0_21_8604)">
<path d="M24.4796 11.0523C22.0842 10.9007 20.49 9.34189 19.9725 7.86439C18.4418 3.49149 14.5939 0.666016 10.1696 0.666016C7.51878 0.666016 5.01595 1.6304 3.12224 3.38133C1.22915 5.13154 0.124535 7.50036 0.0121276 10.0513C0.0116873 10.0616 0.0114495 10.0719 0.0114142 10.0822L2.3447e-07 24.7952C-7.57507e-05 24.889 0.0183175 24.9818 0.0541293 25.0684C0.089941 25.1551 0.142469 25.2338 0.208714 25.3001C0.31839 25.4095 0.460749 25.4802 0.614217 25.5015V31.6202C0.614217 31.8094 0.689376 31.9909 0.82316 32.1246C0.956944 32.2584 1.13839 32.3336 1.32759 32.3336H30.6723C30.8615 32.3336 31.043 32.2584 31.1767 32.1246C31.3105 31.9909 31.3857 31.8094 31.3857 31.6202V25.49C31.5412 25.4541 31.6803 25.367 31.7805 25.2428C31.8807 25.1185 31.9364 24.9642 31.9385 24.8046C31.9393 24.7576 32 19.9918 32 18.2686C32 14.426 28.7669 11.3237 24.4796 11.0523ZM1.43817 10.099C1.53763 7.93195 2.47929 5.9187 4.0907 4.42887C5.72005 2.92242 7.87883 2.09267 10.1695 2.09267C13.9789 2.09267 17.2982 4.54321 18.6258 8.33572C19.2989 10.2577 21.3419 12.2832 24.3893 12.4762C27.9148 12.6993 30.5732 15.1896 30.5732 18.2686C30.5732 19.5828 30.5376 22.6845 30.5207 24.082L1.42726 24.0825L1.43817 10.099ZM29.959 30.9068H2.04097V25.5092H3.29661V28.6004C3.29661 28.7896 3.37177 28.971 3.50555 29.1048C3.63934 29.2386 3.82079 29.3138 4.00999 29.3138C4.19919 29.3138 4.38064 29.2386 4.51442 29.1048C4.6482 28.971 4.72336 28.7896 4.72336 28.6004V25.5092H5.43898V28.6004C5.43898 28.7896 5.51414 28.971 5.64792 29.1048C5.78171 29.2386 5.96316 29.3138 6.15236 29.3138C6.34156 29.3138 6.52301 29.2386 6.65679 29.1048C6.79057 28.971 6.86573 28.7896 6.86573 28.6004V25.5092H7.58145V28.6004C7.58145 28.7896 7.65661 28.971 7.7904 29.1048C7.92418 29.2386 8.10563 29.3138 8.29483 29.3138C8.48403 29.3138 8.66548 29.2386 8.79926 29.1048C8.93305 28.971 9.0082 28.7896 9.0082 28.6004V25.5092H11.0115V28.6004C11.0115 28.6941 11.0299 28.7868 11.0658 28.8734C11.1016 28.9599 11.1542 29.0386 11.2204 29.1048C11.2867 29.1711 11.3653 29.2236 11.4518 29.2595C11.5384 29.2953 11.6312 29.3138 11.7248 29.3138C11.8185 29.3138 11.9113 29.2953 11.9978 29.2595C12.0844 29.2236 12.163 29.1711 12.2293 29.1048C12.2955 29.0386 12.3481 28.9599 12.3839 28.8734C12.4198 28.7868 12.4382 28.6941 12.4382 28.6004V25.5092H13.1538V28.6004C13.1538 28.7896 13.229 28.971 13.3628 29.1048C13.4966 29.2386 13.678 29.3138 13.8672 29.3138C14.0564 29.3138 14.2379 29.2386 14.3716 29.1048C14.5054 28.971 14.5806 28.7896 14.5806 28.6004V25.5092H16.9042V28.6004C16.9042 28.7896 16.9793 28.971 17.1131 29.1048C17.2469 29.2386 17.4283 29.3138 17.6175 29.3138C17.8067 29.3138 17.9882 29.2386 18.122 29.1048C18.2557 28.971 18.3309 28.7896 18.3309 28.6004V25.5092H19.0467V28.6004C19.0467 28.7896 19.1219 28.971 19.2557 29.1048C19.3895 29.2386 19.5709 29.3138 19.7601 29.3138C19.9493 29.3138 20.1308 29.2386 20.2645 29.1048C20.3983 28.971 20.4735 28.7896 20.4735 28.6004V25.5092H21.1892V28.6004C21.1892 28.7896 21.2644 28.971 21.3981 29.1048C21.5319 29.2386 21.7134 29.3138 21.9026 29.3138C22.0918 29.3138 22.2732 29.2386 22.407 29.1048C22.5408 28.971 22.6159 28.7896 22.6159 28.6004V25.5092H24.8014V28.6004C24.8014 28.7896 24.8766 28.971 25.0104 29.1048C25.1442 29.2386 25.3256 29.3138 25.5148 29.3138C25.704 29.3138 25.8855 29.2386 26.0192 29.1048C26.153 28.971 26.2282 28.7896 26.2282 28.6004V25.5092H26.9439V28.6004C26.9439 28.7896 27.0191 28.971 27.1528 29.1048C27.2866 29.2386 27.4681 29.3138 27.6573 29.3138C27.8465 29.3138 28.0279 29.2386 28.1617 29.1048C28.2955 28.971 28.3706 28.7896 28.3706 28.6004V25.5092H29.9588V30.9068H29.959Z" fill="white"/>
</g>
<defs>
<clipPath id="clip0_21_8604">
<rect width="32" height="32" fill="white" transform="translate(0 0.5)"/>
</clipPath>
</defs>
</svg>
