<svg width="32" height="33" viewBox="0 0 32 33" fill="none" xmlns="http://www.w3.org/2000/svg">
<path d="M28.9072 1.48461C28.7549 1.33276 28.5486 1.24736 28.3334 1.24707C28.1183 1.24678 27.9118 1.33161 27.759 1.48304L27.3283 1.91154C27.1408 1.75263 26.9004 1.6699 26.6547 1.67973C26.4091 1.68956 26.1761 1.79123 26.0019 1.96462C25.8276 2.13802 25.7248 2.3705 25.7137 2.61609C25.7027 2.86167 25.7842 3.10245 25.9422 3.29079L25.3922 3.83804C25.2046 3.67989 24.9645 3.59778 24.7193 3.6079C24.4741 3.61802 24.2416 3.71964 24.0677 3.89272C23.8937 4.06579 23.7909 4.29776 23.7796 4.54289C23.7682 4.78801 23.8491 5.02849 24.0063 5.21692L23.7574 5.46461C23.3766 5.85058 23.0905 6.31953 22.9214 6.83467L22.8883 6.93561C22.7371 7.39498 22.4719 7.80849 22.1174 8.13742L20.8087 9.35054C20.7717 9.38483 20.742 9.42623 20.7214 9.47226C20.7007 9.51829 20.6896 9.56801 20.6886 9.61844C20.6877 9.66888 20.6969 9.71899 20.7158 9.76577C20.7346 9.81256 20.7627 9.85506 20.7984 9.89073C20.867 9.95933 20.9595 9.99868 21.0564 10.0005C21.1534 10.0024 21.2474 9.96655 21.3185 9.90061L22.6272 8.68742C23.0749 8.27196 23.4099 7.74965 23.6008 7.16942L23.6274 7.08854C23.7625 6.67843 23.9886 6.30415 24.2887 5.99367L24.5334 5.75029L26.873 8.08998L26.6755 8.28873C26.3371 8.61578 25.9232 8.85429 25.4705 8.98311C24.8577 9.15715 24.302 9.49043 23.8599 9.94904L14.9876 19.1587C14.6189 18.3882 13.996 17.7683 13.2238 17.4034L18.9334 12.1114C19.0048 12.0435 19.0467 11.9501 19.0498 11.8515C19.0529 11.7529 19.017 11.6571 18.95 11.5847C18.8829 11.5124 18.7901 11.4694 18.6916 11.465C18.593 11.4607 18.4967 11.4953 18.4236 11.5614L16.1351 13.6822C15.7312 13.288 14.8857 12.6232 13.6772 12.4968C12.4029 12.3635 11.0897 12.861 9.77581 13.976C9.24905 14.4089 8.79278 14.9211 8.42337 15.4942C7.9705 16.1657 7.721 16.5357 4.88369 17.2707C2.98481 17.7625 1.49562 19.3463 0.900124 21.5072C0.130374 24.3005 0.997187 27.3967 3.16256 29.5874C3.16737 29.5924 3.17231 29.5971 3.17744 29.6017C4.69693 30.9816 6.67393 31.7494 8.7265 31.7568C9.4845 31.7576 10.2386 31.6481 10.9651 31.4318C13.085 30.798 14.5818 29.3498 15.0717 27.4586C15.8067 24.6211 16.1766 24.3719 16.8482 23.9189C17.4213 23.5495 17.9334 23.0933 18.3664 22.5665C20.0124 20.6265 20.0289 19.0228 19.7524 18.019C19.5712 17.377 19.2381 16.788 18.7813 16.3017L24.4001 10.4697C24.75 10.1066 25.19 9.8427 25.6751 9.70486C26.2482 9.54179 26.7721 9.23947 27.2001 8.82486L27.2049 8.82011L27.4111 8.61273C27.6004 8.75472 27.8346 8.8235 28.0706 8.80639C28.3066 8.78928 28.5285 8.68742 28.6953 8.5196C28.8621 8.35179 28.9626 8.12932 28.9783 7.89323C28.994 7.65713 28.9238 7.42333 28.7806 7.23492L29.3356 6.67648C29.5248 6.82114 29.7602 6.89201 29.9978 6.87586C30.2355 6.85971 30.4591 6.75765 30.627 6.58873C30.7949 6.4198 30.8956 6.19556 30.9103 5.95784C30.925 5.72012 30.8527 5.48518 30.7069 5.29686L31.1391 4.86204C31.2903 4.70918 31.3749 4.50272 31.3745 4.2877C31.3741 4.07268 31.2887 3.86654 31.1369 3.71423L28.9072 1.48461ZM13.7352 18.6681C14.2205 19.152 14.5229 19.7891 14.5909 20.471C14.6589 21.1529 14.4884 21.8373 14.1082 22.4074C13.7281 22.9776 13.162 23.3983 12.5064 23.5978C11.8508 23.7972 11.1464 23.7631 10.5131 23.5013C9.87982 23.2395 9.35697 22.7661 9.03368 22.1619C8.71038 21.5577 8.60666 20.86 8.74019 20.1879C8.87372 19.5158 9.23624 18.9108 9.76594 18.476C10.2956 18.0413 10.9597 17.8037 11.645 17.8039C12.4287 17.804 13.1803 18.1148 13.7352 18.6681ZM19.029 18.2177C19.361 19.424 18.9456 20.724 17.7942 22.0811C17.4055 22.5555 16.9447 22.9657 16.4286 23.2969C15.5661 23.8785 15.1173 24.2906 14.3454 27.2704C13.9229 28.9016 12.6124 30.1562 10.7499 30.713C8.32737 31.4374 5.62256 30.8009 3.68844 29.0527C1.71669 27.0527 0.925374 24.2389 1.62319 21.7065C2.14656 19.8073 3.43569 18.4205 5.07169 17.9967C8.05175 17.2248 8.46362 16.776 9.04519 15.9135C9.37637 15.3974 9.78665 14.9365 10.261 14.5479C11.4092 13.5737 12.5292 13.1345 13.5893 13.2416C14.5514 13.3391 15.247 13.8744 15.5831 14.1936L12.4126 17.1324C12.1601 17.0793 11.9028 17.0526 11.6449 17.0525H11.6438C10.8758 17.0519 10.1265 17.2899 9.49948 17.7335C8.87248 18.1771 8.39871 18.8044 8.14361 19.5289C7.88851 20.2533 7.86468 21.0391 8.0754 21.7777C8.28612 22.5163 8.72099 23.1712 9.31995 23.652C9.91891 24.1328 10.6524 24.4157 11.4191 24.4617C12.1857 24.5077 12.9478 24.3145 13.5999 23.9087C14.252 23.5029 14.7621 22.9047 15.0596 22.1966C15.3571 21.4885 15.4273 20.7055 15.2606 19.9557L18.2596 16.8429C18.6194 17.2352 18.8829 17.7059 19.029 18.2177ZM28.1626 7.99136C28.119 8.03482 28.06 8.05924 27.9985 8.05924C27.937 8.05924 27.878 8.03482 27.8345 7.99136L24.5983 4.75511C24.5765 4.73363 24.5592 4.70805 24.5473 4.67984C24.5354 4.65163 24.5293 4.62135 24.5292 4.59075C24.529 4.56014 24.535 4.52982 24.5466 4.50152C24.5583 4.47323 24.5754 4.44752 24.5971 4.42588C24.6187 4.40424 24.6444 4.38709 24.6727 4.37543C24.701 4.36377 24.7313 4.35783 24.762 4.35794C24.7926 4.35806 24.8228 4.36423 24.851 4.3761C24.8793 4.38797 24.9048 4.4053 24.9263 4.42711L28.1626 7.66336C28.206 7.70688 28.2304 7.76587 28.2304 7.82736C28.2304 7.88885 28.206 7.94783 28.1626 7.99136ZM28.2572 6.69761L25.9255 4.36536L26.4692 3.82417L28.7981 6.15311L28.2572 6.69761ZM30.0937 6.06011C30.0496 6.10229 29.9908 6.12582 29.9297 6.12582C29.8687 6.12582 29.8099 6.10229 29.7657 6.06011L26.5298 2.82392C26.5083 2.80238 26.4912 2.77681 26.4795 2.74867C26.4679 2.72053 26.4619 2.69037 26.4619 2.65991C26.4619 2.62945 26.4679 2.59929 26.4795 2.57114C26.4912 2.543 26.5082 2.51743 26.5298 2.49589C26.5513 2.47435 26.5769 2.45726 26.605 2.4456C26.6332 2.43394 26.6633 2.42794 26.6938 2.42793C26.7242 2.42793 26.7544 2.43393 26.7826 2.44558C26.8107 2.45724 26.8363 2.47432 26.8578 2.49586L30.0941 5.73211C30.1156 5.75364 30.1327 5.77922 30.1444 5.80736C30.156 5.83551 30.162 5.86567 30.162 5.89614C30.162 5.9266 30.156 5.95677 30.1444 5.98491C30.1327 6.01306 30.1156 6.03863 30.0941 6.06017L30.0937 6.06011ZM30.6066 4.33336L30.1824 4.76011L27.8616 2.43904L28.2879 2.01479C28.2997 2.00303 28.3157 1.99644 28.3324 1.99644C28.3491 1.99644 28.3651 2.00303 28.3769 2.01479L30.6066 4.24448C30.6184 4.25626 30.6251 4.27223 30.6251 4.2889C30.6252 4.30557 30.6186 4.32158 30.6069 4.33342L30.6066 4.33336Z" fill="currentColor"/>
<path d="M6.58593 22.9233C6.57018 22.9075 6.55407 22.8922 6.53762 22.8773C6.26804 22.6341 5.91422 22.5058 5.55143 22.5195C5.18865 22.5332 4.84554 22.6879 4.59509 22.9507C4.34464 23.2136 4.20663 23.5637 4.21042 23.9268C4.2142 24.2898 4.35949 24.637 4.61537 24.8946L7.3928 27.6721C7.65506 27.9292 8.00824 28.0725 8.37555 28.0707C8.74287 28.0689 9.09462 27.9222 9.35433 27.6624C9.61403 27.4026 9.76069 27.0508 9.76242 26.6835C9.76415 26.3162 9.6208 25.9631 9.36355 25.7009L6.58593 22.9233ZM8.83305 27.1414C8.7122 27.2618 8.54857 27.3294 8.37799 27.3294C8.20741 27.3294 8.04378 27.2618 7.92293 27.1414L5.1458 24.3644C5.02892 24.2452 4.96293 24.0852 4.96178 23.9182C4.96063 23.7513 5.0244 23.5904 5.13963 23.4695C5.25486 23.3487 5.41253 23.2773 5.57936 23.2706C5.7462 23.2638 5.90914 23.3221 6.0338 23.4332C6.04149 23.4402 6.04899 23.4473 6.05599 23.4543L8.8333 26.2312C8.95372 26.3521 9.02131 26.5157 9.02127 26.6864C9.02122 26.857 8.95354 27.0206 8.83305 27.1414ZM11.6437 18.5051C11.0457 18.5051 10.4722 18.7428 10.0494 19.1657C9.62656 19.5886 9.38905 20.1621 9.38908 20.7601C9.38912 21.3582 9.62671 21.9317 10.0496 22.3545C10.4725 22.7774 11.046 23.0149 11.644 23.0149C12.242 23.0149 12.8156 22.7774 13.2385 22.3545C13.6613 21.9317 13.8989 21.3582 13.899 20.7601C13.899 20.1621 13.6615 19.5886 13.2387 19.1657C12.8158 18.7428 12.2423 18.5051 11.6443 18.5051H11.6437ZM13.1484 20.7596C13.1484 21.0571 13.0602 21.348 12.8949 21.5954C12.7296 21.8429 12.4946 22.0357 12.2197 22.1496C11.9448 22.2635 11.6423 22.2933 11.3504 22.2353C11.0586 22.1772 10.7905 22.034 10.58 21.8236C10.3696 21.6132 10.2263 21.3451 10.1682 21.0532C10.1102 20.7614 10.1399 20.4589 10.2538 20.1839C10.3676 19.909 10.5605 19.674 10.8079 19.5087C11.0553 19.3433 11.3462 19.2551 11.6437 19.2551H11.6441C11.8417 19.255 12.0373 19.2939 12.2198 19.3695C12.4024 19.4451 12.5682 19.556 12.7079 19.6957C12.8476 19.8354 12.9583 20.0013 13.0339 20.1838C13.1095 20.3663 13.1483 20.562 13.1482 20.7596H13.1484ZM4.5828 19.9569C4.6608 19.9569 4.73686 19.9325 4.8003 19.8871C4.86596 19.8402 4.93327 19.7957 5.00212 19.7537C5.04414 19.728 5.0807 19.6943 5.1097 19.6545C5.13871 19.6147 5.15959 19.5696 5.17115 19.5217C5.18271 19.4738 5.18474 19.4241 5.1771 19.3755C5.16946 19.3268 5.15232 19.2802 5.12665 19.2381C5.10097 19.1961 5.06727 19.1596 5.02747 19.1306C4.98767 19.1016 4.94254 19.0807 4.89467 19.0691C4.8468 19.0575 4.79712 19.0555 4.74847 19.0632C4.69981 19.0708 4.65314 19.0879 4.61112 19.1136C4.52711 19.165 4.44494 19.2193 4.36474 19.2765C4.29999 19.3226 4.25158 19.3882 4.22651 19.4636C4.20144 19.5391 4.20101 19.6206 4.22528 19.6963C4.24955 19.772 4.29727 19.8381 4.36153 19.8849C4.4258 19.9318 4.50328 19.957 4.5828 19.9569ZM3.86662 20.215C3.78614 20.1566 3.68575 20.1326 3.58753 20.1481C3.48931 20.1637 3.4013 20.2177 3.34287 20.2982C2.29043 21.7477 2.01412 23.8165 2.62174 25.6971C2.65232 25.7917 2.71923 25.8703 2.80777 25.9156C2.89631 25.9609 2.99922 25.9692 3.09387 25.9386C3.18851 25.908 3.26713 25.8411 3.31243 25.7526C3.35773 25.664 3.366 25.5611 3.33543 25.4665C2.80005 23.8097 3.03543 21.9981 3.9498 20.7388C4.00822 20.6583 4.03228 20.5579 4.01668 20.4597C4.00108 20.3615 3.9471 20.2735 3.86662 20.215ZM29.3218 17.033C29.3214 16.7042 29.1907 16.389 28.9582 16.1565C28.7257 15.924 28.4105 15.7932 28.0817 15.7929H25.7011C25.6774 15.7929 25.6541 15.7929 25.6307 15.7939C25.3136 15.8082 25.0151 15.947 24.7997 16.1802C24.5844 16.4133 24.4698 16.722 24.4807 17.0392L24.4662 19.491C24.228 19.4245 23.9743 19.4399 23.7459 19.5346C23.5174 19.6293 23.3273 19.7979 23.206 20.0135C23.0847 20.229 23.0392 20.479 23.0768 20.7234C23.1144 20.9679 23.2329 21.1926 23.4134 21.3618C23.5938 21.5309 23.8258 21.6346 24.0722 21.6563C24.3185 21.678 24.5651 21.6164 24.7723 21.4814C24.9795 21.3465 25.1355 21.1459 25.2152 20.9117C25.295 20.6776 25.2939 20.4235 25.2121 20.1901L25.2252 17.9704H28.5721V18.7229C28.5627 18.7204 28.5537 18.717 28.5442 18.7148C28.3171 18.661 28.0786 18.6834 27.8655 18.7786C27.6524 18.8738 27.4765 19.0364 27.365 19.2414C27.2535 19.4465 27.2126 19.6825 27.2485 19.9131C27.2844 20.1437 27.3952 20.3561 27.5638 20.5175C27.7324 20.6788 27.9494 20.7803 28.1814 20.8061C28.4133 20.832 28.6473 20.7808 28.8473 20.6605C29.0473 20.5401 29.2021 20.3573 29.2879 20.1403C29.3737 19.9233 29.3857 19.684 29.3221 19.4595L29.3218 17.033ZM24.1727 20.9028C24.1033 20.9028 24.0353 20.8822 23.9775 20.8436C23.9198 20.805 23.8747 20.7502 23.8481 20.686C23.8215 20.6218 23.8146 20.5511 23.8281 20.483C23.8417 20.4148 23.8751 20.3522 23.9242 20.3031C23.9734 20.254 24.036 20.2205 24.1041 20.2069C24.1723 20.1934 24.2429 20.2003 24.3071 20.2269C24.3713 20.2535 24.4262 20.2985 24.4648 20.3563C24.5034 20.4141 24.524 20.482 24.524 20.5515C24.5239 20.6446 24.4869 20.7339 24.421 20.7998C24.3552 20.8656 24.2659 20.9027 24.1727 20.9028ZM25.2294 17.2205L25.2305 17.0352C25.2305 17.0289 25.2305 17.0227 25.2301 17.0164C25.225 16.8962 25.2677 16.7789 25.3489 16.6901C25.4302 16.6014 25.5433 16.5485 25.6635 16.5431C25.6723 16.5427 25.681 16.5425 25.6954 16.5431H28.0817C28.2117 16.5432 28.3363 16.5949 28.4281 16.6868C28.52 16.7787 28.5717 16.9032 28.5718 17.0332V17.2207L25.2294 17.2205ZM28.6039 19.8205C28.5897 19.8807 28.558 19.9353 28.5128 19.9774C28.4676 20.0196 28.4109 20.0474 28.3498 20.0573C28.2888 20.0672 28.2262 20.0588 28.17 20.0332C28.1137 20.0075 28.0664 19.9657 28.0339 19.9132C28.0014 19.8606 27.9852 19.7995 27.9874 19.7377C27.9896 19.676 28.0101 19.6162 28.0462 19.5661C28.0824 19.5159 28.1326 19.4776 28.1905 19.456C28.2484 19.4344 28.3115 19.4305 28.3716 19.4447C28.4117 19.4539 28.4496 19.4709 28.483 19.4948C28.5165 19.5187 28.5448 19.549 28.5665 19.584C28.5881 19.619 28.6025 19.6579 28.6089 19.6985C28.6154 19.7391 28.6136 19.7806 28.6039 19.8206V19.8205ZM15.7451 3.45618H13.3644C13.341 3.45584 13.3176 3.4562 13.2941 3.45724C12.977 3.47158 12.6784 3.6104 12.4631 3.84355C12.2478 4.07671 12.1332 4.38538 12.1441 4.70255L12.1296 7.15436C11.8914 7.08775 11.6377 7.10297 11.4092 7.19758C11.1807 7.29219 10.9905 7.46073 10.8691 7.67623C10.7477 7.89172 10.7021 8.14171 10.7396 8.38618C10.7771 8.63066 10.8955 8.85549 11.0759 9.0247C11.2563 9.19391 11.4882 9.29771 11.7346 9.31949C11.981 9.34127 12.2275 9.27977 12.4348 9.14483C12.6421 9.0099 12.7981 8.80933 12.8779 8.57522C12.9577 8.34111 12.9567 8.087 12.875 7.85355L12.8881 5.63386H16.2349V6.3863C16.2255 6.3838 16.2165 6.38049 16.207 6.37824C15.9328 6.31383 15.6443 6.36082 15.4047 6.5089C15.1651 6.65698 14.994 6.89406 14.9291 7.16811C14.8916 7.32608 14.8908 7.49053 14.9268 7.64884C14.9628 7.80715 15.0346 7.95511 15.1367 8.08135C15.2388 8.2076 15.3684 8.30877 15.5157 8.3771C15.6629 8.44543 15.8239 8.47911 15.9862 8.47554C16.1485 8.47197 16.3079 8.43126 16.452 8.35652C16.5961 8.28179 16.7212 8.17501 16.8176 8.04441C16.9141 7.9138 16.9793 7.76283 17.0083 7.60309C17.0373 7.44336 17.0293 7.2791 16.9849 7.12293V4.69636C16.9846 4.36761 16.8538 4.05241 16.6214 3.81991C16.389 3.58742 16.0738 3.45661 15.7451 3.45618ZM11.8361 8.56618C11.7666 8.56615 11.6987 8.54553 11.6409 8.50691C11.5832 8.46829 11.5381 8.41341 11.5116 8.34922C11.485 8.28502 11.4781 8.21439 11.4916 8.14625C11.5052 8.07811 11.5387 8.01552 11.5878 7.9664C11.6369 7.91728 11.6995 7.88384 11.7677 7.87029C11.8358 7.85675 11.9065 7.86371 11.9706 7.89031C12.0348 7.9169 12.0897 7.96193 12.1283 8.0197C12.1669 8.07747 12.1875 8.14539 12.1875 8.21486C12.1874 8.30803 12.1503 8.39735 12.0844 8.46321C12.0185 8.52908 11.9292 8.56611 11.8361 8.56618ZM12.8927 4.88386L12.8938 4.69855C12.8938 4.6923 12.8938 4.68605 12.8934 4.6798C12.8883 4.5596 12.931 4.44226 13.0123 4.35353C13.0935 4.2648 13.2067 4.21192 13.3269 4.20649C13.3356 4.20611 13.3443 4.20593 13.3587 4.20649H15.7451C15.875 4.20662 15.9996 4.2583 16.0915 4.35019C16.1834 4.44208 16.235 4.56667 16.2352 4.69661V4.88411L12.8927 4.88386ZM16.2672 7.48386C16.253 7.54404 16.2213 7.59866 16.1761 7.64081C16.1309 7.68296 16.0741 7.71075 16.0131 7.72066C15.9521 7.73058 15.8895 7.72217 15.8333 7.69651C15.777 7.67084 15.7297 7.62907 15.6972 7.57648C15.6647 7.52389 15.6485 7.46284 15.6507 7.40106C15.6529 7.33928 15.6734 7.27954 15.7096 7.2294C15.7457 7.17926 15.7959 7.14097 15.8539 7.11938C15.9118 7.09779 15.9748 7.09387 16.035 7.10811C16.0751 7.11724 16.1129 7.13426 16.1464 7.15817C16.1798 7.18208 16.2082 7.2124 16.2298 7.24738C16.2514 7.28236 16.2659 7.32129 16.2723 7.3619C16.2787 7.40251 16.277 7.44399 16.2672 7.48393V7.48386Z" fill="currentColor"/>
</svg>
