<svg width="32" height="33" viewBox="0 0 32 33" fill="none" xmlns="http://www.w3.org/2000/svg">
<path fill-rule="evenodd" clip-rule="evenodd" d="M10.9171 27.8716C9.53096 27.8716 8.01954 27.0619 6.41463 25.457C4.5562 23.5976 3.76386 21.8654 4.06075 20.3067C4.45017 18.2622 6.56211 17.3243 6.65175 17.2858C6.74911 17.2434 6.86188 17.2578 6.94671 17.3224C6.99779 17.3619 7.04406 17.3841 7.08455 17.386C7.20118 17.3937 7.41999 17.2222 7.66193 16.72C7.85953 16.3113 7.9993 16.0645 8.26245 16.0838C8.51114 16.1021 8.58247 16.3344 8.64031 16.5214C8.72127 16.7836 8.80513 17.0072 9.00756 17.0911C9.24564 17.1904 9.64663 17.0968 10.1671 16.8231C11.4742 16.1339 11.6554 15.6404 11.6468 15.4081C11.6333 15.0485 11.1609 14.7622 10.9961 14.6909C10.8669 14.634 10.7966 14.4933 10.8294 14.3554C10.8621 14.2176 10.9894 14.1241 11.1301 14.1328C11.3682 14.1482 11.7788 13.6817 12.1769 13.2315C12.7736 12.5568 13.5158 11.7172 14.5173 11.3721C15.7097 10.9605 16.9647 11.3355 18.3537 12.5182C18.4761 12.6223 18.4915 12.8064 18.3864 12.9288C18.2823 13.0513 18.0982 13.0667 17.9748 12.9616C15.246 10.6395 13.7866 12.2907 12.6136 13.618C12.2984 13.9747 12.0198 14.2889 11.7441 14.4894C11.9812 14.6947 12.2145 14.9945 12.229 15.3878C12.254 16.0539 11.668 16.693 10.438 17.3407C9.74013 17.7089 9.19937 17.8034 8.78393 17.6318C8.4562 17.4959 8.28462 17.2231 8.18245 16.9821C7.85279 17.6627 7.47204 17.9962 7.04888 17.9711C6.94671 17.9653 6.84646 17.9374 6.7491 17.8892C6.30763 18.1186 4.90899 18.9543 4.63139 20.4224C4.37499 21.7786 5.11334 23.3344 6.82525 25.0473C8.53717 26.7592 10.0939 27.4976 11.4501 27.2412C12.9182 26.9636 13.7539 25.5649 13.9833 25.1235C13.9341 25.0261 13.9071 24.9259 13.9013 24.8237C13.8772 24.4015 14.2069 24.0217 14.8836 23.694C14.6465 23.5792 14.3737 23.3903 14.2445 23.0491C14.0864 22.6307 14.1799 22.1025 14.5317 21.4355C15.1795 20.2065 15.8176 19.6194 16.4846 19.6445C16.8769 19.659 17.1767 19.8922 17.383 20.1294C17.5835 19.8527 17.8977 19.5751 18.2544 19.2599C19.5817 18.0868 21.2329 16.6265 18.9108 13.8985C18.8067 13.7761 18.8212 13.592 18.9436 13.4869C19.066 13.3828 19.2501 13.3973 19.3552 13.5197C20.5369 14.9087 20.9119 16.1638 20.5003 17.3561C20.1552 18.3567 19.3157 19.0999 18.6409 19.6966C18.1908 20.0947 17.7252 20.5063 17.7397 20.7434C17.7483 20.8841 17.6539 21.0114 17.517 21.0441C17.3791 21.0769 17.2384 21.0065 17.1815 20.8774C17.1787 20.8716 16.8876 20.2412 16.4634 20.2267C16.2292 20.218 15.7376 20.4012 15.0494 21.7063C14.7881 22.2028 14.6985 22.5951 14.792 22.8418C14.8816 23.078 15.1438 23.1783 15.3549 23.2583C15.5352 23.3267 15.7598 23.4115 15.7675 23.6573C15.7762 23.9292 15.4899 24.0593 15.2364 24.173C14.6706 24.4294 14.4778 24.6656 14.4845 24.7899C14.4864 24.8304 14.5086 24.8767 14.5481 24.9278C14.6137 25.0116 14.6272 25.1254 14.5857 25.2227C14.5472 25.3124 13.6093 27.4243 11.5648 27.8138C11.3528 27.8514 11.1368 27.8716 10.9171 27.8716ZM17.2837 19.2686C17.2403 19.2686 17.197 19.2589 17.1565 19.2397C17.1256 19.2252 17.0948 19.2107 17.063 19.1982C16.7892 19.0854 16.5164 19.0449 16.2514 19.0768C16.1299 19.0922 16.0123 19.0286 15.9564 18.9206C15.9005 18.8117 15.9188 18.6796 16.0017 18.59L16.0171 18.5726L18.799 15.3926C18.8645 15.3174 18.9629 15.2818 19.0621 15.2962C19.1605 15.3107 19.2443 15.3743 19.2848 15.4649C19.5846 16.1339 19.573 16.7643 19.2501 17.3378C19.1768 17.468 19.0891 17.5981 18.9821 17.735C18.6631 18.1417 18.2708 18.4878 17.892 18.8223C17.8052 18.8984 17.7194 18.9746 17.6355 19.0498C17.5845 19.096 17.5334 19.1423 17.4823 19.1905C17.4273 19.2416 17.356 19.2686 17.2837 19.2686ZM16.8365 18.5225C16.9666 18.5476 17.0967 18.5851 17.2259 18.6353C17.2326 18.6295 17.2394 18.6237 17.2461 18.617C17.3319 18.5398 17.4196 18.4627 17.5073 18.3847C17.8669 18.0675 18.238 17.7398 18.5243 17.3745C18.613 17.2617 18.6843 17.1556 18.7431 17.0515C18.8992 16.773 18.9513 16.4809 18.8983 16.1657L16.8365 18.5225ZM13.0859 15.9469C13.0406 15.9469 12.9943 15.9363 12.9519 15.9141C12.8439 15.8582 12.7813 15.7406 12.7957 15.6201C12.8275 15.356 12.7871 15.0832 12.6743 14.8085C12.6618 14.7786 12.6483 14.7478 12.6338 14.7179C12.5808 14.608 12.601 14.4769 12.6859 14.3882C12.8343 14.233 12.9847 14.0643 13.1302 13.9014C13.563 13.4166 14.0103 12.9144 14.5346 12.6204C15.1082 12.2975 15.7386 12.2859 16.4075 12.5857C16.4981 12.6262 16.5617 12.71 16.5772 12.8083C16.5916 12.9067 16.556 13.0059 16.4808 13.0715L13.2825 15.8707C13.2276 15.9209 13.1572 15.9469 13.0859 15.9469ZM13.2401 14.6514C13.2883 14.7796 13.3259 14.9078 13.351 15.036L15.7077 12.9741C15.3925 12.9211 15.0995 12.9732 14.8219 13.1293C14.3823 13.3761 13.9862 13.8205 13.5669 14.2909C13.4589 14.4094 13.35 14.5318 13.2401 14.6514Z" fill="currentColor"/>
<path fill-rule="evenodd" clip-rule="evenodd" d="M6.82916 25.7385C6.73469 25.7385 6.64118 25.6923 6.58526 25.6074C6.51585 25.5024 6.52357 25.3684 6.5949 25.272C6.49947 25.3433 6.36547 25.351 6.25942 25.2816C6.12542 25.1929 6.08782 25.0117 6.17651 24.8777L8.39861 21.5136C8.49983 21.3604 8.66179 21.2649 8.85363 21.2457C9.07632 21.2235 9.31347 21.3083 9.47254 21.4683L10.398 22.3937C10.558 22.5537 10.6429 22.7908 10.6207 23.0125C10.6014 23.2044 10.506 23.3663 10.3527 23.4675L6.98823 25.6894C6.94003 25.7231 6.88411 25.7385 6.82916 25.7385ZM8.9269 21.826C8.92208 21.826 8.91726 21.826 8.9134 21.8269C8.91147 21.8269 8.89026 21.8298 8.88641 21.8366L6.66432 25.1997C6.66142 25.2045 6.65757 25.2093 6.65468 25.2142C6.6595 25.2103 6.66432 25.2074 6.66914 25.2045L10.0326 22.9827C10.0394 22.9778 10.0413 22.9576 10.0413 22.9557C10.0461 22.9065 10.023 22.8439 9.98637 22.8072L9.0609 21.8819C9.02716 21.8481 8.97317 21.826 8.9269 21.826Z" fill="currentColor"/>
<path fill-rule="evenodd" clip-rule="evenodd" d="M10.1465 18.7618C10.0463 18.7618 9.95469 18.7377 9.87275 18.6856C9.67126 18.5574 9.60185 18.3145 9.66644 17.9627C9.69536 17.8046 9.84672 17.6995 10.0058 17.7284C10.1639 17.7574 10.269 17.9097 10.24 18.0677C10.2323 18.1082 10.2285 18.141 10.2265 18.1661C10.4772 18.0928 11.0161 17.7082 11.207 17.5713C11.3236 17.4875 11.4248 17.4161 11.4991 17.3699C11.931 17.1009 12.3783 16.8792 12.7186 17.0739C12.8796 17.1655 12.9972 17.3294 13.0598 17.5492C13.1042 17.7043 13.0145 17.8653 12.8593 17.9097C12.7041 17.954 12.5431 17.8644 12.4988 17.7092C12.4776 17.634 12.4506 17.5973 12.4342 17.5839C12.3995 17.579 12.252 17.5877 11.8056 17.8653C11.7468 17.902 11.6533 17.9685 11.5453 18.0465C10.9862 18.4466 10.51 18.7618 10.1465 18.7618Z" fill="currentColor"/>
<path fill-rule="evenodd" clip-rule="evenodd" d="M13.67 22.2185C13.4435 22.2185 13.2796 22.1414 13.1832 21.9891C12.9402 21.6064 13.3114 21.03 13.8223 20.3147C13.8995 20.2058 13.9669 20.1123 14.0026 20.0545C14.2803 19.6082 14.288 19.4607 14.2841 19.426C14.2716 19.4106 14.234 19.3836 14.1588 19.3614C14.0036 19.3171 13.9139 19.1551 13.9583 19.0009C14.0026 18.8457 14.1646 18.7561 14.3188 18.8004C14.5376 18.8631 14.7015 18.9816 14.7931 19.1416C14.9869 19.4819 14.7652 19.9292 14.4972 20.362C14.4509 20.4362 14.3786 20.5374 14.2957 20.654C14.1588 20.8449 13.7741 21.3837 13.7009 21.6343C13.7259 21.6324 13.7587 21.6286 13.7992 21.6208C13.9573 21.5919 14.1096 21.697 14.1385 21.8551C14.1675 22.0132 14.0624 22.1655 13.9043 22.1944C13.8204 22.2108 13.7414 22.2185 13.67 22.2185Z" fill="currentColor"/>
<path fill-rule="evenodd" clip-rule="evenodd" d="M15.2398 18.3541C15.1106 18.3541 14.9843 18.302 14.8928 18.2105L13.659 16.9766C13.5635 16.8812 13.5115 16.7491 13.5153 16.6132C13.5202 16.4821 13.5751 16.3626 13.6725 16.2778L21.1225 9.75972C21.2382 9.65851 21.4127 9.66429 21.5206 9.77321L22.0951 10.3477C22.2041 10.4566 22.2098 10.6301 22.1086 10.7458L15.5906 18.195C15.5029 18.2972 15.3757 18.3541 15.2398 18.3541ZM14.1467 16.6402L15.2301 17.7237L21.4908 10.5685L21.3018 10.3795L14.1467 16.6402Z" fill="currentColor"/>
<path fill-rule="evenodd" clip-rule="evenodd" d="M21.898 10.8492C21.8064 10.8492 21.7167 10.8067 21.6599 10.7258C21.5663 10.5947 21.5982 10.4125 21.7293 10.319C22.1004 10.0558 22.8591 9.68088 23.4134 9.40616C23.6448 9.29146 23.9051 9.16229 23.9784 9.11795C24.1336 8.95505 24.2194 8.74298 24.2194 8.51646C24.2194 8.28319 24.1287 8.06438 23.9639 7.89955C23.6294 7.56507 23.0876 7.55928 22.7463 7.88509C22.702 7.95738 22.5728 8.21861 22.4581 8.44995C22.1833 9.00421 21.8074 9.76282 21.5451 10.1339C21.4516 10.265 21.2704 10.2968 21.1383 10.2033C21.0072 10.1098 20.9754 9.92861 21.0689 9.79655C21.3051 9.46304 21.6695 8.72756 21.9356 8.19162C22.2026 7.65278 22.2547 7.55157 22.3193 7.48795C22.8871 6.92116 23.8096 6.9202 24.3765 7.48795C24.6512 7.76267 24.8026 8.12896 24.8026 8.51743C24.8026 8.90589 24.6512 9.27121 24.3765 9.54593C24.3129 9.60955 24.2116 9.66257 23.6728 9.92958C23.1358 10.1956 22.4012 10.56 22.0676 10.7961C22.0146 10.8318 21.9558 10.8492 21.898 10.8492Z" fill="currentColor"/>
<path fill-rule="evenodd" clip-rule="evenodd" d="M25.0043 10.4808C24.9301 10.4808 24.8549 10.4519 24.798 10.395L23.9554 9.55256C23.8417 9.43881 23.8417 9.25374 23.9554 9.13999C24.0692 9.02625 24.2543 9.02625 24.368 9.13999L25.2106 9.98247C25.3244 10.0962 25.3244 10.2813 25.2106 10.395C25.1537 10.4529 25.0785 10.4808 25.0043 10.4808Z" fill="currentColor"/>
<path fill-rule="evenodd" clip-rule="evenodd" d="M24.1025 11.391C24.0283 11.391 23.9531 11.3621 23.8962 11.3052L22.7606 10.1697C22.6469 10.056 22.6469 9.87093 22.7606 9.75718C22.8744 9.64344 23.0595 9.64344 23.1732 9.75718L24.3088 10.8927C24.4226 11.0064 24.4226 11.1915 24.3088 11.3052C24.252 11.3621 24.1777 11.391 24.1025 11.391Z" fill="currentColor"/>
<path fill-rule="evenodd" clip-rule="evenodd" d="M22.5146 8.00425C22.4403 8.00425 22.3651 7.97533 22.3083 7.91846L21.4657 7.07599C21.3519 6.96225 21.3519 6.77718 21.4657 6.66343C21.5794 6.54969 21.7645 6.54969 21.8783 6.66343L22.7209 7.5059C22.8346 7.61965 22.8346 7.80472 22.7209 7.91846C22.664 7.97533 22.5897 8.00425 22.5146 8.00425Z" fill="currentColor"/>
<path fill-rule="evenodd" clip-rule="evenodd" d="M21.9116 9.19572C21.8374 9.19572 21.7622 9.16681 21.7053 9.10993L20.5697 7.97443C20.4559 7.86069 20.4559 7.67561 20.5697 7.56187C20.6834 7.44813 20.8685 7.44813 20.9823 7.56187L22.1179 8.69737C22.2317 8.81112 22.2317 8.99619 22.1179 9.10993C22.0611 9.16681 21.9859 9.19572 21.9116 9.19572Z" fill="currentColor"/>
<path fill-rule="evenodd" clip-rule="evenodd" d="M11.5885 30.4961C11.5142 30.4961 11.4391 30.4672 11.3822 30.4103C11.2684 30.2966 11.2684 30.1115 11.3822 29.9978L27.2945 14.0853C27.4082 13.9716 27.5933 13.9716 27.707 14.0853C27.8208 14.1991 27.8208 14.3841 27.707 14.4979L11.7947 30.4103C11.7379 30.4672 11.6636 30.4961 11.5885 30.4961Z" fill="currentColor"/>
<path fill-rule="evenodd" clip-rule="evenodd" d="M14.1571 29.5287C13.8997 29.5287 13.6588 29.4294 13.4785 29.2482L13.0052 28.7749C12.8915 28.6612 12.8915 28.4761 13.0052 28.3623C13.119 28.2486 13.304 28.2486 13.4178 28.3623L13.8911 28.8356C13.9614 28.906 14.0569 28.9455 14.1581 28.9455C14.2593 28.9455 14.3537 28.907 14.4251 28.8356L27.3589 15.9026C27.5064 15.7552 27.5064 15.5161 27.3589 15.3696L26.8856 14.8963C26.7718 14.7826 26.7718 14.5975 26.8856 14.4837C26.9993 14.37 27.1844 14.37 27.2981 14.4837L27.7714 14.957C28.1464 15.331 28.1464 15.9412 27.7714 16.3152L14.8367 29.2482C14.6554 29.4294 14.4145 29.5287 14.1571 29.5287Z" fill="currentColor"/>
<path fill-rule="evenodd" clip-rule="evenodd" d="M9.52111 6.68442C9.36011 6.68442 9.229 6.55429 9.229 6.39235V3.46394C9.229 3.30297 9.35915 3.17188 9.52111 3.17188C9.68306 3.17188 9.81321 3.302 9.81321 3.46394V6.39235C9.81224 6.55332 9.6821 6.68442 9.52111 6.68442Z" fill="currentColor"/>
<path fill-rule="evenodd" clip-rule="evenodd" d="M12.6352 4.3521C12.6226 4.3521 12.6111 4.35113 12.5985 4.35017L9.48472 3.95593C9.33915 3.93761 9.22925 3.81326 9.22925 3.66675V2.7915C9.22925 2.70764 9.26492 2.62764 9.32854 2.57269C9.39121 2.51775 9.47508 2.49172 9.55798 2.50233L12.6718 2.89657C12.8174 2.91489 12.9273 3.03923 12.9273 3.18575V4.06099C12.9273 4.14485 12.8916 4.22486 12.8289 4.2798C12.774 4.32607 12.7055 4.3521 12.6352 4.3521ZM9.81249 3.40842L12.3431 3.7294V3.44215L9.81249 3.12117V3.40842Z" fill="currentColor"/>
<path fill-rule="evenodd" clip-rule="evenodd" d="M12.6359 7.08971C12.4749 7.08971 12.3438 6.95958 12.3438 6.79764V3.87019C12.3438 3.70922 12.4739 3.57812 12.6359 3.57812C12.7978 3.57812 12.928 3.70825 12.928 3.87019V6.7986C12.927 6.95958 12.7968 7.08971 12.6359 7.08971Z" fill="currentColor"/>
<path fill-rule="evenodd" clip-rule="evenodd" d="M10.4664 13.2066C10.3054 13.2066 10.1743 13.0764 10.1743 12.9145V8.47176C10.1743 8.31078 10.3045 8.17969 10.4664 8.17969C10.6284 8.17969 10.7585 8.30982 10.7585 8.47176V12.9145C10.7585 13.0755 10.6274 13.2066 10.4664 13.2066Z" fill="currentColor"/>
<path fill-rule="evenodd" clip-rule="evenodd" d="M9.72481 13.6905C9.1435 13.6905 8.68848 13.3483 8.68848 12.9117C8.68848 12.475 9.1435 12.1328 9.72481 12.1328C10.3061 12.1328 10.7611 12.475 10.7611 12.9117C10.7611 13.3483 10.3061 13.6905 9.72481 13.6905ZM9.72481 12.717C9.44235 12.717 9.27172 12.8529 9.27172 12.9126C9.27172 12.9724 9.44331 13.1083 9.72481 13.1083C10.0073 13.1083 10.1779 12.9724 10.1779 12.9126C10.1779 12.8519 10.0063 12.717 9.72481 12.717Z" fill="currentColor"/>
<path fill-rule="evenodd" clip-rule="evenodd" d="M11.9275 9.88734C11.8108 9.88734 11.7009 9.81697 11.6556 9.70227C11.6113 9.59045 11.4329 9.26465 11.2025 9.23476C10.6386 9.16247 10.2732 8.69979 10.2337 8.64773C10.1363 8.51953 10.1614 8.33639 10.2896 8.23903C10.4178 8.14167 10.601 8.16673 10.6983 8.29494C10.7003 8.29686 10.949 8.614 11.2767 8.65641C11.8899 8.73449 12.1694 9.41405 12.1993 9.49117C12.2572 9.64154 12.1829 9.81023 12.0325 9.86806C11.9978 9.88156 11.9622 9.88734 11.9275 9.88734Z" fill="currentColor"/>
<path fill-rule="evenodd" clip-rule="evenodd" d="M15.1119 10.105C14.9509 10.105 14.8198 9.97487 14.8198 9.81293V5.37019C14.8198 5.20922 14.95 5.07812 15.1119 5.07812C15.2729 5.07812 15.404 5.20825 15.404 5.37019V9.81293C15.4031 9.97487 15.2729 10.105 15.1119 10.105Z" fill="currentColor"/>
<path fill-rule="evenodd" clip-rule="evenodd" d="M11.8845 7.56552C11.3032 7.56552 10.8481 7.22332 10.8481 6.78666C10.8481 6.35001 11.3032 6.00781 11.8845 6.00781C12.4658 6.00781 12.9208 6.35001 12.9208 6.78666C12.9208 7.22429 12.4658 7.56552 11.8845 7.56552ZM11.8845 6.59195C11.602 6.59195 11.4314 6.72786 11.4314 6.78763C11.4314 6.84739 11.603 6.98331 11.8845 6.98331C12.1669 6.98331 12.3376 6.84739 12.3376 6.78763C12.3376 6.72786 12.166 6.59195 11.8845 6.59195Z" fill="currentColor"/>
<path fill-rule="evenodd" clip-rule="evenodd" d="M16.573 6.78578C16.4563 6.78578 16.3464 6.71541 16.3011 6.60071C16.2568 6.48889 16.0784 6.16308 15.848 6.1332C15.2841 6.06091 14.9187 5.59822 14.8792 5.54617C14.7818 5.41797 14.8069 5.23482 14.9351 5.13747C15.0633 5.04011 15.2465 5.06517 15.3438 5.19337C15.3458 5.1953 15.5945 5.51243 15.9223 5.55485C16.5354 5.63292 16.8149 6.31249 16.8448 6.38961C16.9027 6.53998 16.8284 6.70867 16.6781 6.7665C16.6434 6.78 16.6077 6.78578 16.573 6.78578Z" fill="currentColor"/>
<path fill-rule="evenodd" clip-rule="evenodd" d="M8.76973 7.16708C8.18842 7.16708 7.7334 6.82488 7.7334 6.38823C7.7334 5.95157 8.18842 5.60938 8.76973 5.60938C9.35104 5.60938 9.80607 5.95157 9.80607 6.38823C9.80607 6.82488 9.35104 7.16708 8.76973 7.16708ZM8.76973 6.19255C8.48727 6.19255 8.31664 6.32846 8.31664 6.38823C8.31664 6.44799 8.48824 6.5839 8.76973 6.5839C9.05123 6.5839 9.22283 6.44799 9.22283 6.38823C9.22283 6.32846 9.05123 6.19255 8.76973 6.19255Z" fill="currentColor"/>
<path fill-rule="evenodd" clip-rule="evenodd" d="M14.3679 10.589C13.7866 10.589 13.3315 10.2468 13.3315 9.8101C13.3315 9.37344 13.7866 9.03125 14.3679 9.03125C14.9492 9.03125 15.4042 9.37344 15.4042 9.8101C15.4042 10.2477 14.9492 10.589 14.3679 10.589ZM14.3679 9.61539C14.0854 9.61539 13.9148 9.7513 13.9148 9.81106C13.9148 9.87083 14.0864 10.0067 14.3679 10.0067C14.6494 10.0067 14.821 9.87083 14.821 9.81106C14.821 9.7513 14.6494 9.61539 14.3679 9.61539Z" fill="currentColor"/>
</svg>
