<svg width="32" height="33" viewBox="0 0 32 33" fill="none" xmlns="http://www.w3.org/2000/svg">
<g clip-path="url(#clip0_21_8617)">
<path d="M16.2304 21.2097C16.1124 21.2096 15.9983 21.168 15.9079 21.0922L14.4024 19.8217C14.3013 19.7365 14.2382 19.6146 14.2267 19.4828C14.2153 19.3511 14.2565 19.2202 14.3414 19.1187L25.7114 5.49424C25.7537 5.44368 25.8055 5.40196 25.8639 5.3715C25.9224 5.34104 25.9862 5.32243 26.0519 5.31674C26.1175 5.31037 26.1838 5.31732 26.2467 5.33717C26.3096 5.35701 26.3678 5.38935 26.4179 5.43224L27.9234 6.70274C28.0245 6.78796 28.0878 6.90978 28.0993 7.04154C28.1109 7.1733 28.0697 7.30426 27.9849 7.40574L16.6144 21.0302C16.5721 21.0808 16.5203 21.1225 16.4619 21.153C16.4034 21.1834 16.3395 21.2021 16.2739 21.2077C16.2594 21.2092 16.2449 21.2098 16.2304 21.2097ZM15.4274 19.3777L16.1689 20.0032L26.8999 7.14674L26.1584 6.52124L15.4274 19.3777Z" fill="currentColor"/>
<path d="M27.742 7.5641L27.46 6.6051L28.942 6.1686L30.9865 1.7086C30.9999 1.67911 31.0033 1.64608 30.9964 1.61445C30.9895 1.58282 30.9725 1.55428 30.948 1.5331C30.9242 1.51296 30.8945 1.50125 30.8633 1.4998C30.8322 1.49835 30.8015 1.50725 30.776 1.5251L28.076 3.4096L27.5 2.5896L30.204 0.704602C30.4104 0.561643 30.6582 0.49053 30.9091 0.502218C31.1599 0.513905 31.4 0.607744 31.5923 0.769281C31.7846 0.930818 31.9184 1.15109 31.9732 1.39618C32.028 1.64126 32.0007 1.89756 31.8955 2.1256L29.756 6.7926C29.7261 6.85756 29.6827 6.91536 29.6286 6.96211C29.5745 7.00886 29.5111 7.04347 29.4425 7.0636L27.742 7.5641ZM26.5925 5.8686L25.6 5.7596L25.7945 3.9891C25.8023 3.91819 25.8253 3.84977 25.8617 3.78845C25.8982 3.72714 25.9474 3.67434 26.006 3.6336L26.786 3.0896L27.3575 3.9096L26.764 4.3236L26.5925 5.8686ZM15.256 15.8226L14.744 14.9636L16.244 14.0701C16.3214 14.024 16.4098 13.9996 16.5 13.9996H19V14.9996H16.6375L15.256 15.8226ZM12.89 16.0616L13.747 15.5506L14.259 16.4096L13.402 16.9206L12.89 16.0616ZM15.4045 32.4996C15.0762 32.4982 14.7591 32.3798 14.5101 32.1658C14.2612 31.9517 14.0966 31.656 14.046 31.3316L13.0855 25.0996C13.0157 24.6615 12.79 24.2635 12.45 23.9786C12.2379 23.7977 11.9866 23.6685 11.7161 23.6013C11.4456 23.534 11.1631 23.5306 10.891 23.5911L1.62298 25.7636C1.42057 25.809 1.21036 25.8064 1.00911 25.7562C0.807861 25.7059 0.621138 25.6093 0.46383 25.4741C0.306522 25.3389 0.18298 25.1688 0.103054 24.9774C0.0231285 24.786 -0.0109698 24.5785 0.00347802 24.3716C0.0172742 24.1716 0.0789904 23.9778 0.183418 23.8066C0.287845 23.6354 0.431918 23.4919 0.603478 23.3881L12.05 16.5701L12.562 17.4291L1.11848 24.2441C1.08364 24.2663 1.05468 24.2966 1.03404 24.3323C1.01341 24.3681 1.00173 24.4083 0.999978 24.4496C0.997477 24.4999 1.00645 24.5502 1.02621 24.5965C1.04597 24.6429 1.07601 24.6841 1.11406 24.7172C1.15211 24.7502 1.19717 24.7742 1.24583 24.7872C1.2945 24.8003 1.3455 24.8021 1.39498 24.7926L10.6635 22.6196C11.0875 22.5242 11.528 22.5288 11.95 22.6329C12.372 22.7371 12.764 22.9379 13.095 23.2196C13.6194 23.6592 13.9669 24.2737 14.0735 24.9496L15.034 31.1806C15.0487 31.2711 15.0956 31.3533 15.166 31.4121C15.2096 31.4503 15.2617 31.4774 15.3181 31.4911C15.3744 31.5048 15.4332 31.5046 15.4895 31.4906C15.5365 31.4785 15.5798 31.4551 15.6158 31.4225C15.6517 31.39 15.6792 31.3491 15.696 31.3036L16.2235 29.8326L17.165 30.1706L16.636 31.6446C16.565 31.8424 16.4468 32.0198 16.2916 32.1614C16.1364 32.303 15.9489 32.4045 15.7455 32.4571C15.6341 32.4858 15.5195 32.5001 15.4045 32.4996Z" fill="currentColor"/>
<path d="M17.5235 29.169L16.5825 28.831L20.4825 17.962L20.01 15.6L20.99 15.404L21.49 17.904C21.5079 17.9931 21.5011 18.0854 21.4705 18.171L17.5235 29.169ZM15.0885 24.115C14.9708 24.1158 14.8566 24.0751 14.766 24L11.755 21.457C11.654 21.3718 11.5908 21.2501 11.5793 21.1184C11.5678 20.9868 11.6088 20.856 11.6935 20.7545L12.641 19.619C12.6832 19.5684 12.7351 19.5267 12.7935 19.4963C12.852 19.4658 12.9158 19.4472 12.9815 19.4415C13.0471 19.4354 13.1133 19.4424 13.1762 19.4623C13.239 19.4821 13.2973 19.5143 13.3475 19.557L16.3585 22.1C16.4587 22.1851 16.5214 22.3064 16.5329 22.4374C16.5444 22.5684 16.5039 22.6987 16.42 22.8L15.47 23.935C15.3845 24.037 15.2621 24.101 15.1295 24.113C15.1168 24.1143 15.1032 24.115 15.0885 24.115ZM12.78 21.015L15.027 22.9105L15.3335 22.5435L13.0865 20.648L12.78 21.015ZM24.5135 7.72201L25.1585 6.95801L26.663 8.22801L26.018 8.99251L24.5135 7.72201ZM23.246 9.23151L23.891 8.46701L25.3965 9.73801L24.7515 10.502L23.246 9.23151ZM21.982 10.745L22.627 9.98001L24.132 11.251L23.487 12.015L21.982 10.745ZM20.72 12.263L21.365 11.499L22.87 12.769L22.225 13.533L20.72 12.263ZM19.4545 13.772L20.0995 13.008L21.6045 14.2785L20.9595 15.043L19.4545 13.772Z" fill="currentColor"/>
<path d="M18.1905 15.2848L18.8355 14.5208L20.341 15.7913L19.696 16.5563L18.1905 15.2848ZM16.928 16.8048L17.573 16.0403L19.0775 17.3103L18.4325 18.0748L16.928 16.8048ZM15.6625 18.3128L16.3075 17.5483L17.813 18.8193L17.168 19.5833L15.6625 18.3128ZM10.5 13.4998C10.4773 13.4997 10.4546 13.4982 10.432 13.4953C10.3123 13.4788 10.2026 13.4196 10.1231 13.3285C10.0437 13.2374 9.99998 13.1206 10 12.9998V8.73825L8.18601 9.46426C8.09809 9.49966 8.00191 9.50934 7.90869 9.49217C7.81548 9.475 7.72906 9.43168 7.65952 9.36728C7.58998 9.30287 7.54018 9.22003 7.51592 9.1284C7.49166 9.03677 7.49395 8.94013 7.52251 8.84976L10.0225 0.849755C10.058 0.735384 10.1334 0.637561 10.235 0.574077C10.3365 0.510594 10.4575 0.485668 10.5759 0.503833C10.6942 0.521998 10.8022 0.582047 10.88 0.673058C10.9578 0.764069 11.0004 0.879996 11 0.999755V4.61625L12.7425 3.57125C12.8283 3.51982 12.9274 3.49527 13.0273 3.50078C13.1271 3.50629 13.223 3.5416 13.3026 3.60216C13.3821 3.66272 13.4417 3.74574 13.4736 3.8405C13.5055 3.93526 13.5083 4.03741 13.4815 4.13375L10.9815 13.1338C10.9522 13.239 10.8893 13.3317 10.8024 13.3978C10.7154 13.4639 10.6092 13.4997 10.5 13.4998ZM10.5 7.49975C10.6326 7.49975 10.7598 7.55243 10.8536 7.6462C10.9473 7.73997 11 7.86715 11 7.99975V9.33175L12.183 5.07275L10.7575 5.92825C10.6817 5.97383 10.5951 5.99846 10.5066 5.99962C10.4181 6.00078 10.3309 5.97843 10.2538 5.93485C10.1768 5.89128 10.1127 5.82805 10.0681 5.7516C10.0235 5.67516 10 5.58825 10 5.49975V4.27625L8.79101 8.14475L10.314 7.53525C10.3732 7.51176 10.4363 7.49972 10.5 7.49975ZM23.5 18.9998C23.4011 18.9997 23.3045 18.9704 23.2223 18.9155C23.1401 18.8605 23.076 18.7824 23.0382 18.6911C23.0003 18.5997 22.9904 18.4992 23.0097 18.4022C23.029 18.3053 23.0766 18.2162 23.1465 18.1463L25.1245 16.1683L24.053 15.7093C23.9668 15.6717 23.8929 15.6106 23.8398 15.5329C23.7867 15.4553 23.7566 15.3642 23.753 15.2702C23.7493 15.1763 23.7722 15.0831 23.8191 15.0016C23.866 14.92 23.9349 14.8534 24.018 14.8093L29.268 12.0593C29.3739 12.0038 29.4962 11.9881 29.6126 12.0151C29.7291 12.042 29.832 12.1097 29.9028 12.2061C29.9736 12.3024 30.0076 12.4209 29.9985 12.54C29.9895 12.6592 29.938 12.7712 29.8535 12.8558L28.228 14.4813L29.3715 14.7673C29.4684 14.7916 29.5558 14.8444 29.6224 14.9189C29.689 14.9934 29.7317 15.0861 29.7451 15.1851C29.7585 15.2841 29.7419 15.3849 29.6975 15.4744C29.6531 15.5639 29.583 15.638 29.496 15.6873L23.746 18.9373C23.6708 18.979 23.586 19.0006 23.5 18.9998ZM25.414 15.2043L26.197 15.5403C26.2645 15.5692 26.3247 15.6126 26.3735 15.6674C26.4223 15.7222 26.4584 15.7871 26.4793 15.8574C26.5002 15.9277 26.5054 16.0018 26.4945 16.0744C26.4835 16.1469 26.4567 16.2162 26.416 16.2773L27.9135 15.4308L27.1285 15.2348C27.0489 15.2148 26.9755 15.1756 26.9146 15.1206C26.8538 15.0656 26.8074 14.9964 26.7796 14.9193C26.7518 14.8421 26.7434 14.7593 26.7552 14.6781C26.7669 14.5969 26.7985 14.5199 26.847 14.4538L25.414 15.2043ZM31.5 27.4998C31.4138 27.4998 31.329 27.4774 31.254 27.4348L25.504 24.1848C25.4171 24.1355 25.3469 24.0614 25.3025 23.9719C25.2581 23.8824 25.2415 23.7816 25.2549 23.6826C25.2683 23.5836 25.3111 23.4909 25.3777 23.4164C25.4442 23.3419 25.5316 23.2891 25.6285 23.2648L26.772 22.9788L25.1465 21.3533C25.062 21.2687 25.0105 21.1567 25.0015 21.0375C24.9925 20.9184 25.0264 20.7999 25.0972 20.7036C25.168 20.6072 25.271 20.5395 25.3874 20.5126C25.5039 20.4856 25.6261 20.5013 25.732 20.5568L30.982 23.3068C31.0651 23.3509 31.134 23.4175 31.1809 23.4991C31.2278 23.5806 31.2507 23.6738 31.2471 23.7677C31.2434 23.8617 31.2133 23.9528 31.1602 24.0304C31.1072 24.1081 31.0333 24.1692 30.947 24.2068L29.8755 24.6658L31.8535 26.6438C31.9243 26.7135 31.9726 26.8028 31.9924 26.9002C32.0122 26.9977 32.0025 27.0987 31.9646 27.1906C31.9266 27.2825 31.8622 27.361 31.7794 27.416C31.6967 27.4711 31.5994 27.5002 31.5 27.4998ZM27.0865 23.9308L28.584 24.7773C28.5433 24.7162 28.5165 24.6469 28.5056 24.5744C28.4946 24.5018 28.4998 24.4277 28.5207 24.3574C28.5416 24.2871 28.5777 24.2222 28.6265 24.1674C28.6753 24.1126 28.7356 24.0692 28.803 24.0403L29.586 23.7043L28.153 22.9543C28.2016 23.0204 28.2331 23.0974 28.2449 23.1786C28.2566 23.2598 28.2482 23.3426 28.2204 23.4198C28.1926 23.4969 28.1462 23.5661 28.0854 23.6211C28.0245 23.6761 27.9511 23.7153 27.8715 23.7353L27.0865 23.9308Z" fill="currentColor"/>
</g>
<defs>
<clipPath id="clip0_21_8617">
<rect width="32" height="32" fill="currentColor" transform="translate(0 0.5)"/>
</clipPath>
</defs>
</svg>
