<svg width="32" height="33" viewBox="0 0 32 33" fill="none" xmlns="http://www.w3.org/2000/svg">
<path fill-rule="evenodd" clip-rule="evenodd" d="M23.8672 12.5527C23.8267 12.5528 23.7865 12.545 23.749 12.5295C23.7115 12.5141 23.6774 12.4914 23.6488 12.4627C23.6201 12.434 23.5974 12.4 23.5819 12.3625C23.5665 12.325 23.5586 12.2848 23.5588 12.2443C23.5588 12.0764 23.6958 11.9358 23.8672 11.9358C24.0351 11.9358 24.1756 12.0763 24.1756 12.2443C24.1756 12.4156 24.0351 12.5527 23.8672 12.5527ZM24.9877 12.2443C24.9877 11.7714 24.6896 11.3671 24.2715 11.2026V10.4796C24.2717 10.4264 24.2614 10.3738 24.2411 10.3246C24.2209 10.2755 24.1911 10.2308 24.1535 10.1932C24.1159 10.1556 24.0713 10.1259 24.0221 10.1056C23.973 10.0854 23.9203 10.075 23.8672 10.0752C23.641 10.0752 23.4594 10.2534 23.4594 10.4796V11.2026C22.511 11.5758 22.5138 12.9173 23.4594 13.2893V15.8489C23.4594 16.0716 23.641 16.2532 23.8672 16.2532C24.0899 16.2532 24.2715 16.0716 24.2715 15.8489V13.2893C24.6896 13.1249 24.9877 12.7205 24.9877 12.2443ZM26.0122 14.3893C25.8443 14.3893 25.7038 14.2523 25.7038 14.0809C25.7038 13.913 25.8443 13.7724 26.0122 13.7724C26.1835 13.7724 26.3206 13.9129 26.3206 14.0809C26.3208 14.1214 26.3129 14.1616 26.2974 14.1991C26.282 14.2366 26.2593 14.2706 26.2306 14.2993C26.2019 14.328 26.1679 14.3507 26.1304 14.3661C26.0929 14.3816 26.0527 14.3894 26.0122 14.3893ZM26.42 13.0392C27.3612 13.4018 27.3732 14.7509 26.42 15.1259V15.8489C26.42 16.0716 26.2384 16.2532 26.0122 16.2532C25.7895 16.2532 25.608 16.0716 25.608 15.8489V15.1259C24.6547 14.7509 24.6667 13.4018 25.608 13.0392V10.4796C25.6078 10.4264 25.6181 10.3738 25.6383 10.3246C25.6586 10.2755 25.6883 10.2308 25.7259 10.1933C25.7635 10.1557 25.8082 10.1259 25.8573 10.1056C25.9064 10.0854 25.9591 10.075 26.0122 10.0752C26.2384 10.0752 26.42 10.2534 26.42 10.4796V13.0392ZM21.7188 14.3893C21.6783 14.3894 21.6381 14.3816 21.6006 14.3661C21.5631 14.3507 21.529 14.328 21.5003 14.2993C21.4717 14.2707 21.449 14.2366 21.4335 14.1991C21.4181 14.1616 21.4102 14.1214 21.4104 14.0809C21.4104 13.913 21.5475 13.7724 21.7188 13.7724C21.8901 13.7724 22.0272 13.9129 22.0272 14.0809C22.0274 14.1214 22.0195 14.1616 22.0041 14.1991C21.9886 14.2366 21.9659 14.2706 21.9372 14.2993C21.9086 14.328 21.8745 14.3507 21.837 14.3661C21.7995 14.3816 21.7593 14.3894 21.7188 14.3893ZM22.1232 13.0392C23.0686 13.4034 23.0808 14.7492 22.1232 15.1259V15.8489C22.1233 15.9021 22.113 15.9547 22.0928 16.0039C22.0725 16.053 22.0427 16.0977 22.0051 16.1352C21.9675 16.1728 21.9229 16.2026 21.8738 16.2228C21.8246 16.2431 21.772 16.2534 21.7188 16.2532C21.4961 16.2532 21.3144 16.0716 21.3144 15.8489V15.1259C20.3568 14.7492 20.369 13.4034 21.3144 13.0392V10.4796C21.3143 10.4264 21.3246 10.3738 21.3448 10.3246C21.3651 10.2755 21.3949 10.2308 21.4324 10.1932C21.47 10.1556 21.5147 10.1259 21.5638 10.1056C21.613 10.0854 21.6656 10.075 21.7188 10.0752C21.945 10.0752 22.1232 10.2534 22.1232 10.4796V13.0392ZM9.96245 15.03C9.75688 15.03 9.58895 14.8622 9.58895 14.6565C9.58895 14.451 9.75688 14.283 9.96245 14.283C10.168 14.283 10.336 14.4509 10.336 14.6565C10.336 14.8621 10.168 15.03 9.96245 15.03ZM9.96245 13.4709C9.30799 13.4709 8.77685 14.0021 8.77685 14.6565C8.77685 15.311 9.30792 15.8421 9.96245 15.8421C10.6169 15.8421 11.148 15.311 11.148 14.6565C11.148 14.0021 10.6169 13.4709 9.96245 13.4709ZM6.69013 12.0935C6.48456 12.0935 6.31662 11.9256 6.31662 11.7166C6.31662 11.5111 6.4845 11.3431 6.69013 11.3431C6.8957 11.3431 7.06363 11.5111 7.06363 11.7166C7.06363 11.9256 6.8957 12.0935 6.69013 12.0935ZM6.69013 10.531C6.03566 10.531 5.50459 11.0622 5.50459 11.7166C5.50459 12.3711 6.03573 12.9022 6.69013 12.9022C7.34459 12.9022 7.87573 12.371 7.87573 11.7166C7.87573 11.0621 7.34459 10.531 6.69013 10.531ZM6.69013 15.03C6.48456 15.03 6.31662 14.8622 6.31662 14.6565C6.31662 14.451 6.4845 14.283 6.69013 14.283C6.8957 14.283 7.06363 14.4509 7.06363 14.6565C7.06363 14.8621 6.8957 15.03 6.69013 15.03ZM6.69013 13.4709C6.03566 13.4709 5.50459 14.0021 5.50459 14.6565C5.50459 15.311 6.03573 15.8421 6.69013 15.8421C7.34459 15.8421 7.87573 15.311 7.87573 14.6565C7.87573 14.0021 7.34459 13.4709 6.69013 13.4709ZM9.96245 12.0935C9.75688 12.0935 9.58895 11.9256 9.58895 11.7166C9.58895 11.5111 9.75688 11.3431 9.96245 11.3431C10.168 11.3431 10.336 11.5111 10.336 11.7166C10.336 11.9256 10.168 12.0935 9.96245 12.0935ZM9.96245 10.531C9.30799 10.531 8.77685 11.0622 8.77685 11.7166C8.77685 12.3711 9.30792 12.9022 9.96245 12.9022C10.6169 12.9022 11.148 12.371 11.148 11.7166C11.148 11.0621 10.6169 10.531 9.96245 10.531ZM18.3369 15.3487C18.3365 15.3886 18.3205 15.4267 18.2923 15.4549C18.2641 15.4831 18.2259 15.4991 18.1861 15.4995H13.8138C13.7351 15.4995 13.6665 15.4309 13.6665 15.3487V10.9765C13.6665 10.8977 13.7351 10.8292 13.8138 10.8292H18.1861C18.2683 10.8292 18.3369 10.8977 18.3369 10.9765V15.3487ZM18.1861 10.0171H13.8138C13.2862 10.0171 12.8544 10.4488 12.8544 10.9765V15.3487C12.8544 15.8798 13.2862 16.3115 13.8138 16.3115H18.1861C18.7172 16.3115 19.1489 15.8798 19.1489 15.3487V10.9765C19.1489 10.4488 18.7172 10.0171 18.1861 10.0171ZM28.5855 17.4354V9.50992C28.5855 9.42846 28.5695 9.34781 28.5383 9.27255C28.5072 9.19729 28.4615 9.12891 28.4039 9.07132C28.3463 9.01372 28.2779 8.96803 28.2026 8.93687C28.1274 8.90571 28.0467 8.88968 27.9653 8.88969H4.03458C3.69538 8.88969 3.41781 9.16726 3.41781 9.50992V17.4354H28.5855ZM27.9653 24.1068H26.3104V18.2475H28.5856V23.4901C28.5855 23.8293 28.308 24.1068 27.9653 24.1068ZM22.9078 24.1068V21.9653H23.3704C23.7987 21.9653 24.1448 21.6192 24.1448 21.1909V18.2475H25.4983V24.1068H22.9078ZM21.6674 21.1532H23.3327V18.2475H21.6674V21.1532ZM21.7976 24.1068H19.5052V18.2475H20.8553V21.1909C20.8553 21.6192 21.2048 21.9653 21.6331 21.9653H22.0957V24.1068H21.7976ZM16.531 21.1532H14.8623V18.2475H16.531V21.1532ZM16.5653 21.9653H16.1027V24.1068H18.6932V18.2475H17.3431V21.1909C17.3431 21.6192 16.9936 21.9653 16.5653 21.9653ZM14.8829 24.1068H15.2906V21.9653H14.828C14.3997 21.9653 14.0536 21.6192 14.0536 21.1909V18.2475H12.7002V21.1909C12.7002 21.6192 12.3507 21.9653 11.9258 21.9653H11.4598V24.1068H14.8829ZM7.24866 21.1532H5.57992V18.2475H7.24866V21.1532ZM10.1852 21.9653C9.76027 21.9653 9.41077 21.6192 9.41077 21.1909V18.2475H8.06075V21.1909C8.06075 21.6192 7.71125 21.9653 7.2829 21.9653H6.8203V24.1068H10.6512V21.9653H10.1852ZM10.2229 21.1532V18.2475H11.8881V21.1532H10.2229ZM5.74786 24.1068H6.00827V21.9653H5.54568C5.11739 21.9653 4.76789 21.6192 4.76789 21.1909V18.2475H3.41781V23.4901C3.41781 23.8293 3.67822 24.1068 4.00034 24.1068H5.74786ZM27.9653 8.08105H4.03458C3.24648 8.08105 2.60571 8.72182 2.60571 9.50992V23.4901C2.60571 24.2782 3.22933 24.9189 4.00027 24.9189H27.9653C28.7534 24.9189 29.3941 24.2782 29.3941 23.4901V9.50992C29.3942 8.72182 28.7534 8.08105 27.9653 8.08105Z" fill="white"/>
</svg>
