<svg width="32" height="32" viewBox="0 0 32 32" fill="none" xmlns="http://www.w3.org/2000/svg">
<path d="M7.63702 21.0821C7.42374 20.8683 7.07702 20.8683 6.86374 21.0821C6.64991 21.2954 6.64991 21.6421 6.86374 21.8554C7.07702 22.0692 7.42374 22.0692 7.63702 21.8554C7.85084 21.6421 7.85084 21.2954 7.63702 21.0821ZM16.0003 16.5469C13.2864 16.5469 11.0785 18.7548 11.0785 21.4687C11.0785 24.1826 13.2864 26.3906 16.0003 26.3906C18.7142 26.3906 20.9222 24.1826 20.9222 21.4687C20.9222 18.7548 18.7142 16.5469 16.0003 16.5469ZM16.0003 25.2968C13.8895 25.2968 12.1722 23.5795 12.1722 21.4687C12.1722 19.3579 13.8895 17.6406 16.0003 17.6406C18.1111 17.6406 19.8284 19.3579 19.8284 21.4687C19.8284 23.5795 18.1111 25.2968 16.0003 25.2968Z" fill="currentColor"/>
<path d="M28.3594 16.5468H26.7188V6.28097L28.7884 5.52776C29.6317 5.22146 30.0807 4.28406 29.7691 3.42498C29.4595 2.57498 28.5162 2.13519 27.6666 2.44472L26.7188 2.78963V2.54687C26.7188 2.24483 26.474 2 26.172 2C25.87 2 25.6251 2.24483 25.6251 2.54687V3.1877L23.5555 3.9409C22.7122 4.24721 22.2632 5.1846 22.5748 6.04368C22.8849 6.89505 23.829 7.33298 24.6773 7.02395L25.6251 6.67904V16.5468H21.4688C21.3633 16.5468 21.2596 16.5572 21.158 16.5767C20.2051 15.5732 18.9797 14.8674 17.6407 14.55V12.1718H18.1232L18.5904 13.1732C18.9685 13.9854 19.9392 14.355 20.7703 13.9674L22.7533 13.0425C23.5728 12.6602 23.9287 11.6822 23.5466 10.8622L22.1599 7.88921C21.7772 7.06715 20.8019 6.71168 19.98 7.09504L17.997 8.01986C17.1775 8.40223 16.8216 9.3802 17.2037 10.2002L17.613 11.0781H14.3873L14.7967 10.2C15.1788 9.3802 14.8229 8.40217 14.0033 8.0198L12.0204 7.09504C11.1992 6.7119 10.2233 7.06671 9.84053 7.88893L8.45371 10.8624C8.07162 11.6822 8.42752 12.6602 9.24706 13.0426L11.23 13.9674C12.0506 14.3502 13.0267 13.9965 13.4098 13.1736L13.877 12.1718H14.3595V14.5503C13.5556 14.7402 12.7913 15.0697 12.1013 15.5238C11.8968 14.8507 11.2705 14.3593 10.5314 14.3593H6.37516V6.67904L7.32344 7.02411C8.18876 7.33807 9.12128 6.8781 9.42545 6.04362C9.73558 5.19187 9.29748 4.25054 8.44507 3.94096L6.37516 3.18764V2.54687C6.37516 2.24483 6.13027 2 5.82829 2C5.52631 2 5.28142 2.24483 5.28142 2.54687V2.78968L4.33314 2.44461C3.46783 2.13065 2.5353 2.59057 2.23119 3.42504C1.92106 4.27679 2.35916 5.21812 3.21157 5.52771L5.28147 6.28102V14.3593H3.64086C2.73622 14.3593 2.00024 15.0953 2.00024 15.9999V22.5624C2.00024 23.467 2.73622 24.203 3.64086 24.203H6.70334V28.0213L4.81817 28.9638C4.54801 29.0989 4.43853 29.4274 4.57355 29.6976C4.70885 29.9682 5.03773 30.077 5.30723 29.9421L7.25016 28.9707L9.19308 29.9421C9.46893 30.0801 9.80667 29.9626 9.93541 29.6794L11.2605 26.766C12.5566 27.9255 14.2433 28.578 16.0001 28.578C17.757 28.578 19.4438 27.9254 20.7397 26.766L22.0648 29.6794C22.1934 29.9624 22.5311 30.0802 22.8071 29.9421L24.75 28.9707C26.7519 29.9496 26.7093 30 26.9371 30C27.0387 30.0001 27.1383 29.9718 27.2248 29.9184C27.3113 29.865 27.3812 29.7885 27.4266 29.6976C27.5617 29.4274 27.4522 29.0989 27.182 28.9638L25.2968 28.0213V23.1093H28.3593C29.2639 23.1093 29.9999 22.3733 29.9999 21.4686V18.1874C30 17.2828 29.264 16.5468 28.3594 16.5468ZM21.8618 9.83766L22.5553 11.3244C22.6827 11.5978 22.564 11.9239 22.2909 12.0513L20.3079 12.9762C20.0342 13.104 19.7093 12.9853 19.5817 12.7111L18.8881 11.2244L21.8618 9.83766ZM18.4592 9.01106L20.4422 8.08625C20.5073 8.05588 20.5777 8.03864 20.6495 8.03552C20.7212 8.0324 20.7928 8.04346 20.8603 8.06807C20.9277 8.09267 20.9897 8.13034 21.0426 8.17892C21.0954 8.22749 21.1382 8.28602 21.1684 8.35115L21.3994 8.84645L18.4258 10.2332L18.1949 9.73802C18.0675 9.46464 18.1861 9.13848 18.4592 9.01106ZM12.4184 12.7115C12.2908 12.9853 11.966 13.1038 11.6922 12.9761L9.70933 12.0513C9.43617 11.9239 9.31755 11.5978 9.44492 11.3245L10.1385 9.83766L13.112 11.2244L12.4184 12.7115ZM13.8053 9.73796L13.5743 10.2332L10.6007 8.84651L10.8319 8.35088C10.9589 8.07821 11.2832 7.95806 11.558 8.0863L13.5409 9.01106C13.8141 9.13854 13.9327 9.46464 13.8053 9.73796ZM24.3032 5.99621C24.0199 6.09935 23.7057 5.95273 23.6027 5.67C23.4973 5.37989 23.6515 5.0697 23.9292 4.96886L26.359 4.08457L28.0407 3.47256C28.324 3.36942 28.6382 3.51609 28.7411 3.79877C28.8466 4.08889 28.6923 4.39907 28.4146 4.49992L24.3032 5.99621ZM15.4532 12.1718H16.547V14.3812C16.1829 14.3537 15.8173 14.3537 15.4532 14.3812V12.1718ZM3.58524 4.49975C3.30147 4.39672 3.15551 4.0832 3.25887 3.79948C3.36031 3.52118 3.67028 3.36767 3.95963 3.47256L8.07134 4.96897C8.35511 5.072 8.50107 5.38552 8.39777 5.66929C8.29632 5.94759 7.98636 6.1011 7.69701 5.99621L3.58524 4.49975ZM3.09393 15.9999C3.09393 15.6984 3.33926 15.453 3.6408 15.453H10.5314C10.8329 15.453 11.0783 15.6984 11.0783 15.9999V16.3399C11.0078 16.4073 10.9388 16.4763 10.8713 16.5468H3.09393V15.9999ZM3.6408 23.1093C3.33926 23.1093 3.09393 22.8639 3.09393 22.5624V22.0155H5.06267C5.36465 22.0155 5.60954 21.7707 5.60954 21.4686C5.60954 21.1666 5.36465 20.9218 5.06267 20.9218H3.09393V17.6405H10.0092C9.28233 18.7759 8.89077 20.101 8.89077 21.4686C8.89041 22.021 8.95433 22.5716 9.08125 23.1093H3.6408ZM9.17471 28.7101L7.79703 28.0213V24.203H9.43628C9.69161 24.8166 10.0324 25.3911 10.4486 25.9092L9.17471 28.7101ZM16.0001 27.4842C12.6945 27.4842 9.98452 24.8044 9.98452 21.4686C9.98452 18.5331 12.1099 16.0206 14.9968 15.5363C15.3284 15.4809 15.664 15.453 16.0001 15.453C16.3365 15.453 16.674 15.481 17.0033 15.5363C19.1398 15.8951 20.945 17.4002 21.6734 19.4632L21.6734 19.4633C21.9005 20.1061 22.0157 20.7808 22.0157 21.4686C22.0157 24.7954 19.315 27.4842 16.0001 27.4842ZM24.2032 28.0213L22.8255 28.7101L21.5511 25.9081C22.2104 25.0857 22.677 24.1311 22.9185 23.1093H24.2032V28.0213ZM28.9063 21.4686C28.9063 21.7702 28.661 22.0155 28.3594 22.0155H23.0877C23.1016 21.8336 23.1094 21.651 23.1094 21.4686C23.1094 20.9124 23.0455 20.3631 22.919 19.828H28.9063V21.4686ZM28.9063 18.7343H22.5641C22.4059 18.3537 22.2147 17.9877 21.9925 17.6405H28.3594C28.661 17.6405 28.9063 17.8859 28.9063 18.1874V18.7343Z" fill="currentColor"/>
</svg>
