<svg width="20" height="15" viewBox="0 0 20 15" fill="none" xmlns="http://www.w3.org/2000/svg">
<path d="M14.1673 10.0026C14.1673 7.70505 12.2982 5.83594 10.0007 5.83594C8.87826 5.83594 7.85977 6.28438 7.10982 7.00885C7.09107 7.02469 7.07055 7.0375 7.05305 7.055C7.03555 7.0725 7.02273 7.09266 7.00727 7.11135C6.28242 7.8613 5.83398 8.88021 5.83398 10.0026C5.83398 12.3002 7.7031 14.1693 10.0007 14.1693C12.2982 14.1693 14.1673 12.3002 14.1673 10.0026ZM7.50065 10.0026C7.50065 9.61729 7.5906 9.25349 7.74685 8.9276L9.41143 10.5922C9.57404 10.7547 9.78721 10.8359 10.0007 10.8359C10.2141 10.8359 10.4269 10.7547 10.5899 10.5918C10.9152 10.2663 10.9152 9.73891 10.5899 9.41339L8.92523 7.7488C9.25154 7.59255 9.61534 7.5026 10.0007 7.5026C11.3795 7.5026 12.5007 8.6238 12.5007 10.0026C12.5007 11.3814 11.3795 12.5026 10.0007 12.5026C8.62185 12.5026 7.50065 11.3814 7.50065 10.0026Z" fill="currentColor"/>
<path d="M17.0714 2.92906C17.0567 2.91464 17.04 2.90427 17.0245 2.89083C15.2171 1.1049 12.7354 0 10 0C7.2638 0 4.78125 1.10536 2.97422 2.89245C2.95964 2.90547 2.94333 2.91547 2.92906 2.92906C2.915 2.94333 2.90547 2.95917 2.89245 2.97422C1.10536 4.7813 0 7.2638 0 10C0 10.46 0.373333 10.8333 0.833333 10.8333H2.5C2.96 10.8333 3.33333 10.46 3.33333 10C3.33333 9.54 2.96 9.16667 2.5 9.16667H1.70797C1.875 7.49328 2.54495 5.96927 3.55589 4.73411L4.10745 5.28583C4.18468 5.36341 4.27651 5.42493 4.37764 5.46684C4.47877 5.50875 4.5872 5.53021 4.69667 5.53C4.91005 5.53 5.12328 5.4488 5.28583 5.28583C5.61115 4.96031 5.61115 4.43297 5.28583 4.10745L4.73448 3.5563C5.96922 2.54536 7.49333 1.87661 9.16667 1.70958V2.5C9.16667 2.96 9.54 3.33333 10 3.33333C10.46 3.33333 10.8333 2.96 10.8333 2.5V1.70958C12.5067 1.87661 14.0307 2.54536 15.2655 3.5563L14.7142 4.10745C14.3889 4.43297 14.3889 4.96031 14.7142 5.28625C14.7914 5.3638 14.8832 5.42529 14.9844 5.4672C15.0855 5.5091 15.1939 5.53059 15.3033 5.53042C15.5168 5.53042 15.7296 5.44922 15.8926 5.28667L16.4441 4.7349C17.4551 5.96927 18.125 7.49328 18.2916 9.16667H17.5C17.04 9.16667 16.6667 9.54 16.6667 10C16.6667 10.46 17.04 10.8333 17.5 10.8333H19.1667C19.6267 10.8333 20 10.46 20 10C20 7.26458 18.8951 4.78292 17.1092 2.97589C17.0961 2.96042 17.0857 2.94375 17.0714 2.92906Z" fill="currentColor"/>
</svg>
