<svg width="18" height="16" viewBox="0 0 18 16" fill="none" xmlns="http://www.w3.org/2000/svg">
<path d="M5.2508 10.2603C5.40601 10.4142 5.61551 10.501 5.83413 10.5019C5.94439 10.5015 6.05345 10.4791 6.15502 10.4362C6.25658 10.3933 6.34862 10.3307 6.4258 10.2519C6.58101 10.0958 6.66812 9.88459 6.66812 9.66444C6.66812 9.44428 6.58101 9.23307 6.4258 9.07694L3.63413 6.33527H9.16746C10.9356 6.33527 12.6313 7.03765 13.8815 8.28789C15.1318 9.53813 15.8341 11.2338 15.8341 13.0019V14.6686C15.8341 14.8896 15.9219 15.1016 16.0782 15.2579C16.2345 15.4141 16.4465 15.5019 16.6675 15.5019C16.8885 15.5019 17.1004 15.4141 17.2567 15.2579C17.413 15.1016 17.5008 14.8896 17.5008 14.6686V13.0019C17.5008 10.7918 16.6228 8.67218 15.06 7.10938C13.4972 5.54658 11.3776 4.6686 9.16746 4.6686H3.6508L6.41746 1.92694C6.55519 1.7685 6.62805 1.56392 6.62147 1.35409C6.61489 1.14426 6.52936 0.944642 6.38197 0.795147C6.23458 0.645653 6.0362 0.557296 5.82648 0.54774C5.61677 0.538183 5.41117 0.608133 5.2508 0.743603L1.0258 4.91027C0.947689 4.98774 0.885693 5.07991 0.843386 5.18146C0.801079 5.283 0.779297 5.39193 0.779297 5.50194C0.779297 5.61195 0.801079 5.72087 0.843386 5.82242C0.885693 5.92397 0.947689 6.01613 1.0258 6.0936L5.2508 10.2603Z" fill="white"/>
</svg>
