<svg width="20" height="20" viewBox="0 0 20 20" fill="none" xmlns="http://www.w3.org/2000/svg">
<path d="M0.373832 8.46701C0.274685 8.46701 0.1796 8.5064 0.109493 8.57651C0.0393857 8.64661 0 8.7417 0 8.84084L0 11.1586C0 11.2577 0.0393857 11.3528 0.109493 11.4229C0.1796 11.493 0.274685 11.5324 0.373832 11.5324C0.472978 11.5324 0.568064 11.493 0.638171 11.4229C0.708278 11.3528 0.747663 11.2577 0.747663 11.1586V8.84084C0.747663 8.7417 0.708278 8.64661 0.638171 8.57651C0.568064 8.5064 0.472978 8.46701 0.373832 8.46701ZM1.85421 6.57916C1.75506 6.57916 1.65997 6.61855 1.58987 6.68865C1.51976 6.75876 1.48037 6.85385 1.48037 6.95299V13.0465C1.48037 13.1456 1.51976 13.2407 1.58987 13.3108C1.65997 13.3809 1.75506 13.4203 1.85421 13.4203C1.95335 13.4203 2.04844 13.3809 2.11854 13.3108C2.18865 13.2407 2.22804 13.1456 2.22804 13.0465V6.95299C2.22804 6.85385 2.18865 6.75876 2.11854 6.68865C2.04844 6.61855 1.95335 6.57916 1.85421 6.57916ZM3.33458 7.23337C3.23543 7.23337 3.14035 7.27275 3.07024 7.34286C3.00013 7.41297 2.96075 7.50805 2.96075 7.6072V12.3922C2.96075 12.4914 3.00013 12.5865 3.07024 12.6566C3.14035 12.7267 3.23543 12.7661 3.33458 12.7661C3.43373 12.7661 3.52881 12.7267 3.59892 12.6566C3.66903 12.5865 3.70841 12.4914 3.70841 12.3922V7.6072C3.70841 7.50805 3.66903 7.41297 3.59892 7.34286C3.52881 7.27275 3.43373 7.23337 3.33458 7.23337ZM4.81495 8.46701C4.71581 8.46701 4.62072 8.5064 4.55061 8.57651C4.48051 8.64661 4.44112 8.7417 4.44112 8.84084V11.1586C4.44112 11.2577 4.48051 11.3528 4.55061 11.4229C4.62072 11.493 4.71581 11.5324 4.81495 11.5324C4.9141 11.5324 5.00918 11.493 5.07929 11.4229C5.1494 11.3528 5.18878 11.2577 5.18878 11.1586V8.84084C5.18878 8.7417 5.1494 8.64661 5.07929 8.57651C5.00918 8.5064 4.9141 8.46701 4.81495 8.46701ZM6.29907 5.21094C6.19992 5.21094 6.10483 5.25032 6.03473 5.32043C5.96462 5.39054 5.92523 5.48562 5.92523 5.58477V14.4147C5.92523 14.5138 5.96462 14.6089 6.03473 14.679C6.10483 14.7491 6.19992 14.7885 6.29907 14.7885C6.39821 14.7885 6.4933 14.7491 6.5634 14.679C6.63351 14.6089 6.6729 14.5138 6.6729 14.4147V5.58477C6.6729 5.48562 6.63351 5.39054 6.5634 5.32043C6.4933 5.25032 6.39821 5.21094 6.29907 5.21094ZM7.77944 7.03524C7.68029 7.03524 7.58521 7.07462 7.5151 7.14473C7.44499 7.21484 7.40561 7.30992 7.40561 7.40907V12.5904C7.40561 12.6895 7.44499 12.7846 7.5151 12.8547C7.58521 12.9248 7.68029 12.9642 7.77944 12.9642C7.87858 12.9642 7.97367 12.9248 8.04378 12.8547C8.11388 12.7846 8.15327 12.6895 8.15327 12.5904V7.40907C8.15327 7.30992 8.11388 7.21484 8.04378 7.14473C7.97367 7.07462 7.87858 7.03524 7.77944 7.03524ZM9.25234 7.65954C9.15319 7.65954 9.0581 7.69892 8.988 7.76903C8.91789 7.83914 8.8785 7.93422 8.8785 8.03337V11.9661C8.8785 12.0652 8.91789 12.1603 8.988 12.2304C9.0581 12.3005 9.15319 12.3399 9.25234 12.3399C9.35148 12.3399 9.44657 12.3005 9.51667 12.2304C9.58678 12.1603 9.62617 12.0652 9.62617 11.9661V8.03337C9.62617 7.93422 9.58678 7.83914 9.51667 7.76903C9.44657 7.69892 9.35148 7.65954 9.25234 7.65954ZM10.7477 8.46701C10.6485 8.46701 10.5534 8.5064 10.4833 8.57651C10.4132 8.64661 10.3738 8.7417 10.3738 8.84084V11.1586C10.3738 11.2577 10.4132 11.3528 10.4833 11.4229C10.5534 11.493 10.6485 11.5324 10.7477 11.5324C10.8468 11.5324 10.9419 11.493 11.012 11.4229C11.0821 11.3528 11.1215 11.2577 11.1215 11.1586V8.84084C11.1215 8.7417 11.0821 8.64661 11.012 8.57651C10.9419 8.5064 10.8468 8.46701 10.7477 8.46701ZM12.2206 7.65954C12.1214 7.65954 12.0263 7.69892 11.9562 7.76903C11.8861 7.83914 11.8467 7.93422 11.8467 8.03337V11.9661C11.8467 12.0652 11.8861 12.1603 11.9562 12.2304C12.0263 12.3005 12.1214 12.3399 12.2206 12.3399C12.3197 12.3399 12.4148 12.3005 12.4849 12.2304C12.555 12.1603 12.5944 12.0652 12.5944 11.9661V8.03337C12.5944 7.93422 12.555 7.83914 12.4849 7.76903C12.4148 7.69892 12.3197 7.65954 12.2206 7.65954ZM13.7009 7.03524C13.6018 7.03524 13.5067 7.07462 13.4366 7.14473C13.3665 7.21484 13.3271 7.30992 13.3271 7.40907V12.5904C13.3271 12.6895 13.3665 12.7846 13.4366 12.8547C13.5067 12.9248 13.6018 12.9642 13.7009 12.9642C13.8001 12.9642 13.8952 12.9248 13.9653 12.8547C14.0354 12.7846 14.0748 12.6895 14.0748 12.5904V7.40907C14.0748 7.30992 14.0354 7.21484 13.9653 7.14473C13.8952 7.07462 13.8001 7.03524 13.7009 7.03524ZM15.185 5.21094C15.0859 5.21094 14.9908 5.25032 14.9207 5.32043C14.8506 5.39054 14.8112 5.48562 14.8112 5.58477V14.4147C14.8112 14.5138 14.8506 14.6089 14.9207 14.679C14.9908 14.7491 15.0859 14.7885 15.185 14.7885C15.2842 14.7885 15.3793 14.7491 15.4494 14.679C15.5195 14.6089 15.5589 14.5138 15.5589 14.4147V5.58477C15.5589 5.48562 15.5195 5.39054 15.4494 5.32043C15.3793 5.25032 15.2842 5.21094 15.185 5.21094ZM16.6654 7.23337C16.5663 7.23337 16.4712 7.27275 16.4011 7.34286C16.331 7.41297 16.2916 7.50805 16.2916 7.6072V12.3922C16.2916 12.4914 16.331 12.5865 16.4011 12.6566C16.4712 12.7267 16.5663 12.7661 16.6654 12.7661C16.7646 12.7661 16.8597 12.7267 16.9298 12.6566C16.9999 12.5865 17.0393 12.4914 17.0393 12.3922V7.6072C17.0393 7.50805 16.9999 7.41297 16.9298 7.34286C16.8597 7.27275 16.7646 7.23337 16.6654 7.23337ZM18.1458 8.46701C18.0466 8.46701 17.9516 8.5064 17.8815 8.57651C17.8113 8.64661 17.772 8.7417 17.772 8.84084V11.1586C17.772 11.2577 17.8113 11.3528 17.8815 11.4229C17.9516 11.493 18.0466 11.5324 18.1458 11.5324C18.2449 11.5324 18.34 11.493 18.4101 11.4229C18.4802 11.3528 18.5196 11.2577 18.5196 11.1586V8.84084C18.5196 8.7417 18.4802 8.64661 18.4101 8.57651C18.34 8.5064 18.2449 8.46701 18.1458 8.46701ZM19.6262 8.46701C19.527 8.46701 19.4319 8.5064 19.3618 8.57651C19.2917 8.64661 19.2523 8.7417 19.2523 8.84084V11.1586C19.2523 11.2577 19.2917 11.3528 19.3618 11.4229C19.4319 11.493 19.527 11.5324 19.6262 11.5324C19.7253 11.5324 19.8204 11.493 19.8905 11.4229C19.9606 11.3528 20 11.2577 20 11.1586V8.84084C20 8.7417 19.9606 8.64661 19.8905 8.57651C19.8204 8.5064 19.7253 8.46701 19.6262 8.46701Z" fill="white"/>
</svg>
