<svg width="20" height="20" viewBox="0 0 20 20" fill="none" xmlns="http://www.w3.org/2000/svg">
<g clip-path="url(#clip0_71_9533)">
<path d="M11.4585 7.75134C10.6429 6.93853 9.97978 5.98593 9.5007 4.93884C9.20109 5.20759 6.88351 7.9779 6.56555 8.38455C6.23351 8.79001 3.9382 11.7654 3.79836 12.026C3.56633 12.4498 3.56398 13.0826 3.80578 13.4689C4.21711 14.1 4.75552 14.6385 5.38664 15.0498C5.77297 15.2912 6.40578 15.2892 6.82961 15.0572C7.09016 14.9174 10.0655 12.622 10.471 12.29C10.8425 11.9998 13.1859 10.0412 13.7937 9.47751C12.9327 9.02317 12.1454 8.4412 11.4585 7.75134ZM10.057 9.84705L8.69719 11.2068C8.62829 11.2759 8.54644 11.3308 8.45632 11.3682C8.3662 11.4057 8.26958 11.425 8.17199 11.4251C8.07439 11.4251 7.97775 11.4059 7.88758 11.3686C7.79741 11.3313 7.71549 11.2765 7.64651 11.2075C7.57752 11.1385 7.52283 11.0565 7.48557 10.9663C7.4483 10.8761 7.42918 10.7794 7.42932 10.6818C7.42946 10.5843 7.44884 10.4876 7.48636 10.3976C7.52388 10.3075 7.57879 10.2257 7.64797 10.1568L9.00773 8.79705C9.14812 8.66414 9.33483 8.59125 9.52814 8.59389C9.72145 8.59654 9.90609 8.67451 10.0428 8.81121C10.1795 8.94791 10.2575 9.13255 10.2601 9.32586C10.2627 9.51917 10.1899 9.70587 10.057 9.84626V9.84705ZM17.5937 7.34705C18.083 6.8579 18.4471 6.25801 18.6553 5.5982C18.8634 4.93839 18.9094 4.23812 18.7893 3.55676C18.6693 2.8754 18.3867 2.23302 17.9656 1.68408C17.5445 1.13515 16.9972 0.695835 16.3702 0.403382C15.7432 0.110929 15.0549 -0.0260414 14.3637 0.00408131C13.6725 0.034204 12.9988 0.230532 12.3996 0.576422C11.8004 0.922313 11.2934 1.40757 10.9217 1.99106C10.5499 2.57455 10.3243 3.23907 10.264 3.9283C11.0334 5.96707 12.5465 7.63873 14.4987 8.60681C15.0727 8.61462 15.6423 8.50714 16.1739 8.29075C16.7056 8.07435 17.1883 7.75345 17.5937 7.34705ZM8.65383 18.7338L8.17961 18.2599C7.6423 17.7238 6.91425 17.4227 6.15519 17.4227C5.39614 17.4227 4.66809 17.7238 4.13078 18.2599C3.96503 18.4206 3.74277 18.5096 3.51197 18.5077C3.28117 18.5059 3.06034 18.4134 2.89714 18.2502C2.73393 18.087 2.64144 17.8662 2.63962 17.6354C2.63781 17.4046 2.72681 17.1823 2.88742 17.0166L3.0675 16.8365C3.32375 16.9963 3.74289 16.9951 4.02414 16.8412C4.12062 16.7892 4.78156 16.2896 5.39133 15.8209C5.25903 15.7774 5.13236 15.7184 5.01398 15.6451L5.00656 15.6404C4.64889 15.4096 4.31716 15.1408 4.01711 14.8388V14.8369C3.71505 14.5371 3.4463 14.2054 3.21555 13.8478L3.21086 13.8404C3.13773 13.7218 3.07873 13.595 3.03508 13.4627C2.56633 14.0732 2.06672 14.7342 2.01477 14.8299C1.86086 15.1111 1.85852 15.5302 2.01945 15.7865L1.83664 15.9674C1.39349 16.4105 1.14453 17.0115 1.14453 17.6383C1.14453 18.265 1.39349 18.866 1.83664 19.3092C2.27979 19.7523 2.88083 20.0013 3.50754 20.0013C4.13425 20.0013 4.73529 19.7523 5.17844 19.3092C5.43725 19.0508 5.78797 18.9058 6.15363 18.9058C6.51929 18.9058 6.87002 19.0508 7.12883 19.3092L7.60305 19.7834C7.67147 19.8545 7.75338 19.9112 7.844 19.9503C7.93461 19.9894 8.0321 20.01 8.13078 20.0109C8.22945 20.0118 8.32732 19.9931 8.41866 19.9558C8.51 19.9184 8.59298 19.8632 8.66274 19.7935C8.73251 19.7237 8.78765 19.6407 8.82495 19.5493C8.86226 19.458 8.88097 19.3601 8.87999 19.2614C8.87901 19.1627 8.85837 19.0653 8.81927 18.9747C8.78017 18.8841 8.72339 18.8022 8.65227 18.7338H8.65383Z" fill="white"/>
</g>
<defs>
<clipPath id="clip0_71_9533">
<rect width="20" height="20" fill="white"/>
</clipPath>
</defs>
</svg>
