<svg width="512" height="512" viewBox="0 0 512 512" fill="none" xmlns="http://www.w3.org/2000/svg">
<path fill-rule="evenodd" clip-rule="evenodd" d="M102.053 183.051V328.947C102.053 341.877 78.3692 341.877 78.3692 328.947V183.051C78.3692 170.124 102.053 170.124 102.053 183.051ZM149.422 142.551V369.45C149.422 382.377 125.737 382.377 125.737 369.45V142.551C125.737 129.624 149.422 129.624 149.422 142.551ZM196.79 222.287V289.713C196.79 302.641 173.106 302.641 173.106 289.713V222.284C173.106 209.357 196.79 209.36 196.79 222.287ZM244.158 180.47V331.533C244.158 344.458 220.474 344.458 220.474 331.533V180.47C220.474 167.543 244.158 167.543 244.158 180.47ZM291.526 99.9425V412.058C291.526 424.985 267.845 424.985 267.845 412.058V99.9425C267.845 87.0153 291.526 87.0153 291.526 99.9425ZM338.894 142.574V369.426C338.894 382.353 315.21 382.353 315.21 369.426V142.574C315.21 129.647 338.894 129.647 338.894 142.574ZM386.263 213.131V298.87C386.263 311.797 362.578 311.797 362.578 298.87V213.131C362.578 200.203 386.263 200.203 386.263 213.131ZM433.634 183.06V328.941C433.634 341.868 409.95 341.868 409.95 328.941V183.06C409.95 170.133 433.634 170.133 433.634 183.06ZM481.002 213.107V298.894C481.002 311.821 457.318 311.821 457.318 298.894V213.107C457.318 200.18 481.002 200.18 481.002 213.107ZM54.6851 213.107V298.894C54.6851 311.821 31.001 311.821 31.001 298.894V213.107C31.001 200.18 54.6822 200.18 54.6822 213.107H54.6851Z" fill="currentColor"/>
</svg>
