<svg width="20" height="20" viewBox="0 0 20 20" fill="" xmlns="http://www.w3.org/2000/svg">
<g clip-path="url(#clip0_33_3837)">
<path d="M16.0481 3.3875C15.5384 3.3875 15.1238 3.80309 15.1238 4.31395V15.6861C15.1704 16.9155 16.9296 16.9111 16.976 15.6861V4.31395C16.976 3.80312 16.5598 3.3875 16.0481 3.3875ZM10 3.3875C9.48836 3.3875 9.07215 3.80309 9.07215 4.31395V15.6861C9.11891 16.9138 10.8816 16.9128 10.9279 15.6861V4.31395C10.9279 3.80312 10.5116 3.3875 10 3.3875ZM13.024 6.775C12.5144 6.775 12.0998 7.19059 12.0998 7.70145V12.2986C12.1464 13.5281 13.9056 13.5235 13.9519 12.2986V7.70145C13.9519 7.19059 13.5357 6.775 13.024 6.775ZM19.0721 8.46879C18.5625 8.46879 18.1479 8.88438 18.1479 9.39524V10.6048C18.1945 11.8343 19.9537 11.8298 20 10.6048V9.39524C20 8.88438 19.5838 8.46879 19.0721 8.46879ZM0.927891 8.46879C0.41625 8.46879 0 8.88437 0 9.3952V10.6048C0.0467969 11.8307 1.80598 11.8334 1.85215 10.6048V9.3952C1.85215 8.88437 1.43754 8.46879 0.927891 8.46879ZM3.95191 5.08125C3.44027 5.08125 3.02402 5.49684 3.02402 6.0077V13.9923C3.07082 15.2182 4.83004 15.2208 4.87625 13.9923V6.0077C4.87625 5.49684 4.4616 5.08125 3.95191 5.08125ZM6.97598 0C6.46434 0 6.04813 0.415586 6.04813 0.926445V19.0736C6.09488 20.2995 7.85406 20.3021 7.90027 19.0736V0.926445C7.90027 0.415586 7.48563 0 6.97598 0Z" fill=""/>
</g>
<defs>
<clipPath id="clip0_33_3837">
<rect width="20" height="20" fill="white"/>
</clipPath>
</defs>
</svg>
